G04*
G04 #@! TF.GenerationSoftware,Altium Limited,Altium Designer,26.8.1 (31)*
G04*
G04 Layer_Physical_Order=1*
G04 Layer_Color=255*
G04 Board_Origin=10000000|10000000*
%FSLAX25Y25*%
%MOIN*%
G70*
G04*
G04 #@! TF.SameCoordinates,21F914C3-012E-473F-99CC-7E58DD77D828*
G04*
G04*
G04 #@! TF.FilePolarity,Positive*
G04*
G01*
G75*
%ADD13C,0.01000*%
%ADD19R,0.04409X0.05394*%
%ADD20R,0.04803X0.10709*%
%ADD21R,0.05472X0.03583*%
%ADD22R,0.07000X0.01400*%
%ADD23R,0.03583X0.05472*%
%ADD24R,0.05512X0.03740*%
%ADD25R,0.05000X0.16000*%
%ADD26C,0.09055*%
%ADD27R,0.05200X0.05200*%
%ADD28C,0.05118*%
%ADD29C,0.10039*%
%ADD30C,0.05100*%
%ADD31R,0.05100X0.05100*%
%ADD32C,0.05200*%
%ADD33C,0.01968*%
%ADD34C,0.02362*%
G36*
X338583Y1969D02*
X1969D01*
Y385827D01*
X156229D01*
Y371303D01*
X158210D01*
Y370282D01*
X155089Y367161D01*
X66319D01*
X65913Y367567D01*
X65295Y367823D01*
X64626D01*
X64008Y367567D01*
X63535Y367094D01*
X63279Y366476D01*
Y365807D01*
X62540Y364980D01*
X47032D01*
X46641Y364903D01*
X46310Y364682D01*
X36681Y355052D01*
X36460Y354721D01*
X36382Y354331D01*
Y324803D01*
Y317352D01*
X34712Y315682D01*
X34491Y315351D01*
X34413Y314961D01*
Y305540D01*
X30775Y301902D01*
X30554Y301571D01*
X30476Y301181D01*
Y281496D01*
X30554Y281106D01*
X30775Y280775D01*
X34712Y276838D01*
X35043Y276617D01*
X35433Y276539D01*
X39370D01*
X39760Y276617D01*
X40091Y276838D01*
X45107Y281854D01*
X57035D01*
Y280815D01*
X61535D01*
Y279815D01*
X57035D01*
Y278615D01*
X57535D01*
Y276556D01*
X60659D01*
X60956Y276358D01*
X61535Y276243D01*
X65432D01*
X65432Y276243D01*
X66011Y276358D01*
X66502Y276686D01*
X67655Y277839D01*
X67655Y277839D01*
X67983Y278330D01*
X68098Y278909D01*
Y293110D01*
Y310521D01*
Y325875D01*
Y333675D01*
X75430Y341006D01*
X117483D01*
X120970Y337520D01*
X120970Y337520D01*
X121461Y337192D01*
X122040Y337076D01*
X256361D01*
Y285641D01*
X233671Y262951D01*
X233264Y263060D01*
X232458D01*
X231680Y262852D01*
X230983Y262449D01*
X230413Y261880D01*
X230011Y261182D01*
X229802Y260404D01*
Y259599D01*
X230011Y258821D01*
X230413Y258123D01*
X230983Y257554D01*
X231348Y257343D01*
Y237734D01*
X180637D01*
Y239270D01*
X174537D01*
Y233171D01*
X180637D01*
Y234707D01*
X232234D01*
X259312Y207629D01*
Y187636D01*
X255078Y183402D01*
X234533D01*
Y186569D01*
X234739Y186688D01*
X235309Y187257D01*
X235712Y187955D01*
X235920Y188733D01*
Y189538D01*
X235712Y190316D01*
X235309Y191014D01*
X234739Y191583D01*
X234042Y191986D01*
X233264Y192194D01*
X232458D01*
X231680Y191986D01*
X230983Y191583D01*
X230413Y191014D01*
X230011Y190316D01*
X229802Y189538D01*
Y188733D01*
X230011Y187955D01*
X230413Y187257D01*
X230983Y186688D01*
X231507Y186385D01*
Y181888D01*
Y168836D01*
X180637D01*
Y170373D01*
X174537D01*
Y164273D01*
X180637D01*
Y165810D01*
X231507D01*
Y123711D01*
X231142Y123501D01*
X230572Y122931D01*
X230170Y122233D01*
X229961Y121455D01*
Y120650D01*
X230070Y120243D01*
X221019Y111192D01*
X192119D01*
X191540Y111077D01*
X191049Y110749D01*
X191049Y110749D01*
X180692Y100391D01*
X176732D01*
Y94292D01*
X182832D01*
Y98251D01*
X192746Y108165D01*
X221646D01*
X221646Y108165D01*
X222225Y108281D01*
X222716Y108609D01*
X232210Y118103D01*
X232617Y117994D01*
X233423D01*
X234201Y118202D01*
X234898Y118605D01*
X235468Y119174D01*
X235871Y119872D01*
X236079Y120650D01*
Y121455D01*
X235871Y122233D01*
X235468Y122931D01*
X234898Y123501D01*
X234533Y123711D01*
Y167323D01*
Y180375D01*
X255704D01*
X255704Y180375D01*
X256284Y180490D01*
X256775Y180818D01*
X261895Y185939D01*
X261895Y185939D01*
X262223Y186430D01*
X262339Y187009D01*
X262339Y187009D01*
Y208256D01*
X262339Y208256D01*
X262223Y208836D01*
X261895Y209326D01*
X261895Y209327D01*
X234374Y236847D01*
Y257343D01*
X234739Y257554D01*
X235309Y258123D01*
X235712Y258821D01*
X235920Y259599D01*
Y260404D01*
X235811Y260811D01*
X258944Y283944D01*
X258944Y283944D01*
X259272Y284435D01*
X259387Y285014D01*
Y336932D01*
X261666D01*
Y332591D01*
X267469D01*
Y344299D01*
X261666D01*
Y339958D01*
X258876D01*
X258826Y340008D01*
X258208Y340264D01*
X257540D01*
X257152Y340103D01*
X122667D01*
X119180Y343590D01*
X118689Y343918D01*
X118110Y344033D01*
X118110Y344033D01*
X74803D01*
X74803Y344033D01*
X74224Y343918D01*
X73733Y343590D01*
X73733Y343590D01*
X65515Y335372D01*
X65187Y334881D01*
X65072Y334302D01*
X65072Y334302D01*
Y327388D01*
X62857D01*
Y343689D01*
X66365Y347197D01*
X69634D01*
Y353590D01*
X64224D01*
Y349337D01*
X60273Y345386D01*
X59945Y344895D01*
X59830Y344316D01*
X59830Y344316D01*
Y342692D01*
X58854Y342634D01*
X58830Y342634D01*
X55618D01*
Y339843D01*
Y337051D01*
X58830D01*
X58854Y337051D01*
X59830Y336993D01*
Y327388D01*
X58610D01*
X56801Y329198D01*
Y331095D01*
X58354D01*
Y335677D01*
X51882D01*
Y331095D01*
X53774D01*
Y328571D01*
X53774Y328571D01*
X53889Y327992D01*
X54217Y327501D01*
X55866Y325852D01*
X55515Y324788D01*
X55045Y324718D01*
X54239Y325524D01*
X53908Y325745D01*
X53518Y325823D01*
X52539D01*
X52133Y326228D01*
X51516Y326484D01*
X50847D01*
X50229Y326228D01*
X49756Y325755D01*
X49500Y325137D01*
Y324469D01*
X49756Y323851D01*
X50229Y323378D01*
X50847Y323122D01*
X51516D01*
X52133Y323378D01*
X52539Y323784D01*
X53096D01*
X54103Y322776D01*
X53921Y322068D01*
X53720Y321776D01*
X49744D01*
X46295Y325225D01*
Y351940D01*
X53572Y359217D01*
X180949D01*
X181340Y359294D01*
X181670Y359515D01*
X189951Y367795D01*
X190172Y368126D01*
X190249Y368516D01*
Y371303D01*
X192229D01*
Y385827D01*
X196230D01*
Y371303D01*
X197732D01*
X198012Y370303D01*
X185028Y357319D01*
X94488D01*
X94098Y357241D01*
X93767Y357020D01*
X92759Y356012D01*
X92185D01*
X91567Y355756D01*
X91094Y355283D01*
X90839Y354665D01*
Y353996D01*
X91094Y353379D01*
X91567Y352906D01*
X92185Y352650D01*
X92854D01*
X93472Y352906D01*
X93945Y353379D01*
X94201Y353996D01*
Y354570D01*
X94911Y355280D01*
X185450D01*
X185840Y355357D01*
X186171Y355578D01*
X199951Y369358D01*
X200171Y369689D01*
X200249Y370079D01*
Y371303D01*
X202229D01*
Y385827D01*
X206229D01*
Y371303D01*
X208210D01*
Y349708D01*
X208288Y349317D01*
X208508Y348987D01*
X208839Y348765D01*
X208850Y348763D01*
X211877Y345736D01*
X212208Y345515D01*
X212598Y345437D01*
X271060D01*
X271796Y344799D01*
X271796Y344437D01*
Y338945D01*
X275198D01*
X278599D01*
Y344437D01*
X278599Y344799D01*
X279335Y345437D01*
X298790D01*
X321815Y322412D01*
Y266432D01*
X319579D01*
Y261692D01*
X326091D01*
Y266432D01*
X323854D01*
Y322835D01*
X323839Y322911D01*
X324761Y323404D01*
X331658Y316507D01*
Y175619D01*
X322114Y166075D01*
X321893Y165744D01*
X321815Y165354D01*
Y130126D01*
X319579D01*
Y125386D01*
X326091D01*
Y130126D01*
X323854D01*
Y164932D01*
X333398Y174476D01*
X333619Y174807D01*
X333697Y175197D01*
Y316929D01*
X333619Y317319D01*
X333398Y317650D01*
X302674Y348374D01*
X303088Y349374D01*
X304696D01*
X317216Y336853D01*
Y336280D01*
X317473Y335662D01*
X317945Y335189D01*
X318563Y334933D01*
X319232D01*
X319850Y335189D01*
X320323Y335662D01*
X320579Y336280D01*
Y336949D01*
X320323Y337566D01*
X319850Y338039D01*
X319232Y338295D01*
X318658D01*
X305839Y351115D01*
X305508Y351336D01*
X305118Y351413D01*
X234674D01*
X230249Y355838D01*
Y371303D01*
X232229D01*
Y385827D01*
X235730D01*
Y380303D01*
X239229D01*
X242729D01*
Y385827D01*
X246230D01*
Y371303D01*
X252229D01*
Y373900D01*
X257011D01*
X257416Y373733D01*
X258085D01*
X258490Y373900D01*
X261666D01*
Y369583D01*
X267469D01*
Y381292D01*
X261666D01*
Y376927D01*
X258490D01*
X258085Y377095D01*
X257416D01*
X257011Y376927D01*
X252229D01*
Y385827D01*
X338583D01*
Y1969D01*
D02*
G37*
G36*
X45845Y314918D02*
X46176Y314697D01*
X46566Y314619D01*
X56844D01*
Y313580D01*
X61344D01*
Y312579D01*
X56844D01*
Y311380D01*
X57344D01*
Y309320D01*
X60468D01*
X60764Y309122D01*
X61344Y309007D01*
X65072D01*
Y294624D01*
X59361D01*
X55671Y298314D01*
X55180Y298642D01*
X54601Y298757D01*
X54601Y298757D01*
X52764D01*
Y300480D01*
X48181D01*
Y294008D01*
X50818D01*
X50847Y293020D01*
X50229Y292764D01*
X49756Y292291D01*
X49500Y291673D01*
Y291004D01*
X49756Y290386D01*
X50130Y290012D01*
X50067Y289552D01*
X49824Y289012D01*
X41929D01*
X41539Y288934D01*
X41208Y288713D01*
X37641Y285146D01*
X37067D01*
X36449Y284890D01*
X35976Y284417D01*
X35721Y283799D01*
Y283130D01*
X35976Y282512D01*
X36449Y282039D01*
X37067Y281784D01*
X37736D01*
X38046Y281912D01*
X38612Y281064D01*
X37883Y280334D01*
X36221D01*
X34484Y282071D01*
Y298790D01*
X38122Y302429D01*
X38344Y302759D01*
X38421Y303150D01*
Y311507D01*
X38566Y311567D01*
X39039Y312040D01*
X39295Y312658D01*
Y313327D01*
X39039Y313944D01*
X38566Y314417D01*
X37949Y314673D01*
X37588Y315673D01*
X38122Y316208D01*
X38344Y316539D01*
X38421Y316929D01*
Y321035D01*
X39345Y321418D01*
X45845Y314918D01*
D02*
G37*
%LPC*%
G36*
X329468Y381512D02*
X329240D01*
Y376484D01*
X334268D01*
Y376712D01*
X333891Y378118D01*
X333163Y379378D01*
X332134Y380407D01*
X330874Y381135D01*
X329468Y381512D01*
D02*
G37*
G36*
X328240D02*
X328012D01*
X326607Y381135D01*
X325346Y380407D01*
X324317Y379378D01*
X323589Y378118D01*
X323213Y376712D01*
Y376484D01*
X328240D01*
Y381512D01*
D02*
G37*
G36*
X12539D02*
X12311D01*
Y376484D01*
X17339D01*
Y376712D01*
X16962Y378118D01*
X16234Y379378D01*
X15205Y380407D01*
X13945Y381135D01*
X12539Y381512D01*
D02*
G37*
G36*
X11311D02*
X11083D01*
X9678Y381135D01*
X8417Y380407D01*
X7388Y379378D01*
X6660Y378118D01*
X6284Y376712D01*
Y376484D01*
X11311D01*
Y381512D01*
D02*
G37*
G36*
X278599Y381792D02*
X275697D01*
Y375937D01*
X278599D01*
Y381792D01*
D02*
G37*
G36*
X274697D02*
X271796D01*
Y375937D01*
X274697D01*
Y381792D01*
D02*
G37*
G36*
X242729Y379303D02*
X239729D01*
Y370803D01*
X242729D01*
Y379303D01*
D02*
G37*
G36*
X238730D02*
X235730D01*
Y370803D01*
X238730D01*
Y379303D01*
D02*
G37*
G36*
X334268Y375484D02*
X329240D01*
Y370457D01*
X329468D01*
X330874Y370833D01*
X332134Y371561D01*
X333163Y372590D01*
X333891Y373851D01*
X334268Y375256D01*
Y375484D01*
D02*
G37*
G36*
X328240D02*
X323213D01*
Y375256D01*
X323589Y373851D01*
X324317Y372590D01*
X325346Y371561D01*
X326607Y370833D01*
X328012Y370457D01*
X328240D01*
Y375484D01*
D02*
G37*
G36*
X17339D02*
X12311D01*
Y370457D01*
X12539D01*
X13945Y370833D01*
X15205Y371561D01*
X16234Y372590D01*
X16962Y373851D01*
X17339Y375256D01*
Y375484D01*
D02*
G37*
G36*
X11311D02*
X6284D01*
Y375256D01*
X6660Y373851D01*
X7388Y372590D01*
X8417Y371561D01*
X9678Y370833D01*
X11083Y370457D01*
X11311D01*
Y375484D01*
D02*
G37*
G36*
X278599Y374937D02*
X275697D01*
Y369083D01*
X278599D01*
Y374937D01*
D02*
G37*
G36*
X274697D02*
X271796D01*
Y369083D01*
X274697D01*
Y374937D01*
D02*
G37*
G36*
X81445Y353590D02*
X76035D01*
Y347197D01*
X81445D01*
Y348880D01*
X85875D01*
X86280Y348713D01*
X86949D01*
X87566Y348969D01*
X88039Y349441D01*
X88295Y350059D01*
Y350728D01*
X88039Y351346D01*
X87566Y351819D01*
X86949Y352075D01*
X86280D01*
X85875Y351907D01*
X81445D01*
Y353590D01*
D02*
G37*
G36*
X54618Y342634D02*
X51382D01*
Y340342D01*
X54618D01*
Y342634D01*
D02*
G37*
G36*
Y339342D02*
X51382D01*
Y337051D01*
X54618D01*
Y339342D01*
D02*
G37*
G36*
X100274Y334999D02*
X97037D01*
Y332708D01*
X100274D01*
Y334999D01*
D02*
G37*
G36*
X96037D02*
X92801D01*
Y332708D01*
X96037D01*
Y334999D01*
D02*
G37*
G36*
X278599Y337945D02*
X275697D01*
Y332091D01*
X278599D01*
Y337945D01*
D02*
G37*
G36*
X274697D02*
X271796D01*
Y332091D01*
X274697D01*
Y337945D01*
D02*
G37*
G36*
X100274Y331708D02*
X97037D01*
Y329417D01*
X100274D01*
Y331708D01*
D02*
G37*
G36*
X96037D02*
X92801D01*
Y329417D01*
X96037D01*
Y331708D01*
D02*
G37*
G36*
X84276Y336220D02*
X83608D01*
X82990Y335964D01*
X82517Y335491D01*
X82261Y334873D01*
Y334204D01*
X82429Y333799D01*
Y327075D01*
X79944D01*
Y325516D01*
X79944Y324675D01*
X79944D01*
Y324516D01*
X79944D01*
Y322270D01*
X78631D01*
X78052Y322155D01*
X77561Y321827D01*
X77561Y321827D01*
X75702Y319968D01*
X75374Y319477D01*
X75258Y318898D01*
X75258Y318898D01*
Y287402D01*
X75258Y287402D01*
X75374Y286822D01*
X75702Y286332D01*
X77670Y284363D01*
X78161Y284035D01*
X78740Y283920D01*
X79635Y283681D01*
Y283374D01*
X88635D01*
Y283920D01*
X101623D01*
X102028Y283752D01*
X102697D01*
X103314Y284008D01*
X103787Y284481D01*
X104043Y285099D01*
Y285768D01*
X103787Y286385D01*
X103314Y286858D01*
X102697Y287114D01*
X102028D01*
X101623Y286946D01*
X88635D01*
Y287492D01*
X84135D01*
Y288492D01*
X88635D01*
Y289692D01*
X88135D01*
Y291622D01*
X93299D01*
Y290844D01*
X99772D01*
Y291648D01*
X110691D01*
Y268343D01*
X77670Y235322D01*
X77342Y234831D01*
X77227Y234252D01*
X77227Y234252D01*
Y187008D01*
X77227Y187008D01*
X77342Y186429D01*
X77670Y185938D01*
X87513Y176095D01*
X88004Y175767D01*
X88583Y175652D01*
X88583Y175652D01*
X118299D01*
X118432Y175519D01*
X118432Y175519D01*
X118565Y175385D01*
Y82634D01*
X118565Y82634D01*
X118565Y82634D01*
Y52694D01*
X115860D01*
X115695Y53312D01*
X114968Y54570D01*
X113940Y55598D01*
X112682Y56325D01*
X112065Y56490D01*
Y65872D01*
X112682Y66038D01*
X113940Y66764D01*
X114968Y67792D01*
X115695Y69051D01*
X116071Y70454D01*
Y71908D01*
X115695Y73312D01*
X114968Y74570D01*
X113940Y75598D01*
X112682Y76325D01*
X111278Y76701D01*
X109825D01*
X108421Y76325D01*
X107162Y75598D01*
X106134Y74570D01*
X105408Y73312D01*
X105242Y72694D01*
X95860D01*
X95695Y73312D01*
X94968Y74570D01*
X93940Y75598D01*
X92682Y76325D01*
X91278Y76701D01*
X89824D01*
X88421Y76325D01*
X87162Y75598D01*
X86134Y74570D01*
X85408Y73312D01*
X85031Y71908D01*
Y70454D01*
X85408Y69051D01*
X86134Y67792D01*
X87162Y66764D01*
X88421Y66038D01*
X89038Y65872D01*
Y56490D01*
X88421Y56325D01*
X87162Y55598D01*
X86134Y54570D01*
X85408Y53312D01*
X85031Y51908D01*
Y50454D01*
X85408Y49051D01*
X86134Y47792D01*
X87162Y46764D01*
X88421Y46038D01*
X89824Y45661D01*
X91278D01*
X92682Y46038D01*
X93940Y46764D01*
X94968Y47792D01*
X95695Y49051D01*
X96071Y50454D01*
Y51908D01*
X95695Y53312D01*
X94968Y54570D01*
X93940Y55598D01*
X92682Y56325D01*
X92064Y56490D01*
Y65872D01*
X92682Y66038D01*
X93940Y66764D01*
X94968Y67792D01*
X95695Y69051D01*
X95860Y69668D01*
X105242D01*
X105408Y69051D01*
X106134Y67792D01*
X107162Y66764D01*
X108421Y66038D01*
X109038Y65872D01*
Y56490D01*
X108421Y56325D01*
X107162Y55598D01*
X106134Y54570D01*
X105408Y53312D01*
X105032Y51908D01*
Y50454D01*
X105408Y49051D01*
X106134Y47792D01*
X107162Y46764D01*
X108421Y46038D01*
X109825Y45661D01*
X111278D01*
X112682Y46038D01*
X113940Y46764D01*
X114968Y47792D01*
X115695Y49051D01*
X115860Y49668D01*
X122651D01*
Y45349D01*
X128454D01*
Y57057D01*
X122651D01*
Y52694D01*
X121592D01*
Y81164D01*
X122651D01*
Y77016D01*
X128454D01*
Y88724D01*
X122651D01*
Y84190D01*
X121592D01*
Y176012D01*
X121477Y176591D01*
X121149Y177082D01*
X121149Y177082D01*
X120572Y177659D01*
X120572Y177659D01*
X119996Y178235D01*
X119505Y178563D01*
X118926Y178679D01*
X118926Y178679D01*
X89210D01*
X80253Y187635D01*
Y233625D01*
X113275Y266646D01*
X113275Y266646D01*
X113603Y267137D01*
X113718Y267717D01*
Y293161D01*
Y306347D01*
X113886Y306752D01*
Y307421D01*
X113630Y308039D01*
X113157Y308512D01*
X112539Y308768D01*
X111870D01*
X111252Y308512D01*
X110780Y308039D01*
X110524Y307421D01*
Y306752D01*
X110691Y306347D01*
Y294674D01*
X99772D01*
Y295427D01*
X93299D01*
Y294649D01*
X84135D01*
X83556Y294534D01*
X83221Y294310D01*
X80135D01*
Y292751D01*
X80135Y291910D01*
X80135D01*
Y291751D01*
X80135D01*
Y289692D01*
X79635D01*
Y288882D01*
X78635Y288367D01*
X78285Y288616D01*
Y318271D01*
X78944Y318929D01*
X79944Y318515D01*
Y317339D01*
X79444D01*
Y316139D01*
X88444D01*
Y316684D01*
X114246D01*
X118565Y312365D01*
Y269685D01*
Y263583D01*
X118565Y263583D01*
X118681Y263003D01*
X119009Y262513D01*
X124697Y256824D01*
Y253339D01*
X131209D01*
Y258079D01*
X127723D01*
X121592Y264210D01*
Y268172D01*
X123389D01*
X146124Y245436D01*
Y242675D01*
X145124Y242577D01*
X145099Y242705D01*
X144771Y243196D01*
X138669Y249298D01*
X138178Y249626D01*
X137598Y249742D01*
X137598Y249742D01*
X131209D01*
Y250598D01*
X124697D01*
Y245858D01*
X126439D01*
Y227005D01*
X117798Y218364D01*
X115860D01*
X115695Y218981D01*
X114968Y220240D01*
X113940Y221267D01*
X112682Y221994D01*
X111278Y222370D01*
X109825D01*
X108421Y221994D01*
X107162Y221267D01*
X106134Y220240D01*
X105408Y218981D01*
X105242Y218364D01*
X95860D01*
X95695Y218981D01*
X94968Y220240D01*
X93940Y221267D01*
X92682Y221994D01*
X91278Y222370D01*
X89824D01*
X88421Y221994D01*
X87162Y221267D01*
X86134Y220240D01*
X85408Y218981D01*
X85031Y217577D01*
Y216124D01*
X85408Y214720D01*
X86134Y213461D01*
X87162Y212434D01*
X88421Y211707D01*
X89038Y211542D01*
Y202159D01*
X88421Y201994D01*
X87162Y201267D01*
X86134Y200240D01*
X85408Y198981D01*
X85031Y197577D01*
Y196124D01*
X85408Y194720D01*
X86134Y193461D01*
X87162Y192434D01*
X88421Y191707D01*
X89824Y191331D01*
X91278D01*
X92682Y191707D01*
X93940Y192434D01*
X94968Y193461D01*
X95695Y194720D01*
X95860Y195337D01*
X105242D01*
X105408Y194720D01*
X106134Y193461D01*
X107162Y192434D01*
X108421Y191707D01*
X109825Y191331D01*
X111278D01*
X112682Y191707D01*
X113940Y192434D01*
X114968Y193461D01*
X115695Y194720D01*
X116071Y196124D01*
Y197577D01*
X115695Y198981D01*
X114968Y200240D01*
X113940Y201267D01*
X112682Y201994D01*
X111278Y202370D01*
X109825D01*
X108421Y201994D01*
X107162Y201267D01*
X106134Y200240D01*
X105408Y198981D01*
X105242Y198364D01*
X95860D01*
X95695Y198981D01*
X94968Y200240D01*
X93940Y201267D01*
X92682Y201994D01*
X92064Y202159D01*
Y211542D01*
X92682Y211707D01*
X93940Y212434D01*
X94968Y213461D01*
X95695Y214720D01*
X95860Y215337D01*
X105242D01*
X105408Y214720D01*
X106134Y213461D01*
X107162Y212434D01*
X108421Y211707D01*
X109825Y211331D01*
X111278D01*
X112682Y211707D01*
X113940Y212434D01*
X114968Y213461D01*
X115695Y214720D01*
X115860Y215337D01*
X118425D01*
X118425Y215337D01*
X119004Y215452D01*
X119495Y215780D01*
X129023Y225308D01*
X129023Y225308D01*
X129351Y225799D01*
X129466Y226378D01*
Y245858D01*
X131209D01*
Y246715D01*
X136972D01*
X142188Y241499D01*
Y226378D01*
X142188Y226378D01*
X142303Y225799D01*
X142631Y225308D01*
X146409Y221530D01*
X146900Y221202D01*
X147479Y221087D01*
X175148D01*
X191348Y204886D01*
Y191794D01*
X190983Y191583D01*
X190413Y191014D01*
X190202Y190649D01*
X165513D01*
X164934Y190533D01*
X164443Y190205D01*
X164443Y190205D01*
X150505Y176267D01*
X150177Y175776D01*
X150062Y175197D01*
X150062Y175197D01*
Y137795D01*
X150062Y137795D01*
X150177Y137216D01*
X150505Y136725D01*
X167247Y119983D01*
X167247Y119983D01*
X167738Y119655D01*
X168317Y119539D01*
X190361D01*
X190572Y119174D01*
X191142Y118605D01*
X191839Y118202D01*
X191992Y118161D01*
X191860Y117161D01*
X188976D01*
X188586Y117084D01*
X188255Y116863D01*
X180680Y109287D01*
X175197D01*
X174807Y109210D01*
X174476Y108989D01*
X168570Y103083D01*
X168349Y102752D01*
X168272Y102362D01*
Y90551D01*
X168349Y90161D01*
X168570Y89830D01*
X172507Y85893D01*
X172838Y85672D01*
X173228Y85595D01*
X187008D01*
X187398Y85672D01*
X187729Y85893D01*
X198158Y96322D01*
X305097D01*
X305140Y96164D01*
X305541Y95469D01*
X306109Y94901D01*
X306804Y94499D01*
X307580Y94292D01*
X308383D01*
X309159Y94499D01*
X309855Y94901D01*
X310422Y95469D01*
X310824Y96164D01*
X311032Y96940D01*
Y97743D01*
X310824Y98519D01*
X310422Y99214D01*
X309855Y99782D01*
X309159Y100184D01*
X309001Y100226D01*
Y107046D01*
X308924Y107436D01*
X308703Y107767D01*
X299713Y116756D01*
X299805Y116915D01*
X300016Y117704D01*
Y118520D01*
X299805Y119308D01*
X299397Y120015D01*
X298820Y120592D01*
X298113Y121001D01*
X297324Y121212D01*
X296508D01*
X295720Y121001D01*
X295013Y120592D01*
X294436Y120015D01*
X294027Y119308D01*
X293816Y118520D01*
Y117704D01*
X294027Y116915D01*
X294436Y116208D01*
X295013Y115631D01*
X295720Y115223D01*
X296508Y115012D01*
X297324D01*
X298113Y115223D01*
X298271Y115315D01*
X306962Y106624D01*
Y100226D01*
X306804Y100184D01*
X306109Y99782D01*
X305541Y99214D01*
X305140Y98519D01*
X305097Y98361D01*
X197735D01*
X197345Y98283D01*
X197014Y98062D01*
X186585Y87634D01*
X173651D01*
X170311Y90974D01*
Y101940D01*
X175619Y107248D01*
X181102D01*
X181493Y107326D01*
X181823Y107547D01*
X189399Y115122D01*
X208109D01*
X208499Y115200D01*
X208830Y115421D01*
X211695Y118286D01*
X211839Y118202D01*
X212617Y117994D01*
X213423D01*
X214201Y118202D01*
X214898Y118605D01*
X215468Y119174D01*
X215871Y119872D01*
X216079Y120650D01*
Y121455D01*
X215871Y122233D01*
X215468Y122931D01*
X214898Y123501D01*
X214201Y123903D01*
X213423Y124112D01*
X212617D01*
X211839Y123903D01*
X211142Y123501D01*
X210572Y122931D01*
X210170Y122233D01*
X209961Y121455D01*
Y120650D01*
X210170Y119872D01*
X210253Y119728D01*
X207687Y117161D01*
X194180D01*
X194049Y118161D01*
X194201Y118202D01*
X194898Y118605D01*
X195468Y119174D01*
X195871Y119872D01*
X196079Y120650D01*
Y121455D01*
X195871Y122233D01*
X195468Y122931D01*
X194898Y123501D01*
X194201Y123903D01*
X193423Y124112D01*
X192617D01*
X191839Y123903D01*
X191142Y123501D01*
X190572Y122931D01*
X190361Y122566D01*
X168944D01*
X153088Y138422D01*
Y174570D01*
X166140Y187622D01*
X190202D01*
X190413Y187257D01*
X190983Y186688D01*
X191680Y186285D01*
X192458Y186076D01*
X193264D01*
X194042Y186285D01*
X194739Y186688D01*
X195309Y187257D01*
X195712Y187955D01*
X195920Y188733D01*
Y189538D01*
X195712Y190316D01*
X195309Y191014D01*
X194739Y191583D01*
X194374Y191794D01*
Y205513D01*
X194374Y205513D01*
X194259Y206092D01*
X193931Y206583D01*
X176845Y223670D01*
X176553Y223865D01*
X176733Y224865D01*
X215909D01*
X250174Y190599D01*
X250010Y190316D01*
X249802Y189538D01*
Y188733D01*
X250010Y187955D01*
X250413Y187257D01*
X250983Y186688D01*
X251680Y186285D01*
X252458Y186076D01*
X253264D01*
X254042Y186285D01*
X254739Y186688D01*
X255309Y187257D01*
X255712Y187955D01*
X255920Y188733D01*
Y189538D01*
X255712Y190316D01*
X255309Y191014D01*
X254739Y191583D01*
X254042Y191986D01*
X253264Y192194D01*
X252795D01*
X252591Y192398D01*
X252461Y192593D01*
X252461Y192593D01*
X217605Y227448D01*
X217115Y227776D01*
X216535Y227891D01*
X216535Y227891D01*
X152202D01*
X149151Y230942D01*
Y246063D01*
X149151Y246063D01*
X149036Y246642D01*
X148708Y247133D01*
X125086Y270755D01*
X124595Y271083D01*
X124016Y271198D01*
X124016Y271198D01*
X121592D01*
Y312992D01*
X121477Y313571D01*
X121149Y314062D01*
X121149Y314062D01*
X115943Y319268D01*
X115452Y319596D01*
X114873Y319711D01*
X114873Y319711D01*
X87944D01*
Y321116D01*
X87944Y321957D01*
X87944D01*
Y322116D01*
X87944D01*
Y324361D01*
X93301D01*
Y323460D01*
X99774D01*
Y324238D01*
X114567D01*
X116517Y322287D01*
X116685Y321882D01*
X117158Y321410D01*
X117776Y321153D01*
X118445D01*
X119062Y321410D01*
X119535Y321882D01*
X119791Y322500D01*
Y323169D01*
X119535Y323787D01*
X119062Y324260D01*
X118658Y324428D01*
X116264Y326821D01*
X115773Y327150D01*
X115194Y327265D01*
X115193Y327265D01*
X99774D01*
Y328043D01*
X93301D01*
Y327388D01*
X85455D01*
Y333799D01*
X85623Y334204D01*
Y334873D01*
X85367Y335491D01*
X84894Y335964D01*
X84276Y336220D01*
D02*
G37*
G36*
X88444Y315139D02*
X79444D01*
Y313939D01*
Y313580D01*
X88444D01*
Y313939D01*
Y315139D01*
D02*
G37*
G36*
Y312579D02*
X79444D01*
Y311380D01*
Y311020D01*
X88444D01*
Y311380D01*
Y312579D01*
D02*
G37*
G36*
Y310020D02*
X84444D01*
Y308821D01*
X88444D01*
Y310020D01*
D02*
G37*
G36*
X83444D02*
X79444D01*
Y308821D01*
X83444D01*
Y310020D01*
D02*
G37*
G36*
X100272Y302384D02*
X97035D01*
Y300092D01*
X100272D01*
Y302384D01*
D02*
G37*
G36*
X96035D02*
X92799D01*
Y300092D01*
X96035D01*
Y302384D01*
D02*
G37*
G36*
X100272Y299092D02*
X97035D01*
Y296801D01*
X100272D01*
Y299092D01*
D02*
G37*
G36*
X96035D02*
X92799D01*
Y296801D01*
X96035D01*
Y299092D01*
D02*
G37*
G36*
X88635Y282374D02*
X79635D01*
Y281174D01*
Y280815D01*
X88635D01*
Y281174D01*
Y282374D01*
D02*
G37*
G36*
Y279815D02*
X79635D01*
Y278615D01*
Y278256D01*
X88635D01*
Y278615D01*
Y279815D01*
D02*
G37*
G36*
Y277256D02*
X84635D01*
Y276056D01*
X88635D01*
Y277256D01*
D02*
G37*
G36*
X83635D02*
X79635D01*
Y276056D01*
X83635D01*
Y277256D01*
D02*
G37*
G36*
X253361Y263552D02*
Y260502D01*
X256412D01*
X256178Y261375D01*
X255709Y262187D01*
X255046Y262849D01*
X254235Y263318D01*
X253361Y263552D01*
D02*
G37*
G36*
X252361D02*
X251487Y263318D01*
X250676Y262849D01*
X250013Y262187D01*
X249545Y261375D01*
X249310Y260502D01*
X252361D01*
Y263552D01*
D02*
G37*
G36*
X128287Y291051D02*
X127618D01*
X127000Y290795D01*
X126528Y290322D01*
X126272Y289704D01*
Y289036D01*
X126528Y288418D01*
X127000Y287945D01*
X127618Y287689D01*
X128287D01*
X128692Y287857D01*
X178507D01*
X191348Y275016D01*
Y262660D01*
X190983Y262449D01*
X190413Y261880D01*
X190010Y261182D01*
X189802Y260404D01*
Y259599D01*
X190010Y258821D01*
X190413Y258123D01*
X190983Y257554D01*
X191680Y257151D01*
X192458Y256942D01*
X193264D01*
X194042Y257151D01*
X194739Y257554D01*
X195309Y258123D01*
X195712Y258821D01*
X195920Y259599D01*
Y260404D01*
X195712Y261182D01*
X195309Y261880D01*
X194739Y262449D01*
X194374Y262660D01*
Y275643D01*
X194374Y275643D01*
X194259Y276222D01*
X193931Y276713D01*
X193931Y276713D01*
X180204Y290440D01*
X179713Y290768D01*
X179134Y290883D01*
X179134Y290883D01*
X128692D01*
X128287Y291051D01*
D02*
G37*
G36*
X256412Y259502D02*
X253361D01*
Y256451D01*
X254235Y256685D01*
X255046Y257154D01*
X255709Y257816D01*
X256178Y258628D01*
X256412Y259502D01*
D02*
G37*
G36*
X252361D02*
X249310D01*
X249545Y258628D01*
X250013Y257816D01*
X250676Y257154D01*
X251487Y256685D01*
X252361Y256451D01*
Y259502D01*
D02*
G37*
G36*
X290516Y257539D02*
X287416D01*
Y254438D01*
X290516D01*
Y257539D01*
D02*
G37*
G36*
X286416D02*
X283316D01*
Y254438D01*
X286416D01*
Y257539D01*
D02*
G37*
G36*
X292324Y267038D02*
X291508D01*
X290720Y266827D01*
X290013Y266419D01*
X289436Y265842D01*
X289027Y265135D01*
X288816Y264347D01*
Y263530D01*
X289027Y262742D01*
X289436Y262035D01*
X290013Y261458D01*
X290720Y261050D01*
X291508Y260839D01*
X292324D01*
X293113Y261050D01*
X293820Y261458D01*
X294397Y262035D01*
X294805Y262742D01*
X294810Y262760D01*
X306664D01*
X313563Y255861D01*
X313894Y255640D01*
X314284Y255562D01*
X319579D01*
Y254212D01*
X326091D01*
Y258952D01*
X319579D01*
Y257601D01*
X314707D01*
X307808Y264500D01*
X307477Y264721D01*
X307087Y264799D01*
X294895D01*
X294805Y265135D01*
X294397Y265842D01*
X293820Y266419D01*
X293113Y266827D01*
X292324Y267038D01*
D02*
G37*
G36*
X290516Y253438D02*
X287416D01*
Y250339D01*
X290516D01*
Y253438D01*
D02*
G37*
G36*
X286416D02*
X283316D01*
Y250339D01*
X286416D01*
Y253438D01*
D02*
G37*
G36*
X213264Y263060D02*
X212458D01*
X211680Y262852D01*
X210983Y262449D01*
X210413Y261880D01*
X210011Y261182D01*
X209802Y260404D01*
Y259599D01*
X210011Y258821D01*
X210413Y258123D01*
X210983Y257554D01*
X211680Y257151D01*
X211842Y257108D01*
Y246169D01*
X211919Y245779D01*
X212140Y245448D01*
X212966Y244622D01*
X212886Y244429D01*
Y243760D01*
X213142Y243142D01*
X213615Y242669D01*
X214232Y242413D01*
X214901D01*
X215519Y242669D01*
X215992Y243142D01*
X216248Y243760D01*
Y244429D01*
X215992Y245047D01*
X215519Y245520D01*
X214901Y245776D01*
X214696D01*
X213881Y246591D01*
Y257108D01*
X214042Y257151D01*
X214739Y257554D01*
X215309Y258123D01*
X215712Y258821D01*
X215920Y259599D01*
Y260404D01*
X215712Y261182D01*
X215309Y261880D01*
X214739Y262449D01*
X214042Y262852D01*
X213264Y263060D01*
D02*
G37*
G36*
X297324Y257038D02*
X296508D01*
X295720Y256827D01*
X295013Y256419D01*
X294436Y255842D01*
X294027Y255135D01*
X293816Y254347D01*
Y253530D01*
X294027Y252742D01*
X294436Y252035D01*
X295013Y251458D01*
X295720Y251050D01*
X296508Y250838D01*
X297324D01*
X298113Y251050D01*
X298271Y251141D01*
X304767Y244645D01*
Y239105D01*
X304610Y239063D01*
X303914Y238661D01*
X303346Y238093D01*
X302945Y237398D01*
X302903Y237240D01*
X284484D01*
X278877Y242847D01*
X278547Y243068D01*
X278156Y243146D01*
X273011D01*
X272606Y243551D01*
X271988Y243807D01*
X271319D01*
X270701Y243551D01*
X270228Y243078D01*
X269972Y242460D01*
Y241792D01*
X270228Y241174D01*
X270701Y240701D01*
X271319Y240445D01*
X271988D01*
X272606Y240701D01*
X273011Y241106D01*
X277734D01*
X283341Y235500D01*
X283672Y235279D01*
X284062Y235201D01*
X302903D01*
X302945Y235043D01*
X303346Y234348D01*
X303914Y233780D01*
X304610Y233378D01*
X305385Y233171D01*
X306189D01*
X306964Y233378D01*
X307660Y233780D01*
X308228Y234348D01*
X308629Y235043D01*
X308837Y235819D01*
Y236622D01*
X308629Y237398D01*
X308228Y238093D01*
X307660Y238661D01*
X306964Y239063D01*
X306807Y239105D01*
Y245068D01*
X306729Y245458D01*
X306508Y245789D01*
X299713Y252583D01*
X299805Y252742D01*
X300016Y253530D01*
Y254347D01*
X299805Y255135D01*
X299397Y255842D01*
X298820Y256419D01*
X298113Y256827D01*
X297324Y257038D01*
D02*
G37*
G36*
X323169Y206405D02*
X322500D01*
X321882Y206150D01*
X321410Y205677D01*
X321153Y205059D01*
Y204390D01*
X321410Y203772D01*
X321815Y203367D01*
Y200795D01*
X319579D01*
Y196055D01*
X326091D01*
Y200795D01*
X323854D01*
Y203367D01*
X324260Y203772D01*
X324516Y204390D01*
Y205059D01*
X324260Y205677D01*
X323787Y206150D01*
X323169Y206405D01*
D02*
G37*
G36*
X293230Y198298D02*
X292414D01*
X291625Y198087D01*
X290918Y197679D01*
X290341Y197102D01*
X289933Y196395D01*
X289722Y195607D01*
Y194790D01*
X289933Y194002D01*
X290341Y193295D01*
X290918Y192718D01*
X291625Y192310D01*
X292414Y192098D01*
X293230D01*
X294018Y192310D01*
X294725Y192718D01*
X295302Y193295D01*
X295710Y194002D01*
X295771Y194229D01*
X308266D01*
X312271Y190224D01*
X312602Y190003D01*
X312992Y189925D01*
X319579D01*
Y188575D01*
X326091D01*
Y193315D01*
X319579D01*
Y191964D01*
X313415D01*
X309409Y195970D01*
X309078Y196191D01*
X308688Y196268D01*
X295744D01*
X295710Y196395D01*
X295302Y197102D01*
X294725Y197679D01*
X294018Y198087D01*
X293230Y198298D01*
D02*
G37*
G36*
X291422Y188798D02*
X288322D01*
Y185698D01*
X291422D01*
Y188798D01*
D02*
G37*
G36*
X287322D02*
X284222D01*
Y185698D01*
X287322D01*
Y188798D01*
D02*
G37*
G36*
X291422Y184698D02*
X288322D01*
Y181598D01*
X291422D01*
Y184698D01*
D02*
G37*
G36*
X287322D02*
X284222D01*
Y181598D01*
X287322D01*
Y184698D01*
D02*
G37*
G36*
X213264Y192194D02*
X212458D01*
X211680Y191986D01*
X210983Y191583D01*
X210413Y191014D01*
X210011Y190316D01*
X209802Y189538D01*
Y188733D01*
X210011Y187955D01*
X210413Y187257D01*
X210983Y186688D01*
X211680Y186285D01*
X211842Y186242D01*
Y175303D01*
X211919Y174913D01*
X212140Y174582D01*
X212966Y173756D01*
X212886Y173563D01*
Y172894D01*
X213142Y172276D01*
X213615Y171803D01*
X214232Y171547D01*
X214901D01*
X215519Y171803D01*
X215992Y172276D01*
X216248Y172894D01*
Y173563D01*
X215992Y174181D01*
X215519Y174653D01*
X214901Y174909D01*
X214696D01*
X213881Y175725D01*
Y186242D01*
X214042Y186285D01*
X214739Y186688D01*
X215309Y187257D01*
X215712Y187955D01*
X215920Y188733D01*
Y189538D01*
X215712Y190316D01*
X215309Y191014D01*
X214739Y191583D01*
X214042Y191986D01*
X213264Y192194D01*
D02*
G37*
G36*
X298230Y188298D02*
X297414D01*
X296625Y188087D01*
X295918Y187679D01*
X295341Y187102D01*
X294933Y186395D01*
X294722Y185607D01*
Y184790D01*
X294933Y184002D01*
X295341Y183295D01*
X295918Y182718D01*
X296625Y182310D01*
X297414Y182098D01*
X298230D01*
X299018Y182310D01*
X299177Y182401D01*
X304767Y176811D01*
Y170207D01*
X304610Y170165D01*
X303914Y169763D01*
X303346Y169196D01*
X302945Y168500D01*
X302903Y168342D01*
X295773D01*
X292135Y171981D01*
X291804Y172202D01*
X291414Y172279D01*
X271043D01*
X270637Y172685D01*
X270019Y172941D01*
X269351D01*
X268733Y172685D01*
X268260Y172212D01*
X268004Y171594D01*
Y170925D01*
X268260Y170308D01*
X268733Y169835D01*
X269351Y169579D01*
X270019D01*
X270637Y169835D01*
X271043Y170240D01*
X290991D01*
X294630Y166602D01*
X294960Y166381D01*
X295351Y166303D01*
X302903D01*
X302945Y166146D01*
X303346Y165450D01*
X303914Y164882D01*
X304610Y164481D01*
X305385Y164273D01*
X306189D01*
X306964Y164481D01*
X307660Y164882D01*
X308228Y165450D01*
X308629Y166146D01*
X308837Y166921D01*
Y167724D01*
X308629Y168500D01*
X308228Y169196D01*
X307660Y169763D01*
X306964Y170165D01*
X306807Y170207D01*
Y177233D01*
X306729Y177623D01*
X306508Y177954D01*
X300619Y183843D01*
X300710Y184002D01*
X300922Y184790D01*
Y185607D01*
X300710Y186395D01*
X300302Y187102D01*
X299725Y187679D01*
X299018Y188087D01*
X298230Y188298D01*
D02*
G37*
G36*
X111144Y150035D02*
X111051D01*
Y144516D01*
X116571D01*
Y144609D01*
X116340Y145772D01*
X115886Y146867D01*
X115227Y147853D01*
X114389Y148691D01*
X113403Y149350D01*
X112307Y149804D01*
X111144Y150035D01*
D02*
G37*
G36*
X91144D02*
X91051D01*
Y144516D01*
X96571D01*
Y144609D01*
X96339Y145772D01*
X95886Y146867D01*
X95227Y147853D01*
X94389Y148691D01*
X93403Y149350D01*
X92307Y149804D01*
X91144Y150035D01*
D02*
G37*
G36*
X110051D02*
X109958D01*
X108795Y149804D01*
X107700Y149350D01*
X106714Y148691D01*
X105875Y147853D01*
X105217Y146867D01*
X104763Y145772D01*
X104532Y144609D01*
Y144516D01*
X110051D01*
Y150035D01*
D02*
G37*
G36*
X90051D02*
X89958D01*
X88795Y149804D01*
X87700Y149350D01*
X86714Y148691D01*
X85875Y147853D01*
X85217Y146867D01*
X84763Y145772D01*
X84531Y144609D01*
Y144516D01*
X90051D01*
Y150035D01*
D02*
G37*
G36*
X116571Y143516D02*
X111051D01*
Y137996D01*
X111144D01*
X112307Y138227D01*
X113403Y138681D01*
X114389Y139340D01*
X115227Y140178D01*
X115886Y141164D01*
X116340Y142260D01*
X116571Y143423D01*
Y143516D01*
D02*
G37*
G36*
X110051D02*
X104532D01*
Y143423D01*
X104763Y142260D01*
X105217Y141164D01*
X105875Y140178D01*
X106714Y139340D01*
X107700Y138681D01*
X108795Y138227D01*
X109958Y137996D01*
X110051D01*
Y143516D01*
D02*
G37*
G36*
X96571D02*
X91051D01*
Y137996D01*
X91144D01*
X92307Y138227D01*
X93403Y138681D01*
X94389Y139340D01*
X95227Y140178D01*
X95886Y141164D01*
X96339Y142260D01*
X96571Y143423D01*
Y143516D01*
D02*
G37*
G36*
X90051D02*
X84531D01*
Y143423D01*
X84763Y142260D01*
X85217Y141164D01*
X85875Y140178D01*
X86714Y139340D01*
X87700Y138681D01*
X88795Y138227D01*
X89958Y137996D01*
X90051D01*
Y143516D01*
D02*
G37*
G36*
X111144Y130035D02*
X111051D01*
Y124516D01*
X116571D01*
Y124609D01*
X116340Y125772D01*
X115886Y126867D01*
X115227Y127853D01*
X114389Y128691D01*
X113403Y129350D01*
X112307Y129804D01*
X111144Y130035D01*
D02*
G37*
G36*
X91144D02*
X91051D01*
Y124516D01*
X96571D01*
Y124609D01*
X96339Y125772D01*
X95886Y126867D01*
X95227Y127853D01*
X94389Y128691D01*
X93403Y129350D01*
X92307Y129804D01*
X91144Y130035D01*
D02*
G37*
G36*
X110051D02*
X109958D01*
X108795Y129804D01*
X107700Y129350D01*
X106714Y128691D01*
X105875Y127853D01*
X105217Y126867D01*
X104763Y125772D01*
X104532Y124609D01*
Y124516D01*
X110051D01*
Y130035D01*
D02*
G37*
G36*
X90051D02*
X89958D01*
X88795Y129804D01*
X87700Y129350D01*
X86714Y128691D01*
X85875Y127853D01*
X85217Y126867D01*
X84763Y125772D01*
X84531Y124609D01*
Y124516D01*
X90051D01*
Y130035D01*
D02*
G37*
G36*
X253520Y124603D02*
Y121553D01*
X256571D01*
X256336Y122426D01*
X255868Y123238D01*
X255205Y123901D01*
X254394Y124369D01*
X253520Y124603D01*
D02*
G37*
G36*
X252520D02*
X251646Y124369D01*
X250835Y123901D01*
X250172Y123238D01*
X249704Y122426D01*
X249469Y121553D01*
X252520D01*
Y124603D01*
D02*
G37*
G36*
X290516Y121712D02*
X287416D01*
Y118612D01*
X290516D01*
Y121712D01*
D02*
G37*
G36*
X286416D02*
X283316D01*
Y118612D01*
X286416D01*
Y121712D01*
D02*
G37*
G36*
X116571Y123516D02*
X111051D01*
Y117996D01*
X111144D01*
X112307Y118227D01*
X113403Y118681D01*
X114389Y119340D01*
X115227Y120178D01*
X115886Y121164D01*
X116340Y122260D01*
X116571Y123423D01*
Y123516D01*
D02*
G37*
G36*
X110051D02*
X104532D01*
Y123423D01*
X104763Y122260D01*
X105217Y121164D01*
X105875Y120178D01*
X106714Y119340D01*
X107700Y118681D01*
X108795Y118227D01*
X109958Y117996D01*
X110051D01*
Y123516D01*
D02*
G37*
G36*
X96571D02*
X91051D01*
Y117996D01*
X91144D01*
X92307Y118227D01*
X93403Y118681D01*
X94389Y119340D01*
X95227Y120178D01*
X95886Y121164D01*
X96339Y122260D01*
X96571Y123423D01*
Y123516D01*
D02*
G37*
G36*
X90051D02*
X84531D01*
Y123423D01*
X84763Y122260D01*
X85217Y121164D01*
X85875Y120178D01*
X86714Y119340D01*
X87700Y118681D01*
X88795Y118227D01*
X89958Y117996D01*
X90051D01*
Y123516D01*
D02*
G37*
G36*
X292324Y131212D02*
X291508D01*
X290720Y131000D01*
X290013Y130592D01*
X289436Y130015D01*
X289027Y129308D01*
X288816Y128520D01*
Y127704D01*
X289027Y126915D01*
X289436Y126208D01*
X290013Y125631D01*
X290720Y125223D01*
X291508Y125012D01*
X292324D01*
X293113Y125223D01*
X293820Y125631D01*
X294397Y126208D01*
X294805Y126915D01*
X294810Y126933D01*
X308633D01*
X316011Y119555D01*
X316342Y119334D01*
X316732Y119256D01*
X319579D01*
Y117905D01*
X326091D01*
Y122646D01*
X319579D01*
Y121295D01*
X317155D01*
X309776Y128674D01*
X309445Y128895D01*
X309055Y128972D01*
X294895D01*
X294805Y129308D01*
X294397Y130015D01*
X293820Y130592D01*
X293113Y131000D01*
X292324Y131212D01*
D02*
G37*
G36*
X256571Y120553D02*
X253520D01*
Y117502D01*
X254394Y117736D01*
X255205Y118205D01*
X255868Y118867D01*
X256336Y119679D01*
X256571Y120553D01*
D02*
G37*
G36*
X252520D02*
X249469D01*
X249704Y119679D01*
X250172Y118867D01*
X250835Y118205D01*
X251646Y117736D01*
X252520Y117502D01*
Y120553D01*
D02*
G37*
G36*
X290516Y117612D02*
X287416D01*
Y114512D01*
X290516D01*
Y117612D01*
D02*
G37*
G36*
X286416D02*
X283316D01*
Y114512D01*
X286416D01*
Y117612D01*
D02*
G37*
G36*
X139584Y89224D02*
X136682D01*
Y83370D01*
X139584D01*
Y89224D01*
D02*
G37*
G36*
X135682D02*
X132781D01*
Y83370D01*
X135682D01*
Y89224D01*
D02*
G37*
G36*
X139584Y82370D02*
X136682D01*
Y76516D01*
X139584D01*
Y82370D01*
D02*
G37*
G36*
X135682D02*
X132781D01*
Y76516D01*
X135682D01*
Y82370D01*
D02*
G37*
G36*
X139584Y57557D02*
X136682D01*
Y51703D01*
X139584D01*
Y57557D01*
D02*
G37*
G36*
X135682D02*
X132781D01*
Y51703D01*
X135682D01*
Y57557D01*
D02*
G37*
G36*
X139584Y50703D02*
X136682D01*
Y44849D01*
X139584D01*
Y50703D01*
D02*
G37*
G36*
X135682D02*
X132781D01*
Y44849D01*
X135682D01*
Y50703D01*
D02*
G37*
G36*
X329468Y17339D02*
X329240D01*
Y12311D01*
X334268D01*
Y12539D01*
X333891Y13945D01*
X333163Y15205D01*
X332134Y16234D01*
X330874Y16962D01*
X329468Y17339D01*
D02*
G37*
G36*
X328240D02*
X328012D01*
X326607Y16962D01*
X325346Y16234D01*
X324317Y15205D01*
X323589Y13945D01*
X323213Y12539D01*
Y12311D01*
X328240D01*
Y17339D01*
D02*
G37*
G36*
X12539D02*
X12311D01*
Y12311D01*
X17339D01*
Y12539D01*
X16962Y13945D01*
X16234Y15205D01*
X15205Y16234D01*
X13945Y16962D01*
X12539Y17339D01*
D02*
G37*
G36*
X11311D02*
X11083D01*
X9678Y16962D01*
X8417Y16234D01*
X7388Y15205D01*
X6660Y13945D01*
X6284Y12539D01*
Y12311D01*
X11311D01*
Y17339D01*
D02*
G37*
G36*
X334268Y11311D02*
X329240D01*
Y6284D01*
X329468D01*
X330874Y6660D01*
X332134Y7388D01*
X333163Y8417D01*
X333891Y9678D01*
X334268Y11083D01*
Y11311D01*
D02*
G37*
G36*
X328240D02*
X323213D01*
Y11083D01*
X323589Y9678D01*
X324317Y8417D01*
X325346Y7388D01*
X326607Y6660D01*
X328012Y6284D01*
X328240D01*
Y11311D01*
D02*
G37*
G36*
X17339D02*
X12311D01*
Y6284D01*
X12539D01*
X13945Y6660D01*
X15205Y7388D01*
X16234Y8417D01*
X16962Y9678D01*
X17339Y11083D01*
Y11311D01*
D02*
G37*
G36*
X11311D02*
X6284D01*
Y11083D01*
X6660Y9678D01*
X7388Y8417D01*
X8417Y7388D01*
X9678Y6660D01*
X11083Y6284D01*
X11311D01*
Y11311D01*
D02*
G37*
G36*
X46807Y300980D02*
X44516D01*
Y297744D01*
X46807D01*
Y300980D01*
D02*
G37*
G36*
X43516D02*
X41224D01*
Y297744D01*
X43516D01*
Y300980D01*
D02*
G37*
G36*
X46807Y296744D02*
X44516D01*
Y293508D01*
X46807D01*
Y296744D01*
D02*
G37*
G36*
X43516D02*
X41224D01*
Y293508D01*
X43516D01*
Y296744D01*
D02*
G37*
%LPD*%
D13*
X92520Y354331D02*
X94488Y356299D01*
X185450D01*
X199230Y370079D01*
X45276Y352362D02*
X53150Y360236D01*
X180949D02*
X189230Y368516D01*
X53150Y360236D02*
X180949D01*
X41929Y287992D02*
X61535D01*
X37402Y283465D02*
X41929Y287992D01*
X33465Y281649D02*
Y299213D01*
Y281649D02*
X35798Y279315D01*
X33465Y299213D02*
X37402Y303150D01*
X83944Y315639D02*
X89873D01*
X83987Y313036D02*
X92476D01*
X92520Y312992D01*
X89873Y315639D02*
X92476Y313036D01*
X83944Y310521D02*
X90048D01*
X92520Y312992D01*
X92339Y288492D02*
X92520Y288673D01*
X89839Y288492D02*
X92339D01*
X90602Y282874D02*
X93141Y280335D01*
X93200Y280315D02*
X93220Y280335D01*
X84135Y280315D02*
X93200D01*
X90641Y277756D02*
X93200Y280315D01*
X84135Y287992D02*
X89339D01*
X89839Y288492D01*
X84135Y282874D02*
X90602D01*
X84135Y277756D02*
X90641D01*
X83944Y313080D02*
X83987Y313036D01*
X57020Y313080D02*
X61344D01*
X55118Y305118D02*
X57087Y303150D01*
X55118Y311178D02*
X57020Y313080D01*
X55118Y305118D02*
Y311178D01*
X57087Y303150D02*
X61024D01*
X55905Y280315D02*
X61535D01*
X51181Y275590D02*
X55905Y280315D01*
X295351Y167323D02*
X305787D01*
Y177233D01*
X297822Y185198D02*
X305787Y177233D01*
X214567Y173228D02*
Y173597D01*
X212861Y175303D02*
X214567Y173597D01*
X212861Y175303D02*
Y189135D01*
X269685Y171260D02*
X291414D01*
X295351Y167323D01*
X292822Y195198D02*
X292872Y195249D01*
X308688D02*
X312992Y190945D01*
X322835D01*
X292872Y195249D02*
X308688D01*
X169229Y366080D02*
Y379803D01*
X189230Y368516D02*
Y379803D01*
X199230Y370079D02*
Y379803D01*
X209229Y349826D02*
X212598Y346457D01*
X209229Y349708D02*
Y379803D01*
X212598Y346457D02*
X299213D01*
X322835Y264062D02*
Y322835D01*
X299213Y346457D02*
X322835Y322835D01*
X55118Y291339D02*
X55905Y290551D01*
X51181Y291339D02*
X55118D01*
X64961Y366142D02*
X155512D01*
X159230Y369859D02*
Y379921D01*
X155512Y366142D02*
X159230Y369859D01*
X55006Y323316D02*
X61344D01*
X53518Y324803D02*
X55006Y323316D01*
X51181Y324803D02*
X53518D01*
X55905Y290551D02*
X61535D01*
X31496Y301181D02*
X35433Y305118D01*
Y314961D01*
X31496Y281496D02*
Y301181D01*
X35433Y314961D02*
X37402Y316929D01*
Y324803D02*
X46566Y315639D01*
X37402Y316929D02*
Y324803D01*
X167110Y363961D02*
X169229Y366080D01*
X46566Y315639D02*
X61344D01*
X31496Y281496D02*
X35433Y277559D01*
X39370D01*
X44685Y282874D01*
X61535D01*
X37402Y324803D02*
Y354331D01*
X47032Y363961D02*
X167110D01*
X37402Y354331D02*
X47032Y363961D01*
X37402Y303150D02*
Y312779D01*
X41339Y324956D02*
Y354331D01*
X179229Y364269D02*
Y379921D01*
X177165Y362205D02*
X179229Y364269D01*
X49213Y362205D02*
X177165D01*
X41339Y354331D02*
X49213Y362205D01*
X44423Y285433D02*
X61535D01*
X41339Y324956D02*
X48097Y318198D01*
X61344D01*
X37402Y312779D02*
X37614Y312992D01*
X38305Y279315D02*
X44423Y285433D01*
X35798Y279315D02*
X38305D01*
X219230Y355574D02*
Y379803D01*
Y355574D02*
X226378Y348425D01*
X301181D01*
X322835Y127756D02*
Y165354D01*
X332677Y175197D02*
Y316929D01*
X322835Y165354D02*
X332677Y175197D01*
X301181Y348425D02*
X332677Y316929D01*
X49322Y320757D02*
X61344D01*
X45276Y324803D02*
Y352362D01*
Y324803D02*
X49322Y320757D01*
X229229Y355416D02*
Y379803D01*
Y355416D02*
X234252Y350394D01*
X322835Y198425D02*
X322835Y198425D01*
X322835Y198425D02*
Y204724D01*
X234252Y350394D02*
X305118D01*
X318898Y336614D02*
Y336614D01*
X305118Y350394D02*
X318898Y336614D01*
X169291Y102362D02*
X175197Y108268D01*
X169291Y90551D02*
Y102362D01*
X175197Y108268D02*
X181102D01*
X187008Y86614D02*
X197735Y97342D01*
X307982D01*
X173228Y86614D02*
X187008D01*
X169291Y90551D02*
X173228Y86614D01*
X181102Y108268D02*
X188976Y116142D01*
X208109D01*
X213020Y121053D01*
X271654Y242126D02*
X278156D01*
X284062Y236221D02*
X305787D01*
X278156Y242126D02*
X284062Y236221D01*
X212861Y246169D02*
X214567Y244463D01*
X212861Y246169D02*
Y260001D01*
X214567Y244094D02*
Y244463D01*
X296916Y253939D02*
X305787Y245068D01*
Y236221D02*
Y245068D01*
X296916Y118112D02*
X307982Y107046D01*
Y97342D02*
Y107046D01*
X291916Y263938D02*
X292075Y263779D01*
X307087D01*
X314284Y256582D01*
X322835D01*
X291916Y128112D02*
X292075Y127953D01*
X309055D01*
X316732Y120276D01*
X322835D01*
D19*
X66929Y350394D02*
D03*
X78740D02*
D03*
D20*
X275198Y375437D02*
D03*
Y338445D02*
D03*
X136182Y82870D02*
D03*
Y51203D02*
D03*
X125552Y82870D02*
D03*
Y51203D02*
D03*
X264568Y375437D02*
D03*
Y338445D02*
D03*
D21*
X96537Y332208D02*
D03*
X96535Y299592D02*
D03*
X55118Y339843D02*
D03*
X96537Y325751D02*
D03*
X96535Y293136D02*
D03*
X55118Y333386D02*
D03*
D22*
X83944Y313080D02*
D03*
X84135Y287992D02*
D03*
Y282874D02*
D03*
Y280315D02*
D03*
Y277756D02*
D03*
X83944Y315639D02*
D03*
Y310521D02*
D03*
X61344Y313080D02*
D03*
X61535Y280315D02*
D03*
X83944Y325875D02*
D03*
X84135Y293110D02*
D03*
X61344Y325875D02*
D03*
Y323316D02*
D03*
Y320757D02*
D03*
Y318198D02*
D03*
Y315639D02*
D03*
Y310521D02*
D03*
X83944Y318198D02*
D03*
Y320757D02*
D03*
Y323316D02*
D03*
X84135Y290551D02*
D03*
Y285433D02*
D03*
X61535Y277756D02*
D03*
Y282874D02*
D03*
Y285433D02*
D03*
Y287992D02*
D03*
Y290551D02*
D03*
Y293110D02*
D03*
D23*
X44016Y297244D02*
D03*
X50472D02*
D03*
D24*
X127953Y248228D02*
D03*
X322835Y190945D02*
D03*
X127953Y255709D02*
D03*
X322835Y198425D02*
D03*
Y127756D02*
D03*
Y120276D02*
D03*
Y264062D02*
D03*
Y256582D02*
D03*
D25*
X239229Y379803D02*
D03*
X249230D02*
D03*
X229229D02*
D03*
X219230D02*
D03*
X209229D02*
D03*
X199230D02*
D03*
X189230D02*
D03*
X179229D02*
D03*
X169229D02*
D03*
X159230D02*
D03*
D26*
X328740Y375984D02*
D03*
Y11811D02*
D03*
X11811Y375984D02*
D03*
Y11811D02*
D03*
D27*
X286916Y253939D02*
D03*
X287822Y185198D02*
D03*
X286916Y118112D02*
D03*
D28*
X252861Y260001D02*
D03*
X253020Y121053D02*
D03*
X192861Y189135D02*
D03*
X193020Y121053D02*
D03*
X212861Y189135D02*
D03*
X232861D02*
D03*
X252861D02*
D03*
X213020Y121053D02*
D03*
X233020D02*
D03*
X192861Y260001D02*
D03*
X212861D02*
D03*
X232861D02*
D03*
D29*
X110551Y144016D02*
D03*
Y124016D02*
D03*
X90551D02*
D03*
Y144016D02*
D03*
Y51181D02*
D03*
Y71181D02*
D03*
X110551Y51181D02*
D03*
Y71181D02*
D03*
Y216850D02*
D03*
Y196850D02*
D03*
X90551Y216850D02*
D03*
Y196850D02*
D03*
D30*
X305787Y167323D02*
D03*
X307982Y97342D02*
D03*
X305787Y236221D02*
D03*
D31*
X177587Y167323D02*
D03*
X179782Y97342D02*
D03*
X177587Y236221D02*
D03*
D32*
X292822Y195198D02*
D03*
X297822Y185198D02*
D03*
X296916Y118112D02*
D03*
X291916Y128112D02*
D03*
Y263938D02*
D03*
X296916Y253939D02*
D03*
D33*
X120122Y82677D02*
X125552D01*
X120079Y51181D02*
X125552D01*
X84135Y293136D02*
X96535D01*
X83942Y326159D02*
Y334539D01*
X83944Y325875D02*
X96414D01*
X78740Y350394D02*
X86614D01*
X74803Y342520D02*
X118110D01*
X66585Y334302D02*
X74803Y342520D01*
X118110D02*
X122040Y338590D01*
X257874Y338454D02*
Y338583D01*
Y285014D02*
Y338454D01*
X61344Y325875D02*
Y344316D01*
X66929Y349902D01*
Y350394D01*
X257750Y375414D02*
X264544D01*
X275198Y338445D02*
X281252D01*
X281389Y338583D01*
X281496D01*
X275258Y375376D02*
X282235D01*
X275198Y375437D02*
X275258Y375376D01*
X232844Y358828D02*
X239229Y365214D01*
Y379803D01*
X96537Y332208D02*
Y338396D01*
X96457Y305118D02*
X96496Y305079D01*
Y299632D02*
Y305079D01*
Y299632D02*
X96535Y299592D01*
X55118Y339843D02*
Y344488D01*
X37402Y297244D02*
X44016D01*
X136182Y82677D02*
X141732D01*
X136182Y51181D02*
X141732D01*
X66585Y325875D02*
Y334302D01*
X120079Y269685D02*
X124016D01*
X147638Y230315D02*
Y246063D01*
X124016Y269685D02*
X147638Y246063D01*
X258118Y338445D02*
X264568D01*
X258056Y338507D02*
X258118Y338445D01*
X258003Y338454D02*
X258056Y338507D01*
X232861Y260001D02*
X257874Y285014D01*
X122040Y338590D02*
X257874D01*
X264544Y375414D02*
X264568Y375437D01*
X250745Y375414D02*
X257750D01*
X250745Y375198D02*
Y375414D01*
X249230Y376713D02*
X250745Y375198D01*
X249230Y376713D02*
Y379803D01*
X115194Y325751D02*
X118110Y322835D01*
X119502Y176589D02*
X120079Y176012D01*
X118926Y177165D02*
X119502Y176589D01*
X112205Y267717D02*
Y293161D01*
Y307087D01*
X120079Y82634D02*
X120122Y82677D01*
X120079Y51181D02*
Y82634D01*
Y176012D01*
X110551Y51181D02*
X120079D01*
X110551D02*
Y71181D01*
X96537Y325751D02*
X115194D01*
X96561Y293161D02*
X112205D01*
X78740Y234252D02*
X112205Y267717D01*
X90551Y71181D02*
X110551D01*
X88583Y177165D02*
X118926D01*
X78740Y187008D02*
X88583Y177165D01*
X78740Y187008D02*
Y234252D01*
X90551Y51181D02*
Y71181D01*
Y196850D02*
Y216850D01*
X110551D01*
X118425D01*
X127953Y226378D01*
Y248228D01*
X175775Y222600D02*
X192861Y205513D01*
X147479Y222600D02*
X175775D01*
X192861Y189135D02*
Y205513D01*
X165513Y189135D02*
X192861D01*
X143701Y226378D02*
Y242126D01*
X137598Y248228D02*
X143701Y242126D01*
Y226378D02*
X147479Y222600D01*
X168317Y121053D02*
X193020D01*
X151575Y137795D02*
Y175197D01*
X165513Y189135D01*
X151575Y137795D02*
X168317Y121053D01*
X127953Y248228D02*
X137598D01*
X90551Y196850D02*
X110551D01*
X232861Y236221D02*
X260825Y208256D01*
Y187009D02*
Y208256D01*
X233020Y181888D02*
X255704D01*
X260825Y187009D01*
X221646Y109679D02*
X233020Y121053D01*
X232861Y189135D02*
X233020Y188976D01*
Y181888D02*
Y188976D01*
X232861Y236221D02*
Y260001D01*
Y236221D02*
X232861Y236221D01*
X233020Y167323D02*
Y181888D01*
Y121053D02*
Y167323D01*
X192119Y109679D02*
X221646D01*
X179782Y97342D02*
X192119Y109679D01*
X61344Y310521D02*
X66585D01*
Y325875D01*
X55287Y328571D02*
Y333217D01*
Y328571D02*
X57983Y325875D01*
X55118Y333386D02*
X55287Y333217D01*
X61344Y325875D02*
X66585D01*
X57983D02*
X61344D01*
X66585Y278909D02*
Y293110D01*
Y310521D01*
X65432Y277756D02*
X66585Y278909D01*
X177587Y167323D02*
X233020D01*
X177587Y236221D02*
X232861D01*
X54601Y297244D02*
X58735Y293110D01*
X61535D01*
X50472Y297244D02*
X54601D01*
X61535Y293110D02*
X66585D01*
X61535Y277756D02*
X65432D01*
X78740Y285433D02*
X102362D01*
X76772Y287402D02*
X78740Y285433D01*
X192861Y260001D02*
Y275643D01*
X179134Y289370D02*
X192861Y275643D01*
X76772Y287402D02*
Y318898D01*
X78631Y320757D02*
X83944D01*
X76772Y318898D02*
X78631Y320757D01*
X127953Y289370D02*
X179134D01*
X151575Y226378D02*
X216535D01*
X252861Y189135D02*
Y189988D01*
X251391Y191458D02*
X252861Y189988D01*
X251391Y191458D02*
Y191523D01*
X216535Y226378D02*
X251391Y191523D01*
X120079Y263583D02*
Y269685D01*
Y312992D01*
Y263583D02*
X127953Y255709D01*
X147638Y230315D02*
X151575Y226378D01*
X114873Y318198D02*
X120079Y312992D01*
X83944Y318198D02*
X114873D01*
D34*
X88244Y301698D02*
D03*
X66852Y341578D02*
D03*
X28260Y289153D02*
D03*
X41784Y310934D02*
D03*
X48238Y337430D02*
D03*
X78728Y338775D02*
D03*
X83295Y346813D02*
D03*
X83942Y334539D02*
D03*
X86614Y350394D02*
D03*
X86869Y339300D02*
D03*
X92520Y354331D02*
D03*
X61659Y357219D02*
D03*
X83889Y356955D02*
D03*
X88370Y331279D02*
D03*
X185000Y360000D02*
D03*
X98350Y352150D02*
D03*
X94701Y346829D02*
D03*
X103486Y346535D02*
D03*
X110677Y352112D02*
D03*
X102430Y321340D02*
D03*
X106647Y313829D02*
D03*
X80801Y302943D02*
D03*
X40000Y290000D02*
D03*
X37402Y283465D02*
D03*
X70070Y301938D02*
D03*
X54339Y357402D02*
D03*
X105000Y339854D02*
D03*
X115000D02*
D03*
X100000Y270000D02*
D03*
X220000Y50000D02*
D03*
X315000Y80000D02*
D03*
X40000Y370000D02*
D03*
X185000Y180000D02*
D03*
X150000Y90000D02*
D03*
X165000Y40000D02*
D03*
X130000Y330000D02*
D03*
X220000Y150000D02*
D03*
X131295Y129844D02*
D03*
X278784Y247944D02*
D03*
X45000Y60000D02*
D03*
X310000Y70000D02*
D03*
X210000Y290000D02*
D03*
X185000Y80000D02*
D03*
X190000Y50000D02*
D03*
X280000Y290000D02*
D03*
X250000Y30000D02*
D03*
X135000Y280000D02*
D03*
X60000Y70000D02*
D03*
X270000Y50000D02*
D03*
X15000Y60000D02*
D03*
X250000Y90000D02*
D03*
X245000Y60000D02*
D03*
X220000Y70000D02*
D03*
X190000Y290000D02*
D03*
X115000Y300000D02*
D03*
X125917Y140996D02*
D03*
X275000Y200000D02*
D03*
X100000Y310000D02*
D03*
X10000D02*
D03*
Y50000D02*
D03*
X55000Y180000D02*
D03*
X122761Y199801D02*
D03*
X310000Y90000D02*
D03*
X40000D02*
D03*
X25000Y160000D02*
D03*
X275590Y318898D02*
D03*
X300000Y370000D02*
D03*
X90000Y30000D02*
D03*
X225000Y160000D02*
D03*
X145000Y60000D02*
D03*
X315000Y320000D02*
D03*
X250000Y210000D02*
D03*
X130000Y10000D02*
D03*
X110000Y90000D02*
D03*
X80000Y110000D02*
D03*
X20000Y350000D02*
D03*
X325000Y340000D02*
D03*
X315000Y240000D02*
D03*
Y40000D02*
D03*
X225000Y20000D02*
D03*
X90000Y90000D02*
D03*
X230000Y50000D02*
D03*
X165000Y160000D02*
D03*
X175000Y60000D02*
D03*
X110000Y190000D02*
D03*
X235000Y220000D02*
D03*
X174424Y260575D02*
D03*
X120000Y190000D02*
D03*
X190000Y10000D02*
D03*
X245000Y80000D02*
D03*
X215000Y240000D02*
D03*
X180000Y130000D02*
D03*
X110844Y231119D02*
D03*
X175000Y40000D02*
D03*
Y341255D02*
D03*
X90000Y230000D02*
D03*
X180000D02*
D03*
X335000Y240000D02*
D03*
X130000Y310000D02*
D03*
X160000Y110000D02*
D03*
X135000Y200000D02*
D03*
X160000Y250000D02*
D03*
X315000Y100000D02*
D03*
X155000Y300000D02*
D03*
X165000Y200000D02*
D03*
X145000Y280000D02*
D03*
X260000Y10000D02*
D03*
X65000Y80000D02*
D03*
X265000Y120000D02*
D03*
X295000Y40000D02*
D03*
X260000Y70000D02*
D03*
X60000Y210000D02*
D03*
X50000Y110000D02*
D03*
X335000Y180000D02*
D03*
X105000Y40000D02*
D03*
X320000Y50000D02*
D03*
X110000Y250000D02*
D03*
X105000Y60000D02*
D03*
Y20000D02*
D03*
X263779Y318898D02*
D03*
X270000Y110000D02*
D03*
X215000Y40000D02*
D03*
X10000Y290000D02*
D03*
X205000Y320000D02*
D03*
X315000Y380000D02*
D03*
X235000Y40000D02*
D03*
X130000Y370000D02*
D03*
X335000Y80000D02*
D03*
X205000Y140000D02*
D03*
X170000Y310000D02*
D03*
X205000Y160000D02*
D03*
X60000Y150000D02*
D03*
X190000Y30000D02*
D03*
X215000Y320000D02*
D03*
X235000Y80000D02*
D03*
X15000Y180000D02*
D03*
X215000Y341255D02*
D03*
X155000Y100000D02*
D03*
X315000Y140000D02*
D03*
X45000Y80000D02*
D03*
X283094Y258996D02*
D03*
X310000Y130000D02*
D03*
X185000Y20000D02*
D03*
X50000Y70000D02*
D03*
X260539Y369658D02*
D03*
X255000Y80000D02*
D03*
X205000Y120000D02*
D03*
X160000Y270000D02*
D03*
X60000Y370000D02*
D03*
X50000Y150000D02*
D03*
X20000Y370000D02*
D03*
X310000Y230000D02*
D03*
X25000Y260000D02*
D03*
X205000Y100000D02*
D03*
X165000Y180000D02*
D03*
X15000Y340000D02*
D03*
X325000Y220000D02*
D03*
X215000Y280000D02*
D03*
X310000Y370000D02*
D03*
X210000Y230000D02*
D03*
X300000Y290000D02*
D03*
X215000Y220000D02*
D03*
X230000Y150000D02*
D03*
X180000Y30000D02*
D03*
X205000Y300000D02*
D03*
X150000Y330000D02*
D03*
X55000Y20000D02*
D03*
X35000D02*
D03*
X20000Y310000D02*
D03*
X285000Y40000D02*
D03*
X220000Y210000D02*
D03*
X80000Y370000D02*
D03*
X250000Y290000D02*
D03*
X155000Y40000D02*
D03*
X120000Y370000D02*
D03*
X244094Y360236D02*
D03*
X255000Y20000D02*
D03*
X200199Y349170D02*
D03*
X330000Y130000D02*
D03*
X280000Y270000D02*
D03*
X30000Y310000D02*
D03*
X35000Y180000D02*
D03*
X280000Y110000D02*
D03*
X65000Y60000D02*
D03*
X270000Y70000D02*
D03*
X135000Y160000D02*
D03*
X35000Y60000D02*
D03*
X15000Y260000D02*
D03*
X35000Y160000D02*
D03*
X167323Y173228D02*
D03*
X105000Y80000D02*
D03*
X35000Y260000D02*
D03*
X265000D02*
D03*
X129239Y213006D02*
D03*
X195000Y60000D02*
D03*
X210000Y270000D02*
D03*
X55000Y100000D02*
D03*
X295000Y240000D02*
D03*
X245000Y300000D02*
D03*
X200000Y10000D02*
D03*
X145000Y320000D02*
D03*
X305000Y300000D02*
D03*
X230000Y90000D02*
D03*
X195000Y341255D02*
D03*
X20000Y210000D02*
D03*
X175000Y80000D02*
D03*
X210000Y130000D02*
D03*
X140000Y210000D02*
D03*
X75000Y80000D02*
D03*
X45000Y160000D02*
D03*
X35000Y140000D02*
D03*
X15000Y200000D02*
D03*
X130000Y350000D02*
D03*
X185000Y341255D02*
D03*
X115000Y260000D02*
D03*
X90000Y10000D02*
D03*
X35000Y80000D02*
D03*
X250000Y130000D02*
D03*
X215000Y300000D02*
D03*
X35000Y200000D02*
D03*
X270000Y150000D02*
D03*
X230000Y130000D02*
D03*
X90000Y310000D02*
D03*
X330000Y150000D02*
D03*
X315000Y280000D02*
D03*
X80000Y90000D02*
D03*
X235000Y300000D02*
D03*
X140000Y170000D02*
D03*
X240000Y150000D02*
D03*
X319660Y113113D02*
D03*
X220000Y190000D02*
D03*
X170000Y210000D02*
D03*
X100000Y190000D02*
D03*
X300704Y132649D02*
D03*
X300000Y30000D02*
D03*
X305000Y140000D02*
D03*
X160000Y70000D02*
D03*
X75000Y180000D02*
D03*
X200000Y210000D02*
D03*
X65000Y240000D02*
D03*
X105000D02*
D03*
X75000Y100000D02*
D03*
X15000Y240000D02*
D03*
X95000Y40000D02*
D03*
X250000Y10000D02*
D03*
X305000Y280000D02*
D03*
X95000Y380000D02*
D03*
X25000Y100000D02*
D03*
X230000Y290000D02*
D03*
X141162Y69259D02*
D03*
X275000Y120000D02*
D03*
X25000Y340000D02*
D03*
X225000Y260000D02*
D03*
X215000Y200000D02*
D03*
X160000Y230000D02*
D03*
X30000Y50000D02*
D03*
X20000D02*
D03*
X45000Y220000D02*
D03*
X155000Y280000D02*
D03*
X315000Y220000D02*
D03*
X265000Y280000D02*
D03*
X285000Y20000D02*
D03*
X265000Y100000D02*
D03*
X253311Y369503D02*
D03*
X50000Y210000D02*
D03*
X55000Y380000D02*
D03*
X305000Y40000D02*
D03*
X330000Y190000D02*
D03*
X155000Y120000D02*
D03*
Y80000D02*
D03*
X50000Y370000D02*
D03*
X159449Y167323D02*
D03*
X305000Y360000D02*
D03*
X315000D02*
D03*
X235000Y280000D02*
D03*
Y100000D02*
D03*
X100000Y170000D02*
D03*
X50000Y10000D02*
D03*
X295000Y180000D02*
D03*
X30000Y30000D02*
D03*
X75000Y140000D02*
D03*
X170000Y70000D02*
D03*
X10000Y90000D02*
D03*
X145000Y220000D02*
D03*
X125000Y320000D02*
D03*
X320000Y170000D02*
D03*
X290000Y50000D02*
D03*
X255000Y100000D02*
D03*
X195000Y140000D02*
D03*
X300000Y210000D02*
D03*
X280000Y310000D02*
D03*
X120000Y30000D02*
D03*
X300000Y330000D02*
D03*
X115000Y280000D02*
D03*
X170000Y270000D02*
D03*
X286067Y180122D02*
D03*
X95000Y240000D02*
D03*
X295000Y20000D02*
D03*
X310000Y170000D02*
D03*
X250000Y70000D02*
D03*
X70000Y230000D02*
D03*
X220000Y10000D02*
D03*
X150000Y210000D02*
D03*
X250000Y250000D02*
D03*
X165000Y320000D02*
D03*
X55000Y120000D02*
D03*
X290000Y90000D02*
D03*
X300000Y190000D02*
D03*
X25000Y20000D02*
D03*
X270000Y310000D02*
D03*
X260000Y150000D02*
D03*
X145000Y40000D02*
D03*
X70000Y370000D02*
D03*
X145000Y200000D02*
D03*
X15000Y20000D02*
D03*
X280000Y150000D02*
D03*
X10000Y130000D02*
D03*
X20000Y250000D02*
D03*
X120000Y330000D02*
D03*
X160000Y310000D02*
D03*
Y10000D02*
D03*
X50000Y30000D02*
D03*
X135000Y300000D02*
D03*
X155000Y260000D02*
D03*
X80000Y10000D02*
D03*
X75000Y120000D02*
D03*
X45000Y200000D02*
D03*
X75000Y260000D02*
D03*
X195000Y20000D02*
D03*
X300000Y50000D02*
D03*
X190000Y70000D02*
D03*
X330000Y270000D02*
D03*
X40000Y210000D02*
D03*
X60000Y90000D02*
D03*
X240000Y250000D02*
D03*
X40000D02*
D03*
X310000Y50000D02*
D03*
X280000Y370000D02*
D03*
X225000Y180000D02*
D03*
X210000Y210000D02*
D03*
X320000Y30000D02*
D03*
X180000Y250000D02*
D03*
X250000Y310000D02*
D03*
X180000Y70000D02*
D03*
X150000Y370000D02*
D03*
X125000Y100000D02*
D03*
X25000Y60000D02*
D03*
X40000Y50000D02*
D03*
X123333Y149858D02*
D03*
X10000Y170000D02*
D03*
X275000Y100000D02*
D03*
X170000Y110000D02*
D03*
X55000Y300000D02*
D03*
X310000Y270000D02*
D03*
X205000Y341255D02*
D03*
X145000Y380000D02*
D03*
X290000Y70000D02*
D03*
X289370Y151575D02*
D03*
X155512Y173228D02*
D03*
X325000Y360000D02*
D03*
X145000Y341255D02*
D03*
X200000Y330000D02*
D03*
X90000Y170000D02*
D03*
X330000Y350000D02*
D03*
X10000Y110000D02*
D03*
X136235Y261235D02*
D03*
X55000Y260000D02*
D03*
X335000Y280000D02*
D03*
X15000Y220000D02*
D03*
X106299Y297244D02*
D03*
X20000Y270000D02*
D03*
X245000Y120000D02*
D03*
X305000Y20000D02*
D03*
X265000Y180000D02*
D03*
X300000Y150000D02*
D03*
X245000Y160000D02*
D03*
X210000Y70000D02*
D03*
X324871Y178096D02*
D03*
X225000Y80000D02*
D03*
X185000Y60000D02*
D03*
X135000Y20000D02*
D03*
X95000D02*
D03*
X40000Y190000D02*
D03*
X285000Y300000D02*
D03*
X240000Y290000D02*
D03*
X255000Y60000D02*
D03*
X20000Y170000D02*
D03*
X255000Y160000D02*
D03*
Y140000D02*
D03*
X230000Y70000D02*
D03*
X135000Y220000D02*
D03*
X270000Y330000D02*
D03*
X180000Y90000D02*
D03*
X75000Y160000D02*
D03*
X110000Y370000D02*
D03*
X10000Y210000D02*
D03*
X150000Y30000D02*
D03*
X170000Y150000D02*
D03*
X40000Y270000D02*
D03*
X295000Y80000D02*
D03*
X170000Y350000D02*
D03*
X297244Y143701D02*
D03*
X155000Y140000D02*
D03*
X260539Y330000D02*
D03*
X255000Y380000D02*
D03*
X165000Y280000D02*
D03*
X65000Y20000D02*
D03*
X285000Y200000D02*
D03*
X95000Y260000D02*
D03*
X265000Y220000D02*
D03*
X250000Y110000D02*
D03*
X305000Y80000D02*
D03*
X335000Y340000D02*
D03*
X320000Y350000D02*
D03*
X315000Y300000D02*
D03*
X245000Y220000D02*
D03*
X190000Y270000D02*
D03*
X100000Y130000D02*
D03*
X95000Y100000D02*
D03*
X150000Y350000D02*
D03*
X125000Y300000D02*
D03*
X240000Y10000D02*
D03*
X235000Y20000D02*
D03*
X30000Y230000D02*
D03*
X205000Y180000D02*
D03*
X120000Y350000D02*
D03*
X115000Y20000D02*
D03*
X80000Y70000D02*
D03*
X133756Y39574D02*
D03*
X35000Y320000D02*
D03*
X195000Y160000D02*
D03*
X90000Y270000D02*
D03*
X330000Y50000D02*
D03*
X75000Y220000D02*
D03*
X210000Y50000D02*
D03*
X270000Y10000D02*
D03*
X10000Y190000D02*
D03*
X215000Y100000D02*
D03*
X10000Y150000D02*
D03*
X310000D02*
D03*
X335000Y20000D02*
D03*
X95000Y180000D02*
D03*
X250000Y150000D02*
D03*
X25000Y120000D02*
D03*
X15000Y320000D02*
D03*
X330000Y250000D02*
D03*
X224785Y331356D02*
D03*
X80000Y170000D02*
D03*
X60000Y190000D02*
D03*
X280483Y191047D02*
D03*
X110000Y170000D02*
D03*
X315000Y200000D02*
D03*
X220000Y290000D02*
D03*
X300000Y230000D02*
D03*
X140000Y310000D02*
D03*
X20000Y330000D02*
D03*
X200000Y190000D02*
D03*
X40000Y170000D02*
D03*
X95000Y160000D02*
D03*
X200000Y270000D02*
D03*
X195000Y320000D02*
D03*
X135000Y120000D02*
D03*
X175000Y300000D02*
D03*
X240000Y210000D02*
D03*
X280000Y70000D02*
D03*
X85000Y100000D02*
D03*
X205000Y360000D02*
D03*
X55000Y140000D02*
D03*
X240000Y90000D02*
D03*
X200000Y290000D02*
D03*
X95000Y60000D02*
D03*
X330000Y230000D02*
D03*
X185000Y160000D02*
D03*
X65000Y220000D02*
D03*
X135000Y341255D02*
D03*
X310000Y190000D02*
D03*
X170000Y250000D02*
D03*
X115000Y380000D02*
D03*
X160000Y50000D02*
D03*
X115000Y40000D02*
D03*
X290714Y110602D02*
D03*
X185000Y40000D02*
D03*
X125000Y160000D02*
D03*
X65000Y40000D02*
D03*
X295000Y300000D02*
D03*
X70000Y150000D02*
D03*
X35000Y380000D02*
D03*
X215000Y60000D02*
D03*
X315000Y160000D02*
D03*
X140000Y130000D02*
D03*
X285000Y160000D02*
D03*
X315000Y180000D02*
D03*
X40000Y10000D02*
D03*
X140000Y370000D02*
D03*
X70000Y190000D02*
D03*
X75000Y40000D02*
D03*
X330000Y30000D02*
D03*
X195000Y360000D02*
D03*
X285000Y380000D02*
D03*
X115000Y160000D02*
D03*
X260000Y30000D02*
D03*
X225000Y100000D02*
D03*
X200000Y250000D02*
D03*
X45000Y120000D02*
D03*
X225000Y200000D02*
D03*
X280000Y130000D02*
D03*
X235000Y320000D02*
D03*
X55000Y160000D02*
D03*
X50000Y270000D02*
D03*
X230000Y310000D02*
D03*
X335000Y220000D02*
D03*
X65000Y140000D02*
D03*
X70000Y110000D02*
D03*
X110000Y210000D02*
D03*
X265000Y360000D02*
D03*
X65000Y100000D02*
D03*
X120000Y10000D02*
D03*
X25000Y380000D02*
D03*
X260000Y50000D02*
D03*
X295000Y360000D02*
D03*
X80000Y250000D02*
D03*
X260539Y290000D02*
D03*
X180000Y310000D02*
D03*
X75000Y20000D02*
D03*
X270000Y210000D02*
D03*
Y90000D02*
D03*
X25000Y240000D02*
D03*
X140000Y10000D02*
D03*
X335000Y40000D02*
D03*
X165000Y20000D02*
D03*
X140000Y230000D02*
D03*
X245000Y280000D02*
D03*
X225000Y140000D02*
D03*
X300000Y170000D02*
D03*
X205000Y20000D02*
D03*
X100000Y250000D02*
D03*
X25000Y200000D02*
D03*
X10000Y330000D02*
D03*
X310000Y250000D02*
D03*
X150000Y310000D02*
D03*
X175000Y160000D02*
D03*
X290000Y30000D02*
D03*
X100000Y230000D02*
D03*
X50000Y130000D02*
D03*
X15000Y300000D02*
D03*
X85000Y60000D02*
D03*
X195000Y280000D02*
D03*
X190000Y150000D02*
D03*
X70000Y30000D02*
D03*
Y170000D02*
D03*
X275000Y20000D02*
D03*
X10000Y350000D02*
D03*
X230000Y230000D02*
D03*
X70000Y270000D02*
D03*
X35000Y40000D02*
D03*
X140000Y350000D02*
D03*
X10000Y30000D02*
D03*
X295000Y380000D02*
D03*
X285000Y360000D02*
D03*
X140000Y190000D02*
D03*
X105000Y180000D02*
D03*
X80000Y270000D02*
D03*
X55000Y200000D02*
D03*
X200000Y150000D02*
D03*
X60000Y230000D02*
D03*
X50000D02*
D03*
X300000Y10000D02*
D03*
X20000Y70000D02*
D03*
X215000Y20000D02*
D03*
X120000Y230000D02*
D03*
X15000Y280000D02*
D03*
X270000Y130000D02*
D03*
X180000Y330000D02*
D03*
X170000Y30000D02*
D03*
X115000Y60000D02*
D03*
X150000Y190000D02*
D03*
X330000Y210000D02*
D03*
X200000Y230000D02*
D03*
X280000Y90000D02*
D03*
X230000Y10000D02*
D03*
X195000Y100000D02*
D03*
X310000Y310000D02*
D03*
X240000Y70000D02*
D03*
X225000Y120000D02*
D03*
X240000Y30000D02*
D03*
X160000Y150000D02*
D03*
X270000Y230000D02*
D03*
X10000Y250000D02*
D03*
X30000Y350000D02*
D03*
X90000Y370000D02*
D03*
X335000Y320000D02*
D03*
X320000Y370000D02*
D03*
X305000Y220000D02*
D03*
X100000Y150000D02*
D03*
X180000Y210000D02*
D03*
X40000Y110000D02*
D03*
X315000Y60000D02*
D03*
X115000Y100000D02*
D03*
X135000Y380000D02*
D03*
X125000D02*
D03*
X320000Y70000D02*
D03*
X250000Y270000D02*
D03*
X265000Y300000D02*
D03*
X165000Y140000D02*
D03*
X70000Y50000D02*
D03*
X185000Y260000D02*
D03*
X131081Y72540D02*
D03*
X140000Y330000D02*
D03*
X280000Y30000D02*
D03*
X85000Y20000D02*
D03*
X60000Y350000D02*
D03*
X285000Y320000D02*
D03*
X90000Y190000D02*
D03*
X60000Y250000D02*
D03*
X305000Y320000D02*
D03*
X285000Y220000D02*
D03*
X70000Y210000D02*
D03*
X123315Y39674D02*
D03*
X175000Y180000D02*
D03*
X60000Y30000D02*
D03*
Y10000D02*
D03*
X45000Y100000D02*
D03*
X165000Y260000D02*
D03*
X20000Y150000D02*
D03*
X75000Y60000D02*
D03*
X275000Y180000D02*
D03*
X70000Y250000D02*
D03*
X335000Y160000D02*
D03*
X330000Y290000D02*
D03*
X295000Y60000D02*
D03*
X25000Y180000D02*
D03*
X165000Y80000D02*
D03*
X55000Y220000D02*
D03*
X35000Y100000D02*
D03*
X20000Y190000D02*
D03*
X205000Y240000D02*
D03*
Y260000D02*
D03*
X265000Y20000D02*
D03*
X260000Y230000D02*
D03*
X15000Y40000D02*
D03*
X153543Y242126D02*
D03*
X245000Y341255D02*
D03*
X235000Y200000D02*
D03*
X130000Y30000D02*
D03*
X335000Y100000D02*
D03*
X15000D02*
D03*
X250000Y330000D02*
D03*
X240000Y110000D02*
D03*
X180000Y150000D02*
D03*
X120690Y212879D02*
D03*
X325000Y60000D02*
D03*
X200000Y90000D02*
D03*
X310000Y290000D02*
D03*
X285000Y80000D02*
D03*
X295000Y260000D02*
D03*
X230000Y110000D02*
D03*
X145000Y160000D02*
D03*
X155000Y380000D02*
D03*
X135000Y180000D02*
D03*
X40000Y150000D02*
D03*
X25000Y80000D02*
D03*
X170000Y230000D02*
D03*
X70000Y70000D02*
D03*
X175000Y280000D02*
D03*
X135000Y60000D02*
D03*
X163771Y97344D02*
D03*
X270000Y250000D02*
D03*
X240000Y310000D02*
D03*
X200000Y30000D02*
D03*
X130005Y93021D02*
D03*
X310000Y330000D02*
D03*
X135000Y240000D02*
D03*
X190000Y130000D02*
D03*
X275000Y60000D02*
D03*
X170000Y10000D02*
D03*
X45000Y140000D02*
D03*
X70000Y10000D02*
D03*
X20000Y110000D02*
D03*
Y90000D02*
D03*
X160000D02*
D03*
X189936Y349217D02*
D03*
X180000Y350000D02*
D03*
X310000Y110000D02*
D03*
X55000Y60000D02*
D03*
X125000Y280000D02*
D03*
X165354Y242126D02*
D03*
X145000Y140000D02*
D03*
X295000Y160000D02*
D03*
X155000Y320000D02*
D03*
X145000Y180000D02*
D03*
X260539Y310000D02*
D03*
X195000Y240000D02*
D03*
X135000Y100000D02*
D03*
X25000Y300000D02*
D03*
X245000Y260000D02*
D03*
X90000Y250000D02*
D03*
X150000Y110000D02*
D03*
X25000Y280000D02*
D03*
X283465Y141732D02*
D03*
X310000Y210000D02*
D03*
X100000Y110000D02*
D03*
X60000D02*
D03*
X80000Y130000D02*
D03*
X40000Y230000D02*
D03*
X265000Y80000D02*
D03*
X40000Y30000D02*
D03*
X135000Y320000D02*
D03*
X110000Y10000D02*
D03*
X335000Y200000D02*
D03*
X160000Y350000D02*
D03*
X125000Y120000D02*
D03*
X30000Y90000D02*
D03*
X205000Y80000D02*
D03*
X190000Y250000D02*
D03*
X315000Y260000D02*
D03*
X305000Y380000D02*
D03*
X80000Y150000D02*
D03*
X280000Y230000D02*
D03*
X139966Y249966D02*
D03*
X205000Y200000D02*
D03*
X275000Y280000D02*
D03*
X125000Y341255D02*
D03*
X220000Y90000D02*
D03*
X185000Y200000D02*
D03*
X50000Y190000D02*
D03*
X330000Y90000D02*
D03*
X50000Y170000D02*
D03*
X110000Y30000D02*
D03*
X35000Y340000D02*
D03*
X140000Y150000D02*
D03*
X35000Y220000D02*
D03*
X100000Y50000D02*
D03*
X245000Y100000D02*
D03*
X305000Y260000D02*
D03*
X195000Y40000D02*
D03*
X335000Y140000D02*
D03*
X100000Y10000D02*
D03*
X210000Y90000D02*
D03*
X155000Y200000D02*
D03*
X75000D02*
D03*
X215000Y140000D02*
D03*
X130000Y150000D02*
D03*
X145000Y20000D02*
D03*
X45000Y380000D02*
D03*
X310000Y10000D02*
D03*
X30000Y150000D02*
D03*
X150000Y130000D02*
D03*
X80000Y30000D02*
D03*
X155000Y20000D02*
D03*
X20000Y230000D02*
D03*
X155000Y341255D02*
D03*
X325000Y40000D02*
D03*
X120000Y250000D02*
D03*
X85000Y260000D02*
D03*
X145000Y80000D02*
D03*
X45000Y240000D02*
D03*
X255000Y200000D02*
D03*
X330000Y310000D02*
D03*
X145000Y100000D02*
D03*
X135000Y140000D02*
D03*
X295000Y100000D02*
D03*
X30000Y10000D02*
D03*
X160000Y210000D02*
D03*
X214684Y330006D02*
D03*
X65000Y120000D02*
D03*
X60000Y50000D02*
D03*
X240000D02*
D03*
X265000Y160000D02*
D03*
X70000Y90000D02*
D03*
X335000Y380000D02*
D03*
X290000Y230000D02*
D03*
X30000Y170000D02*
D03*
X100000Y30000D02*
D03*
X130000Y170000D02*
D03*
X115626Y80244D02*
D03*
X130000Y190000D02*
D03*
X210000Y250000D02*
D03*
X175000Y200000D02*
D03*
X30000Y130000D02*
D03*
X275000Y160000D02*
D03*
X265000Y40000D02*
D03*
X255000Y220000D02*
D03*
X65000Y200000D02*
D03*
X180000Y50000D02*
D03*
X295085Y280592D02*
D03*
X170000Y130000D02*
D03*
X260000Y270000D02*
D03*
X287402Y210630D02*
D03*
X150000Y270000D02*
D03*
X35000Y360000D02*
D03*
X245000Y40000D02*
D03*
X30000Y250000D02*
D03*
X10000Y70000D02*
D03*
X210000Y150000D02*
D03*
X290000Y310000D02*
D03*
X145000Y120000D02*
D03*
X210000Y10000D02*
D03*
X330000Y330000D02*
D03*
X165000Y120000D02*
D03*
X25000Y40000D02*
D03*
X320000Y150000D02*
D03*
X195000Y380000D02*
D03*
X123549Y59789D02*
D03*
X230000Y30000D02*
D03*
X50000Y90000D02*
D03*
X20000Y290000D02*
D03*
X300000Y310000D02*
D03*
X85000Y40000D02*
D03*
X270000Y190000D02*
D03*
X115000Y180000D02*
D03*
X280000Y210000D02*
D03*
X205000Y380000D02*
D03*
X200000Y130000D02*
D03*
X230000Y270000D02*
D03*
X185000Y240000D02*
D03*
X330000Y110000D02*
D03*
X185000Y300000D02*
D03*
X300000Y70000D02*
D03*
Y110000D02*
D03*
X280000Y330000D02*
D03*
X275000Y80000D02*
D03*
X325000Y240000D02*
D03*
X270000Y30000D02*
D03*
X265000Y60000D02*
D03*
X170000Y330000D02*
D03*
X65000Y160000D02*
D03*
X10000Y270000D02*
D03*
X325000Y20000D02*
D03*
X335000Y60000D02*
D03*
X15000Y80000D02*
D03*
X240000Y190000D02*
D03*
X260000Y110000D02*
D03*
X30000Y270000D02*
D03*
X225000Y320000D02*
D03*
X295000Y340000D02*
D03*
X185000Y140000D02*
D03*
X275000Y260000D02*
D03*
X245000Y380000D02*
D03*
X130000Y50000D02*
D03*
X105000Y280000D02*
D03*
X100000Y90000D02*
D03*
X195000Y180000D02*
D03*
X105000Y160000D02*
D03*
X90000Y110000D02*
D03*
X260000Y90000D02*
D03*
X65000Y180000D02*
D03*
X210000Y30000D02*
D03*
X240000Y130000D02*
D03*
X35000Y120000D02*
D03*
X125000Y180000D02*
D03*
X195000Y220000D02*
D03*
X225000Y341255D02*
D03*
X125000Y240000D02*
D03*
X45000Y180000D02*
D03*
X160000Y330000D02*
D03*
X95000Y80000D02*
D03*
X225000Y60000D02*
D03*
X320000Y10000D02*
D03*
X15000Y140000D02*
D03*
X245000Y320000D02*
D03*
X287402Y342520D02*
D03*
X165000Y341255D02*
D03*
X15000Y160000D02*
D03*
X174715Y101913D02*
D03*
X10000Y230000D02*
D03*
X175000Y20000D02*
D03*
X330000Y70000D02*
D03*
X260000Y250000D02*
D03*
X295000Y320000D02*
D03*
X320000Y90000D02*
D03*
X310000Y30000D02*
D03*
X285000Y60000D02*
D03*
X280000Y10000D02*
D03*
X70000Y130000D02*
D03*
X40000D02*
D03*
X50000Y50000D02*
D03*
X65000Y260000D02*
D03*
X100000Y210000D02*
D03*
X220000Y310000D02*
D03*
X240000Y330000D02*
D03*
X75000Y240000D02*
D03*
X105000Y100000D02*
D03*
X55000Y240000D02*
D03*
X45000Y260000D02*
D03*
X245000Y140000D02*
D03*
X25000Y360000D02*
D03*
X245000Y20000D02*
D03*
X200000Y50000D02*
D03*
Y70000D02*
D03*
X265000Y140000D02*
D03*
X325000Y100000D02*
D03*
X290000Y10000D02*
D03*
X220000Y250000D02*
D03*
X210000Y310000D02*
D03*
X145000Y300000D02*
D03*
X30000Y330000D02*
D03*
X290000Y190000D02*
D03*
X80000Y50000D02*
D03*
X190000Y230000D02*
D03*
X110000Y110000D02*
D03*
X195000Y300000D02*
D03*
X315000Y20000D02*
D03*
X215000Y80000D02*
D03*
X25000Y320000D02*
D03*
X275000Y140000D02*
D03*
X140000Y30000D02*
D03*
X75000Y380000D02*
D03*
X305000Y160000D02*
D03*
X250000Y50000D02*
D03*
X300000Y270000D02*
D03*
X155000Y60000D02*
D03*
X175000Y320000D02*
D03*
X110000Y330000D02*
D03*
X305000Y120000D02*
D03*
X60000Y130000D02*
D03*
X275000Y40000D02*
D03*
X50000Y250000D02*
D03*
X55000Y80000D02*
D03*
X30000Y210000D02*
D03*
X165000Y300000D02*
D03*
X85000Y80000D02*
D03*
X275000Y360000D02*
D03*
Y220000D02*
D03*
X115000Y240000D02*
D03*
X30000Y70000D02*
D03*
X290000Y330000D02*
D03*
X285000Y100000D02*
D03*
X275000Y300000D02*
D03*
X270000Y290000D02*
D03*
X220000Y30000D02*
D03*
X225000Y40000D02*
D03*
X215000Y160000D02*
D03*
X325000Y80000D02*
D03*
X150000Y70000D02*
D03*
X35000Y240000D02*
D03*
X25000Y140000D02*
D03*
X60000Y270000D02*
D03*
X305000Y60000D02*
D03*
X40000Y70000D02*
D03*
X220000Y230000D02*
D03*
X305000Y200000D02*
D03*
X170000Y50000D02*
D03*
X150000D02*
D03*
X200000Y310000D02*
D03*
X65000Y380000D02*
D03*
X225000Y280000D02*
D03*
X335000Y360000D02*
D03*
X250000Y230000D02*
D03*
X280000Y50000D02*
D03*
X180000Y270000D02*
D03*
X255000Y40000D02*
D03*
X45000D02*
D03*
X160000Y30000D02*
D03*
X30000Y190000D02*
D03*
X20000Y10000D02*
D03*
X55000Y40000D02*
D03*
X335000Y260000D02*
D03*
X20000Y30000D02*
D03*
X285000Y280000D02*
D03*
X335000Y300000D02*
D03*
X105000Y380000D02*
D03*
X45000Y20000D02*
D03*
X270000Y370000D02*
D03*
X30000Y110000D02*
D03*
X15000Y120000D02*
D03*
X235000Y60000D02*
D03*
X205000Y280000D02*
D03*
X160000Y190000D02*
D03*
X85000Y380000D02*
D03*
X185000Y220000D02*
D03*
X60000Y170000D02*
D03*
X150000Y10000D02*
D03*
X285000Y240000D02*
D03*
X190000Y330000D02*
D03*
X20000Y130000D02*
D03*
X235000Y341255D02*
D03*
X85000Y160000D02*
D03*
X290000Y270000D02*
D03*
X195000Y80000D02*
D03*
X295000Y220000D02*
D03*
X220000Y270000D02*
D03*
Y130000D02*
D03*
X205000Y220000D02*
D03*
X260000Y130000D02*
D03*
X290000Y370000D02*
D03*
X175000Y140000D02*
D03*
X30000Y370000D02*
D03*
X225000Y300000D02*
D03*
X15000Y360000D02*
D03*
X185000Y320000D02*
D03*
X205000Y40000D02*
D03*
X190000Y310000D02*
D03*
X140000Y110000D02*
D03*
X25000Y220000D02*
D03*
X335000Y120000D02*
D03*
X290000Y290000D02*
D03*
X265000Y200000D02*
D03*
X180000Y10000D02*
D03*
X130000Y110000D02*
D03*
X310000Y350000D02*
D03*
X295000Y200000D02*
D03*
X300000Y90000D02*
D03*
X100000Y370000D02*
D03*
X230000Y250000D02*
D03*
X165000Y60000D02*
D03*
X155000Y160000D02*
D03*
X125000Y20000D02*
D03*
X270000Y270000D02*
D03*
X205000Y60000D02*
D03*
X281496Y338583D02*
D03*
X282235Y375376D02*
D03*
X232844Y358828D02*
D03*
X96537Y338396D02*
D03*
X96457Y305118D02*
D03*
X92520Y288673D02*
D03*
Y312992D02*
D03*
X93220Y280335D02*
D03*
X55118Y344488D02*
D03*
X61024Y303150D02*
D03*
X37402Y297244D02*
D03*
X51181Y275590D02*
D03*
X141732Y82677D02*
D03*
Y51181D02*
D03*
X257750Y375414D02*
D03*
X257874Y338583D02*
D03*
X118110Y322835D02*
D03*
X112205Y307087D02*
D03*
X214567Y173228D02*
D03*
X269685Y171260D02*
D03*
X51181Y291339D02*
D03*
X64961Y366142D02*
D03*
X51181Y324803D02*
D03*
X41339Y352362D02*
D03*
X37614Y312992D02*
D03*
X322835Y204724D02*
D03*
X318898Y336614D02*
D03*
X102362Y285433D02*
D03*
X127953Y289370D02*
D03*
X271654Y242126D02*
D03*
X214567Y244094D02*
D03*
M02*
