G04*
G04 #@! TF.GenerationSoftware,Altium Limited,Altium Designer,26.8.1 (31)*
G04*
G04 Layer_Physical_Order=2*
G04 Layer_Color=16711680*
G04 Board_Origin=10000000|10000000*
%FSLAX25Y25*%
%MOIN*%
G70*
G04*
G04 #@! TF.SameCoordinates,21F914C3-012E-473F-99CC-7E58DD77D828*
G04*
G04*
G04 #@! TF.FilePolarity,Positive*
G04*
G01*
G75*
%ADD13C,0.01000*%
%ADD26C,0.09055*%
%ADD27R,0.05200X0.05200*%
%ADD28C,0.05118*%
%ADD29C,0.10039*%
%ADD30C,0.05100*%
%ADD31R,0.05100X0.05100*%
%ADD32C,0.05200*%
%ADD33C,0.01968*%
%ADD34C,0.02362*%
G36*
X338583Y1969D02*
X1969D01*
Y385827D01*
X338583D01*
Y1969D01*
D02*
G37*
%LPC*%
G36*
X329468Y381512D02*
X329240D01*
Y376484D01*
X334268D01*
Y376712D01*
X333891Y378118D01*
X333163Y379378D01*
X332134Y380407D01*
X330874Y381135D01*
X329468Y381512D01*
D02*
G37*
G36*
X328240D02*
X328012D01*
X326607Y381135D01*
X325346Y380407D01*
X324317Y379378D01*
X323589Y378118D01*
X323213Y376712D01*
Y376484D01*
X328240D01*
Y381512D01*
D02*
G37*
G36*
X12539D02*
X12311D01*
Y376484D01*
X17339D01*
Y376712D01*
X16962Y378118D01*
X16234Y379378D01*
X15205Y380407D01*
X13945Y381135D01*
X12539Y381512D01*
D02*
G37*
G36*
X11311D02*
X11083D01*
X9678Y381135D01*
X8417Y380407D01*
X7388Y379378D01*
X6660Y378118D01*
X6284Y376712D01*
Y376484D01*
X11311D01*
Y381512D01*
D02*
G37*
G36*
X334268Y375484D02*
X329240D01*
Y370457D01*
X329468D01*
X330874Y370833D01*
X332134Y371561D01*
X333163Y372590D01*
X333891Y373851D01*
X334268Y375256D01*
Y375484D01*
D02*
G37*
G36*
X328240D02*
X323213D01*
Y375256D01*
X323589Y373851D01*
X324317Y372590D01*
X325346Y371561D01*
X326607Y370833D01*
X328012Y370457D01*
X328240D01*
Y375484D01*
D02*
G37*
G36*
X17339D02*
X12311D01*
Y370457D01*
X12539D01*
X13945Y370833D01*
X15205Y371561D01*
X16234Y372590D01*
X16962Y373851D01*
X17339Y375256D01*
Y375484D01*
D02*
G37*
G36*
X11311D02*
X6284D01*
Y375256D01*
X6660Y373851D01*
X7388Y372590D01*
X8417Y371561D01*
X9678Y370833D01*
X11083Y370457D01*
X11311D01*
Y375484D01*
D02*
G37*
G36*
X65295Y367823D02*
X64626D01*
X64008Y367567D01*
X63603Y367161D01*
X56895D01*
X56505Y367084D01*
X56174Y366863D01*
X50460Y361149D01*
X50239Y360818D01*
X50161Y360428D01*
Y326161D01*
X49756Y325755D01*
X49500Y325137D01*
Y324469D01*
X49756Y323851D01*
X50161Y323445D01*
Y292696D01*
X49756Y292291D01*
X49500Y291673D01*
Y291004D01*
X49756Y290386D01*
X50229Y289913D01*
X50847Y289657D01*
X51516D01*
X52133Y289913D01*
X52606Y290386D01*
X52862Y291004D01*
Y291673D01*
X52606Y292291D01*
X52201Y292696D01*
Y323445D01*
X52606Y323851D01*
X52862Y324469D01*
Y325137D01*
X52606Y325755D01*
X52201Y326161D01*
Y360006D01*
X57317Y365122D01*
X63603D01*
X64008Y364717D01*
X64626Y364461D01*
X65295D01*
X65913Y364717D01*
X66386Y365190D01*
X66642Y365807D01*
Y366476D01*
X66386Y367094D01*
X65913Y367567D01*
X65295Y367823D01*
D02*
G37*
G36*
X258085Y377095D02*
X257416D01*
X256798Y376839D01*
X256325Y376366D01*
X256069Y375748D01*
Y375079D01*
X256325Y374462D01*
X256361Y374426D01*
Y339322D01*
X256193Y338917D01*
Y338248D01*
X256449Y337630D01*
X256922Y337158D01*
X257540Y336902D01*
X258208D01*
X258826Y337158D01*
X259299Y337630D01*
X259555Y338248D01*
Y338917D01*
X259387Y339322D01*
Y374973D01*
X259431Y375079D01*
Y375748D01*
X259175Y376366D01*
X258703Y376839D01*
X258085Y377095D01*
D02*
G37*
G36*
X86949Y352075D02*
X86280D01*
X85662Y351819D01*
X85189Y351346D01*
X84933Y350728D01*
Y350059D01*
X85101Y349654D01*
Y345115D01*
X82872Y342886D01*
X82544Y342395D01*
X82525Y342299D01*
X82429Y341816D01*
X82429Y341816D01*
Y335278D01*
X82261Y334873D01*
Y334204D01*
X82517Y333586D01*
X82990Y333113D01*
X83608Y332857D01*
X84276D01*
X84894Y333113D01*
X85367Y333586D01*
X85623Y334204D01*
Y334873D01*
X85455Y335278D01*
Y341189D01*
X87684Y343418D01*
X87684Y343418D01*
X87903Y343746D01*
X88012Y343909D01*
X88127Y344488D01*
X88127Y344488D01*
Y349654D01*
X88295Y350059D01*
Y350728D01*
X88039Y351346D01*
X87566Y351819D01*
X86949Y352075D01*
D02*
G37*
G36*
X41673Y354043D02*
X41004D01*
X40386Y353787D01*
X39913Y353314D01*
X39658Y352697D01*
Y352028D01*
X39913Y351410D01*
X40319Y351004D01*
Y317352D01*
X37641Y314673D01*
X37280D01*
X36662Y314417D01*
X36189Y313944D01*
X35933Y313327D01*
Y312658D01*
X36189Y312040D01*
X36662Y311567D01*
X37280Y311311D01*
X37949D01*
X38566Y311567D01*
X39039Y312040D01*
X39295Y312658D01*
Y313327D01*
X39261Y313409D01*
X42059Y316208D01*
X42281Y316539D01*
X42358Y316929D01*
Y351004D01*
X42764Y351410D01*
X43020Y352028D01*
Y352697D01*
X42764Y353314D01*
X42291Y353787D01*
X41673Y354043D01*
D02*
G37*
G36*
X118445Y324516D02*
X117776D01*
X117158Y324260D01*
X116685Y323787D01*
X116517Y323382D01*
X111135Y317999D01*
X110807Y317508D01*
X110787Y317412D01*
X110691Y316929D01*
X110691Y316929D01*
Y307826D01*
X110524Y307421D01*
Y306752D01*
X110780Y306134D01*
X111252Y305662D01*
X111870Y305405D01*
X112539D01*
X113157Y305662D01*
X113630Y306134D01*
X113886Y306752D01*
Y307421D01*
X113718Y307826D01*
Y316302D01*
X118658Y321242D01*
X119062Y321410D01*
X119535Y321882D01*
X119791Y322500D01*
Y323169D01*
X119535Y323787D01*
X119062Y324260D01*
X118445Y324516D01*
D02*
G37*
G36*
X128287Y291051D02*
X127618D01*
X127213Y290883D01*
X106299D01*
X105720Y290768D01*
X105229Y290440D01*
X105229Y290440D01*
X101815Y287026D01*
X101410Y286858D01*
X100937Y286385D01*
X100681Y285768D01*
Y285099D01*
X100937Y284481D01*
X101410Y284008D01*
X102028Y283752D01*
X102697D01*
X103314Y284008D01*
X103787Y284481D01*
X103955Y284886D01*
X106926Y287857D01*
X127213D01*
X127618Y287689D01*
X128287D01*
X128905Y287945D01*
X129378Y288418D01*
X129634Y289036D01*
Y289704D01*
X129378Y290322D01*
X128905Y290795D01*
X128287Y291051D01*
D02*
G37*
G36*
X92854Y356012D02*
X92185D01*
X91567Y355756D01*
X91094Y355283D01*
X90839Y354665D01*
Y354092D01*
X89830Y353083D01*
X89609Y352752D01*
X89532Y352362D01*
Y326846D01*
X72114Y309428D01*
X71893Y309097D01*
X71815Y308707D01*
Y299223D01*
X55108Y282516D01*
X39792D01*
X39083Y283225D01*
Y283799D01*
X38827Y284417D01*
X38354Y284890D01*
X37736Y285146D01*
X37067D01*
X36449Y284890D01*
X35976Y284417D01*
X35721Y283799D01*
Y283130D01*
X35976Y282512D01*
X36449Y282039D01*
X37067Y281784D01*
X37641D01*
X38649Y280775D01*
X38980Y280554D01*
X39370Y280476D01*
X55530D01*
X55920Y280554D01*
X56251Y280775D01*
X73556Y298079D01*
X73777Y298410D01*
X73854Y298800D01*
Y308284D01*
X91272Y325702D01*
X91493Y326033D01*
X91571Y326423D01*
Y351940D01*
X92281Y352650D01*
X92854D01*
X93472Y352906D01*
X93945Y353379D01*
X94201Y353996D01*
Y354665D01*
X93945Y355283D01*
X93472Y355756D01*
X92854Y356012D01*
D02*
G37*
G36*
X292324Y267038D02*
X291508D01*
X290720Y266827D01*
X290013Y266419D01*
X289436Y265842D01*
X289027Y265135D01*
X288816Y264347D01*
Y263530D01*
X289027Y262742D01*
X289436Y262035D01*
X290013Y261458D01*
X290720Y261050D01*
X291508Y260839D01*
X292324D01*
X293113Y261050D01*
X293820Y261458D01*
X294397Y262035D01*
X294805Y262742D01*
X295016Y263530D01*
Y264347D01*
X294805Y265135D01*
X294397Y265842D01*
X293820Y266419D01*
X293113Y266827D01*
X292324Y267038D01*
D02*
G37*
G36*
X253361Y263552D02*
Y260502D01*
X256412D01*
X256178Y261375D01*
X255709Y262187D01*
X255046Y262849D01*
X254235Y263318D01*
X253361Y263552D01*
D02*
G37*
G36*
X252361D02*
X251487Y263318D01*
X250676Y262849D01*
X250013Y262187D01*
X249545Y261375D01*
X249310Y260502D01*
X252361D01*
Y263552D01*
D02*
G37*
G36*
X233264Y263060D02*
X232458D01*
X231680Y262852D01*
X230983Y262449D01*
X230413Y261880D01*
X230011Y261182D01*
X229802Y260404D01*
Y259599D01*
X230011Y258821D01*
X230413Y258123D01*
X230983Y257554D01*
X231680Y257151D01*
X232458Y256942D01*
X233264D01*
X234042Y257151D01*
X234739Y257554D01*
X235309Y258123D01*
X235712Y258821D01*
X235920Y259599D01*
Y260404D01*
X235712Y261182D01*
X235309Y261880D01*
X234739Y262449D01*
X234042Y262852D01*
X233264Y263060D01*
D02*
G37*
G36*
X213264D02*
X212458D01*
X211680Y262852D01*
X210983Y262449D01*
X210413Y261880D01*
X210011Y261182D01*
X209802Y260404D01*
Y259599D01*
X210011Y258821D01*
X210413Y258123D01*
X210983Y257554D01*
X211680Y257151D01*
X212458Y256942D01*
X213264D01*
X214042Y257151D01*
X214739Y257554D01*
X215309Y258123D01*
X215712Y258821D01*
X215920Y259599D01*
Y260404D01*
X215712Y261182D01*
X215309Y261880D01*
X214739Y262449D01*
X214042Y262852D01*
X213264Y263060D01*
D02*
G37*
G36*
X193264D02*
X192458D01*
X191680Y262852D01*
X190983Y262449D01*
X190413Y261880D01*
X190010Y261182D01*
X189802Y260404D01*
Y259599D01*
X190010Y258821D01*
X190413Y258123D01*
X190983Y257554D01*
X191680Y257151D01*
X192458Y256942D01*
X193264D01*
X194042Y257151D01*
X194739Y257554D01*
X195309Y258123D01*
X195712Y258821D01*
X195920Y259599D01*
Y260404D01*
X195712Y261182D01*
X195309Y261880D01*
X194739Y262449D01*
X194042Y262852D01*
X193264Y263060D01*
D02*
G37*
G36*
X256412Y259502D02*
X253361D01*
Y256451D01*
X254235Y256685D01*
X255046Y257154D01*
X255709Y257816D01*
X256178Y258628D01*
X256412Y259502D01*
D02*
G37*
G36*
X252361D02*
X249310D01*
X249545Y258628D01*
X250013Y257816D01*
X250676Y257154D01*
X251487Y256685D01*
X252361Y256451D01*
Y259502D01*
D02*
G37*
G36*
X290516Y257539D02*
X287416D01*
Y254438D01*
X290516D01*
Y257539D01*
D02*
G37*
G36*
X286416D02*
X283316D01*
Y254438D01*
X286416D01*
Y257539D01*
D02*
G37*
G36*
X297324Y257038D02*
X296508D01*
X295720Y256827D01*
X295013Y256419D01*
X294436Y255842D01*
X294027Y255135D01*
X293816Y254347D01*
Y253530D01*
X294027Y252742D01*
X294436Y252035D01*
X295013Y251458D01*
X295720Y251050D01*
X296508Y250838D01*
X297324D01*
X298113Y251050D01*
X298820Y251458D01*
X299397Y252035D01*
X299805Y252742D01*
X300016Y253530D01*
Y254347D01*
X299805Y255135D01*
X299397Y255842D01*
X298820Y256419D01*
X298113Y256827D01*
X297324Y257038D01*
D02*
G37*
G36*
X290516Y253438D02*
X287416D01*
Y250339D01*
X290516D01*
Y253438D01*
D02*
G37*
G36*
X286416D02*
X283316D01*
Y250339D01*
X286416D01*
Y253438D01*
D02*
G37*
G36*
X214901Y245776D02*
X214232D01*
X213615Y245520D01*
X213142Y245047D01*
X212886Y244429D01*
Y243760D01*
X213142Y243142D01*
X213615Y242669D01*
X214232Y242413D01*
X214901D01*
X215095Y242494D01*
X216183Y241405D01*
X216514Y241184D01*
X216904Y241106D01*
X270296D01*
X270701Y240701D01*
X271319Y240445D01*
X271988D01*
X272606Y240701D01*
X273079Y241174D01*
X273335Y241792D01*
Y242460D01*
X273079Y243078D01*
X272606Y243551D01*
X271988Y243807D01*
X271319D01*
X270701Y243551D01*
X270296Y243146D01*
X217326D01*
X216248Y244224D01*
Y244429D01*
X215992Y245047D01*
X215519Y245520D01*
X214901Y245776D01*
D02*
G37*
G36*
X306189Y239270D02*
X305385D01*
X304610Y239063D01*
X303914Y238661D01*
X303346Y238093D01*
X302945Y237398D01*
X302737Y236622D01*
Y235819D01*
X302945Y235043D01*
X303346Y234348D01*
X303914Y233780D01*
X304610Y233378D01*
X305385Y233171D01*
X306189D01*
X306964Y233378D01*
X307660Y233780D01*
X308228Y234348D01*
X308629Y235043D01*
X308837Y235819D01*
Y236622D01*
X308629Y237398D01*
X308228Y238093D01*
X307660Y238661D01*
X306964Y239063D01*
X306189Y239270D01*
D02*
G37*
G36*
X180637D02*
X174537D01*
Y233171D01*
X180637D01*
Y239270D01*
D02*
G37*
G36*
X111278Y222370D02*
X109825D01*
X108421Y221994D01*
X107162Y221267D01*
X106134Y220240D01*
X105408Y218981D01*
X105032Y217577D01*
Y216124D01*
X105408Y214720D01*
X106134Y213461D01*
X107162Y212434D01*
X108421Y211707D01*
X109825Y211331D01*
X111278D01*
X112682Y211707D01*
X113940Y212434D01*
X114968Y213461D01*
X115695Y214720D01*
X116071Y216124D01*
Y217577D01*
X115695Y218981D01*
X114968Y220240D01*
X113940Y221267D01*
X112682Y221994D01*
X111278Y222370D01*
D02*
G37*
G36*
X91278D02*
X89824D01*
X88421Y221994D01*
X87162Y221267D01*
X86134Y220240D01*
X85408Y218981D01*
X85031Y217577D01*
Y216124D01*
X85408Y214720D01*
X86134Y213461D01*
X87162Y212434D01*
X88421Y211707D01*
X89824Y211331D01*
X91278D01*
X92682Y211707D01*
X93940Y212434D01*
X94968Y213461D01*
X95695Y214720D01*
X96071Y216124D01*
Y217577D01*
X95695Y218981D01*
X94968Y220240D01*
X93940Y221267D01*
X92682Y221994D01*
X91278Y222370D01*
D02*
G37*
G36*
X319232Y338295D02*
X318563D01*
X317945Y338039D01*
X317473Y337566D01*
X317216Y336949D01*
Y336280D01*
X317473Y335662D01*
X317878Y335256D01*
Y208661D01*
X317956Y208271D01*
X318177Y207941D01*
X321153Y204964D01*
Y204390D01*
X321410Y203772D01*
X321882Y203299D01*
X322500Y203043D01*
X323169D01*
X323787Y203299D01*
X324260Y203772D01*
X324516Y204390D01*
Y205059D01*
X324260Y205677D01*
X323787Y206150D01*
X323169Y206405D01*
X322596D01*
X319917Y209084D01*
Y335256D01*
X320323Y335662D01*
X320579Y336280D01*
Y336949D01*
X320323Y337566D01*
X319850Y338039D01*
X319232Y338295D01*
D02*
G37*
G36*
X293230Y198298D02*
X292414D01*
X291625Y198087D01*
X290918Y197679D01*
X290341Y197102D01*
X289933Y196395D01*
X289722Y195607D01*
Y194790D01*
X289933Y194002D01*
X290341Y193295D01*
X290918Y192718D01*
X291625Y192310D01*
X292414Y192098D01*
X293230D01*
X294018Y192310D01*
X294725Y192718D01*
X295302Y193295D01*
X295710Y194002D01*
X295922Y194790D01*
Y195607D01*
X295710Y196395D01*
X295302Y197102D01*
X294725Y197679D01*
X294018Y198087D01*
X293230Y198298D01*
D02*
G37*
G36*
X111278Y202370D02*
X109825D01*
X108421Y201994D01*
X107162Y201267D01*
X106134Y200240D01*
X105408Y198981D01*
X105032Y197577D01*
Y196124D01*
X105408Y194720D01*
X106134Y193461D01*
X107162Y192434D01*
X108421Y191707D01*
X109825Y191331D01*
X111278D01*
X112682Y191707D01*
X113940Y192434D01*
X114968Y193461D01*
X115695Y194720D01*
X116071Y196124D01*
Y197577D01*
X115695Y198981D01*
X114968Y200240D01*
X113940Y201267D01*
X112682Y201994D01*
X111278Y202370D01*
D02*
G37*
G36*
X91278D02*
X89824D01*
X88421Y201994D01*
X87162Y201267D01*
X86134Y200240D01*
X85408Y198981D01*
X85031Y197577D01*
Y196124D01*
X85408Y194720D01*
X86134Y193461D01*
X87162Y192434D01*
X88421Y191707D01*
X89824Y191331D01*
X91278D01*
X92682Y191707D01*
X93940Y192434D01*
X94968Y193461D01*
X95695Y194720D01*
X96071Y196124D01*
Y197577D01*
X95695Y198981D01*
X94968Y200240D01*
X93940Y201267D01*
X92682Y201994D01*
X91278Y202370D01*
D02*
G37*
G36*
X253264Y192194D02*
X252458D01*
X251680Y191986D01*
X250983Y191583D01*
X250413Y191014D01*
X250010Y190316D01*
X249802Y189538D01*
Y188733D01*
X250010Y187955D01*
X250413Y187257D01*
X250983Y186688D01*
X251680Y186285D01*
X252458Y186076D01*
X253264D01*
X254042Y186285D01*
X254739Y186688D01*
X255309Y187257D01*
X255712Y187955D01*
X255920Y188733D01*
Y189538D01*
X255712Y190316D01*
X255309Y191014D01*
X254739Y191583D01*
X254042Y191986D01*
X253264Y192194D01*
D02*
G37*
G36*
X233264D02*
X232458D01*
X231680Y191986D01*
X230983Y191583D01*
X230413Y191014D01*
X230011Y190316D01*
X229802Y189538D01*
Y188733D01*
X230011Y187955D01*
X230413Y187257D01*
X230983Y186688D01*
X231680Y186285D01*
X232458Y186076D01*
X233264D01*
X234042Y186285D01*
X234739Y186688D01*
X235309Y187257D01*
X235712Y187955D01*
X235920Y188733D01*
Y189538D01*
X235712Y190316D01*
X235309Y191014D01*
X234739Y191583D01*
X234042Y191986D01*
X233264Y192194D01*
D02*
G37*
G36*
X213264D02*
X212458D01*
X211680Y191986D01*
X210983Y191583D01*
X210413Y191014D01*
X210011Y190316D01*
X209802Y189538D01*
Y188733D01*
X210011Y187955D01*
X210413Y187257D01*
X210983Y186688D01*
X211680Y186285D01*
X212458Y186076D01*
X213264D01*
X214042Y186285D01*
X214739Y186688D01*
X215309Y187257D01*
X215712Y187955D01*
X215920Y188733D01*
Y189538D01*
X215712Y190316D01*
X215309Y191014D01*
X214739Y191583D01*
X214042Y191986D01*
X213264Y192194D01*
D02*
G37*
G36*
X193264D02*
X192458D01*
X191680Y191986D01*
X190983Y191583D01*
X190413Y191014D01*
X190010Y190316D01*
X189802Y189538D01*
Y188733D01*
X190010Y187955D01*
X190413Y187257D01*
X190983Y186688D01*
X191680Y186285D01*
X192458Y186076D01*
X193264D01*
X194042Y186285D01*
X194739Y186688D01*
X195309Y187257D01*
X195712Y187955D01*
X195920Y188733D01*
Y189538D01*
X195712Y190316D01*
X195309Y191014D01*
X194739Y191583D01*
X194042Y191986D01*
X193264Y192194D01*
D02*
G37*
G36*
X291422Y188798D02*
X288322D01*
Y185698D01*
X291422D01*
Y188798D01*
D02*
G37*
G36*
X287322D02*
X284222D01*
Y185698D01*
X287322D01*
Y188798D01*
D02*
G37*
G36*
X298230Y188298D02*
X297414D01*
X296625Y188087D01*
X295918Y187679D01*
X295341Y187102D01*
X294933Y186395D01*
X294722Y185607D01*
Y184790D01*
X294933Y184002D01*
X295341Y183295D01*
X295918Y182718D01*
X296625Y182310D01*
X297414Y182098D01*
X298230D01*
X299018Y182310D01*
X299725Y182718D01*
X300302Y183295D01*
X300710Y184002D01*
X300922Y184790D01*
Y185607D01*
X300710Y186395D01*
X300302Y187102D01*
X299725Y187679D01*
X299018Y188087D01*
X298230Y188298D01*
D02*
G37*
G36*
X291422Y184698D02*
X288322D01*
Y181598D01*
X291422D01*
Y184698D01*
D02*
G37*
G36*
X287322D02*
X284222D01*
Y181598D01*
X287322D01*
Y184698D01*
D02*
G37*
G36*
X214901Y174909D02*
X214232D01*
X213615Y174653D01*
X213142Y174181D01*
X212886Y173563D01*
Y172894D01*
X213142Y172276D01*
X213615Y171803D01*
X214232Y171547D01*
X214806D01*
X215814Y170539D01*
X216145Y170318D01*
X216535Y170240D01*
X268327D01*
X268733Y169835D01*
X269351Y169579D01*
X270019D01*
X270637Y169835D01*
X271110Y170308D01*
X271366Y170925D01*
Y171594D01*
X271110Y172212D01*
X270637Y172685D01*
X270019Y172941D01*
X269351D01*
X268733Y172685D01*
X268327Y172279D01*
X216958D01*
X216248Y172989D01*
Y173563D01*
X215992Y174181D01*
X215519Y174653D01*
X214901Y174909D01*
D02*
G37*
G36*
X306189Y170373D02*
X305385D01*
X304610Y170165D01*
X303914Y169763D01*
X303346Y169196D01*
X302945Y168500D01*
X302737Y167724D01*
Y166921D01*
X302945Y166146D01*
X303346Y165450D01*
X303914Y164882D01*
X304610Y164481D01*
X305385Y164273D01*
X306189D01*
X306964Y164481D01*
X307660Y164882D01*
X308228Y165450D01*
X308629Y166146D01*
X308837Y166921D01*
Y167724D01*
X308629Y168500D01*
X308228Y169196D01*
X307660Y169763D01*
X306964Y170165D01*
X306189Y170373D01*
D02*
G37*
G36*
X180637D02*
X174537D01*
Y164273D01*
X180637D01*
Y170373D01*
D02*
G37*
G36*
X111144Y150035D02*
X111051D01*
Y144516D01*
X116571D01*
Y144609D01*
X116340Y145772D01*
X115886Y146867D01*
X115227Y147853D01*
X114389Y148691D01*
X113403Y149350D01*
X112307Y149804D01*
X111144Y150035D01*
D02*
G37*
G36*
X91144D02*
X91051D01*
Y144516D01*
X96571D01*
Y144609D01*
X96339Y145772D01*
X95886Y146867D01*
X95227Y147853D01*
X94389Y148691D01*
X93403Y149350D01*
X92307Y149804D01*
X91144Y150035D01*
D02*
G37*
G36*
X110051D02*
X109958D01*
X108795Y149804D01*
X107700Y149350D01*
X106714Y148691D01*
X105875Y147853D01*
X105217Y146867D01*
X104763Y145772D01*
X104532Y144609D01*
Y144516D01*
X110051D01*
Y150035D01*
D02*
G37*
G36*
X90051D02*
X89958D01*
X88795Y149804D01*
X87700Y149350D01*
X86714Y148691D01*
X85875Y147853D01*
X85217Y146867D01*
X84763Y145772D01*
X84531Y144609D01*
Y144516D01*
X90051D01*
Y150035D01*
D02*
G37*
G36*
X116571Y143516D02*
X111051D01*
Y137996D01*
X111144D01*
X112307Y138227D01*
X113403Y138681D01*
X114389Y139340D01*
X115227Y140178D01*
X115886Y141164D01*
X116340Y142260D01*
X116571Y143423D01*
Y143516D01*
D02*
G37*
G36*
X110051D02*
X104532D01*
Y143423D01*
X104763Y142260D01*
X105217Y141164D01*
X105875Y140178D01*
X106714Y139340D01*
X107700Y138681D01*
X108795Y138227D01*
X109958Y137996D01*
X110051D01*
Y143516D01*
D02*
G37*
G36*
X96571D02*
X91051D01*
Y137996D01*
X91144D01*
X92307Y138227D01*
X93403Y138681D01*
X94389Y139340D01*
X95227Y140178D01*
X95886Y141164D01*
X96339Y142260D01*
X96571Y143423D01*
Y143516D01*
D02*
G37*
G36*
X90051D02*
X84531D01*
Y143423D01*
X84763Y142260D01*
X85217Y141164D01*
X85875Y140178D01*
X86714Y139340D01*
X87700Y138681D01*
X88795Y138227D01*
X89958Y137996D01*
X90051D01*
Y143516D01*
D02*
G37*
G36*
X292324Y131212D02*
X291508D01*
X290720Y131000D01*
X290013Y130592D01*
X289436Y130015D01*
X289027Y129308D01*
X288816Y128520D01*
Y127704D01*
X289027Y126915D01*
X289436Y126208D01*
X290013Y125631D01*
X290720Y125223D01*
X291508Y125012D01*
X292324D01*
X293113Y125223D01*
X293820Y125631D01*
X294397Y126208D01*
X294805Y126915D01*
X295016Y127704D01*
Y128520D01*
X294805Y129308D01*
X294397Y130015D01*
X293820Y130592D01*
X293113Y131000D01*
X292324Y131212D01*
D02*
G37*
G36*
X111144Y130035D02*
X111051D01*
Y124516D01*
X116571D01*
Y124609D01*
X116340Y125772D01*
X115886Y126867D01*
X115227Y127853D01*
X114389Y128691D01*
X113403Y129350D01*
X112307Y129804D01*
X111144Y130035D01*
D02*
G37*
G36*
X91144D02*
X91051D01*
Y124516D01*
X96571D01*
Y124609D01*
X96339Y125772D01*
X95886Y126867D01*
X95227Y127853D01*
X94389Y128691D01*
X93403Y129350D01*
X92307Y129804D01*
X91144Y130035D01*
D02*
G37*
G36*
X110051D02*
X109958D01*
X108795Y129804D01*
X107700Y129350D01*
X106714Y128691D01*
X105875Y127853D01*
X105217Y126867D01*
X104763Y125772D01*
X104532Y124609D01*
Y124516D01*
X110051D01*
Y130035D01*
D02*
G37*
G36*
X90051D02*
X89958D01*
X88795Y129804D01*
X87700Y129350D01*
X86714Y128691D01*
X85875Y127853D01*
X85217Y126867D01*
X84763Y125772D01*
X84531Y124609D01*
Y124516D01*
X90051D01*
Y130035D01*
D02*
G37*
G36*
X253520Y124603D02*
Y121553D01*
X256571D01*
X256336Y122426D01*
X255868Y123238D01*
X255205Y123901D01*
X254394Y124369D01*
X253520Y124603D01*
D02*
G37*
G36*
X252520D02*
X251646Y124369D01*
X250835Y123901D01*
X250172Y123238D01*
X249704Y122426D01*
X249469Y121553D01*
X252520D01*
Y124603D01*
D02*
G37*
G36*
X290516Y121712D02*
X287416D01*
Y118612D01*
X290516D01*
Y121712D01*
D02*
G37*
G36*
X286416D02*
X283316D01*
Y118612D01*
X286416D01*
Y121712D01*
D02*
G37*
G36*
X116571Y123516D02*
X111051D01*
Y117996D01*
X111144D01*
X112307Y118227D01*
X113403Y118681D01*
X114389Y119340D01*
X115227Y120178D01*
X115886Y121164D01*
X116340Y122260D01*
X116571Y123423D01*
Y123516D01*
D02*
G37*
G36*
X110051D02*
X104532D01*
Y123423D01*
X104763Y122260D01*
X105217Y121164D01*
X105875Y120178D01*
X106714Y119340D01*
X107700Y118681D01*
X108795Y118227D01*
X109958Y117996D01*
X110051D01*
Y123516D01*
D02*
G37*
G36*
X96571D02*
X91051D01*
Y117996D01*
X91144D01*
X92307Y118227D01*
X93403Y118681D01*
X94389Y119340D01*
X95227Y120178D01*
X95886Y121164D01*
X96339Y122260D01*
X96571Y123423D01*
Y123516D01*
D02*
G37*
G36*
X90051D02*
X84531D01*
Y123423D01*
X84763Y122260D01*
X85217Y121164D01*
X85875Y120178D01*
X86714Y119340D01*
X87700Y118681D01*
X88795Y118227D01*
X89958Y117996D01*
X90051D01*
Y123516D01*
D02*
G37*
G36*
X233423Y124112D02*
X232617D01*
X231839Y123903D01*
X231142Y123501D01*
X230572Y122931D01*
X230170Y122233D01*
X229961Y121455D01*
Y120650D01*
X230170Y119872D01*
X230572Y119174D01*
X231142Y118605D01*
X231839Y118202D01*
X232617Y117994D01*
X233423D01*
X234201Y118202D01*
X234898Y118605D01*
X235468Y119174D01*
X235871Y119872D01*
X236079Y120650D01*
Y121455D01*
X235871Y122233D01*
X235468Y122931D01*
X234898Y123501D01*
X234201Y123903D01*
X233423Y124112D01*
D02*
G37*
G36*
X213423D02*
X212617D01*
X211839Y123903D01*
X211142Y123501D01*
X210572Y122931D01*
X210170Y122233D01*
X209961Y121455D01*
Y120650D01*
X210170Y119872D01*
X210572Y119174D01*
X211142Y118605D01*
X211839Y118202D01*
X212617Y117994D01*
X213423D01*
X214201Y118202D01*
X214898Y118605D01*
X215468Y119174D01*
X215871Y119872D01*
X216079Y120650D01*
Y121455D01*
X215871Y122233D01*
X215468Y122931D01*
X214898Y123501D01*
X214201Y123903D01*
X213423Y124112D01*
D02*
G37*
G36*
X193423D02*
X192617D01*
X191839Y123903D01*
X191142Y123501D01*
X190572Y122931D01*
X190170Y122233D01*
X189961Y121455D01*
Y120650D01*
X190170Y119872D01*
X190572Y119174D01*
X191142Y118605D01*
X191839Y118202D01*
X192617Y117994D01*
X193423D01*
X194201Y118202D01*
X194898Y118605D01*
X195468Y119174D01*
X195871Y119872D01*
X196079Y120650D01*
Y121455D01*
X195871Y122233D01*
X195468Y122931D01*
X194898Y123501D01*
X194201Y123903D01*
X193423Y124112D01*
D02*
G37*
G36*
X256571Y120553D02*
X253520D01*
Y117502D01*
X254394Y117736D01*
X255205Y118205D01*
X255868Y118867D01*
X256336Y119679D01*
X256571Y120553D01*
D02*
G37*
G36*
X252520D02*
X249469D01*
X249704Y119679D01*
X250172Y118867D01*
X250835Y118205D01*
X251646Y117736D01*
X252520Y117502D01*
Y120553D01*
D02*
G37*
G36*
X297324Y121212D02*
X296508D01*
X295720Y121001D01*
X295013Y120592D01*
X294436Y120015D01*
X294027Y119308D01*
X293816Y118520D01*
Y117704D01*
X294027Y116915D01*
X294436Y116208D01*
X295013Y115631D01*
X295720Y115223D01*
X296508Y115012D01*
X297324D01*
X298113Y115223D01*
X298820Y115631D01*
X299397Y116208D01*
X299805Y116915D01*
X300016Y117704D01*
Y118520D01*
X299805Y119308D01*
X299397Y120015D01*
X298820Y120592D01*
X298113Y121001D01*
X297324Y121212D01*
D02*
G37*
G36*
X290516Y117612D02*
X287416D01*
Y114512D01*
X290516D01*
Y117612D01*
D02*
G37*
G36*
X286416D02*
X283316D01*
Y114512D01*
X286416D01*
Y117612D01*
D02*
G37*
G36*
X308383Y100391D02*
X307580D01*
X306804Y100184D01*
X306109Y99782D01*
X305541Y99214D01*
X305140Y98519D01*
X304932Y97743D01*
Y96940D01*
X305140Y96164D01*
X305541Y95469D01*
X306109Y94901D01*
X306804Y94499D01*
X307580Y94292D01*
X308383D01*
X309159Y94499D01*
X309855Y94901D01*
X310422Y95469D01*
X310824Y96164D01*
X311032Y96940D01*
Y97743D01*
X310824Y98519D01*
X310422Y99214D01*
X309855Y99782D01*
X309159Y100184D01*
X308383Y100391D01*
D02*
G37*
G36*
X182832D02*
X176732D01*
Y94292D01*
X182832D01*
Y100391D01*
D02*
G37*
G36*
X111278Y76701D02*
X109825D01*
X108421Y76325D01*
X107162Y75598D01*
X106134Y74570D01*
X105408Y73312D01*
X105032Y71908D01*
Y70454D01*
X105408Y69051D01*
X106134Y67792D01*
X107162Y66764D01*
X108421Y66038D01*
X109825Y65661D01*
X111278D01*
X112682Y66038D01*
X113940Y66764D01*
X114968Y67792D01*
X115695Y69051D01*
X116071Y70454D01*
Y71908D01*
X115695Y73312D01*
X114968Y74570D01*
X113940Y75598D01*
X112682Y76325D01*
X111278Y76701D01*
D02*
G37*
G36*
X91278D02*
X89824D01*
X88421Y76325D01*
X87162Y75598D01*
X86134Y74570D01*
X85408Y73312D01*
X85031Y71908D01*
Y70454D01*
X85408Y69051D01*
X86134Y67792D01*
X87162Y66764D01*
X88421Y66038D01*
X89824Y65661D01*
X91278D01*
X92682Y66038D01*
X93940Y66764D01*
X94968Y67792D01*
X95695Y69051D01*
X96071Y70454D01*
Y71908D01*
X95695Y73312D01*
X94968Y74570D01*
X93940Y75598D01*
X92682Y76325D01*
X91278Y76701D01*
D02*
G37*
G36*
X111278Y56701D02*
X109825D01*
X108421Y56325D01*
X107162Y55598D01*
X106134Y54570D01*
X105408Y53312D01*
X105032Y51908D01*
Y50454D01*
X105408Y49051D01*
X106134Y47792D01*
X107162Y46764D01*
X108421Y46038D01*
X109825Y45661D01*
X111278D01*
X112682Y46038D01*
X113940Y46764D01*
X114968Y47792D01*
X115695Y49051D01*
X116071Y50454D01*
Y51908D01*
X115695Y53312D01*
X114968Y54570D01*
X113940Y55598D01*
X112682Y56325D01*
X111278Y56701D01*
D02*
G37*
G36*
X91278D02*
X89824D01*
X88421Y56325D01*
X87162Y55598D01*
X86134Y54570D01*
X85408Y53312D01*
X85031Y51908D01*
Y50454D01*
X85408Y49051D01*
X86134Y47792D01*
X87162Y46764D01*
X88421Y46038D01*
X89824Y45661D01*
X91278D01*
X92682Y46038D01*
X93940Y46764D01*
X94968Y47792D01*
X95695Y49051D01*
X96071Y50454D01*
Y51908D01*
X95695Y53312D01*
X94968Y54570D01*
X93940Y55598D01*
X92682Y56325D01*
X91278Y56701D01*
D02*
G37*
G36*
X329468Y17339D02*
X329240D01*
Y12311D01*
X334268D01*
Y12539D01*
X333891Y13945D01*
X333163Y15205D01*
X332134Y16234D01*
X330874Y16962D01*
X329468Y17339D01*
D02*
G37*
G36*
X328240D02*
X328012D01*
X326607Y16962D01*
X325346Y16234D01*
X324317Y15205D01*
X323589Y13945D01*
X323213Y12539D01*
Y12311D01*
X328240D01*
Y17339D01*
D02*
G37*
G36*
X12539D02*
X12311D01*
Y12311D01*
X17339D01*
Y12539D01*
X16962Y13945D01*
X16234Y15205D01*
X15205Y16234D01*
X13945Y16962D01*
X12539Y17339D01*
D02*
G37*
G36*
X11311D02*
X11083D01*
X9678Y16962D01*
X8417Y16234D01*
X7388Y15205D01*
X6660Y13945D01*
X6284Y12539D01*
Y12311D01*
X11311D01*
Y17339D01*
D02*
G37*
G36*
X334268Y11311D02*
X329240D01*
Y6284D01*
X329468D01*
X330874Y6660D01*
X332134Y7388D01*
X333163Y8417D01*
X333891Y9678D01*
X334268Y11083D01*
Y11311D01*
D02*
G37*
G36*
X328240D02*
X323213D01*
Y11083D01*
X323589Y9678D01*
X324317Y8417D01*
X325346Y7388D01*
X326607Y6660D01*
X328012Y6284D01*
X328240D01*
Y11311D01*
D02*
G37*
G36*
X17339D02*
X12311D01*
Y6284D01*
X12539D01*
X13945Y6660D01*
X15205Y7388D01*
X16234Y8417D01*
X16962Y9678D01*
X17339Y11083D01*
Y11311D01*
D02*
G37*
G36*
X11311D02*
X6284D01*
Y11083D01*
X6660Y9678D01*
X7388Y8417D01*
X8417Y7388D01*
X9678Y6660D01*
X11083Y6284D01*
X11311D01*
Y11311D01*
D02*
G37*
%LPD*%
D13*
X72835Y308707D02*
X90551Y326423D01*
Y352362D02*
X92520Y354331D01*
X90551Y326423D02*
Y352362D01*
X37402Y283465D02*
X39370Y281496D01*
X55530D01*
X72835Y298800D02*
Y308707D01*
X214567Y173228D02*
X216535Y171260D01*
X269685D01*
X51181Y291339D02*
Y360428D01*
X56895Y366142D02*
X64961D01*
X51181Y360428D02*
X56895Y366142D01*
X41339Y316929D02*
Y352362D01*
X37614Y313205D02*
X41339Y316929D01*
X37614Y312992D02*
Y313205D01*
X55530Y281496D02*
X72835Y298800D01*
X318898Y208661D02*
Y336614D01*
Y208661D02*
X322835Y204724D01*
X216904Y242126D02*
X271654D01*
X214935Y244094D02*
X216904Y242126D01*
X214567Y244094D02*
X214935D01*
D26*
X328740Y375984D02*
D03*
Y11811D02*
D03*
X11811Y375984D02*
D03*
Y11811D02*
D03*
D27*
X286916Y253939D02*
D03*
X287822Y185198D02*
D03*
X286916Y118112D02*
D03*
D28*
X252861Y260001D02*
D03*
X253020Y121053D02*
D03*
X192861Y189135D02*
D03*
X193020Y121053D02*
D03*
X212861Y189135D02*
D03*
X232861D02*
D03*
X252861D02*
D03*
X213020Y121053D02*
D03*
X233020D02*
D03*
X192861Y260001D02*
D03*
X212861D02*
D03*
X232861D02*
D03*
D29*
X110551Y144016D02*
D03*
Y124016D02*
D03*
X90551D02*
D03*
Y144016D02*
D03*
Y51181D02*
D03*
Y71181D02*
D03*
X110551Y51181D02*
D03*
Y71181D02*
D03*
Y216850D02*
D03*
Y196850D02*
D03*
X90551Y216850D02*
D03*
Y196850D02*
D03*
D30*
X305787Y167323D02*
D03*
X307982Y97342D02*
D03*
X305787Y236221D02*
D03*
D31*
X177587Y167323D02*
D03*
X179782Y97342D02*
D03*
X177587Y236221D02*
D03*
D32*
X292822Y195198D02*
D03*
X297822Y185198D02*
D03*
X296916Y118112D02*
D03*
X291916Y128112D02*
D03*
Y263938D02*
D03*
X296916Y253939D02*
D03*
D33*
X83942Y341816D02*
X86614Y344488D01*
X83942Y334539D02*
Y341816D01*
X86614Y344488D02*
Y350394D01*
X257874Y338583D02*
Y375184D01*
X257826Y375232D02*
Y375242D01*
Y375232D02*
X257874Y375184D01*
X257826Y375242D02*
X257874Y375290D01*
X112205Y316929D02*
X118110Y322835D01*
X112205Y307087D02*
Y316929D01*
X102362Y285433D02*
X106299Y289370D01*
X127953D01*
D34*
X88244Y301698D02*
D03*
X66852Y341578D02*
D03*
X28260Y289153D02*
D03*
X41784Y310934D02*
D03*
X48238Y337430D02*
D03*
X78728Y338775D02*
D03*
X83295Y346813D02*
D03*
X83942Y334539D02*
D03*
X86614Y350394D02*
D03*
X86869Y339300D02*
D03*
X92520Y354331D02*
D03*
X61659Y357219D02*
D03*
X83889Y356955D02*
D03*
X88370Y331279D02*
D03*
X185000Y360000D02*
D03*
X98350Y352150D02*
D03*
X94701Y346829D02*
D03*
X103486Y346535D02*
D03*
X110677Y352112D02*
D03*
X102430Y321340D02*
D03*
X106647Y313829D02*
D03*
X80801Y302943D02*
D03*
X40000Y290000D02*
D03*
X37402Y283465D02*
D03*
X70070Y301938D02*
D03*
X54339Y357402D02*
D03*
X105000Y339854D02*
D03*
X115000D02*
D03*
X100000Y270000D02*
D03*
X220000Y50000D02*
D03*
X315000Y80000D02*
D03*
X40000Y370000D02*
D03*
X185000Y180000D02*
D03*
X150000Y90000D02*
D03*
X165000Y40000D02*
D03*
X130000Y330000D02*
D03*
X220000Y150000D02*
D03*
X131295Y129844D02*
D03*
X278784Y247944D02*
D03*
X45000Y60000D02*
D03*
X310000Y70000D02*
D03*
X210000Y290000D02*
D03*
X185000Y80000D02*
D03*
X190000Y50000D02*
D03*
X280000Y290000D02*
D03*
X250000Y30000D02*
D03*
X135000Y280000D02*
D03*
X60000Y70000D02*
D03*
X270000Y50000D02*
D03*
X15000Y60000D02*
D03*
X250000Y90000D02*
D03*
X245000Y60000D02*
D03*
X220000Y70000D02*
D03*
X190000Y290000D02*
D03*
X115000Y300000D02*
D03*
X125917Y140996D02*
D03*
X275000Y200000D02*
D03*
X100000Y310000D02*
D03*
X10000D02*
D03*
Y50000D02*
D03*
X55000Y180000D02*
D03*
X122761Y199801D02*
D03*
X310000Y90000D02*
D03*
X40000D02*
D03*
X25000Y160000D02*
D03*
X275590Y318898D02*
D03*
X300000Y370000D02*
D03*
X90000Y30000D02*
D03*
X225000Y160000D02*
D03*
X145000Y60000D02*
D03*
X315000Y320000D02*
D03*
X250000Y210000D02*
D03*
X130000Y10000D02*
D03*
X110000Y90000D02*
D03*
X80000Y110000D02*
D03*
X20000Y350000D02*
D03*
X325000Y340000D02*
D03*
X315000Y240000D02*
D03*
Y40000D02*
D03*
X225000Y20000D02*
D03*
X90000Y90000D02*
D03*
X230000Y50000D02*
D03*
X165000Y160000D02*
D03*
X175000Y60000D02*
D03*
X110000Y190000D02*
D03*
X235000Y220000D02*
D03*
X174424Y260575D02*
D03*
X120000Y190000D02*
D03*
X190000Y10000D02*
D03*
X245000Y80000D02*
D03*
X215000Y240000D02*
D03*
X180000Y130000D02*
D03*
X110844Y231119D02*
D03*
X175000Y40000D02*
D03*
Y341255D02*
D03*
X90000Y230000D02*
D03*
X180000D02*
D03*
X335000Y240000D02*
D03*
X130000Y310000D02*
D03*
X160000Y110000D02*
D03*
X135000Y200000D02*
D03*
X160000Y250000D02*
D03*
X315000Y100000D02*
D03*
X155000Y300000D02*
D03*
X165000Y200000D02*
D03*
X145000Y280000D02*
D03*
X260000Y10000D02*
D03*
X65000Y80000D02*
D03*
X265000Y120000D02*
D03*
X295000Y40000D02*
D03*
X260000Y70000D02*
D03*
X60000Y210000D02*
D03*
X50000Y110000D02*
D03*
X335000Y180000D02*
D03*
X105000Y40000D02*
D03*
X320000Y50000D02*
D03*
X110000Y250000D02*
D03*
X105000Y60000D02*
D03*
Y20000D02*
D03*
X263779Y318898D02*
D03*
X270000Y110000D02*
D03*
X215000Y40000D02*
D03*
X10000Y290000D02*
D03*
X205000Y320000D02*
D03*
X315000Y380000D02*
D03*
X235000Y40000D02*
D03*
X130000Y370000D02*
D03*
X335000Y80000D02*
D03*
X205000Y140000D02*
D03*
X170000Y310000D02*
D03*
X205000Y160000D02*
D03*
X60000Y150000D02*
D03*
X190000Y30000D02*
D03*
X215000Y320000D02*
D03*
X235000Y80000D02*
D03*
X15000Y180000D02*
D03*
X215000Y341255D02*
D03*
X155000Y100000D02*
D03*
X315000Y140000D02*
D03*
X45000Y80000D02*
D03*
X283094Y258996D02*
D03*
X310000Y130000D02*
D03*
X185000Y20000D02*
D03*
X50000Y70000D02*
D03*
X260539Y369658D02*
D03*
X255000Y80000D02*
D03*
X205000Y120000D02*
D03*
X160000Y270000D02*
D03*
X60000Y370000D02*
D03*
X50000Y150000D02*
D03*
X20000Y370000D02*
D03*
X310000Y230000D02*
D03*
X25000Y260000D02*
D03*
X205000Y100000D02*
D03*
X165000Y180000D02*
D03*
X15000Y340000D02*
D03*
X325000Y220000D02*
D03*
X215000Y280000D02*
D03*
X310000Y370000D02*
D03*
X210000Y230000D02*
D03*
X300000Y290000D02*
D03*
X215000Y220000D02*
D03*
X230000Y150000D02*
D03*
X180000Y30000D02*
D03*
X205000Y300000D02*
D03*
X150000Y330000D02*
D03*
X55000Y20000D02*
D03*
X35000D02*
D03*
X20000Y310000D02*
D03*
X285000Y40000D02*
D03*
X220000Y210000D02*
D03*
X80000Y370000D02*
D03*
X250000Y290000D02*
D03*
X155000Y40000D02*
D03*
X120000Y370000D02*
D03*
X244094Y360236D02*
D03*
X255000Y20000D02*
D03*
X200199Y349170D02*
D03*
X330000Y130000D02*
D03*
X280000Y270000D02*
D03*
X30000Y310000D02*
D03*
X35000Y180000D02*
D03*
X280000Y110000D02*
D03*
X65000Y60000D02*
D03*
X270000Y70000D02*
D03*
X135000Y160000D02*
D03*
X35000Y60000D02*
D03*
X15000Y260000D02*
D03*
X35000Y160000D02*
D03*
X167323Y173228D02*
D03*
X105000Y80000D02*
D03*
X35000Y260000D02*
D03*
X265000D02*
D03*
X129239Y213006D02*
D03*
X195000Y60000D02*
D03*
X210000Y270000D02*
D03*
X55000Y100000D02*
D03*
X295000Y240000D02*
D03*
X245000Y300000D02*
D03*
X200000Y10000D02*
D03*
X145000Y320000D02*
D03*
X305000Y300000D02*
D03*
X230000Y90000D02*
D03*
X195000Y341255D02*
D03*
X20000Y210000D02*
D03*
X175000Y80000D02*
D03*
X210000Y130000D02*
D03*
X140000Y210000D02*
D03*
X75000Y80000D02*
D03*
X45000Y160000D02*
D03*
X35000Y140000D02*
D03*
X15000Y200000D02*
D03*
X130000Y350000D02*
D03*
X185000Y341255D02*
D03*
X115000Y260000D02*
D03*
X90000Y10000D02*
D03*
X35000Y80000D02*
D03*
X250000Y130000D02*
D03*
X215000Y300000D02*
D03*
X35000Y200000D02*
D03*
X270000Y150000D02*
D03*
X230000Y130000D02*
D03*
X90000Y310000D02*
D03*
X330000Y150000D02*
D03*
X315000Y280000D02*
D03*
X80000Y90000D02*
D03*
X235000Y300000D02*
D03*
X140000Y170000D02*
D03*
X240000Y150000D02*
D03*
X319660Y113113D02*
D03*
X220000Y190000D02*
D03*
X170000Y210000D02*
D03*
X100000Y190000D02*
D03*
X300704Y132649D02*
D03*
X300000Y30000D02*
D03*
X305000Y140000D02*
D03*
X160000Y70000D02*
D03*
X75000Y180000D02*
D03*
X200000Y210000D02*
D03*
X65000Y240000D02*
D03*
X105000D02*
D03*
X75000Y100000D02*
D03*
X15000Y240000D02*
D03*
X95000Y40000D02*
D03*
X250000Y10000D02*
D03*
X305000Y280000D02*
D03*
X95000Y380000D02*
D03*
X25000Y100000D02*
D03*
X230000Y290000D02*
D03*
X141162Y69259D02*
D03*
X275000Y120000D02*
D03*
X25000Y340000D02*
D03*
X225000Y260000D02*
D03*
X215000Y200000D02*
D03*
X160000Y230000D02*
D03*
X30000Y50000D02*
D03*
X20000D02*
D03*
X45000Y220000D02*
D03*
X155000Y280000D02*
D03*
X315000Y220000D02*
D03*
X265000Y280000D02*
D03*
X285000Y20000D02*
D03*
X265000Y100000D02*
D03*
X253311Y369503D02*
D03*
X50000Y210000D02*
D03*
X55000Y380000D02*
D03*
X305000Y40000D02*
D03*
X330000Y190000D02*
D03*
X155000Y120000D02*
D03*
Y80000D02*
D03*
X50000Y370000D02*
D03*
X159449Y167323D02*
D03*
X305000Y360000D02*
D03*
X315000D02*
D03*
X235000Y280000D02*
D03*
Y100000D02*
D03*
X100000Y170000D02*
D03*
X50000Y10000D02*
D03*
X295000Y180000D02*
D03*
X30000Y30000D02*
D03*
X75000Y140000D02*
D03*
X170000Y70000D02*
D03*
X10000Y90000D02*
D03*
X145000Y220000D02*
D03*
X125000Y320000D02*
D03*
X320000Y170000D02*
D03*
X290000Y50000D02*
D03*
X255000Y100000D02*
D03*
X195000Y140000D02*
D03*
X300000Y210000D02*
D03*
X280000Y310000D02*
D03*
X120000Y30000D02*
D03*
X300000Y330000D02*
D03*
X115000Y280000D02*
D03*
X170000Y270000D02*
D03*
X286067Y180122D02*
D03*
X95000Y240000D02*
D03*
X295000Y20000D02*
D03*
X310000Y170000D02*
D03*
X250000Y70000D02*
D03*
X70000Y230000D02*
D03*
X220000Y10000D02*
D03*
X150000Y210000D02*
D03*
X250000Y250000D02*
D03*
X165000Y320000D02*
D03*
X55000Y120000D02*
D03*
X290000Y90000D02*
D03*
X300000Y190000D02*
D03*
X25000Y20000D02*
D03*
X270000Y310000D02*
D03*
X260000Y150000D02*
D03*
X145000Y40000D02*
D03*
X70000Y370000D02*
D03*
X145000Y200000D02*
D03*
X15000Y20000D02*
D03*
X280000Y150000D02*
D03*
X10000Y130000D02*
D03*
X20000Y250000D02*
D03*
X120000Y330000D02*
D03*
X160000Y310000D02*
D03*
Y10000D02*
D03*
X50000Y30000D02*
D03*
X135000Y300000D02*
D03*
X155000Y260000D02*
D03*
X80000Y10000D02*
D03*
X75000Y120000D02*
D03*
X45000Y200000D02*
D03*
X75000Y260000D02*
D03*
X195000Y20000D02*
D03*
X300000Y50000D02*
D03*
X190000Y70000D02*
D03*
X330000Y270000D02*
D03*
X40000Y210000D02*
D03*
X60000Y90000D02*
D03*
X240000Y250000D02*
D03*
X40000D02*
D03*
X310000Y50000D02*
D03*
X280000Y370000D02*
D03*
X225000Y180000D02*
D03*
X210000Y210000D02*
D03*
X320000Y30000D02*
D03*
X180000Y250000D02*
D03*
X250000Y310000D02*
D03*
X180000Y70000D02*
D03*
X150000Y370000D02*
D03*
X125000Y100000D02*
D03*
X25000Y60000D02*
D03*
X40000Y50000D02*
D03*
X123333Y149858D02*
D03*
X10000Y170000D02*
D03*
X275000Y100000D02*
D03*
X170000Y110000D02*
D03*
X55000Y300000D02*
D03*
X310000Y270000D02*
D03*
X205000Y341255D02*
D03*
X145000Y380000D02*
D03*
X290000Y70000D02*
D03*
X289370Y151575D02*
D03*
X155512Y173228D02*
D03*
X325000Y360000D02*
D03*
X145000Y341255D02*
D03*
X200000Y330000D02*
D03*
X90000Y170000D02*
D03*
X330000Y350000D02*
D03*
X10000Y110000D02*
D03*
X136235Y261235D02*
D03*
X55000Y260000D02*
D03*
X335000Y280000D02*
D03*
X15000Y220000D02*
D03*
X106299Y297244D02*
D03*
X20000Y270000D02*
D03*
X245000Y120000D02*
D03*
X305000Y20000D02*
D03*
X265000Y180000D02*
D03*
X300000Y150000D02*
D03*
X245000Y160000D02*
D03*
X210000Y70000D02*
D03*
X324871Y178096D02*
D03*
X225000Y80000D02*
D03*
X185000Y60000D02*
D03*
X135000Y20000D02*
D03*
X95000D02*
D03*
X40000Y190000D02*
D03*
X285000Y300000D02*
D03*
X240000Y290000D02*
D03*
X255000Y60000D02*
D03*
X20000Y170000D02*
D03*
X255000Y160000D02*
D03*
Y140000D02*
D03*
X230000Y70000D02*
D03*
X135000Y220000D02*
D03*
X270000Y330000D02*
D03*
X180000Y90000D02*
D03*
X75000Y160000D02*
D03*
X110000Y370000D02*
D03*
X10000Y210000D02*
D03*
X150000Y30000D02*
D03*
X170000Y150000D02*
D03*
X40000Y270000D02*
D03*
X295000Y80000D02*
D03*
X170000Y350000D02*
D03*
X297244Y143701D02*
D03*
X155000Y140000D02*
D03*
X260539Y330000D02*
D03*
X255000Y380000D02*
D03*
X165000Y280000D02*
D03*
X65000Y20000D02*
D03*
X285000Y200000D02*
D03*
X95000Y260000D02*
D03*
X265000Y220000D02*
D03*
X250000Y110000D02*
D03*
X305000Y80000D02*
D03*
X335000Y340000D02*
D03*
X320000Y350000D02*
D03*
X315000Y300000D02*
D03*
X245000Y220000D02*
D03*
X190000Y270000D02*
D03*
X100000Y130000D02*
D03*
X95000Y100000D02*
D03*
X150000Y350000D02*
D03*
X125000Y300000D02*
D03*
X240000Y10000D02*
D03*
X235000Y20000D02*
D03*
X30000Y230000D02*
D03*
X205000Y180000D02*
D03*
X120000Y350000D02*
D03*
X115000Y20000D02*
D03*
X80000Y70000D02*
D03*
X133756Y39574D02*
D03*
X35000Y320000D02*
D03*
X195000Y160000D02*
D03*
X90000Y270000D02*
D03*
X330000Y50000D02*
D03*
X75000Y220000D02*
D03*
X210000Y50000D02*
D03*
X270000Y10000D02*
D03*
X10000Y190000D02*
D03*
X215000Y100000D02*
D03*
X10000Y150000D02*
D03*
X310000D02*
D03*
X335000Y20000D02*
D03*
X95000Y180000D02*
D03*
X250000Y150000D02*
D03*
X25000Y120000D02*
D03*
X15000Y320000D02*
D03*
X330000Y250000D02*
D03*
X224785Y331356D02*
D03*
X80000Y170000D02*
D03*
X60000Y190000D02*
D03*
X280483Y191047D02*
D03*
X110000Y170000D02*
D03*
X315000Y200000D02*
D03*
X220000Y290000D02*
D03*
X300000Y230000D02*
D03*
X140000Y310000D02*
D03*
X20000Y330000D02*
D03*
X200000Y190000D02*
D03*
X40000Y170000D02*
D03*
X95000Y160000D02*
D03*
X200000Y270000D02*
D03*
X195000Y320000D02*
D03*
X135000Y120000D02*
D03*
X175000Y300000D02*
D03*
X240000Y210000D02*
D03*
X280000Y70000D02*
D03*
X85000Y100000D02*
D03*
X205000Y360000D02*
D03*
X55000Y140000D02*
D03*
X240000Y90000D02*
D03*
X200000Y290000D02*
D03*
X95000Y60000D02*
D03*
X330000Y230000D02*
D03*
X185000Y160000D02*
D03*
X65000Y220000D02*
D03*
X135000Y341255D02*
D03*
X310000Y190000D02*
D03*
X170000Y250000D02*
D03*
X115000Y380000D02*
D03*
X160000Y50000D02*
D03*
X115000Y40000D02*
D03*
X290714Y110602D02*
D03*
X185000Y40000D02*
D03*
X125000Y160000D02*
D03*
X65000Y40000D02*
D03*
X295000Y300000D02*
D03*
X70000Y150000D02*
D03*
X35000Y380000D02*
D03*
X215000Y60000D02*
D03*
X315000Y160000D02*
D03*
X140000Y130000D02*
D03*
X285000Y160000D02*
D03*
X315000Y180000D02*
D03*
X40000Y10000D02*
D03*
X140000Y370000D02*
D03*
X70000Y190000D02*
D03*
X75000Y40000D02*
D03*
X330000Y30000D02*
D03*
X195000Y360000D02*
D03*
X285000Y380000D02*
D03*
X115000Y160000D02*
D03*
X260000Y30000D02*
D03*
X225000Y100000D02*
D03*
X200000Y250000D02*
D03*
X45000Y120000D02*
D03*
X225000Y200000D02*
D03*
X280000Y130000D02*
D03*
X235000Y320000D02*
D03*
X55000Y160000D02*
D03*
X50000Y270000D02*
D03*
X230000Y310000D02*
D03*
X335000Y220000D02*
D03*
X65000Y140000D02*
D03*
X70000Y110000D02*
D03*
X110000Y210000D02*
D03*
X265000Y360000D02*
D03*
X65000Y100000D02*
D03*
X120000Y10000D02*
D03*
X25000Y380000D02*
D03*
X260000Y50000D02*
D03*
X295000Y360000D02*
D03*
X80000Y250000D02*
D03*
X260539Y290000D02*
D03*
X180000Y310000D02*
D03*
X75000Y20000D02*
D03*
X270000Y210000D02*
D03*
Y90000D02*
D03*
X25000Y240000D02*
D03*
X140000Y10000D02*
D03*
X335000Y40000D02*
D03*
X165000Y20000D02*
D03*
X140000Y230000D02*
D03*
X245000Y280000D02*
D03*
X225000Y140000D02*
D03*
X300000Y170000D02*
D03*
X205000Y20000D02*
D03*
X100000Y250000D02*
D03*
X25000Y200000D02*
D03*
X10000Y330000D02*
D03*
X310000Y250000D02*
D03*
X150000Y310000D02*
D03*
X175000Y160000D02*
D03*
X290000Y30000D02*
D03*
X100000Y230000D02*
D03*
X50000Y130000D02*
D03*
X15000Y300000D02*
D03*
X85000Y60000D02*
D03*
X195000Y280000D02*
D03*
X190000Y150000D02*
D03*
X70000Y30000D02*
D03*
Y170000D02*
D03*
X275000Y20000D02*
D03*
X10000Y350000D02*
D03*
X230000Y230000D02*
D03*
X70000Y270000D02*
D03*
X35000Y40000D02*
D03*
X140000Y350000D02*
D03*
X10000Y30000D02*
D03*
X295000Y380000D02*
D03*
X285000Y360000D02*
D03*
X140000Y190000D02*
D03*
X105000Y180000D02*
D03*
X80000Y270000D02*
D03*
X55000Y200000D02*
D03*
X200000Y150000D02*
D03*
X60000Y230000D02*
D03*
X50000D02*
D03*
X300000Y10000D02*
D03*
X20000Y70000D02*
D03*
X215000Y20000D02*
D03*
X120000Y230000D02*
D03*
X15000Y280000D02*
D03*
X270000Y130000D02*
D03*
X180000Y330000D02*
D03*
X170000Y30000D02*
D03*
X115000Y60000D02*
D03*
X150000Y190000D02*
D03*
X330000Y210000D02*
D03*
X200000Y230000D02*
D03*
X280000Y90000D02*
D03*
X230000Y10000D02*
D03*
X195000Y100000D02*
D03*
X310000Y310000D02*
D03*
X240000Y70000D02*
D03*
X225000Y120000D02*
D03*
X240000Y30000D02*
D03*
X160000Y150000D02*
D03*
X270000Y230000D02*
D03*
X10000Y250000D02*
D03*
X30000Y350000D02*
D03*
X90000Y370000D02*
D03*
X335000Y320000D02*
D03*
X320000Y370000D02*
D03*
X305000Y220000D02*
D03*
X100000Y150000D02*
D03*
X180000Y210000D02*
D03*
X40000Y110000D02*
D03*
X315000Y60000D02*
D03*
X115000Y100000D02*
D03*
X135000Y380000D02*
D03*
X125000D02*
D03*
X320000Y70000D02*
D03*
X250000Y270000D02*
D03*
X265000Y300000D02*
D03*
X165000Y140000D02*
D03*
X70000Y50000D02*
D03*
X185000Y260000D02*
D03*
X131081Y72540D02*
D03*
X140000Y330000D02*
D03*
X280000Y30000D02*
D03*
X85000Y20000D02*
D03*
X60000Y350000D02*
D03*
X285000Y320000D02*
D03*
X90000Y190000D02*
D03*
X60000Y250000D02*
D03*
X305000Y320000D02*
D03*
X285000Y220000D02*
D03*
X70000Y210000D02*
D03*
X123315Y39674D02*
D03*
X175000Y180000D02*
D03*
X60000Y30000D02*
D03*
Y10000D02*
D03*
X45000Y100000D02*
D03*
X165000Y260000D02*
D03*
X20000Y150000D02*
D03*
X75000Y60000D02*
D03*
X275000Y180000D02*
D03*
X70000Y250000D02*
D03*
X335000Y160000D02*
D03*
X330000Y290000D02*
D03*
X295000Y60000D02*
D03*
X25000Y180000D02*
D03*
X165000Y80000D02*
D03*
X55000Y220000D02*
D03*
X35000Y100000D02*
D03*
X20000Y190000D02*
D03*
X205000Y240000D02*
D03*
Y260000D02*
D03*
X265000Y20000D02*
D03*
X260000Y230000D02*
D03*
X15000Y40000D02*
D03*
X153543Y242126D02*
D03*
X245000Y341255D02*
D03*
X235000Y200000D02*
D03*
X130000Y30000D02*
D03*
X335000Y100000D02*
D03*
X15000D02*
D03*
X250000Y330000D02*
D03*
X240000Y110000D02*
D03*
X180000Y150000D02*
D03*
X120690Y212879D02*
D03*
X325000Y60000D02*
D03*
X200000Y90000D02*
D03*
X310000Y290000D02*
D03*
X285000Y80000D02*
D03*
X295000Y260000D02*
D03*
X230000Y110000D02*
D03*
X145000Y160000D02*
D03*
X155000Y380000D02*
D03*
X135000Y180000D02*
D03*
X40000Y150000D02*
D03*
X25000Y80000D02*
D03*
X170000Y230000D02*
D03*
X70000Y70000D02*
D03*
X175000Y280000D02*
D03*
X135000Y60000D02*
D03*
X163771Y97344D02*
D03*
X270000Y250000D02*
D03*
X240000Y310000D02*
D03*
X200000Y30000D02*
D03*
X130005Y93021D02*
D03*
X310000Y330000D02*
D03*
X135000Y240000D02*
D03*
X190000Y130000D02*
D03*
X275000Y60000D02*
D03*
X170000Y10000D02*
D03*
X45000Y140000D02*
D03*
X70000Y10000D02*
D03*
X20000Y110000D02*
D03*
Y90000D02*
D03*
X160000D02*
D03*
X189936Y349217D02*
D03*
X180000Y350000D02*
D03*
X310000Y110000D02*
D03*
X55000Y60000D02*
D03*
X125000Y280000D02*
D03*
X165354Y242126D02*
D03*
X145000Y140000D02*
D03*
X295000Y160000D02*
D03*
X155000Y320000D02*
D03*
X145000Y180000D02*
D03*
X260539Y310000D02*
D03*
X195000Y240000D02*
D03*
X135000Y100000D02*
D03*
X25000Y300000D02*
D03*
X245000Y260000D02*
D03*
X90000Y250000D02*
D03*
X150000Y110000D02*
D03*
X25000Y280000D02*
D03*
X283465Y141732D02*
D03*
X310000Y210000D02*
D03*
X100000Y110000D02*
D03*
X60000D02*
D03*
X80000Y130000D02*
D03*
X40000Y230000D02*
D03*
X265000Y80000D02*
D03*
X40000Y30000D02*
D03*
X135000Y320000D02*
D03*
X110000Y10000D02*
D03*
X335000Y200000D02*
D03*
X160000Y350000D02*
D03*
X125000Y120000D02*
D03*
X30000Y90000D02*
D03*
X205000Y80000D02*
D03*
X190000Y250000D02*
D03*
X315000Y260000D02*
D03*
X305000Y380000D02*
D03*
X80000Y150000D02*
D03*
X280000Y230000D02*
D03*
X139966Y249966D02*
D03*
X205000Y200000D02*
D03*
X275000Y280000D02*
D03*
X125000Y341255D02*
D03*
X220000Y90000D02*
D03*
X185000Y200000D02*
D03*
X50000Y190000D02*
D03*
X330000Y90000D02*
D03*
X50000Y170000D02*
D03*
X110000Y30000D02*
D03*
X35000Y340000D02*
D03*
X140000Y150000D02*
D03*
X35000Y220000D02*
D03*
X100000Y50000D02*
D03*
X245000Y100000D02*
D03*
X305000Y260000D02*
D03*
X195000Y40000D02*
D03*
X335000Y140000D02*
D03*
X100000Y10000D02*
D03*
X210000Y90000D02*
D03*
X155000Y200000D02*
D03*
X75000D02*
D03*
X215000Y140000D02*
D03*
X130000Y150000D02*
D03*
X145000Y20000D02*
D03*
X45000Y380000D02*
D03*
X310000Y10000D02*
D03*
X30000Y150000D02*
D03*
X150000Y130000D02*
D03*
X80000Y30000D02*
D03*
X155000Y20000D02*
D03*
X20000Y230000D02*
D03*
X155000Y341255D02*
D03*
X325000Y40000D02*
D03*
X120000Y250000D02*
D03*
X85000Y260000D02*
D03*
X145000Y80000D02*
D03*
X45000Y240000D02*
D03*
X255000Y200000D02*
D03*
X330000Y310000D02*
D03*
X145000Y100000D02*
D03*
X135000Y140000D02*
D03*
X295000Y100000D02*
D03*
X30000Y10000D02*
D03*
X160000Y210000D02*
D03*
X214684Y330006D02*
D03*
X65000Y120000D02*
D03*
X60000Y50000D02*
D03*
X240000D02*
D03*
X265000Y160000D02*
D03*
X70000Y90000D02*
D03*
X335000Y380000D02*
D03*
X290000Y230000D02*
D03*
X30000Y170000D02*
D03*
X100000Y30000D02*
D03*
X130000Y170000D02*
D03*
X115626Y80244D02*
D03*
X130000Y190000D02*
D03*
X210000Y250000D02*
D03*
X175000Y200000D02*
D03*
X30000Y130000D02*
D03*
X275000Y160000D02*
D03*
X265000Y40000D02*
D03*
X255000Y220000D02*
D03*
X65000Y200000D02*
D03*
X180000Y50000D02*
D03*
X295085Y280592D02*
D03*
X170000Y130000D02*
D03*
X260000Y270000D02*
D03*
X287402Y210630D02*
D03*
X150000Y270000D02*
D03*
X35000Y360000D02*
D03*
X245000Y40000D02*
D03*
X30000Y250000D02*
D03*
X10000Y70000D02*
D03*
X210000Y150000D02*
D03*
X290000Y310000D02*
D03*
X145000Y120000D02*
D03*
X210000Y10000D02*
D03*
X330000Y330000D02*
D03*
X165000Y120000D02*
D03*
X25000Y40000D02*
D03*
X320000Y150000D02*
D03*
X195000Y380000D02*
D03*
X123549Y59789D02*
D03*
X230000Y30000D02*
D03*
X50000Y90000D02*
D03*
X20000Y290000D02*
D03*
X300000Y310000D02*
D03*
X85000Y40000D02*
D03*
X270000Y190000D02*
D03*
X115000Y180000D02*
D03*
X280000Y210000D02*
D03*
X205000Y380000D02*
D03*
X200000Y130000D02*
D03*
X230000Y270000D02*
D03*
X185000Y240000D02*
D03*
X330000Y110000D02*
D03*
X185000Y300000D02*
D03*
X300000Y70000D02*
D03*
Y110000D02*
D03*
X280000Y330000D02*
D03*
X275000Y80000D02*
D03*
X325000Y240000D02*
D03*
X270000Y30000D02*
D03*
X265000Y60000D02*
D03*
X170000Y330000D02*
D03*
X65000Y160000D02*
D03*
X10000Y270000D02*
D03*
X325000Y20000D02*
D03*
X335000Y60000D02*
D03*
X15000Y80000D02*
D03*
X240000Y190000D02*
D03*
X260000Y110000D02*
D03*
X30000Y270000D02*
D03*
X225000Y320000D02*
D03*
X295000Y340000D02*
D03*
X185000Y140000D02*
D03*
X275000Y260000D02*
D03*
X245000Y380000D02*
D03*
X130000Y50000D02*
D03*
X105000Y280000D02*
D03*
X100000Y90000D02*
D03*
X195000Y180000D02*
D03*
X105000Y160000D02*
D03*
X90000Y110000D02*
D03*
X260000Y90000D02*
D03*
X65000Y180000D02*
D03*
X210000Y30000D02*
D03*
X240000Y130000D02*
D03*
X35000Y120000D02*
D03*
X125000Y180000D02*
D03*
X195000Y220000D02*
D03*
X225000Y341255D02*
D03*
X125000Y240000D02*
D03*
X45000Y180000D02*
D03*
X160000Y330000D02*
D03*
X95000Y80000D02*
D03*
X225000Y60000D02*
D03*
X320000Y10000D02*
D03*
X15000Y140000D02*
D03*
X245000Y320000D02*
D03*
X287402Y342520D02*
D03*
X165000Y341255D02*
D03*
X15000Y160000D02*
D03*
X174715Y101913D02*
D03*
X10000Y230000D02*
D03*
X175000Y20000D02*
D03*
X330000Y70000D02*
D03*
X260000Y250000D02*
D03*
X295000Y320000D02*
D03*
X320000Y90000D02*
D03*
X310000Y30000D02*
D03*
X285000Y60000D02*
D03*
X280000Y10000D02*
D03*
X70000Y130000D02*
D03*
X40000D02*
D03*
X50000Y50000D02*
D03*
X65000Y260000D02*
D03*
X100000Y210000D02*
D03*
X220000Y310000D02*
D03*
X240000Y330000D02*
D03*
X75000Y240000D02*
D03*
X105000Y100000D02*
D03*
X55000Y240000D02*
D03*
X45000Y260000D02*
D03*
X245000Y140000D02*
D03*
X25000Y360000D02*
D03*
X245000Y20000D02*
D03*
X200000Y50000D02*
D03*
Y70000D02*
D03*
X265000Y140000D02*
D03*
X325000Y100000D02*
D03*
X290000Y10000D02*
D03*
X220000Y250000D02*
D03*
X210000Y310000D02*
D03*
X145000Y300000D02*
D03*
X30000Y330000D02*
D03*
X290000Y190000D02*
D03*
X80000Y50000D02*
D03*
X190000Y230000D02*
D03*
X110000Y110000D02*
D03*
X195000Y300000D02*
D03*
X315000Y20000D02*
D03*
X215000Y80000D02*
D03*
X25000Y320000D02*
D03*
X275000Y140000D02*
D03*
X140000Y30000D02*
D03*
X75000Y380000D02*
D03*
X305000Y160000D02*
D03*
X250000Y50000D02*
D03*
X300000Y270000D02*
D03*
X155000Y60000D02*
D03*
X175000Y320000D02*
D03*
X110000Y330000D02*
D03*
X305000Y120000D02*
D03*
X60000Y130000D02*
D03*
X275000Y40000D02*
D03*
X50000Y250000D02*
D03*
X55000Y80000D02*
D03*
X30000Y210000D02*
D03*
X165000Y300000D02*
D03*
X85000Y80000D02*
D03*
X275000Y360000D02*
D03*
Y220000D02*
D03*
X115000Y240000D02*
D03*
X30000Y70000D02*
D03*
X290000Y330000D02*
D03*
X285000Y100000D02*
D03*
X275000Y300000D02*
D03*
X270000Y290000D02*
D03*
X220000Y30000D02*
D03*
X225000Y40000D02*
D03*
X215000Y160000D02*
D03*
X325000Y80000D02*
D03*
X150000Y70000D02*
D03*
X35000Y240000D02*
D03*
X25000Y140000D02*
D03*
X60000Y270000D02*
D03*
X305000Y60000D02*
D03*
X40000Y70000D02*
D03*
X220000Y230000D02*
D03*
X305000Y200000D02*
D03*
X170000Y50000D02*
D03*
X150000D02*
D03*
X200000Y310000D02*
D03*
X65000Y380000D02*
D03*
X225000Y280000D02*
D03*
X335000Y360000D02*
D03*
X250000Y230000D02*
D03*
X280000Y50000D02*
D03*
X180000Y270000D02*
D03*
X255000Y40000D02*
D03*
X45000D02*
D03*
X160000Y30000D02*
D03*
X30000Y190000D02*
D03*
X20000Y10000D02*
D03*
X55000Y40000D02*
D03*
X335000Y260000D02*
D03*
X20000Y30000D02*
D03*
X285000Y280000D02*
D03*
X335000Y300000D02*
D03*
X105000Y380000D02*
D03*
X45000Y20000D02*
D03*
X270000Y370000D02*
D03*
X30000Y110000D02*
D03*
X15000Y120000D02*
D03*
X235000Y60000D02*
D03*
X205000Y280000D02*
D03*
X160000Y190000D02*
D03*
X85000Y380000D02*
D03*
X185000Y220000D02*
D03*
X60000Y170000D02*
D03*
X150000Y10000D02*
D03*
X285000Y240000D02*
D03*
X190000Y330000D02*
D03*
X20000Y130000D02*
D03*
X235000Y341255D02*
D03*
X85000Y160000D02*
D03*
X290000Y270000D02*
D03*
X195000Y80000D02*
D03*
X295000Y220000D02*
D03*
X220000Y270000D02*
D03*
Y130000D02*
D03*
X205000Y220000D02*
D03*
X260000Y130000D02*
D03*
X290000Y370000D02*
D03*
X175000Y140000D02*
D03*
X30000Y370000D02*
D03*
X225000Y300000D02*
D03*
X15000Y360000D02*
D03*
X185000Y320000D02*
D03*
X205000Y40000D02*
D03*
X190000Y310000D02*
D03*
X140000Y110000D02*
D03*
X25000Y220000D02*
D03*
X335000Y120000D02*
D03*
X290000Y290000D02*
D03*
X265000Y200000D02*
D03*
X180000Y10000D02*
D03*
X130000Y110000D02*
D03*
X310000Y350000D02*
D03*
X295000Y200000D02*
D03*
X300000Y90000D02*
D03*
X100000Y370000D02*
D03*
X230000Y250000D02*
D03*
X165000Y60000D02*
D03*
X155000Y160000D02*
D03*
X125000Y20000D02*
D03*
X270000Y270000D02*
D03*
X205000Y60000D02*
D03*
X281496Y338583D02*
D03*
X282235Y375376D02*
D03*
X232844Y358828D02*
D03*
X96537Y338396D02*
D03*
X96457Y305118D02*
D03*
X92520Y288673D02*
D03*
Y312992D02*
D03*
X93220Y280335D02*
D03*
X55118Y344488D02*
D03*
X61024Y303150D02*
D03*
X37402Y297244D02*
D03*
X51181Y275590D02*
D03*
X141732Y82677D02*
D03*
Y51181D02*
D03*
X257750Y375414D02*
D03*
X257874Y338583D02*
D03*
X118110Y322835D02*
D03*
X112205Y307087D02*
D03*
X214567Y173228D02*
D03*
X269685Y171260D02*
D03*
X51181Y291339D02*
D03*
X64961Y366142D02*
D03*
X51181Y324803D02*
D03*
X41339Y352362D02*
D03*
X37614Y312992D02*
D03*
X322835Y204724D02*
D03*
X318898Y336614D02*
D03*
X102362Y285433D02*
D03*
X127953Y289370D02*
D03*
X271654Y242126D02*
D03*
X214567Y244094D02*
D03*
M02*
