G04*
G04 #@! TF.GenerationSoftware,Altium Limited,Altium Designer,26.8.1 (31)*
G04*
G04 Layer_Color=32768*
G04 Board_Origin=10000000|10000000*
%FSLAX25Y25*%
%MOIN*%
G70*
G04*
G04 #@! TF.SameCoordinates,21F914C3-012E-473F-99CC-7E58DD77D828*
G04*
G04*
G04 #@! TF.FilePolarity,Positive*
G04*
G01*
G75*
%ADD10C,0.00600*%
%ADD11C,0.00787*%
%ADD37C,0.00197*%
G36*
X83494Y328575D02*
X89444D01*
Y307821D01*
X83494D01*
Y306148D01*
X61794D01*
Y307821D01*
X55844D01*
Y328575D01*
X61794D01*
Y330248D01*
X83494D01*
Y328575D01*
D02*
G37*
G36*
X83685Y295810D02*
X89635D01*
Y275056D01*
X83685D01*
Y273383D01*
X61985D01*
Y275056D01*
X56035D01*
Y295810D01*
X61985D01*
Y297483D01*
X83685D01*
Y295810D01*
D02*
G37*
G36*
X303166Y250339D02*
X280666D01*
Y270188D01*
X303166D01*
Y250339D01*
D02*
G37*
G36*
X251687Y239771D02*
X309337D01*
Y232670D01*
X251687D01*
Y231470D01*
X231687D01*
Y232670D01*
X174037D01*
Y239771D01*
X231687D01*
Y240970D01*
X251687D01*
Y239771D01*
D02*
G37*
G36*
X304072Y181598D02*
X281572D01*
Y201448D01*
X304072D01*
Y181598D01*
D02*
G37*
G36*
X251687Y170873D02*
X309337D01*
Y163773D01*
X251687D01*
Y162573D01*
X231687D01*
Y163773D01*
X174037D01*
Y170873D01*
X231687D01*
Y172073D01*
X251687D01*
Y170873D01*
D02*
G37*
G36*
X303166Y114512D02*
X280666D01*
Y134362D01*
X303166D01*
Y114512D01*
D02*
G37*
G36*
X253882Y100891D02*
X311532D01*
Y93792D01*
X253882D01*
Y92592D01*
X233882D01*
Y93792D01*
X176232D01*
Y100891D01*
X233882D01*
Y102092D01*
X253882D01*
Y100891D01*
D02*
G37*
D10*
X231687Y162573D02*
X251687D01*
Y163773D01*
Y170873D02*
Y172073D01*
X231687D02*
X251687D01*
X231687Y170873D02*
Y172073D01*
Y162573D02*
Y163773D01*
X174037D02*
X231687D01*
X251687D02*
X309337D01*
Y170873D01*
X251687D02*
X309337D01*
X174037D02*
X231687D01*
X174037Y163773D02*
Y170873D01*
X176232Y93792D02*
Y100891D01*
X233882D01*
X253882D02*
X311532D01*
Y93792D02*
Y100891D01*
X253882Y93792D02*
X311532D01*
X176232D02*
X233882D01*
Y92592D02*
Y93792D01*
Y100891D02*
Y102092D01*
X253882D01*
Y100891D02*
Y102092D01*
Y92592D02*
Y93792D01*
X233882Y92592D02*
X253882D01*
X231687Y231470D02*
X251687D01*
Y232670D01*
Y239771D02*
Y240970D01*
X231687D02*
X251687D01*
X231687Y239771D02*
Y240970D01*
Y231470D02*
Y232670D01*
X174037D02*
X231687D01*
X251687D02*
X309337D01*
Y239771D01*
X251687D02*
X309337D01*
X174037D02*
X231687D01*
X174037Y232670D02*
Y239771D01*
X55844Y307821D02*
Y328575D01*
X61794D01*
Y330248D01*
X83494D01*
Y328575D02*
Y330248D01*
Y328575D02*
X89444D01*
Y307821D02*
Y328575D01*
X83544Y307698D02*
X89494D01*
X83494Y306148D02*
Y307821D01*
X61794Y306148D02*
X83494D01*
X61794D02*
Y307821D01*
X55844D02*
X61794D01*
X56035Y275056D02*
X61985D01*
Y273383D02*
Y275056D01*
Y273383D02*
X83685D01*
Y275056D01*
X83735Y274933D02*
X89685D01*
X89635Y275056D02*
Y295810D01*
X83685D02*
X89635D01*
X83685D02*
Y297483D01*
X61985D02*
X83685D01*
X61985Y295810D02*
Y297483D01*
X56035Y295810D02*
X61985D01*
X56035Y275056D02*
Y295810D01*
X281572Y181598D02*
Y201448D01*
X304072D01*
Y181598D02*
Y201448D01*
X281572Y181598D02*
X304072D01*
X280666Y114512D02*
X303166D01*
Y134362D01*
X280666D02*
X303166D01*
X280666Y114512D02*
Y134362D01*
Y250339D02*
Y270188D01*
X303166D01*
Y250339D02*
Y270188D01*
X280666Y250339D02*
X303166D01*
D11*
X118351Y106167D02*
Y161909D01*
X4024Y106167D02*
X118351D01*
X4024D02*
Y161909D01*
X118351D01*
X184081Y199135D02*
X261641D01*
Y179135D02*
Y199135D01*
X184081Y179135D02*
X261641D01*
X184081D02*
Y199135D01*
X184240Y131053D02*
X261800D01*
Y111053D02*
Y131053D01*
X184240Y111053D02*
X261800D01*
X184240D02*
Y131053D01*
X184081Y270002D02*
X261641D01*
Y250002D02*
Y270002D01*
X184081Y250002D02*
X261641D01*
X184081D02*
Y270002D01*
D37*
X81535Y346063D02*
Y354724D01*
X64134D02*
X81535D01*
X64134Y346063D02*
Y354724D01*
Y346063D02*
X81535D01*
X122560Y76925D02*
Y88815D01*
Y76925D02*
X139175D01*
Y88815D01*
X122560D02*
X139175D01*
X122560Y57148D02*
X139175D01*
Y45258D02*
Y57148D01*
X122560Y45258D02*
X139175D01*
X122560D02*
Y57148D01*
X118351Y190827D02*
Y222874D01*
X89331Y190827D02*
X118351D01*
X89331Y179291D02*
Y190827D01*
X4051Y179291D02*
X89331D01*
X4051Y195711D02*
Y223270D01*
Y234409D02*
X89331D01*
Y222874D02*
Y234409D01*
Y222874D02*
X118351D01*
X4051Y223270D02*
Y234409D01*
Y179291D02*
Y195711D01*
Y33622D02*
Y50042D01*
Y77601D02*
Y88740D01*
X89331Y77205D02*
X118351D01*
X89331D02*
Y88740D01*
X4051D02*
X89331D01*
X4051Y50042D02*
Y77601D01*
Y33622D02*
X89331D01*
Y45158D01*
X118351D01*
Y77205D01*
X278190Y369492D02*
Y381382D01*
X261575D02*
X278190D01*
X261575Y369492D02*
Y381382D01*
Y369492D02*
X278190D01*
Y332500D02*
Y344390D01*
X261575D02*
X278190D01*
X261575Y332500D02*
Y344390D01*
Y332500D02*
X278190D01*
X93191Y323369D02*
X99884D01*
Y334590D01*
X93191D02*
X99884D01*
X93191Y323369D02*
Y334590D01*
X93189Y290754D02*
X99882D01*
Y301974D01*
X93189D02*
X99882D01*
X93189Y290754D02*
Y301974D01*
X52854Y293898D02*
Y300590D01*
X41634D02*
X52854D01*
X41634Y293898D02*
Y300590D01*
Y293898D02*
X52854D01*
X51772Y331004D02*
X58465D01*
Y342224D01*
X51772D02*
X58465D01*
X51772Y331004D02*
Y342224D01*
X124213Y245374D02*
Y258563D01*
X131693D01*
Y245374D02*
Y258563D01*
X124213Y245374D02*
X131693D01*
X326575Y188091D02*
Y201279D01*
X319094Y188091D02*
X326575D01*
X319094D02*
Y201279D01*
X326575D01*
Y117421D02*
Y130610D01*
X319094Y117421D02*
X326575D01*
X319094D02*
Y130610D01*
X326575D01*
Y253728D02*
Y266917D01*
X319094Y253728D02*
X326575D01*
X319094D02*
Y266917D01*
X326575D01*
M02*
