G04*
G04 #@! TF.GenerationSoftware,Altium Limited,Altium Designer,26.8.1 (31)*
G04*
G04 Layer_Color=65535*
G04 Board_Origin=10000000|10000000*
%FSLAX25Y25*%
%MOIN*%
G70*
G04*
G04 #@! TF.SameCoordinates,21F914C3-012E-473F-99CC-7E58DD77D828*
G04*
G04*
G04 #@! TF.FilePolarity,Positive*
G04*
G01*
G75*
%ADD10C,0.00600*%
%ADD11C,0.00787*%
%ADD12C,0.00394*%
%ADD13C,0.01000*%
%ADD14C,0.01181*%
%ADD15C,0.00236*%
%ADD16C,0.03000*%
%ADD17C,0.00300*%
%ADD18C,0.00400*%
G36*
X89444Y314889D02*
X88444D01*
Y316389D01*
X89444D01*
Y314889D01*
D02*
G37*
G36*
X89635Y282124D02*
X88635D01*
Y283624D01*
X89635D01*
Y282124D01*
D02*
G37*
G36*
X254986Y32241D02*
X255444D01*
Y32195D01*
X255719D01*
Y32149D01*
X255949D01*
Y32103D01*
X256086D01*
Y32057D01*
X256270D01*
Y32012D01*
X256407D01*
Y31966D01*
X256499D01*
Y31920D01*
X256636D01*
Y31874D01*
X256728D01*
Y31828D01*
X256820D01*
Y31782D01*
X256911D01*
Y31736D01*
X257003D01*
Y31691D01*
X257095D01*
Y31645D01*
X257186D01*
Y31599D01*
X257278D01*
Y31553D01*
X257324D01*
Y31507D01*
X257416D01*
Y31461D01*
X257461D01*
Y31416D01*
X257553D01*
Y31370D01*
X257599D01*
Y31324D01*
X257691D01*
Y31278D01*
X257736D01*
Y31232D01*
X257782D01*
Y31186D01*
X257874D01*
Y31140D01*
X257920D01*
Y31095D01*
X257966D01*
Y31049D01*
X258012D01*
Y31003D01*
X258057D01*
Y30957D01*
X258103D01*
Y30911D01*
X258149D01*
Y30865D01*
X258195D01*
Y30819D01*
X258241D01*
Y30774D01*
X258287D01*
Y30728D01*
X258332D01*
Y30682D01*
X258378D01*
Y30636D01*
X258424D01*
Y30590D01*
X258470D01*
Y30544D01*
X258516D01*
Y30499D01*
X258562D01*
Y30407D01*
X258608D01*
Y30361D01*
X258653D01*
Y30315D01*
X258699D01*
Y30269D01*
X258745D01*
Y30178D01*
X258791D01*
Y30132D01*
X258837D01*
Y30040D01*
X258883D01*
Y29994D01*
X258928D01*
Y29903D01*
X258974D01*
Y29811D01*
X259020D01*
Y29765D01*
X259066D01*
Y29673D01*
X259112D01*
Y29582D01*
X259158D01*
Y29490D01*
X259204D01*
Y29398D01*
X259249D01*
Y29307D01*
X259295D01*
Y29169D01*
X259341D01*
Y29078D01*
X259387D01*
Y28940D01*
X259433D01*
Y28802D01*
X259479D01*
Y28619D01*
X259524D01*
Y28436D01*
X259570D01*
Y28206D01*
X259616D01*
Y27931D01*
X259662D01*
Y26877D01*
X259616D01*
Y26556D01*
X259570D01*
Y26327D01*
X259524D01*
Y26144D01*
X259479D01*
Y26006D01*
X259433D01*
Y25868D01*
X259387D01*
Y25731D01*
X259341D01*
Y25593D01*
X259295D01*
Y25502D01*
X259249D01*
Y25410D01*
X259204D01*
Y25272D01*
X259158D01*
Y25181D01*
X259112D01*
Y25135D01*
X259066D01*
Y25043D01*
X259020D01*
Y24951D01*
X258974D01*
Y24860D01*
X258928D01*
Y24814D01*
X258883D01*
Y24722D01*
X258837D01*
Y24676D01*
X258791D01*
Y24585D01*
X258745D01*
Y24539D01*
X258699D01*
Y24493D01*
X258653D01*
Y24401D01*
X258608D01*
Y24355D01*
X258562D01*
Y24310D01*
X258516D01*
Y24264D01*
X258470D01*
Y24172D01*
X258424D01*
Y24126D01*
X258378D01*
Y24081D01*
X258332D01*
Y24035D01*
X258287D01*
Y23989D01*
X258241D01*
Y23943D01*
X258195D01*
Y23897D01*
X258149D01*
Y23851D01*
X258103D01*
Y23805D01*
X258057D01*
Y23760D01*
X257966D01*
Y23714D01*
X257920D01*
Y23668D01*
X257874D01*
Y23622D01*
X257828D01*
Y23576D01*
X257782D01*
Y23530D01*
X257691D01*
Y23484D01*
X257645D01*
Y23439D01*
X257599D01*
Y23393D01*
X257507D01*
Y23347D01*
X257461D01*
Y23301D01*
X257370D01*
Y23255D01*
X257278D01*
Y23210D01*
X257232D01*
Y23164D01*
X257140D01*
Y23118D01*
X257049D01*
Y23072D01*
X256957D01*
Y23026D01*
X256866D01*
Y22980D01*
X256774D01*
Y22934D01*
X256682D01*
Y22889D01*
X256544D01*
Y22843D01*
X256453D01*
Y22797D01*
X256315D01*
Y22751D01*
X256178D01*
Y22705D01*
X255994D01*
Y22659D01*
X255811D01*
Y22614D01*
X255582D01*
Y22568D01*
X255261D01*
Y22522D01*
X254344D01*
Y22568D01*
X254023D01*
Y22614D01*
X253748D01*
Y22659D01*
X253565D01*
Y22705D01*
X253427D01*
Y22751D01*
X253290D01*
Y22797D01*
X253152D01*
Y22843D01*
X253015D01*
Y22889D01*
X252923D01*
Y22934D01*
X252831D01*
Y22980D01*
X252694D01*
Y23026D01*
X252602D01*
Y23072D01*
X252556D01*
Y23118D01*
X252465D01*
Y23164D01*
X252373D01*
Y23210D01*
X252281D01*
Y23255D01*
X252235D01*
Y23301D01*
X252144D01*
Y23347D01*
X252098D01*
Y23393D01*
X252006D01*
Y23439D01*
X251960D01*
Y23484D01*
X251869D01*
Y23530D01*
X251823D01*
Y23576D01*
X251777D01*
Y23622D01*
X251731D01*
Y23668D01*
X251639D01*
Y23714D01*
X251593D01*
Y23760D01*
X251548D01*
Y23805D01*
X251502D01*
Y23851D01*
X251456D01*
Y23897D01*
X251410D01*
Y23943D01*
X251364D01*
Y23989D01*
X251318D01*
Y24035D01*
X251273D01*
Y24081D01*
X251227D01*
Y24126D01*
X251181D01*
Y24172D01*
X251135D01*
Y24218D01*
X251089D01*
Y24310D01*
X251043D01*
Y24355D01*
X250997D01*
Y24401D01*
X250952D01*
Y24447D01*
X250906D01*
Y24539D01*
X250860D01*
Y24585D01*
X250814D01*
Y24631D01*
Y24676D01*
X250768D01*
Y24722D01*
X250722D01*
Y24814D01*
X250676D01*
Y24860D01*
X250631D01*
Y24951D01*
X250585D01*
Y24997D01*
X250539D01*
Y25089D01*
X250493D01*
Y25181D01*
X250447D01*
Y25272D01*
X250401D01*
Y25364D01*
X250356D01*
Y25456D01*
X250310D01*
Y25593D01*
X250264D01*
Y25685D01*
X250218D01*
Y25823D01*
X250172D01*
Y25960D01*
X250126D01*
Y26144D01*
X250081D01*
Y26281D01*
X250035D01*
Y26510D01*
X249989D01*
Y26785D01*
X249943D01*
Y28023D01*
X249989D01*
Y28298D01*
X250035D01*
Y28482D01*
X250081D01*
Y28665D01*
X250126D01*
Y28802D01*
X250172D01*
Y28986D01*
X250218D01*
Y29078D01*
X250264D01*
Y29215D01*
X250310D01*
Y29307D01*
X250356D01*
Y29398D01*
X250401D01*
Y29490D01*
X250447D01*
Y29582D01*
X250493D01*
Y29673D01*
X250539D01*
Y29765D01*
X250585D01*
Y29857D01*
X250631D01*
Y29903D01*
X250676D01*
Y29994D01*
X250722D01*
Y30086D01*
X250768D01*
Y30132D01*
X250814D01*
Y30178D01*
X250860D01*
Y30269D01*
X250906D01*
Y30315D01*
X250952D01*
Y30361D01*
X250997D01*
Y30453D01*
X251043D01*
Y30499D01*
X251089D01*
Y30544D01*
X251135D01*
Y30590D01*
X251181D01*
Y30636D01*
X251227D01*
Y30682D01*
X251273D01*
Y30774D01*
X251318D01*
Y30819D01*
X251364D01*
Y30865D01*
X251410D01*
Y30911D01*
X251502D01*
Y30957D01*
X251548D01*
Y31003D01*
X251593D01*
Y31049D01*
X251639D01*
Y31095D01*
X251685D01*
Y31140D01*
X251731D01*
Y31186D01*
X251823D01*
Y31232D01*
X251869D01*
Y31278D01*
X251914D01*
Y31324D01*
X251960D01*
Y31370D01*
X252052D01*
Y31416D01*
X252098D01*
Y31461D01*
X252189D01*
Y31507D01*
X252235D01*
Y31553D01*
X252327D01*
Y31599D01*
X252419D01*
Y31645D01*
X252510D01*
Y31691D01*
X252602D01*
Y31736D01*
X252648D01*
Y31782D01*
X252785D01*
Y31828D01*
X252877D01*
Y31874D01*
X252969D01*
Y31920D01*
X253106D01*
Y31966D01*
X253198D01*
Y32012D01*
X253335D01*
Y32057D01*
X253519D01*
Y32103D01*
X253656D01*
Y32149D01*
X253886D01*
Y32195D01*
X254161D01*
Y32241D01*
X254619D01*
Y32287D01*
X254986D01*
Y32241D01*
D02*
G37*
G36*
X326658Y40519D02*
X326619D01*
Y40481D01*
X326581D01*
Y39757D01*
X326543D01*
Y39720D01*
X326505D01*
Y39187D01*
X326467D01*
Y38730D01*
X326429D01*
Y38692D01*
X326391D01*
Y38311D01*
X326353D01*
Y37931D01*
X326277D01*
Y37550D01*
X326201D01*
Y37246D01*
X326163D01*
Y36979D01*
X326125D01*
Y36941D01*
X326087D01*
Y36713D01*
X326049D01*
Y36409D01*
X325973D01*
Y36180D01*
X325934D01*
Y36142D01*
X325896D01*
Y35914D01*
X325858D01*
Y35686D01*
X325820D01*
Y35648D01*
X325782D01*
Y35495D01*
X325744D01*
Y35267D01*
X325706D01*
Y35229D01*
X325668D01*
Y35077D01*
X325630D01*
Y35039D01*
X325592D01*
Y34810D01*
X325554D01*
Y34658D01*
X325516D01*
Y34620D01*
X325478D01*
Y34468D01*
X325440D01*
Y34278D01*
X325364D01*
Y34087D01*
X325288D01*
Y33897D01*
X325249D01*
Y33745D01*
X325211D01*
Y33707D01*
X325173D01*
Y33555D01*
X325135D01*
Y33440D01*
X325097D01*
Y33402D01*
X325059D01*
Y33250D01*
X325021D01*
Y33212D01*
X324983D01*
Y33136D01*
X325021D01*
Y33098D01*
X324983D01*
Y33060D01*
X324945D01*
Y32946D01*
X324907D01*
Y32908D01*
X324869D01*
Y32755D01*
X324831D01*
Y32641D01*
X324755D01*
Y32451D01*
X324717D01*
Y32413D01*
X324679D01*
Y32337D01*
X324640D01*
Y32223D01*
X324603D01*
Y32184D01*
X324564D01*
Y32032D01*
X324526D01*
Y31918D01*
X324488D01*
Y31880D01*
X324450D01*
Y31766D01*
X324374D01*
Y31652D01*
X324336D01*
Y31538D01*
X324260D01*
Y31347D01*
X324222D01*
Y31233D01*
X324146D01*
Y31119D01*
X324108D01*
Y31081D01*
X324070D01*
Y30967D01*
X324032D01*
Y30891D01*
X323994D01*
Y30853D01*
X323955D01*
Y30738D01*
X323918D01*
Y30624D01*
X323841D01*
Y30510D01*
X323803D01*
Y30472D01*
X323765D01*
Y30358D01*
X323727D01*
Y30282D01*
X323689D01*
Y30244D01*
X323651D01*
Y30130D01*
X323613D01*
Y30015D01*
X323537D01*
Y29977D01*
X323499D01*
Y29939D01*
X323461D01*
Y29825D01*
X323423D01*
Y29711D01*
X323347D01*
Y29597D01*
X323309D01*
Y29483D01*
X323271D01*
Y29445D01*
X323233D01*
Y29406D01*
X323195D01*
Y29368D01*
X323156D01*
Y29292D01*
X323118D01*
Y29178D01*
X323080D01*
Y29140D01*
X323042D01*
Y29026D01*
X323004D01*
Y28988D01*
X322928D01*
Y28874D01*
X322890D01*
Y28836D01*
X322852D01*
Y28721D01*
X322814D01*
Y28683D01*
X322776D01*
Y28645D01*
X322738D01*
Y28569D01*
X322700D01*
Y28531D01*
X322662D01*
Y28493D01*
X322624D01*
Y28379D01*
X322586D01*
Y28341D01*
X322548D01*
Y28227D01*
X322510D01*
Y28189D01*
X322433D01*
Y28074D01*
X322395D01*
Y28036D01*
X322357D01*
Y27998D01*
X322319D01*
Y27884D01*
X322281D01*
Y27846D01*
X322243D01*
Y27808D01*
X322205D01*
Y27694D01*
X322129D01*
Y27656D01*
X322091D01*
Y27542D01*
X322053D01*
Y27504D01*
X322015D01*
Y27466D01*
X321977D01*
Y27428D01*
X321939D01*
Y27313D01*
X321901D01*
Y27275D01*
X321824D01*
Y27161D01*
X321786D01*
Y27123D01*
X321748D01*
Y27085D01*
X321710D01*
Y26971D01*
X321672D01*
Y26933D01*
X321634D01*
Y26895D01*
X321596D01*
Y26857D01*
X321558D01*
Y26819D01*
X321520D01*
Y26743D01*
X321482D01*
Y26704D01*
X321444D01*
Y26667D01*
X321406D01*
Y26552D01*
X321368D01*
Y26514D01*
X321330D01*
Y26476D01*
X321292D01*
Y26438D01*
X321254D01*
Y26400D01*
X321216D01*
Y26286D01*
X321178D01*
Y26248D01*
X321101D01*
Y26172D01*
X321025D01*
Y26058D01*
X320987D01*
Y26019D01*
X320949D01*
Y25982D01*
X320911D01*
Y25943D01*
X320873D01*
Y25829D01*
X320835D01*
Y25791D01*
X320797D01*
Y25753D01*
X320759D01*
Y25715D01*
X320721D01*
Y25677D01*
X320683D01*
Y25639D01*
X320645D01*
Y25601D01*
X320607D01*
Y25525D01*
X320569D01*
Y25487D01*
X320531D01*
Y25449D01*
X320493D01*
Y25411D01*
X320454D01*
Y25373D01*
X320416D01*
Y25258D01*
X320378D01*
Y25220D01*
X320340D01*
Y25182D01*
X320302D01*
Y25144D01*
X320264D01*
Y25106D01*
X320226D01*
Y25068D01*
X320188D01*
Y25030D01*
X320150D01*
Y24992D01*
X320112D01*
Y24878D01*
X320074D01*
Y24840D01*
X319998D01*
Y24764D01*
X319960D01*
Y24726D01*
X319884D01*
Y24649D01*
X319808D01*
Y24535D01*
X319770D01*
Y24497D01*
X319731D01*
Y24459D01*
X319693D01*
Y24421D01*
X319655D01*
Y24383D01*
X319617D01*
Y24345D01*
X319579D01*
Y24307D01*
X319541D01*
Y24269D01*
X319503D01*
Y24231D01*
X319465D01*
Y24193D01*
X319427D01*
Y24155D01*
X319389D01*
Y24041D01*
X319351D01*
Y24003D01*
X319313D01*
Y23965D01*
X319275D01*
Y23926D01*
X319237D01*
Y23888D01*
X319199D01*
Y23850D01*
X319161D01*
Y23812D01*
X319123D01*
Y23774D01*
X319085D01*
Y23736D01*
X319046D01*
Y23698D01*
X319008D01*
Y23660D01*
X318970D01*
Y23622D01*
X318932D01*
Y23584D01*
X318894D01*
Y23546D01*
X318856D01*
Y23432D01*
X318780D01*
Y23394D01*
X318742D01*
Y23356D01*
X318704D01*
Y23318D01*
X318666D01*
Y23280D01*
X318628D01*
Y23242D01*
X318590D01*
Y23203D01*
X318552D01*
Y23165D01*
X318514D01*
Y23127D01*
X318476D01*
Y23089D01*
X318438D01*
Y23051D01*
X318400D01*
Y23013D01*
X318361D01*
Y22975D01*
X318323D01*
Y22937D01*
X318285D01*
Y22899D01*
X318247D01*
Y22861D01*
X318209D01*
Y22823D01*
X318171D01*
Y22785D01*
X318133D01*
Y22747D01*
X318095D01*
Y22709D01*
X318057D01*
Y22671D01*
X318019D01*
Y22633D01*
X317981D01*
Y22595D01*
X317943D01*
Y22557D01*
X317905D01*
Y22518D01*
X317867D01*
Y22480D01*
X317829D01*
Y22442D01*
X317791D01*
Y22404D01*
X317753D01*
Y22366D01*
X317715D01*
Y22328D01*
X317676D01*
Y22290D01*
X317638D01*
Y22252D01*
X317600D01*
Y22214D01*
X317562D01*
Y22176D01*
X317524D01*
Y22138D01*
X317486D01*
Y22100D01*
X317448D01*
Y22062D01*
X317410D01*
Y22024D01*
X317372D01*
Y21986D01*
X317334D01*
Y21948D01*
X317296D01*
Y21910D01*
X317258D01*
Y21871D01*
X317220D01*
Y21833D01*
X317182D01*
Y21795D01*
X317144D01*
Y21757D01*
X317106D01*
Y21719D01*
X317068D01*
Y21681D01*
X317030D01*
Y21643D01*
X316991D01*
Y21605D01*
X316953D01*
Y21567D01*
X316915D01*
Y21529D01*
X316877D01*
Y21491D01*
X316801D01*
Y21453D01*
X316763D01*
Y21415D01*
X316725D01*
Y21377D01*
X316687D01*
Y21339D01*
X316649D01*
Y21301D01*
X316611D01*
Y21263D01*
X316573D01*
Y21225D01*
X316535D01*
Y21186D01*
X316497D01*
Y21148D01*
X316459D01*
Y21110D01*
X316421D01*
Y21072D01*
X316383D01*
Y21034D01*
X316344D01*
Y20996D01*
X316306D01*
Y20958D01*
X316192D01*
Y20920D01*
X316154D01*
Y20882D01*
X316116D01*
Y20844D01*
X316078D01*
Y20806D01*
X316040D01*
Y20768D01*
X316002D01*
Y20730D01*
X315964D01*
Y20692D01*
X315926D01*
Y20654D01*
X315888D01*
Y20616D01*
X315850D01*
Y20578D01*
X315812D01*
Y20540D01*
X315774D01*
Y20502D01*
X315698D01*
Y20463D01*
X315621D01*
Y20387D01*
X315583D01*
Y20349D01*
X315545D01*
Y20311D01*
X315507D01*
Y20273D01*
X315431D01*
Y20197D01*
X315393D01*
Y20159D01*
X315279D01*
Y20121D01*
X315241D01*
Y20083D01*
X315203D01*
Y20045D01*
X315165D01*
Y20007D01*
X315127D01*
Y19969D01*
X315089D01*
Y19931D01*
X315051D01*
Y19893D01*
X314936D01*
Y19855D01*
X314898D01*
Y19816D01*
X314860D01*
Y19779D01*
X314822D01*
Y19740D01*
X314784D01*
Y19702D01*
X314746D01*
Y19664D01*
X314708D01*
Y19588D01*
X314594D01*
Y19550D01*
X314556D01*
Y19512D01*
X314518D01*
Y19474D01*
X314480D01*
Y19436D01*
X314366D01*
Y19398D01*
X314328D01*
Y19360D01*
X314289D01*
Y19322D01*
X314251D01*
Y19284D01*
X314213D01*
Y19246D01*
X314175D01*
Y19208D01*
X314137D01*
Y19170D01*
X314023D01*
Y19094D01*
X313985D01*
Y19055D01*
X313909D01*
Y18979D01*
X313795D01*
Y18941D01*
X313757D01*
Y18903D01*
X313719D01*
Y18865D01*
X313681D01*
Y18827D01*
X313566D01*
Y18789D01*
X313528D01*
Y18751D01*
X313490D01*
Y18713D01*
X313452D01*
Y18675D01*
X313414D01*
Y18637D01*
X313338D01*
Y18599D01*
X313300D01*
Y18561D01*
X313262D01*
Y18523D01*
X313224D01*
Y18485D01*
X313186D01*
Y18447D01*
X313072D01*
Y18408D01*
X313034D01*
Y18370D01*
X312996D01*
Y18332D01*
X312881D01*
Y18256D01*
X312843D01*
Y18218D01*
X312805D01*
Y18180D01*
X312767D01*
Y18142D01*
X312653D01*
Y18104D01*
X312615D01*
Y18066D01*
X312577D01*
Y18028D01*
X312463D01*
Y17990D01*
X312425D01*
Y17952D01*
X312387D01*
Y17914D01*
X312349D01*
Y17876D01*
X312311D01*
Y17838D01*
X312234D01*
Y17800D01*
X312196D01*
Y17762D01*
X312158D01*
Y17723D01*
X312044D01*
Y17685D01*
X312006D01*
Y17647D01*
X311968D01*
Y17609D01*
X311854D01*
Y17533D01*
X311778D01*
Y17457D01*
X311664D01*
Y17419D01*
X311626D01*
Y17381D01*
X311588D01*
Y17343D01*
X311473D01*
Y17305D01*
X311435D01*
Y17267D01*
X311397D01*
Y17229D01*
X311321D01*
Y17191D01*
X311283D01*
Y17153D01*
X311245D01*
Y17115D01*
X311131D01*
Y17076D01*
X311093D01*
Y17039D01*
X311055D01*
Y17000D01*
X310941D01*
Y16924D01*
X310826D01*
Y16886D01*
X310788D01*
Y16848D01*
X310750D01*
Y16810D01*
X310636D01*
Y16772D01*
X310598D01*
Y16734D01*
X310560D01*
Y16696D01*
X310484D01*
Y16658D01*
X310446D01*
Y16620D01*
X310332D01*
Y16582D01*
X310294D01*
Y16544D01*
X310256D01*
Y16506D01*
X310141D01*
Y16430D01*
X310027D01*
Y16391D01*
X309989D01*
Y16353D01*
X309951D01*
Y16315D01*
X309837D01*
Y16239D01*
X309723D01*
Y16201D01*
X309685D01*
Y16163D01*
X309647D01*
Y16125D01*
X309532D01*
Y16087D01*
X309418D01*
Y16011D01*
X309342D01*
Y15935D01*
X309228D01*
Y15897D01*
X309114D01*
Y15821D01*
X309000D01*
Y15783D01*
X308886D01*
Y15745D01*
X308848D01*
Y15707D01*
X308809D01*
Y15668D01*
X308771D01*
Y15630D01*
X308695D01*
Y15592D01*
X308581D01*
Y15554D01*
X308543D01*
Y15516D01*
X308429D01*
Y15478D01*
X308353D01*
Y15440D01*
X308315D01*
Y15402D01*
X308201D01*
Y15364D01*
X308163D01*
Y15326D01*
X308124D01*
Y15288D01*
X308010D01*
Y15212D01*
X307896D01*
Y15174D01*
X307782D01*
Y15136D01*
X307744D01*
Y15098D01*
X307668D01*
Y15060D01*
X307630D01*
Y15021D01*
X307516D01*
Y14984D01*
X307401D01*
Y14907D01*
X307287D01*
Y14869D01*
X307173D01*
Y14831D01*
X307135D01*
Y14793D01*
X306983D01*
Y14755D01*
X306945D01*
Y14717D01*
X306869D01*
Y14679D01*
X306754D01*
Y14641D01*
X306716D01*
Y14603D01*
X306602D01*
Y14565D01*
X306526D01*
Y14527D01*
X306488D01*
Y14489D01*
X306298D01*
Y14413D01*
X306184D01*
Y14375D01*
X306069D01*
Y14299D01*
X305879D01*
Y14260D01*
X305841D01*
Y14222D01*
X305803D01*
Y14260D01*
X305727D01*
Y14222D01*
X305689D01*
Y14184D01*
X305575D01*
Y14146D01*
X305537D01*
Y14108D01*
X305384D01*
Y14070D01*
X305232D01*
Y14032D01*
X305194D01*
Y13994D01*
X305042D01*
Y13956D01*
X304814D01*
Y13918D01*
X304776D01*
Y13880D01*
X304547D01*
Y13918D01*
X304509D01*
Y13956D01*
X304281D01*
Y13994D01*
X304129D01*
Y14032D01*
X304091D01*
Y14070D01*
X303938D01*
Y14108D01*
X303786D01*
Y14146D01*
X303748D01*
Y14184D01*
X303634D01*
Y14222D01*
X303596D01*
Y14260D01*
X303520D01*
Y14222D01*
X303482D01*
Y14260D01*
X303444D01*
Y14299D01*
X303329D01*
Y14336D01*
X303291D01*
Y14375D01*
X303139D01*
Y14413D01*
X303025D01*
Y14489D01*
X302911D01*
Y14527D01*
X302873D01*
Y14565D01*
X302797D01*
Y14527D01*
X302759D01*
Y14565D01*
X302721D01*
Y14603D01*
X302607D01*
Y14641D01*
X302568D01*
Y14679D01*
X302454D01*
Y14717D01*
X302378D01*
Y14755D01*
X302340D01*
Y14793D01*
X302226D01*
Y14831D01*
X302188D01*
Y14869D01*
X302112D01*
Y14907D01*
X301998D01*
Y14945D01*
X301959D01*
Y14984D01*
X301807D01*
Y15021D01*
X301693D01*
Y15060D01*
X301655D01*
Y15098D01*
X301617D01*
Y15136D01*
X301579D01*
Y15174D01*
X301503D01*
Y15212D01*
X301389D01*
Y15250D01*
X301351D01*
Y15288D01*
X301237D01*
Y15326D01*
X301160D01*
Y15364D01*
X301122D01*
Y15402D01*
X301008D01*
Y15440D01*
X300970D01*
Y15478D01*
X300894D01*
Y15516D01*
X300780D01*
Y15554D01*
X300742D01*
Y15592D01*
X300628D01*
Y15630D01*
X300589D01*
Y15707D01*
X300475D01*
Y15745D01*
X300437D01*
Y15783D01*
X300323D01*
Y15821D01*
X300209D01*
Y15897D01*
X300095D01*
Y15935D01*
X300057D01*
Y15973D01*
X300019D01*
Y16011D01*
X299904D01*
Y16087D01*
X299790D01*
Y16125D01*
X299676D01*
Y16163D01*
X299638D01*
Y16201D01*
X299600D01*
Y16239D01*
X299486D01*
Y16315D01*
X299372D01*
Y16353D01*
X299334D01*
Y16391D01*
X299296D01*
Y16430D01*
X299182D01*
Y16506D01*
X299067D01*
Y16544D01*
X299029D01*
Y16582D01*
X298991D01*
Y16620D01*
X298877D01*
Y16658D01*
X298839D01*
Y16696D01*
X298801D01*
Y16734D01*
X298687D01*
Y16810D01*
X298573D01*
Y16848D01*
X298534D01*
Y16886D01*
X298497D01*
Y16924D01*
X298382D01*
Y17000D01*
X298344D01*
Y17039D01*
X298230D01*
Y17076D01*
X298192D01*
Y17115D01*
X298154D01*
Y17153D01*
X298040D01*
Y17191D01*
X298002D01*
Y17229D01*
X297926D01*
Y17267D01*
X297888D01*
Y17305D01*
X297849D01*
Y17343D01*
X297735D01*
Y17381D01*
X297697D01*
Y17419D01*
X297659D01*
Y17457D01*
X297545D01*
Y17533D01*
X297469D01*
Y17609D01*
X297355D01*
Y17647D01*
X297317D01*
Y17685D01*
X297279D01*
Y17723D01*
X297241D01*
Y17762D01*
X297127D01*
Y17800D01*
X297088D01*
Y17838D01*
X297050D01*
Y17876D01*
X297012D01*
Y17914D01*
X296936D01*
Y17952D01*
X296898D01*
Y17990D01*
X296860D01*
Y18028D01*
X296746D01*
Y18066D01*
X296708D01*
Y18104D01*
X296670D01*
Y18142D01*
X296632D01*
Y18180D01*
X296594D01*
Y18218D01*
X296518D01*
Y18256D01*
X296442D01*
Y18332D01*
X296327D01*
Y18370D01*
X296289D01*
Y18408D01*
X296251D01*
Y18447D01*
X296213D01*
Y18485D01*
X296175D01*
Y18523D01*
X296061D01*
Y18561D01*
X296023D01*
Y18599D01*
X295985D01*
Y18637D01*
X295909D01*
Y18675D01*
X295871D01*
Y18713D01*
X295833D01*
Y18751D01*
X295795D01*
Y18789D01*
X295757D01*
Y18827D01*
X295642D01*
Y18865D01*
X295604D01*
Y18903D01*
X295566D01*
Y18941D01*
X295528D01*
Y18979D01*
X295414D01*
Y19055D01*
X295338D01*
Y19094D01*
X295300D01*
Y19170D01*
X295224D01*
Y19246D01*
X295110D01*
Y19284D01*
X295072D01*
Y19322D01*
X295033D01*
Y19360D01*
X294995D01*
Y19398D01*
X294957D01*
Y19436D01*
X294843D01*
Y19474D01*
X294805D01*
Y19512D01*
X294767D01*
Y19550D01*
X294729D01*
Y19588D01*
X294691D01*
Y19626D01*
X294653D01*
Y19664D01*
X294577D01*
Y19702D01*
X294539D01*
Y19740D01*
X294501D01*
Y19779D01*
X294463D01*
Y19816D01*
X294425D01*
Y19855D01*
X294387D01*
Y19893D01*
X294348D01*
Y19931D01*
X294310D01*
Y19969D01*
X294196D01*
Y20007D01*
X294158D01*
Y20045D01*
X294120D01*
Y20083D01*
X294082D01*
Y20121D01*
X294044D01*
Y20159D01*
X294006D01*
Y20197D01*
X293968D01*
Y20235D01*
X293930D01*
Y20273D01*
X293816D01*
Y20311D01*
X293778D01*
Y20387D01*
X293702D01*
Y20463D01*
X293625D01*
Y20502D01*
X293587D01*
Y20578D01*
X293473D01*
Y20616D01*
X293435D01*
Y20654D01*
X293397D01*
Y20692D01*
X293359D01*
Y20730D01*
X293321D01*
Y20768D01*
X293283D01*
Y20806D01*
X293245D01*
Y20844D01*
X293207D01*
Y20882D01*
X293169D01*
Y20920D01*
X293131D01*
Y20958D01*
X293093D01*
Y20996D01*
X292978D01*
Y21034D01*
X292940D01*
Y21072D01*
X292902D01*
Y21110D01*
X292864D01*
Y21148D01*
X292826D01*
Y21186D01*
X292788D01*
Y21225D01*
X292750D01*
Y21263D01*
X292712D01*
Y21301D01*
X292674D01*
Y21339D01*
X292636D01*
Y21377D01*
X292598D01*
Y21415D01*
X292560D01*
Y21453D01*
X292522D01*
Y21491D01*
X292484D01*
Y21529D01*
X292446D01*
Y21567D01*
X292408D01*
Y21605D01*
X292370D01*
Y21643D01*
X292332D01*
Y21681D01*
X292255D01*
Y21719D01*
X292217D01*
Y21757D01*
X292179D01*
Y21795D01*
X292141D01*
Y21833D01*
X292103D01*
Y21871D01*
X292065D01*
Y21910D01*
X292027D01*
Y21948D01*
X291989D01*
Y21986D01*
X291951D01*
Y22024D01*
X291913D01*
Y22062D01*
X291875D01*
Y22100D01*
X291837D01*
Y22138D01*
X291799D01*
Y22176D01*
X291761D01*
Y22214D01*
X291723D01*
Y22252D01*
X291685D01*
Y22290D01*
X291647D01*
Y22328D01*
X291608D01*
Y22366D01*
X291570D01*
Y22404D01*
X291532D01*
Y22442D01*
X291494D01*
Y22480D01*
X291456D01*
Y22518D01*
X291418D01*
Y22557D01*
X291380D01*
Y22595D01*
X291342D01*
Y22633D01*
X291304D01*
Y22671D01*
X291266D01*
Y22709D01*
X291228D01*
Y22747D01*
X291190D01*
Y22785D01*
X291152D01*
Y22823D01*
X291114D01*
Y22861D01*
X291076D01*
Y22899D01*
X291038D01*
Y22937D01*
X291000D01*
Y22975D01*
X290962D01*
Y23013D01*
X290923D01*
Y23051D01*
X290885D01*
Y23089D01*
X290847D01*
Y23127D01*
X290809D01*
Y23165D01*
X290771D01*
Y23203D01*
X290733D01*
Y23242D01*
X290695D01*
Y23280D01*
X290657D01*
Y23356D01*
X290619D01*
Y23394D01*
X290581D01*
Y23432D01*
X290543D01*
Y23470D01*
X290505D01*
Y23508D01*
X290467D01*
Y23546D01*
X290429D01*
Y23584D01*
X290391D01*
Y23622D01*
X290353D01*
Y23660D01*
X290315D01*
Y23698D01*
X290277D01*
Y23736D01*
X290238D01*
Y23774D01*
X290200D01*
Y23812D01*
X290162D01*
Y23850D01*
X290124D01*
Y23888D01*
X290086D01*
Y23926D01*
X290048D01*
Y23965D01*
X290010D01*
Y24003D01*
X289972D01*
Y24117D01*
X289934D01*
Y24155D01*
X289896D01*
Y24193D01*
X289858D01*
Y24231D01*
X289820D01*
Y24269D01*
X289782D01*
Y24307D01*
X289744D01*
Y24345D01*
X289706D01*
Y24383D01*
X289668D01*
Y24421D01*
X289630D01*
Y24459D01*
X289592D01*
Y24497D01*
X289553D01*
Y24573D01*
X289515D01*
Y24611D01*
X289477D01*
Y24649D01*
X289439D01*
Y24726D01*
X289363D01*
Y24764D01*
X289325D01*
Y24840D01*
X289249D01*
Y24954D01*
X289211D01*
Y24992D01*
X289173D01*
Y25030D01*
X289135D01*
Y25068D01*
X289097D01*
Y25106D01*
X289059D01*
Y25144D01*
X289021D01*
Y25182D01*
X288983D01*
Y25220D01*
X288945D01*
Y25335D01*
X288907D01*
Y25373D01*
X288868D01*
Y25411D01*
X288830D01*
Y25449D01*
X288754D01*
Y25563D01*
X288716D01*
Y25601D01*
X288678D01*
Y25639D01*
X288640D01*
Y25677D01*
X288602D01*
Y25715D01*
X288564D01*
Y25753D01*
X288526D01*
Y25867D01*
X288488D01*
Y25905D01*
X288450D01*
Y25943D01*
X288412D01*
Y25982D01*
X288374D01*
Y26019D01*
X288336D01*
Y26096D01*
X288298D01*
Y26134D01*
X288260D01*
Y26172D01*
X288222D01*
Y26248D01*
X288145D01*
Y26362D01*
X288107D01*
Y26400D01*
X288069D01*
Y26438D01*
X288031D01*
Y26476D01*
X287993D01*
Y26590D01*
X287955D01*
Y26628D01*
X287917D01*
Y26667D01*
X287879D01*
Y26704D01*
X287841D01*
Y26743D01*
X287803D01*
Y26819D01*
X287765D01*
Y26857D01*
X287727D01*
Y26895D01*
X287689D01*
Y27009D01*
X287651D01*
Y27047D01*
X287613D01*
Y27085D01*
X287575D01*
Y27123D01*
X287537D01*
Y27199D01*
X287498D01*
Y27275D01*
X287422D01*
Y27313D01*
X287384D01*
Y27428D01*
X287346D01*
Y27466D01*
X287308D01*
Y27504D01*
X287270D01*
Y27542D01*
X287232D01*
Y27656D01*
X287194D01*
Y27694D01*
X287118D01*
Y27808D01*
X287080D01*
Y27846D01*
X287042D01*
Y27884D01*
X287004D01*
Y27998D01*
X286966D01*
Y28036D01*
X286928D01*
Y28113D01*
X286890D01*
Y28189D01*
X286813D01*
Y28303D01*
X286775D01*
Y28341D01*
X286737D01*
Y28379D01*
X286699D01*
Y28493D01*
X286661D01*
Y28531D01*
X286623D01*
Y28569D01*
X286585D01*
Y28645D01*
X286547D01*
Y28683D01*
X286509D01*
Y28798D01*
X286471D01*
Y28836D01*
X286433D01*
Y28874D01*
X286395D01*
Y28988D01*
X286319D01*
Y29102D01*
X286281D01*
Y29216D01*
X286243D01*
Y29254D01*
X286205D01*
Y29292D01*
X286167D01*
Y29368D01*
X286128D01*
Y29406D01*
X286090D01*
Y29521D01*
X286052D01*
Y29559D01*
X286014D01*
Y29635D01*
X285976D01*
Y29711D01*
X285900D01*
Y29825D01*
X285862D01*
Y29939D01*
X285786D01*
Y30053D01*
X285748D01*
Y30092D01*
X285710D01*
Y30206D01*
X285672D01*
Y30320D01*
X285596D01*
Y30434D01*
X285558D01*
Y30548D01*
X285520D01*
Y30586D01*
X285482D01*
Y30624D01*
X285405D01*
Y30738D01*
X285367D01*
Y30853D01*
X285329D01*
Y30891D01*
X285291D01*
Y31043D01*
X285253D01*
Y31157D01*
X285177D01*
Y31271D01*
X285139D01*
Y31309D01*
X285101D01*
Y31423D01*
X285063D01*
Y31538D01*
X284987D01*
Y31652D01*
X284949D01*
Y31766D01*
X284873D01*
Y31956D01*
X284835D01*
Y31994D01*
X284797D01*
Y32070D01*
X284758D01*
Y32184D01*
X284720D01*
Y32223D01*
X284682D01*
Y32375D01*
X284644D01*
Y32489D01*
X284606D01*
Y32527D01*
X284568D01*
Y32641D01*
X284492D01*
Y32831D01*
X284454D01*
Y32908D01*
X284416D01*
Y32946D01*
X284378D01*
Y33098D01*
X284340D01*
Y33288D01*
X284264D01*
Y33402D01*
X284226D01*
Y33440D01*
X284188D01*
Y33593D01*
X284150D01*
Y33783D01*
X284073D01*
Y33973D01*
X284035D01*
Y34125D01*
X283997D01*
Y34163D01*
X283959D01*
Y34316D01*
X283921D01*
Y34354D01*
X283883D01*
Y34506D01*
X283845D01*
Y34696D01*
X283769D01*
Y34887D01*
X283731D01*
Y35039D01*
X283693D01*
Y35077D01*
X283655D01*
Y35305D01*
X283617D01*
Y35343D01*
X283579D01*
Y35571D01*
X283541D01*
Y35724D01*
X283503D01*
Y35762D01*
X283465D01*
Y35990D01*
X283426D01*
Y36218D01*
X283350D01*
Y36447D01*
X283312D01*
Y36485D01*
X283274D01*
Y36789D01*
X283236D01*
Y37018D01*
X283160D01*
Y37322D01*
X283122D01*
Y37664D01*
X283084D01*
Y37703D01*
X283046D01*
Y37969D01*
X283008D01*
Y38007D01*
X282970D01*
Y38350D01*
X282932D01*
Y38768D01*
X282894D01*
Y38806D01*
X282856D01*
Y39263D01*
X282818D01*
Y39872D01*
X282741D01*
Y40709D01*
X282703D01*
Y40747D01*
X282665D01*
Y64151D01*
X326658D01*
Y40519D01*
D02*
G37*
G36*
X224316Y13261D02*
X223537D01*
Y21421D01*
X217165D01*
Y22247D01*
X223537D01*
Y30407D01*
X224316D01*
Y13261D01*
D02*
G37*
G36*
X249026Y15233D02*
X249072D01*
Y15049D01*
X249118D01*
Y14912D01*
X249164D01*
Y14774D01*
X249209D01*
Y14683D01*
X249255D01*
Y14591D01*
X249301D01*
Y14545D01*
X249347D01*
Y14453D01*
X249393D01*
Y14408D01*
X249439D01*
Y14316D01*
X249485D01*
Y14270D01*
X249531D01*
Y14224D01*
X249576D01*
Y14178D01*
X249622D01*
Y14132D01*
X249668D01*
Y14086D01*
X249714D01*
Y14041D01*
X249805D01*
Y13995D01*
X249851D01*
Y13949D01*
X249897D01*
Y13903D01*
X249989D01*
Y13857D01*
X250081D01*
Y13812D01*
X250172D01*
Y13766D01*
X250264D01*
Y13720D01*
X250356D01*
Y13674D01*
X250539D01*
Y13628D01*
X250722D01*
Y13582D01*
X258837D01*
Y13628D01*
X259066D01*
Y13674D01*
X259249D01*
Y13720D01*
X259341D01*
Y13766D01*
X259433D01*
Y13812D01*
X259524D01*
Y13857D01*
X259616D01*
Y13903D01*
X259708D01*
Y13949D01*
X259754D01*
Y13995D01*
X259800D01*
Y14041D01*
X259845D01*
Y14086D01*
X259937D01*
Y14132D01*
X259983D01*
Y14178D01*
X260029D01*
Y14224D01*
X260074D01*
Y14316D01*
X260120D01*
Y14362D01*
X260166D01*
Y14408D01*
X260212D01*
Y14499D01*
X260258D01*
Y14545D01*
X260304D01*
Y14637D01*
X260350D01*
Y14728D01*
X260395D01*
Y14820D01*
X260441D01*
Y14958D01*
X260487D01*
Y15095D01*
X260533D01*
Y15324D01*
X260579D01*
Y19680D01*
X260625D01*
Y19954D01*
X260670D01*
Y20138D01*
X260716D01*
Y20276D01*
X260762D01*
Y20413D01*
X260808D01*
Y20505D01*
X260854D01*
Y20596D01*
X260900D01*
Y20688D01*
X260946D01*
Y20780D01*
X260991D01*
Y20826D01*
X261037D01*
Y20917D01*
X261083D01*
Y21009D01*
X261129D01*
Y21055D01*
X261175D01*
Y21101D01*
X261221D01*
Y21147D01*
X261266D01*
Y21238D01*
X261312D01*
Y21284D01*
X261358D01*
Y21330D01*
X261404D01*
Y21376D01*
X261450D01*
Y21421D01*
X261496D01*
Y21467D01*
X261542D01*
Y21513D01*
X261587D01*
Y21559D01*
X261679D01*
Y21605D01*
X261725D01*
Y21651D01*
X261771D01*
Y21697D01*
X261862D01*
Y21742D01*
X261908D01*
Y21788D01*
X262000D01*
Y21834D01*
X262092D01*
Y21880D01*
X262138D01*
Y21926D01*
X262229D01*
Y21972D01*
X262367D01*
Y22017D01*
X262458D01*
Y22063D01*
X262596D01*
Y22109D01*
X262734D01*
Y22155D01*
X262963D01*
Y22201D01*
X263284D01*
Y22247D01*
X263604D01*
Y22201D01*
X263971D01*
Y22155D01*
X264155D01*
Y22109D01*
X264292D01*
Y22063D01*
X264430D01*
Y22017D01*
X264567D01*
Y21972D01*
X264659D01*
Y21926D01*
X264751D01*
Y21880D01*
X264842D01*
Y21834D01*
X264888D01*
Y21788D01*
X264980D01*
Y21742D01*
X265026D01*
Y21697D01*
X265117D01*
Y21651D01*
X265163D01*
Y21605D01*
X265209D01*
Y21559D01*
X265301D01*
Y21513D01*
X265347D01*
Y21467D01*
X265392D01*
Y21421D01*
X265438D01*
Y21376D01*
X265484D01*
Y21330D01*
X265530D01*
Y21284D01*
X265576D01*
Y21238D01*
X265622D01*
Y21147D01*
X265668D01*
Y21101D01*
X265713D01*
Y21055D01*
X265759D01*
Y21009D01*
X265805D01*
Y20917D01*
X265851D01*
Y20871D01*
X265897D01*
Y20780D01*
X265943D01*
Y20688D01*
X265988D01*
Y20596D01*
X266034D01*
Y20505D01*
X266080D01*
Y20413D01*
X266126D01*
Y20276D01*
X266172D01*
Y20138D01*
X266218D01*
Y19954D01*
X266263D01*
Y19725D01*
X266309D01*
Y15324D01*
X266355D01*
Y15095D01*
X266401D01*
Y14958D01*
X266447D01*
Y14820D01*
X266493D01*
Y14728D01*
X266539D01*
Y14637D01*
X266584D01*
Y14545D01*
X266630D01*
Y14499D01*
X266676D01*
Y14408D01*
X266722D01*
Y14362D01*
X266768D01*
Y14316D01*
X266814D01*
Y14224D01*
X266859D01*
Y14178D01*
X266905D01*
Y14132D01*
X266951D01*
Y14086D01*
X267043D01*
Y14041D01*
X267089D01*
Y13995D01*
X267134D01*
Y13949D01*
X267226D01*
Y13903D01*
X267272D01*
Y13857D01*
X267364D01*
Y13812D01*
X267455D01*
Y13766D01*
X267547D01*
Y13720D01*
X267685D01*
Y13674D01*
X267822D01*
Y13628D01*
X268051D01*
Y13582D01*
X268739D01*
Y13628D01*
X268968D01*
Y13674D01*
X269106D01*
Y13720D01*
X269243D01*
Y13766D01*
X269335D01*
Y13812D01*
X269427D01*
Y13857D01*
X269518D01*
Y13903D01*
X269564D01*
Y13949D01*
X269656D01*
Y13995D01*
X269702D01*
Y14041D01*
X269748D01*
Y14086D01*
X269793D01*
Y14132D01*
X269839D01*
Y14178D01*
X269885D01*
Y14224D01*
X269931D01*
Y14270D01*
X269977D01*
Y14316D01*
X270023D01*
Y14362D01*
X270069D01*
Y14453D01*
X270114D01*
Y14499D01*
X270160D01*
Y14591D01*
X270206D01*
Y14683D01*
X270252D01*
Y14774D01*
X270298D01*
Y14866D01*
X270343D01*
Y15003D01*
X270389D01*
Y15187D01*
X270435D01*
Y15508D01*
X270481D01*
Y19817D01*
X270527D01*
Y20046D01*
X270573D01*
Y20184D01*
X270619D01*
Y20321D01*
X270664D01*
Y20459D01*
X270710D01*
Y20550D01*
X270756D01*
Y20642D01*
X270802D01*
Y20734D01*
X270848D01*
Y20826D01*
X270894D01*
Y20871D01*
X270939D01*
Y20963D01*
X270985D01*
Y21009D01*
X271031D01*
Y21055D01*
X271077D01*
Y21147D01*
X271123D01*
Y21192D01*
X271169D01*
Y21238D01*
X271215D01*
Y21284D01*
X271260D01*
Y21330D01*
X271306D01*
Y21376D01*
X271352D01*
Y21421D01*
X271398D01*
Y21467D01*
X271444D01*
Y21513D01*
X271490D01*
Y21559D01*
X271535D01*
Y21605D01*
X271627D01*
Y21651D01*
X271673D01*
Y21697D01*
X271719D01*
Y21742D01*
X271811D01*
Y21788D01*
X271856D01*
Y21834D01*
X271948D01*
Y21880D01*
X272040D01*
Y21926D01*
X272131D01*
Y21972D01*
X272223D01*
Y22017D01*
X272361D01*
Y22063D01*
X272452D01*
Y22109D01*
X272636D01*
Y22155D01*
X272819D01*
Y22201D01*
X273186D01*
Y22247D01*
X273507D01*
Y22201D01*
X273828D01*
Y22155D01*
X274011D01*
Y22109D01*
X274194D01*
Y22063D01*
X274332D01*
Y22017D01*
X274424D01*
Y21972D01*
X274515D01*
Y21926D01*
X274607D01*
Y21880D01*
X274699D01*
Y21834D01*
X274790D01*
Y21788D01*
X274836D01*
Y21742D01*
X274928D01*
Y21697D01*
X274974D01*
Y21651D01*
X275065D01*
Y21605D01*
X275111D01*
Y21559D01*
X275157D01*
Y21513D01*
X275203D01*
Y21467D01*
X275249D01*
Y21421D01*
X275295D01*
Y21376D01*
X275341D01*
Y21330D01*
X275386D01*
Y21284D01*
X275432D01*
Y21238D01*
X275478D01*
Y21192D01*
X275524D01*
Y21147D01*
X275570D01*
Y21101D01*
X275616D01*
Y21009D01*
X275661D01*
Y20963D01*
X275707D01*
Y20871D01*
X275753D01*
Y20826D01*
X275799D01*
Y20734D01*
X275845D01*
Y20642D01*
X275891D01*
Y20550D01*
X275937D01*
Y20459D01*
X275982D01*
Y20367D01*
X276028D01*
Y20230D01*
X276074D01*
Y20046D01*
X276120D01*
Y19863D01*
X276166D01*
Y19496D01*
X276212D01*
Y15187D01*
X276257D01*
Y15003D01*
X276303D01*
Y14866D01*
X276349D01*
Y14774D01*
X276395D01*
Y14683D01*
X276441D01*
Y14591D01*
X276487D01*
Y14499D01*
X276532D01*
Y14453D01*
X276578D01*
Y14408D01*
X276624D01*
Y14316D01*
X276670D01*
Y14270D01*
X276716D01*
Y14224D01*
X276762D01*
Y14178D01*
X276807D01*
Y14132D01*
X276853D01*
Y14086D01*
X276899D01*
Y14041D01*
X276945D01*
Y13995D01*
X277037D01*
Y13949D01*
X277083D01*
Y13903D01*
X277174D01*
Y13857D01*
X277220D01*
Y13812D01*
X277312D01*
Y13766D01*
X277449D01*
Y13720D01*
X277541D01*
Y13674D01*
X277678D01*
Y13628D01*
X277908D01*
Y13582D01*
X280658D01*
Y12803D01*
X277862D01*
Y12849D01*
X277633D01*
Y12895D01*
X277449D01*
Y12941D01*
X277312D01*
Y12986D01*
X277220D01*
Y13032D01*
X277083D01*
Y13078D01*
X276991D01*
Y13124D01*
X276899D01*
Y13170D01*
X276853D01*
Y13216D01*
X276762D01*
Y13261D01*
X276716D01*
Y13307D01*
X276624D01*
Y13353D01*
X276578D01*
Y13399D01*
X276487D01*
Y13445D01*
X276441D01*
Y13491D01*
X276395D01*
Y13536D01*
X276349D01*
Y13582D01*
X276303D01*
Y13628D01*
X276257D01*
Y13674D01*
X276212D01*
Y13720D01*
X276166D01*
Y13766D01*
X276120D01*
Y13812D01*
X276074D01*
Y13857D01*
X276028D01*
Y13949D01*
X275982D01*
Y13995D01*
X275937D01*
Y14041D01*
X275891D01*
Y14132D01*
X275845D01*
Y14224D01*
X275799D01*
Y14270D01*
X275753D01*
Y14362D01*
X275707D01*
Y14453D01*
X275661D01*
Y14545D01*
X275616D01*
Y14683D01*
X275570D01*
Y14820D01*
X275524D01*
Y14958D01*
X275478D01*
Y15141D01*
X275432D01*
Y15508D01*
X275386D01*
Y19817D01*
X275341D01*
Y20000D01*
X275295D01*
Y20138D01*
X275249D01*
Y20230D01*
X275203D01*
Y20321D01*
X275157D01*
Y20413D01*
X275111D01*
Y20505D01*
X275065D01*
Y20550D01*
X275020D01*
Y20642D01*
X274974D01*
Y20688D01*
X274928D01*
Y20734D01*
X274882D01*
Y20780D01*
X274836D01*
Y20826D01*
X274790D01*
Y20871D01*
X274745D01*
Y20917D01*
X274699D01*
Y20963D01*
X274653D01*
Y21009D01*
X274607D01*
Y21055D01*
X274515D01*
Y21101D01*
X274469D01*
Y21147D01*
X274378D01*
Y21192D01*
X274286D01*
Y21238D01*
X274194D01*
Y21284D01*
X274103D01*
Y21330D01*
X273965D01*
Y21376D01*
X273782D01*
Y21421D01*
X272865D01*
Y21376D01*
X272682D01*
Y21330D01*
X272544D01*
Y21284D01*
X272452D01*
Y21238D01*
X272361D01*
Y21192D01*
X272269D01*
Y21147D01*
X272177D01*
Y21101D01*
X272131D01*
Y21055D01*
X272040D01*
Y21009D01*
X271994D01*
Y20963D01*
X271948D01*
Y20917D01*
X271902D01*
Y20871D01*
X271856D01*
Y20826D01*
X271811D01*
Y20780D01*
X271765D01*
Y20734D01*
X271719D01*
Y20688D01*
X271673D01*
Y20596D01*
X271627D01*
Y20550D01*
X271581D01*
Y20505D01*
X271535D01*
Y20413D01*
X271490D01*
Y20321D01*
X271444D01*
Y20230D01*
X271398D01*
Y20092D01*
X271352D01*
Y19954D01*
X271306D01*
Y19771D01*
X271260D01*
Y15370D01*
X271215D01*
Y15095D01*
X271169D01*
Y14912D01*
X271123D01*
Y14774D01*
X271077D01*
Y14637D01*
X271031D01*
Y14545D01*
X270985D01*
Y14453D01*
X270939D01*
Y14362D01*
X270894D01*
Y14270D01*
X270848D01*
Y14178D01*
X270802D01*
Y14132D01*
X270756D01*
Y14041D01*
X270710D01*
Y13995D01*
X270664D01*
Y13903D01*
X270619D01*
Y13857D01*
X270573D01*
Y13812D01*
X270527D01*
Y13766D01*
X270481D01*
Y13720D01*
X270435D01*
Y13674D01*
X270389D01*
Y13628D01*
X270343D01*
Y13582D01*
X270298D01*
Y13536D01*
X270252D01*
Y13491D01*
X270206D01*
Y13445D01*
X270160D01*
Y13399D01*
X270069D01*
Y13353D01*
X270023D01*
Y13307D01*
X269977D01*
Y13261D01*
X269885D01*
Y13216D01*
X269793D01*
Y13170D01*
X269748D01*
Y13124D01*
X269656D01*
Y13078D01*
X269564D01*
Y13032D01*
X269427D01*
Y12986D01*
X269335D01*
Y12941D01*
X269197D01*
Y12895D01*
X269014D01*
Y12849D01*
X268785D01*
Y12803D01*
X267960D01*
Y12849D01*
X267730D01*
Y12895D01*
X267593D01*
Y12941D01*
X267455D01*
Y12986D01*
X267318D01*
Y13032D01*
X267226D01*
Y13078D01*
X267134D01*
Y13124D01*
X267043D01*
Y13170D01*
X266951D01*
Y13216D01*
X266905D01*
Y13261D01*
X266814D01*
Y13307D01*
X266768D01*
Y13353D01*
X266676D01*
Y13399D01*
X266630D01*
Y13445D01*
X266584D01*
Y13491D01*
X266539D01*
Y13536D01*
X266447D01*
Y13582D01*
X266401D01*
Y13628D01*
X266355D01*
Y13674D01*
X266309D01*
Y13720D01*
X266263D01*
Y13812D01*
X266218D01*
Y13857D01*
X266172D01*
Y13903D01*
X266126D01*
Y13949D01*
X266080D01*
Y14041D01*
X266034D01*
Y14086D01*
X265988D01*
Y14178D01*
X265943D01*
Y14224D01*
X265897D01*
Y14316D01*
X265851D01*
Y14408D01*
X265805D01*
Y14499D01*
X265759D01*
Y14591D01*
X265713D01*
Y14728D01*
X265668D01*
Y14866D01*
X265622D01*
Y15049D01*
X265576D01*
Y15279D01*
X265530D01*
Y19634D01*
X265484D01*
Y19909D01*
X265438D01*
Y20046D01*
X265392D01*
Y20184D01*
X265347D01*
Y20276D01*
X265301D01*
Y20367D01*
X265255D01*
Y20459D01*
X265209D01*
Y20550D01*
X265163D01*
Y20596D01*
X265117D01*
Y20642D01*
X265072D01*
Y20734D01*
X265026D01*
Y20780D01*
X264980D01*
Y20826D01*
X264934D01*
Y20871D01*
X264888D01*
Y20917D01*
X264842D01*
Y20963D01*
X264751D01*
Y21009D01*
X264705D01*
Y21055D01*
X264659D01*
Y21101D01*
X264567D01*
Y21147D01*
X264521D01*
Y21192D01*
X264430D01*
Y21238D01*
X264338D01*
Y21284D01*
X264200D01*
Y21330D01*
X264063D01*
Y21376D01*
X263880D01*
Y21421D01*
X263008D01*
Y21376D01*
X262825D01*
Y21330D01*
X262688D01*
Y21284D01*
X262550D01*
Y21238D01*
X262458D01*
Y21192D01*
X262367D01*
Y21147D01*
X262321D01*
Y21101D01*
X262229D01*
Y21055D01*
X262183D01*
Y21009D01*
X262138D01*
Y20963D01*
X262046D01*
Y20917D01*
X262000D01*
Y20871D01*
X261954D01*
Y20826D01*
X261908D01*
Y20780D01*
X261862D01*
Y20688D01*
X261817D01*
Y20642D01*
X261771D01*
Y20596D01*
X261725D01*
Y20505D01*
X261679D01*
Y20459D01*
X261633D01*
Y20367D01*
X261587D01*
Y20276D01*
X261542D01*
Y20184D01*
X261496D01*
Y20046D01*
X261450D01*
Y19909D01*
X261404D01*
Y19634D01*
X261358D01*
Y15233D01*
X261312D01*
Y15003D01*
X261266D01*
Y14866D01*
X261221D01*
Y14728D01*
X261175D01*
Y14591D01*
X261129D01*
Y14499D01*
X261083D01*
Y14408D01*
X261037D01*
Y14316D01*
X260991D01*
Y14224D01*
X260946D01*
Y14132D01*
X260900D01*
Y14086D01*
X260854D01*
Y13995D01*
X260808D01*
Y13949D01*
X260762D01*
Y13903D01*
X260716D01*
Y13857D01*
X260670D01*
Y13766D01*
X260625D01*
Y13720D01*
X260579D01*
Y13674D01*
X260533D01*
Y13628D01*
X260487D01*
Y13582D01*
X260441D01*
Y13536D01*
X260395D01*
Y13491D01*
X260304D01*
Y13445D01*
X260258D01*
Y13399D01*
X260212D01*
Y13353D01*
X260120D01*
Y13307D01*
X260074D01*
Y13261D01*
X259983D01*
Y13216D01*
X259937D01*
Y13170D01*
X259845D01*
Y13124D01*
X259754D01*
Y13078D01*
X259662D01*
Y13032D01*
X259570D01*
Y12986D01*
X259433D01*
Y12941D01*
X259295D01*
Y12895D01*
X259158D01*
Y12849D01*
X258928D01*
Y12803D01*
X250676D01*
Y12849D01*
X250447D01*
Y12895D01*
X250264D01*
Y12941D01*
X250126D01*
Y12986D01*
X250035D01*
Y13032D01*
X249943D01*
Y13078D01*
X249851D01*
Y13124D01*
X249760D01*
Y13170D01*
X249668D01*
Y13216D01*
X249576D01*
Y13261D01*
X249531D01*
Y13307D01*
X249439D01*
Y13353D01*
X249393D01*
Y13399D01*
X249347D01*
Y13445D01*
X249255D01*
Y13491D01*
X249209D01*
Y13536D01*
X249164D01*
Y13582D01*
X249118D01*
Y13628D01*
X249072D01*
Y13674D01*
X249026D01*
Y13720D01*
X248980D01*
Y13766D01*
X248935D01*
Y13812D01*
X248889D01*
Y13903D01*
X248843D01*
Y13949D01*
X248797D01*
Y13995D01*
X248751D01*
Y14086D01*
X248705D01*
Y14132D01*
X248659D01*
Y14224D01*
X248614D01*
Y14316D01*
X248568D01*
Y14362D01*
X248522D01*
Y14453D01*
X248476D01*
Y14591D01*
X248430D01*
Y14683D01*
X248384D01*
Y14820D01*
X248339D01*
Y15003D01*
X248293D01*
Y15187D01*
X248247D01*
Y15645D01*
X248201D01*
Y30407D01*
X249026D01*
Y15233D01*
D02*
G37*
G36*
X245175Y29628D02*
X227388D01*
Y29582D01*
X227250D01*
Y29536D01*
X227159D01*
Y29490D01*
X227113D01*
Y29444D01*
X227021D01*
Y29398D01*
X226975D01*
Y29307D01*
X226929D01*
Y29261D01*
X226884D01*
Y29169D01*
X226838D01*
Y29078D01*
X226792D01*
Y22247D01*
X236190D01*
Y21421D01*
X226792D01*
Y14591D01*
X226838D01*
Y14499D01*
X226884D01*
Y14408D01*
X226929D01*
Y14362D01*
X226975D01*
Y14270D01*
X227021D01*
Y14224D01*
X227113D01*
Y14178D01*
X227159D01*
Y14132D01*
X227250D01*
Y14086D01*
X227388D01*
Y14041D01*
X244763D01*
Y14224D01*
X244717D01*
Y14270D01*
X244671D01*
Y14316D01*
X244625D01*
Y14362D01*
X244579D01*
Y14408D01*
X244533D01*
Y14453D01*
X244488D01*
Y14499D01*
X244442D01*
Y14545D01*
X244396D01*
Y14591D01*
X244350D01*
Y14637D01*
X244304D01*
Y14683D01*
X244258D01*
Y14728D01*
X244213D01*
Y14774D01*
X244167D01*
Y14820D01*
X244121D01*
Y14866D01*
X244075D01*
Y14912D01*
X244029D01*
Y14958D01*
X243983D01*
Y15003D01*
X243937D01*
Y15049D01*
X243892D01*
Y15095D01*
X243846D01*
Y15141D01*
X243800D01*
Y15187D01*
X243754D01*
Y15233D01*
X243708D01*
Y15279D01*
X243662D01*
Y15324D01*
X243617D01*
Y15370D01*
X243571D01*
Y15416D01*
X243525D01*
Y15462D01*
X243479D01*
Y15508D01*
X243433D01*
Y15553D01*
X243387D01*
Y15599D01*
X243342D01*
Y15645D01*
X243296D01*
Y15691D01*
X243250D01*
Y15737D01*
X243204D01*
Y15783D01*
X243158D01*
Y15829D01*
X243112D01*
Y15874D01*
X243067D01*
Y15920D01*
X243021D01*
Y15966D01*
X242975D01*
Y16012D01*
X242929D01*
Y16058D01*
X242883D01*
Y16104D01*
X242837D01*
Y16150D01*
X242791D01*
Y16195D01*
X242746D01*
Y16241D01*
X242700D01*
Y16287D01*
X242654D01*
Y16333D01*
X242608D01*
Y16379D01*
X242562D01*
Y16470D01*
X242516D01*
Y16746D01*
X242562D01*
Y16791D01*
X242608D01*
Y16883D01*
X242700D01*
Y16929D01*
X242746D01*
Y16975D01*
X243021D01*
Y16929D01*
X243112D01*
Y16883D01*
X243158D01*
Y16837D01*
X243204D01*
Y16791D01*
X243250D01*
Y16746D01*
X243296D01*
Y16700D01*
X243342D01*
Y16654D01*
X243387D01*
Y16608D01*
X243433D01*
Y16562D01*
X243479D01*
Y16516D01*
X243525D01*
Y16470D01*
X243571D01*
Y16425D01*
X243617D01*
Y16379D01*
X243662D01*
Y16333D01*
X243708D01*
Y16287D01*
X243754D01*
Y16241D01*
X243800D01*
Y16195D01*
X243846D01*
Y16150D01*
X243892D01*
Y16104D01*
X243937D01*
Y16058D01*
X243983D01*
Y16012D01*
X244029D01*
Y15966D01*
X244075D01*
Y15920D01*
X244121D01*
Y15874D01*
X244167D01*
Y15829D01*
X244213D01*
Y15783D01*
X244258D01*
Y15737D01*
X244304D01*
Y15691D01*
X244350D01*
Y15645D01*
X244396D01*
Y15599D01*
X244442D01*
Y15553D01*
X244488D01*
Y15508D01*
X244533D01*
Y15462D01*
X244579D01*
Y15416D01*
X244625D01*
Y15370D01*
X244671D01*
Y15324D01*
X244717D01*
Y15279D01*
X244763D01*
Y15233D01*
X244809D01*
Y15187D01*
X244854D01*
Y15141D01*
X244900D01*
Y15095D01*
X244946D01*
Y15049D01*
X244992D01*
Y15003D01*
X245038D01*
Y14958D01*
X245084D01*
Y14912D01*
X245129D01*
Y14866D01*
X245175D01*
Y14820D01*
X245221D01*
Y14774D01*
X245267D01*
Y14728D01*
X245313D01*
Y14683D01*
X245359D01*
Y14637D01*
X245405D01*
Y14591D01*
X245450D01*
Y14545D01*
X245496D01*
Y14499D01*
X245542D01*
Y14453D01*
X245588D01*
Y14408D01*
X245634D01*
Y14362D01*
X245680D01*
Y14316D01*
X245725D01*
Y14270D01*
X245771D01*
Y14224D01*
X245817D01*
Y14178D01*
X245863D01*
Y14132D01*
X245909D01*
Y14086D01*
X245955D01*
Y14041D01*
X246001D01*
Y13995D01*
X246046D01*
Y13949D01*
X246092D01*
Y13903D01*
X246138D01*
Y13857D01*
X246184D01*
Y13766D01*
X246230D01*
Y13536D01*
X246184D01*
Y13445D01*
X246138D01*
Y13399D01*
X246092D01*
Y13353D01*
X246046D01*
Y13307D01*
X246001D01*
Y13261D01*
X245955D01*
Y13216D01*
X245909D01*
Y13170D01*
X245863D01*
Y13124D01*
X245817D01*
Y13078D01*
X245771D01*
Y13032D01*
X245725D01*
Y12986D01*
X245680D01*
Y12941D01*
X245634D01*
Y12895D01*
X245588D01*
Y12849D01*
X245542D01*
Y12803D01*
X245496D01*
Y12757D01*
X245450D01*
Y12711D01*
X245405D01*
Y12665D01*
X245359D01*
Y12619D01*
X245313D01*
Y12574D01*
X245267D01*
Y12528D01*
X245221D01*
Y12482D01*
X245175D01*
Y12436D01*
X245129D01*
Y12390D01*
X245084D01*
Y12344D01*
X245038D01*
Y12299D01*
X244992D01*
Y12253D01*
X244946D01*
Y12207D01*
X244900D01*
Y12161D01*
X244854D01*
Y12115D01*
X244809D01*
Y12069D01*
X244763D01*
Y12024D01*
X244717D01*
Y11978D01*
X244671D01*
Y11932D01*
X244625D01*
Y11886D01*
X244579D01*
Y11840D01*
X244533D01*
Y11794D01*
X244488D01*
Y11749D01*
X244442D01*
Y11703D01*
X244396D01*
Y11657D01*
X244350D01*
Y11611D01*
X244304D01*
Y11565D01*
X244258D01*
Y11519D01*
X244213D01*
Y11473D01*
X244167D01*
Y11428D01*
X244121D01*
Y11382D01*
X244075D01*
Y11336D01*
X244029D01*
Y11290D01*
X243983D01*
Y11244D01*
X243937D01*
Y11198D01*
X243892D01*
Y11152D01*
X243846D01*
Y11107D01*
X243800D01*
Y11061D01*
X243754D01*
Y11015D01*
X243708D01*
Y10969D01*
X243662D01*
Y10923D01*
X243617D01*
Y10877D01*
X243571D01*
Y10832D01*
X243525D01*
Y10786D01*
X243479D01*
Y10740D01*
X243433D01*
Y10694D01*
X243387D01*
Y10648D01*
X243342D01*
Y10602D01*
X243296D01*
Y10557D01*
X243250D01*
Y10511D01*
X243204D01*
Y10465D01*
X243158D01*
Y10419D01*
X243112D01*
Y10373D01*
X243021D01*
Y10327D01*
X242746D01*
Y10373D01*
X242654D01*
Y10419D01*
X242608D01*
Y10511D01*
X242562D01*
Y10557D01*
X242516D01*
Y10832D01*
X242562D01*
Y10923D01*
X242608D01*
Y10969D01*
X242654D01*
Y11015D01*
X242700D01*
Y11061D01*
X242746D01*
Y11107D01*
X242791D01*
Y11152D01*
X242837D01*
Y11198D01*
X242883D01*
Y11244D01*
X242929D01*
Y11290D01*
X242975D01*
Y11336D01*
X243021D01*
Y11382D01*
X243067D01*
Y11428D01*
X243112D01*
Y11473D01*
X243158D01*
Y11519D01*
X243204D01*
Y11565D01*
X243250D01*
Y11611D01*
X243296D01*
Y11657D01*
X243342D01*
Y11703D01*
X243387D01*
Y11749D01*
X243433D01*
Y11794D01*
X243479D01*
Y11840D01*
X243525D01*
Y11886D01*
X243571D01*
Y11932D01*
X243617D01*
Y11978D01*
X243662D01*
Y12024D01*
X243708D01*
Y12069D01*
X243754D01*
Y12115D01*
X243800D01*
Y12161D01*
X243846D01*
Y12207D01*
X243892D01*
Y12253D01*
X243937D01*
Y12299D01*
X243983D01*
Y12344D01*
X244029D01*
Y12390D01*
X244075D01*
Y12436D01*
X244121D01*
Y12482D01*
X244167D01*
Y12528D01*
X244213D01*
Y12574D01*
X244258D01*
Y12619D01*
X244304D01*
Y12665D01*
X244350D01*
Y12711D01*
X244396D01*
Y12757D01*
X244442D01*
Y12803D01*
X244488D01*
Y12849D01*
X244533D01*
Y12895D01*
X244579D01*
Y12941D01*
X244625D01*
Y12986D01*
X244671D01*
Y13032D01*
X244717D01*
Y13078D01*
X244763D01*
Y13261D01*
X227342D01*
Y13307D01*
X227159D01*
Y13353D01*
X227021D01*
Y13399D01*
X226929D01*
Y13445D01*
X226838D01*
Y13491D01*
X226792D01*
Y13536D01*
X226700D01*
Y13582D01*
X226654D01*
Y13628D01*
X226563D01*
Y13674D01*
X226517D01*
Y13720D01*
X226471D01*
Y13766D01*
X226425D01*
Y13812D01*
X226379D01*
Y13903D01*
X226333D01*
Y13949D01*
X226288D01*
Y13995D01*
X226242D01*
Y14086D01*
X226196D01*
Y14178D01*
X226150D01*
Y14270D01*
X226104D01*
Y14408D01*
X226058D01*
Y14545D01*
X226013D01*
Y14866D01*
X225967D01*
Y28848D01*
X226013D01*
Y29123D01*
X226058D01*
Y29307D01*
X226104D01*
Y29398D01*
X226150D01*
Y29490D01*
X226196D01*
Y29582D01*
X226242D01*
Y29673D01*
X226288D01*
Y29719D01*
X226333D01*
Y29765D01*
X226379D01*
Y29857D01*
X226425D01*
Y29903D01*
X226471D01*
Y29948D01*
X226517D01*
Y29994D01*
X226609D01*
Y30040D01*
X226654D01*
Y30086D01*
X226700D01*
Y30132D01*
X226792D01*
Y30178D01*
X226838D01*
Y30224D01*
X226929D01*
Y30269D01*
X227021D01*
Y30315D01*
X227159D01*
Y30361D01*
X227342D01*
Y30407D01*
X245175D01*
Y29628D01*
D02*
G37*
%LPC*%
G36*
X255399Y31461D02*
X254206D01*
Y31416D01*
X253931D01*
Y31370D01*
X253748D01*
Y31324D01*
X253565D01*
Y31278D01*
X253427D01*
Y31232D01*
X253290D01*
Y31186D01*
X253198D01*
Y31140D01*
X253060D01*
Y31095D01*
X252969D01*
Y31049D01*
X252877D01*
Y31003D01*
X252785D01*
Y30957D01*
X252740D01*
Y30911D01*
X252648D01*
Y30865D01*
X252556D01*
Y30819D01*
X252510D01*
Y30774D01*
X252419D01*
Y30728D01*
X252373D01*
Y30682D01*
X252327D01*
Y30636D01*
X252235D01*
Y30590D01*
X252189D01*
Y30544D01*
X252144D01*
Y30499D01*
X252098D01*
Y30453D01*
X252052D01*
Y30407D01*
X252006D01*
Y30361D01*
X251960D01*
Y30315D01*
X251914D01*
Y30269D01*
X251869D01*
Y30224D01*
X251823D01*
Y30178D01*
X251777D01*
Y30132D01*
X251731D01*
Y30086D01*
X251685D01*
Y30040D01*
X251639D01*
Y29994D01*
X251593D01*
Y29948D01*
X251548D01*
Y29857D01*
X251502D01*
Y29811D01*
X251456D01*
Y29719D01*
X251410D01*
Y29673D01*
X251364D01*
Y29582D01*
X251318D01*
Y29536D01*
X251273D01*
Y29444D01*
X251227D01*
Y29353D01*
X251181D01*
Y29261D01*
X251135D01*
Y29169D01*
X251089D01*
Y29078D01*
X251043D01*
Y28986D01*
X250997D01*
Y28848D01*
X250952D01*
Y28756D01*
X250906D01*
Y28573D01*
X250860D01*
Y28436D01*
X250814D01*
Y28206D01*
X250768D01*
Y27931D01*
X250722D01*
Y26831D01*
X250768D01*
Y26556D01*
X250814D01*
Y26373D01*
X250860D01*
Y26189D01*
X250906D01*
Y26052D01*
X250952D01*
Y25914D01*
X250997D01*
Y25777D01*
X251043D01*
Y25685D01*
X251089D01*
Y25593D01*
X251135D01*
Y25502D01*
X251181D01*
Y25410D01*
X251227D01*
Y25318D01*
X251273D01*
Y25272D01*
X251318D01*
Y25181D01*
X251364D01*
Y25089D01*
X251410D01*
Y25043D01*
X251456D01*
Y24997D01*
X251502D01*
Y24906D01*
X251548D01*
Y24860D01*
X251593D01*
Y24814D01*
X251639D01*
Y24722D01*
X251685D01*
Y24676D01*
X251731D01*
Y24631D01*
X251777D01*
Y24585D01*
X251823D01*
Y24539D01*
X251869D01*
Y24493D01*
X251914D01*
Y24447D01*
X251960D01*
Y24401D01*
X252006D01*
Y24355D01*
X252052D01*
Y24310D01*
X252098D01*
Y24264D01*
X252189D01*
Y24218D01*
X252235D01*
Y24172D01*
X252281D01*
Y24126D01*
X252327D01*
Y24081D01*
X252419D01*
Y24035D01*
X252465D01*
Y23989D01*
X252556D01*
Y23943D01*
X252602D01*
Y23897D01*
X252694D01*
Y23851D01*
X252785D01*
Y23805D01*
X252877D01*
Y23760D01*
X252923D01*
Y23714D01*
X253060D01*
Y23668D01*
X253152D01*
Y23622D01*
X253244D01*
Y23576D01*
X253381D01*
Y23530D01*
X253519D01*
Y23484D01*
X253656D01*
Y23439D01*
X253840D01*
Y23393D01*
X254069D01*
Y23347D01*
X254436D01*
Y23301D01*
X255169D01*
Y23347D01*
X255536D01*
Y23393D01*
X255765D01*
Y23439D01*
X255949D01*
Y23484D01*
X256086D01*
Y23530D01*
X256224D01*
Y23576D01*
X256361D01*
Y23622D01*
X256453D01*
Y23668D01*
X256544D01*
Y23714D01*
X256636D01*
Y23760D01*
X256728D01*
Y23805D01*
X256820D01*
Y23851D01*
X256911D01*
Y23897D01*
X257003D01*
Y23943D01*
X257049D01*
Y23989D01*
X257140D01*
Y24035D01*
X257186D01*
Y24081D01*
X257232D01*
Y24126D01*
X257324D01*
Y24172D01*
X257370D01*
Y24218D01*
X257416D01*
Y24264D01*
X257461D01*
Y24310D01*
X257553D01*
Y24355D01*
X257599D01*
Y24401D01*
X257645D01*
Y24447D01*
X257691D01*
Y24493D01*
X257736D01*
Y24539D01*
X257782D01*
Y24585D01*
X257828D01*
Y24631D01*
X257874D01*
Y24722D01*
X257920D01*
Y24768D01*
X257966D01*
Y24814D01*
X258012D01*
Y24860D01*
X258057D01*
Y24951D01*
X258103D01*
Y24997D01*
X258149D01*
Y25043D01*
X258195D01*
Y25135D01*
X258241D01*
Y25181D01*
X258287D01*
Y25272D01*
X258332D01*
Y25364D01*
X258378D01*
Y25456D01*
X258424D01*
Y25548D01*
X258470D01*
Y25639D01*
X258516D01*
Y25731D01*
X258562D01*
Y25823D01*
X258608D01*
Y25960D01*
X258653D01*
Y26098D01*
X258699D01*
Y26235D01*
X258745D01*
Y26419D01*
X258791D01*
Y26602D01*
X258837D01*
Y26969D01*
X258883D01*
Y27840D01*
X258837D01*
Y28161D01*
X258791D01*
Y28390D01*
X258745D01*
Y28573D01*
X258699D01*
Y28711D01*
X258653D01*
Y28848D01*
X258608D01*
Y28986D01*
X258562D01*
Y29078D01*
X258516D01*
Y29169D01*
X258470D01*
Y29261D01*
X258424D01*
Y29353D01*
X258378D01*
Y29444D01*
X258332D01*
Y29536D01*
X258287D01*
Y29582D01*
X258241D01*
Y29673D01*
X258195D01*
Y29719D01*
X258149D01*
Y29811D01*
X258103D01*
Y29857D01*
X258057D01*
Y29903D01*
X258012D01*
Y29994D01*
X257966D01*
Y30040D01*
X257920D01*
Y30086D01*
X257874D01*
Y30132D01*
X257828D01*
Y30178D01*
X257782D01*
Y30224D01*
X257736D01*
Y30269D01*
X257691D01*
Y30315D01*
X257645D01*
Y30361D01*
X257599D01*
Y30407D01*
X257553D01*
Y30453D01*
X257507D01*
Y30499D01*
X257461D01*
Y30544D01*
X257416D01*
Y30590D01*
X257324D01*
Y30636D01*
X257278D01*
Y30682D01*
X257232D01*
Y30728D01*
X257140D01*
Y30774D01*
X257095D01*
Y30819D01*
X257003D01*
Y30865D01*
X256957D01*
Y30911D01*
X256866D01*
Y30957D01*
X256774D01*
Y31003D01*
X256682D01*
Y31049D01*
X256590D01*
Y31095D01*
X256499D01*
Y31140D01*
X256407D01*
Y31186D01*
X256270D01*
Y31232D01*
X256178D01*
Y31278D01*
X256040D01*
Y31324D01*
X255857D01*
Y31370D01*
X255674D01*
Y31416D01*
X255399D01*
Y31461D01*
D02*
G37*
G36*
X321824Y61259D02*
X321063D01*
Y61221D01*
X321025D01*
Y61183D01*
X320873D01*
Y61145D01*
X320835D01*
Y61107D01*
X320759D01*
Y61145D01*
X320721D01*
Y61107D01*
X320683D01*
Y61069D01*
X320493D01*
Y60992D01*
X320378D01*
Y60954D01*
X320226D01*
Y60916D01*
X320188D01*
Y60878D01*
X319998D01*
Y60802D01*
X319884D01*
Y57910D01*
Y57872D01*
Y55512D01*
X320074D01*
Y55475D01*
X320340D01*
Y55436D01*
X320378D01*
Y55398D01*
X320531D01*
Y55360D01*
X320569D01*
Y55322D01*
X320645D01*
Y55360D01*
X320683D01*
Y55322D01*
X320721D01*
Y55284D01*
X320911D01*
Y55246D01*
X320949D01*
Y55208D01*
X321101D01*
Y55170D01*
X321330D01*
Y55132D01*
X321368D01*
Y55094D01*
X321596D01*
Y55018D01*
X322053D01*
Y55056D01*
X322091D01*
Y55018D01*
X322129D01*
Y54980D01*
X323309D01*
Y60536D01*
X323271D01*
Y60574D01*
X323042D01*
Y60650D01*
X322852D01*
Y60688D01*
X322776D01*
Y60726D01*
X322738D01*
Y60764D01*
X322624D01*
Y60802D01*
X322586D01*
Y60840D01*
X322548D01*
Y60878D01*
X322433D01*
Y60954D01*
X322395D01*
Y60992D01*
X322281D01*
Y61031D01*
X322243D01*
Y61069D01*
X322129D01*
Y61107D01*
X322053D01*
Y61145D01*
X322015D01*
Y61183D01*
X321824D01*
Y61259D01*
D02*
G37*
G36*
X303063Y61297D02*
X302530D01*
Y61259D01*
X302416D01*
Y61183D01*
X302302D01*
Y61145D01*
X302264D01*
Y61107D01*
X302150D01*
Y61069D01*
X302112D01*
Y61031D01*
X302074D01*
Y60992D01*
X302036D01*
Y60954D01*
X301959D01*
Y60916D01*
X301922D01*
Y60878D01*
X301883D01*
Y60840D01*
X301845D01*
Y60802D01*
X301769D01*
Y60840D01*
X301731D01*
Y60878D01*
X301693D01*
Y60916D01*
X301655D01*
Y60954D01*
X301617D01*
Y60992D01*
X301579D01*
Y61031D01*
X301541D01*
Y61069D01*
X301427D01*
Y61107D01*
X301389D01*
Y61145D01*
X301351D01*
Y61183D01*
X301274D01*
Y61221D01*
X301237D01*
Y61259D01*
X301122D01*
Y61297D01*
X300704D01*
Y61259D01*
X300589D01*
Y61183D01*
X300513D01*
Y61107D01*
X300475D01*
Y61069D01*
X300399D01*
Y60992D01*
X300323D01*
Y60878D01*
X300285D01*
Y60840D01*
X300247D01*
Y60802D01*
X300209D01*
Y60764D01*
X300095D01*
Y60802D01*
X300057D01*
Y60840D01*
X300019D01*
Y60878D01*
X299981D01*
Y60916D01*
X299943D01*
Y60954D01*
X299867D01*
Y60992D01*
X299752D01*
Y61031D01*
X299714D01*
Y61069D01*
X299486D01*
Y61107D01*
X299448D01*
Y61145D01*
X299410D01*
Y61107D01*
X299372D01*
Y61069D01*
X299182D01*
Y60992D01*
X299067D01*
Y60954D01*
X299029D01*
Y60916D01*
X298991D01*
Y60878D01*
X298877D01*
Y60764D01*
X298839D01*
Y60726D01*
X298801D01*
Y60688D01*
X298763D01*
Y60650D01*
X298725D01*
Y60612D01*
X298687D01*
Y60498D01*
X298649D01*
Y60422D01*
X298611D01*
Y60384D01*
X298573D01*
Y60231D01*
X298534D01*
Y60193D01*
X298497D01*
Y60003D01*
X298534D01*
Y59965D01*
X298573D01*
Y59851D01*
X298611D01*
Y59813D01*
X298649D01*
Y59775D01*
X298687D01*
Y59813D01*
X298725D01*
Y59851D01*
X298801D01*
Y59889D01*
X298915D01*
Y59927D01*
X298953D01*
Y59965D01*
X299067D01*
Y60041D01*
X299258D01*
Y60079D01*
X299334D01*
Y60117D01*
X299372D01*
Y60155D01*
X299562D01*
Y60193D01*
X299752D01*
Y60231D01*
X299790D01*
Y60269D01*
X300019D01*
Y60308D01*
X300057D01*
Y60346D01*
X300399D01*
Y60384D01*
X300818D01*
Y60460D01*
X302150D01*
Y60422D01*
X302188D01*
Y60384D01*
X302607D01*
Y60346D01*
X302873D01*
Y60308D01*
X302911D01*
Y60269D01*
X303063D01*
Y60231D01*
X303101D01*
Y60193D01*
X303177D01*
Y60231D01*
X303215D01*
Y60193D01*
X303253D01*
Y60155D01*
X303444D01*
Y60079D01*
X303634D01*
Y60041D01*
X303748D01*
Y59965D01*
X303862D01*
Y59927D01*
X303900D01*
Y59889D01*
X303976D01*
Y59851D01*
X304091D01*
Y59813D01*
X304129D01*
Y59775D01*
X304167D01*
Y59737D01*
X304281D01*
Y59699D01*
X304319D01*
Y59661D01*
X304357D01*
Y59623D01*
X304395D01*
Y59584D01*
X304471D01*
Y59546D01*
X304509D01*
Y59508D01*
X304547D01*
Y59470D01*
X304585D01*
Y59432D01*
X304699D01*
Y59394D01*
X304738D01*
Y59356D01*
X304776D01*
Y59318D01*
X304814D01*
Y59280D01*
X304852D01*
Y59242D01*
X304890D01*
Y59204D01*
X304928D01*
Y59166D01*
X304966D01*
Y59128D01*
X305004D01*
Y59090D01*
X305042D01*
Y59052D01*
X305080D01*
Y59014D01*
X305118D01*
Y58975D01*
X305194D01*
Y58938D01*
X305270D01*
Y58861D01*
X305346D01*
Y58823D01*
X305384D01*
Y58747D01*
X305461D01*
Y58671D01*
X305499D01*
Y58595D01*
X305537D01*
Y58557D01*
X305575D01*
Y58519D01*
X305613D01*
Y58481D01*
X305651D01*
Y58443D01*
X305689D01*
Y58405D01*
X305727D01*
Y58367D01*
X305765D01*
Y58329D01*
X305803D01*
Y58290D01*
X305841D01*
Y58253D01*
X305879D01*
Y58214D01*
X305917D01*
Y58176D01*
X305955D01*
Y58138D01*
X305993D01*
Y58100D01*
X306031D01*
Y58062D01*
X306069D01*
Y58024D01*
X306108D01*
Y57910D01*
X306146D01*
Y57872D01*
X306184D01*
Y57834D01*
X306222D01*
Y57796D01*
X306260D01*
Y57758D01*
X306298D01*
Y57720D01*
X306336D01*
Y57682D01*
X306374D01*
Y57644D01*
X306412D01*
Y57606D01*
X306450D01*
Y57568D01*
X306488D01*
Y57491D01*
X306526D01*
Y57453D01*
X306564D01*
Y57415D01*
X306602D01*
Y57377D01*
X306640D01*
Y57339D01*
X306678D01*
Y57301D01*
X306716D01*
Y57263D01*
X306754D01*
Y57225D01*
X306792D01*
Y57187D01*
X306831D01*
Y57149D01*
X306869D01*
Y57111D01*
X306907D01*
Y56997D01*
X306945D01*
Y56959D01*
X306983D01*
Y56921D01*
X307021D01*
Y56883D01*
X307059D01*
Y56844D01*
X307097D01*
Y56806D01*
X307135D01*
Y56768D01*
X307173D01*
Y56730D01*
X307211D01*
Y56692D01*
X307249D01*
Y56654D01*
X307287D01*
Y56616D01*
X307325D01*
Y56578D01*
X307363D01*
Y56540D01*
X307401D01*
Y56502D01*
X307439D01*
Y56464D01*
X307478D01*
Y56426D01*
X307516D01*
Y56388D01*
X307554D01*
Y56350D01*
X307592D01*
Y56312D01*
X307630D01*
Y56274D01*
X307668D01*
Y56236D01*
X307706D01*
Y56198D01*
X307744D01*
Y56159D01*
X307782D01*
Y56121D01*
X307820D01*
Y56083D01*
X307858D01*
Y56045D01*
X307896D01*
Y56007D01*
X307934D01*
Y55969D01*
X307972D01*
Y55931D01*
X308010D01*
Y55893D01*
X308086D01*
Y56083D01*
X308124D01*
Y56312D01*
X308086D01*
Y56464D01*
X308048D01*
Y56502D01*
X308010D01*
Y56540D01*
X307972D01*
Y56578D01*
X307934D01*
Y56616D01*
X307896D01*
Y56654D01*
X307858D01*
Y56692D01*
X307820D01*
Y56730D01*
X307706D01*
Y56806D01*
X307592D01*
Y56844D01*
X307478D01*
Y57035D01*
X307516D01*
Y57263D01*
X307554D01*
Y57301D01*
X307592D01*
Y57720D01*
X307516D01*
Y57758D01*
X307478D01*
Y57796D01*
X307439D01*
Y57834D01*
X307363D01*
Y57872D01*
X307325D01*
Y57910D01*
X307173D01*
Y57948D01*
X307059D01*
Y57986D01*
X307021D01*
Y58024D01*
X306983D01*
Y58214D01*
X307021D01*
Y58671D01*
X306983D01*
Y58747D01*
X306907D01*
Y58823D01*
X306792D01*
Y58861D01*
X306298D01*
Y58823D01*
X306222D01*
Y58861D01*
X306146D01*
Y58899D01*
X306108D01*
Y59280D01*
X306184D01*
Y59356D01*
X306146D01*
Y59394D01*
X306108D01*
Y59584D01*
X306069D01*
Y59699D01*
X306031D01*
Y59737D01*
X305993D01*
Y59775D01*
X305955D01*
Y59813D01*
X305917D01*
Y59851D01*
X305879D01*
Y59889D01*
X305765D01*
Y59965D01*
X305537D01*
Y60003D01*
X305499D01*
Y60041D01*
X305156D01*
Y59965D01*
X304738D01*
Y60498D01*
X304699D01*
Y60536D01*
X304661D01*
Y60612D01*
X304623D01*
Y60650D01*
X304585D01*
Y60688D01*
X304547D01*
Y60726D01*
X304509D01*
Y60764D01*
X304357D01*
Y60802D01*
X304319D01*
Y60840D01*
X304281D01*
Y60802D01*
X304129D01*
Y60764D01*
X303862D01*
Y60688D01*
X303748D01*
Y60650D01*
X303634D01*
Y60574D01*
X303520D01*
Y60612D01*
X303482D01*
Y60650D01*
X303444D01*
Y60802D01*
X303406D01*
Y60840D01*
X303368D01*
Y60954D01*
X303329D01*
Y61069D01*
X303253D01*
Y61107D01*
X303215D01*
Y61145D01*
X303177D01*
Y61183D01*
X303139D01*
Y61221D01*
X303101D01*
Y61259D01*
X303063D01*
Y61297D01*
D02*
G37*
G36*
X302112Y60155D02*
X300894D01*
Y60117D01*
X300856D01*
Y60079D01*
X300475D01*
Y60041D01*
X300171D01*
Y60003D01*
X300133D01*
Y59965D01*
X299867D01*
Y59927D01*
X299828D01*
Y59889D01*
X299752D01*
Y59927D01*
X299714D01*
Y59889D01*
X299676D01*
Y59851D01*
X299486D01*
Y59775D01*
X299296D01*
Y59737D01*
X299182D01*
Y59661D01*
X298991D01*
Y59584D01*
X298877D01*
Y59546D01*
X298839D01*
Y59508D01*
X298801D01*
Y59394D01*
X298839D01*
Y59356D01*
X298877D01*
Y59242D01*
X298915D01*
Y59204D01*
X298953D01*
Y59052D01*
X298991D01*
Y58938D01*
X299067D01*
Y58747D01*
X299105D01*
Y58709D01*
X299143D01*
Y58671D01*
X299105D01*
Y58595D01*
X299143D01*
Y58557D01*
X299182D01*
Y58253D01*
X299258D01*
Y57910D01*
X299219D01*
Y57872D01*
X299258D01*
Y57834D01*
X299296D01*
Y57872D01*
X299334D01*
Y57910D01*
X299486D01*
Y57948D01*
X299981D01*
Y57910D01*
X300209D01*
Y57834D01*
X300323D01*
Y57796D01*
X300361D01*
Y57758D01*
X300475D01*
Y57720D01*
X300589D01*
Y57644D01*
X300704D01*
Y57720D01*
X300780D01*
Y57796D01*
X300818D01*
Y57834D01*
X300894D01*
Y57910D01*
X300932D01*
Y57948D01*
X301008D01*
Y58024D01*
X301122D01*
Y58062D01*
X301160D01*
Y58100D01*
X301198D01*
Y58062D01*
X301274D01*
Y58100D01*
X301313D01*
Y58138D01*
X301655D01*
Y58100D01*
X301693D01*
Y58062D01*
X301769D01*
Y58100D01*
X301807D01*
Y58062D01*
X301845D01*
Y58024D01*
X301959D01*
Y57986D01*
X301998D01*
Y57948D01*
X302036D01*
Y57910D01*
X302150D01*
Y57872D01*
X302188D01*
Y57834D01*
X302226D01*
Y57796D01*
X302264D01*
Y57758D01*
X302340D01*
Y57720D01*
X302530D01*
Y57644D01*
X302568D01*
Y57682D01*
X302607D01*
Y57720D01*
X302835D01*
Y57758D01*
X302949D01*
Y57834D01*
X303063D01*
Y57872D01*
X303101D01*
Y57910D01*
X303215D01*
Y57948D01*
X303748D01*
Y57910D01*
X303900D01*
Y57872D01*
X303938D01*
Y57834D01*
X303976D01*
Y57796D01*
X304014D01*
Y57758D01*
X304129D01*
Y57720D01*
X304167D01*
Y57682D01*
X304205D01*
Y57644D01*
X304243D01*
Y57606D01*
X304281D01*
Y57491D01*
X304319D01*
Y57453D01*
X304357D01*
Y57415D01*
X304395D01*
Y57377D01*
X304433D01*
Y57225D01*
X304471D01*
Y56997D01*
X305080D01*
Y56921D01*
X305270D01*
Y56883D01*
X305308D01*
Y56844D01*
X305384D01*
Y56806D01*
X305423D01*
Y56768D01*
X305461D01*
Y56730D01*
X305499D01*
Y56692D01*
X305537D01*
Y56654D01*
X305575D01*
Y56616D01*
X305651D01*
Y56502D01*
X305689D01*
Y56388D01*
X305727D01*
Y56350D01*
X305765D01*
Y56007D01*
X305803D01*
Y55969D01*
X305841D01*
Y55931D01*
X306222D01*
Y55969D01*
X306260D01*
Y55931D01*
X306298D01*
Y55893D01*
X306412D01*
Y55855D01*
X306450D01*
Y55817D01*
X306564D01*
Y55779D01*
X306602D01*
Y55665D01*
X306640D01*
Y55627D01*
X306678D01*
Y55589D01*
X306716D01*
Y55475D01*
X306754D01*
Y55436D01*
X306792D01*
Y54904D01*
X306869D01*
Y54789D01*
X306983D01*
Y54713D01*
X307059D01*
Y54751D01*
X307135D01*
Y54713D01*
X307173D01*
Y54675D01*
X307287D01*
Y54599D01*
X307325D01*
Y54561D01*
X307363D01*
Y54523D01*
X307401D01*
Y54485D01*
X307439D01*
Y54447D01*
X307478D01*
Y54409D01*
X307516D01*
Y54371D01*
X307592D01*
Y54181D01*
X307630D01*
Y53762D01*
X307592D01*
Y53724D01*
X307554D01*
Y53686D01*
X307401D01*
Y53762D01*
X307325D01*
Y54181D01*
X307287D01*
Y54295D01*
X307249D01*
Y54333D01*
X307211D01*
Y54371D01*
X307097D01*
Y54409D01*
X306983D01*
Y54485D01*
X306792D01*
Y54561D01*
X306678D01*
Y54599D01*
X306640D01*
Y54637D01*
X306602D01*
Y54675D01*
X306564D01*
Y55132D01*
X306526D01*
Y55170D01*
X306488D01*
Y55398D01*
X306450D01*
Y55436D01*
X306412D01*
Y55512D01*
X306374D01*
Y55589D01*
X306260D01*
Y55627D01*
X306222D01*
Y55665D01*
X306184D01*
Y55627D01*
X305765D01*
Y55665D01*
X305727D01*
Y55627D01*
X305689D01*
Y55589D01*
X305575D01*
Y55627D01*
X305537D01*
Y55665D01*
X305499D01*
Y56083D01*
X305461D01*
Y56312D01*
X305384D01*
Y56426D01*
X305346D01*
Y56464D01*
X305308D01*
Y56502D01*
X305270D01*
Y56540D01*
X305232D01*
Y56578D01*
X305194D01*
Y56616D01*
X305080D01*
Y56692D01*
X304243D01*
Y56806D01*
X304167D01*
Y57225D01*
X304129D01*
Y57339D01*
X304053D01*
Y57415D01*
X304014D01*
Y57453D01*
X303976D01*
Y57491D01*
X303938D01*
Y57529D01*
X303862D01*
Y57606D01*
X303748D01*
Y57644D01*
X303253D01*
Y57606D01*
X303139D01*
Y57529D01*
X303025D01*
Y57491D01*
X302987D01*
Y57453D01*
X302911D01*
Y57491D01*
X302873D01*
Y57453D01*
X302835D01*
Y57415D01*
X302340D01*
Y57453D01*
X302302D01*
Y57491D01*
X302264D01*
Y57453D01*
X302188D01*
Y57491D01*
X302150D01*
Y57529D01*
X302112D01*
Y57568D01*
X302074D01*
Y57606D01*
X301998D01*
Y57644D01*
X301922D01*
Y57720D01*
X301807D01*
Y57758D01*
X301693D01*
Y57796D01*
X301655D01*
Y57834D01*
X301313D01*
Y57796D01*
X301274D01*
Y57758D01*
X301198D01*
Y57720D01*
X301160D01*
Y57682D01*
X301122D01*
Y57644D01*
X301084D01*
Y57606D01*
X301046D01*
Y57568D01*
X301008D01*
Y57529D01*
X300970D01*
Y57491D01*
X300932D01*
Y57453D01*
X300894D01*
Y57339D01*
X300932D01*
Y57263D01*
X300970D01*
Y57225D01*
X301008D01*
Y57187D01*
X301046D01*
Y57149D01*
X301084D01*
Y57035D01*
X301122D01*
Y56997D01*
X301160D01*
Y56959D01*
X301198D01*
Y56844D01*
X301274D01*
Y56806D01*
X301313D01*
Y56692D01*
X301351D01*
Y56654D01*
X301389D01*
Y56616D01*
X301427D01*
Y56578D01*
X301465D01*
Y56540D01*
X301503D01*
Y56502D01*
X301541D01*
Y56464D01*
X301579D01*
Y56426D01*
X301617D01*
Y56198D01*
X301579D01*
Y56159D01*
X301541D01*
Y56121D01*
X301427D01*
Y56083D01*
X301389D01*
Y56045D01*
X301351D01*
Y56007D01*
X301274D01*
Y55969D01*
X301237D01*
Y55931D01*
X301198D01*
Y55893D01*
X301160D01*
Y55855D01*
X301122D01*
Y55817D01*
X301008D01*
Y55779D01*
X300970D01*
Y55741D01*
X300932D01*
Y55703D01*
X300894D01*
Y55665D01*
X300856D01*
Y55627D01*
X300780D01*
Y55589D01*
X300704D01*
Y55512D01*
X300589D01*
Y55475D01*
X300552D01*
Y55436D01*
X300513D01*
Y55398D01*
X300742D01*
Y55360D01*
X300780D01*
Y55322D01*
X300932D01*
Y55360D01*
X300970D01*
Y55398D01*
X301046D01*
Y55436D01*
X301084D01*
Y55475D01*
X301237D01*
Y55512D01*
X301465D01*
Y55551D01*
X301503D01*
Y55589D01*
X302340D01*
Y55551D01*
X302378D01*
Y55512D01*
X302644D01*
Y55475D01*
X302873D01*
Y55436D01*
X302911D01*
Y55398D01*
X303063D01*
Y55360D01*
X303101D01*
Y55322D01*
X303177D01*
Y55360D01*
X303215D01*
Y55322D01*
X303253D01*
Y55284D01*
X303368D01*
Y55246D01*
X303406D01*
Y55208D01*
X303558D01*
Y55170D01*
X303672D01*
Y55132D01*
X303710D01*
Y55094D01*
X303862D01*
Y55056D01*
X303900D01*
Y55018D01*
X303976D01*
Y54980D01*
X304091D01*
Y54942D01*
X304129D01*
Y54904D01*
X304243D01*
Y54866D01*
X304357D01*
Y54789D01*
X304471D01*
Y54751D01*
X304509D01*
Y54713D01*
X304585D01*
Y54675D01*
X304699D01*
Y54637D01*
X304738D01*
Y54599D01*
X304776D01*
Y54561D01*
X304890D01*
Y54523D01*
X304928D01*
Y54485D01*
X305004D01*
Y54447D01*
X305042D01*
Y54409D01*
X305156D01*
Y54371D01*
X305270D01*
Y54295D01*
X305384D01*
Y54257D01*
X305423D01*
Y54219D01*
X305461D01*
Y54181D01*
X305575D01*
Y54142D01*
X305613D01*
Y54104D01*
X305689D01*
Y54066D01*
X305803D01*
Y54028D01*
X305841D01*
Y53990D01*
X305955D01*
Y53952D01*
X306031D01*
Y53914D01*
X306069D01*
Y53876D01*
X306184D01*
Y53838D01*
X306222D01*
Y53800D01*
X306298D01*
Y53762D01*
X306412D01*
Y53724D01*
X306450D01*
Y53686D01*
X306564D01*
Y53648D01*
X306640D01*
Y53610D01*
X306678D01*
Y53572D01*
X306831D01*
Y53534D01*
X306869D01*
Y53496D01*
X306983D01*
Y53457D01*
X307097D01*
Y53381D01*
X307211D01*
Y53343D01*
X307401D01*
Y53267D01*
X307516D01*
Y53229D01*
X307554D01*
Y53191D01*
X307630D01*
Y53229D01*
X307668D01*
Y53191D01*
X307706D01*
Y53153D01*
X307896D01*
Y53077D01*
X308086D01*
Y53039D01*
X308239D01*
Y53001D01*
X308277D01*
Y52963D01*
X308505D01*
Y52887D01*
X308657D01*
Y52925D01*
X308695D01*
Y52887D01*
X308733D01*
Y52849D01*
X309114D01*
Y52772D01*
X310598D01*
Y52811D01*
X310636D01*
Y52849D01*
X310864D01*
Y52887D01*
X310903D01*
Y52925D01*
X310941D01*
Y52887D01*
X311017D01*
Y52925D01*
X311055D01*
Y52963D01*
X311245D01*
Y53039D01*
X311359D01*
Y53077D01*
X311473D01*
Y53153D01*
X311588D01*
Y53191D01*
X311702D01*
Y53229D01*
X311740D01*
Y53267D01*
X311854D01*
Y53343D01*
X311892D01*
Y53381D01*
X312006D01*
Y53419D01*
X312044D01*
Y53457D01*
X312082D01*
Y53496D01*
X312120D01*
Y53534D01*
X312158D01*
Y53572D01*
X312273D01*
Y53610D01*
X312311D01*
Y53648D01*
X312349D01*
Y53686D01*
X312387D01*
Y53724D01*
X312425D01*
Y53762D01*
X312463D01*
Y53800D01*
X312501D01*
Y53838D01*
X312539D01*
Y53876D01*
X312577D01*
Y53990D01*
X312615D01*
Y54028D01*
X312653D01*
Y54066D01*
X312691D01*
Y54104D01*
X312729D01*
Y54142D01*
X312767D01*
Y54257D01*
X312805D01*
Y54333D01*
X312843D01*
Y54371D01*
X312881D01*
Y54485D01*
X312919D01*
Y54523D01*
X312958D01*
Y54599D01*
X312996D01*
Y54789D01*
X313072D01*
Y54980D01*
X313110D01*
Y55322D01*
X313148D01*
Y55360D01*
X313186D01*
Y56007D01*
X313148D01*
Y56045D01*
X313110D01*
Y56426D01*
X313072D01*
Y56654D01*
X313034D01*
Y56692D01*
X312996D01*
Y56921D01*
X312958D01*
Y57149D01*
X312919D01*
Y57187D01*
X312881D01*
Y57339D01*
X312843D01*
Y57377D01*
X312805D01*
Y57606D01*
X312767D01*
Y57834D01*
X312691D01*
Y58253D01*
X312653D01*
Y58861D01*
X312691D01*
Y59242D01*
X312767D01*
Y59470D01*
X312805D01*
Y59623D01*
X312843D01*
Y59661D01*
X312881D01*
Y59851D01*
X312958D01*
Y60003D01*
X312919D01*
Y60041D01*
X312463D01*
Y59965D01*
X312273D01*
Y59927D01*
X312234D01*
Y59889D01*
X312158D01*
Y59851D01*
X312044D01*
Y59813D01*
X312006D01*
Y59775D01*
X311892D01*
Y59737D01*
X311854D01*
Y59661D01*
X311778D01*
Y59584D01*
X311740D01*
Y59546D01*
X311664D01*
Y59432D01*
X311626D01*
Y59394D01*
X311588D01*
Y59280D01*
X311549D01*
Y59204D01*
X311511D01*
Y59166D01*
X311473D01*
Y59052D01*
X311435D01*
Y58823D01*
X311397D01*
Y58785D01*
X311359D01*
Y58405D01*
X311321D01*
Y58367D01*
X311283D01*
Y57758D01*
X311245D01*
Y57720D01*
X311017D01*
Y57682D01*
X310979D01*
Y57644D01*
X310750D01*
Y57606D01*
X310598D01*
Y57568D01*
X310560D01*
Y57529D01*
X310446D01*
Y57491D01*
X310408D01*
Y57453D01*
X310370D01*
Y57415D01*
X310256D01*
Y57339D01*
X310217D01*
Y57301D01*
X310179D01*
Y57263D01*
X310141D01*
Y57225D01*
X310103D01*
Y57187D01*
X310065D01*
Y57149D01*
X310027D01*
Y57073D01*
X309989D01*
Y57035D01*
X309951D01*
Y56921D01*
X309913D01*
Y56768D01*
X309875D01*
Y56730D01*
X309837D01*
Y56007D01*
X309875D01*
Y55969D01*
X309913D01*
Y55779D01*
X310027D01*
Y55893D01*
X310065D01*
Y55931D01*
X310103D01*
Y55969D01*
X310141D01*
Y56007D01*
X310179D01*
Y56045D01*
X310217D01*
Y56083D01*
X310256D01*
Y56121D01*
X310294D01*
Y56159D01*
X310332D01*
Y56198D01*
X310446D01*
Y56236D01*
X310484D01*
Y56274D01*
X310522D01*
Y56312D01*
X310636D01*
Y56388D01*
X310750D01*
Y56426D01*
X311283D01*
Y56388D01*
X311473D01*
Y56312D01*
X311549D01*
Y56236D01*
X311664D01*
Y56198D01*
X311702D01*
Y56159D01*
X311740D01*
Y56121D01*
X311778D01*
Y56007D01*
X311854D01*
Y55969D01*
X311892D01*
Y55779D01*
X311930D01*
Y55741D01*
X311968D01*
Y55475D01*
X312006D01*
Y55436D01*
X312044D01*
Y55284D01*
X311968D01*
Y54980D01*
X311930D01*
Y54942D01*
X311892D01*
Y54866D01*
X311854D01*
Y54751D01*
X311816D01*
Y54713D01*
X311778D01*
Y54675D01*
X311740D01*
Y54561D01*
X311626D01*
Y54523D01*
X311588D01*
Y54485D01*
X311549D01*
Y54447D01*
X311511D01*
Y54409D01*
X311473D01*
Y54371D01*
X311359D01*
Y54295D01*
X311245D01*
Y54257D01*
X311055D01*
Y54181D01*
X310750D01*
Y54142D01*
X310712D01*
Y54104D01*
X310332D01*
Y54181D01*
X309951D01*
Y54257D01*
X309761D01*
Y54295D01*
X309609D01*
Y54333D01*
X309571D01*
Y54371D01*
X309456D01*
Y54409D01*
X309380D01*
Y54447D01*
X309342D01*
Y54485D01*
X309304D01*
Y54523D01*
X309266D01*
Y54561D01*
X309152D01*
Y54599D01*
X309076D01*
Y54637D01*
X309038D01*
Y54675D01*
X309000D01*
Y54713D01*
X308962D01*
Y54751D01*
X308924D01*
Y54789D01*
X308809D01*
Y54827D01*
X308771D01*
Y54866D01*
X308733D01*
Y54904D01*
X308695D01*
Y54942D01*
X308657D01*
Y54980D01*
X308619D01*
Y55018D01*
X308505D01*
Y55094D01*
X308429D01*
Y55170D01*
X308391D01*
Y55208D01*
X308315D01*
Y55284D01*
X308239D01*
Y55322D01*
X308163D01*
Y55360D01*
X308124D01*
Y55398D01*
X308086D01*
Y55436D01*
X308048D01*
Y55475D01*
X308010D01*
Y55512D01*
X307972D01*
Y55551D01*
X307934D01*
Y55589D01*
X307896D01*
Y55627D01*
X307858D01*
Y55665D01*
X307820D01*
Y55703D01*
X307782D01*
Y55741D01*
X307744D01*
Y55779D01*
X307706D01*
Y55817D01*
X307668D01*
Y55855D01*
X307630D01*
Y55893D01*
X307592D01*
Y55931D01*
X307554D01*
Y55969D01*
X307516D01*
Y56007D01*
X307478D01*
Y56045D01*
X307439D01*
Y56083D01*
X307401D01*
Y56121D01*
X307363D01*
Y56159D01*
X307325D01*
Y56198D01*
X307287D01*
Y56236D01*
X307249D01*
Y56274D01*
X307211D01*
Y56312D01*
X307173D01*
Y56350D01*
X307135D01*
Y56388D01*
X307097D01*
Y56426D01*
X307059D01*
Y56464D01*
X307021D01*
Y56502D01*
X306983D01*
Y56540D01*
X306945D01*
Y56578D01*
X306907D01*
Y56616D01*
X306869D01*
Y56654D01*
X306831D01*
Y56692D01*
X306792D01*
Y56730D01*
X306754D01*
Y56768D01*
X306716D01*
Y56806D01*
X306678D01*
Y56844D01*
X306640D01*
Y56883D01*
X306602D01*
Y56921D01*
X306564D01*
Y57035D01*
X306488D01*
Y57111D01*
X306450D01*
Y57149D01*
X306412D01*
Y57187D01*
X306374D01*
Y57225D01*
X306298D01*
Y57301D01*
X306260D01*
Y57339D01*
X306184D01*
Y57453D01*
X306146D01*
Y57491D01*
X306108D01*
Y57529D01*
X306069D01*
Y57568D01*
X306031D01*
Y57606D01*
X305993D01*
Y57644D01*
X305955D01*
Y57682D01*
X305917D01*
Y57720D01*
X305879D01*
Y57758D01*
X305841D01*
Y57796D01*
X305803D01*
Y57834D01*
X305765D01*
Y57948D01*
X305727D01*
Y57986D01*
X305689D01*
Y58024D01*
X305651D01*
Y58062D01*
X305613D01*
Y58100D01*
X305575D01*
Y58138D01*
X305537D01*
Y58176D01*
X305499D01*
Y58214D01*
X305461D01*
Y58253D01*
X305423D01*
Y58290D01*
X305384D01*
Y58329D01*
X305346D01*
Y58367D01*
X305308D01*
Y58405D01*
X305270D01*
Y58443D01*
X305232D01*
Y58481D01*
X305194D01*
Y58519D01*
X305156D01*
Y58557D01*
X305118D01*
Y58595D01*
X305080D01*
Y58633D01*
X305042D01*
Y58671D01*
X305004D01*
Y58709D01*
X304966D01*
Y58747D01*
X304928D01*
Y58785D01*
X304890D01*
Y58823D01*
X304852D01*
Y58861D01*
X304814D01*
Y58899D01*
X304776D01*
Y58938D01*
X304738D01*
Y58975D01*
X304699D01*
Y59014D01*
X304661D01*
Y59052D01*
X304623D01*
Y59090D01*
X304585D01*
Y59128D01*
X304471D01*
Y59166D01*
X304433D01*
Y59204D01*
X304395D01*
Y59242D01*
X304357D01*
Y59280D01*
X304319D01*
Y59318D01*
X304281D01*
Y59356D01*
X304167D01*
Y59432D01*
X304129D01*
Y59470D01*
X304014D01*
Y59508D01*
X303976D01*
Y59546D01*
X303862D01*
Y59584D01*
X303786D01*
Y59623D01*
X303748D01*
Y59661D01*
X303634D01*
Y59699D01*
X303596D01*
Y59737D01*
X303520D01*
Y59775D01*
X303406D01*
Y59813D01*
X303368D01*
Y59851D01*
X303215D01*
Y59889D01*
X303025D01*
Y59965D01*
X302797D01*
Y60003D01*
X302759D01*
Y60041D01*
X302530D01*
Y60079D01*
X302112D01*
Y60155D01*
D02*
G37*
G36*
X318323Y61259D02*
X317600D01*
Y61221D01*
X317562D01*
Y61183D01*
X317410D01*
Y61145D01*
X317372D01*
Y61107D01*
X317258D01*
Y61069D01*
X317144D01*
Y60992D01*
X317068D01*
Y60954D01*
X316991D01*
Y60916D01*
X316953D01*
Y60878D01*
X316839D01*
Y60840D01*
X316801D01*
Y60802D01*
X316763D01*
Y60764D01*
X316649D01*
Y60688D01*
X316535D01*
Y60650D01*
X316383D01*
Y60612D01*
X316344D01*
Y60574D01*
X316192D01*
Y60536D01*
X316154D01*
Y60498D01*
X316116D01*
Y54980D01*
X317258D01*
Y55018D01*
X317296D01*
Y55056D01*
X317334D01*
Y55018D01*
X317867D01*
Y55094D01*
X318095D01*
Y55132D01*
X318133D01*
Y55170D01*
X318285D01*
Y55208D01*
X318476D01*
Y55284D01*
X318666D01*
Y55322D01*
X318704D01*
Y55360D01*
X318742D01*
Y55322D01*
X318818D01*
Y55360D01*
X318856D01*
Y55398D01*
X319085D01*
Y55436D01*
X319123D01*
Y55475D01*
X319351D01*
Y55512D01*
X319503D01*
Y60802D01*
X319427D01*
Y60840D01*
X319389D01*
Y60878D01*
X319237D01*
Y60916D01*
X319199D01*
Y60954D01*
X319046D01*
Y60992D01*
X318932D01*
Y61031D01*
X318894D01*
Y61069D01*
X318742D01*
Y61107D01*
X318628D01*
Y61145D01*
X318590D01*
Y61183D01*
X318361D01*
Y61221D01*
X318323D01*
Y61259D01*
D02*
G37*
G36*
X288260D02*
X287498D01*
Y61183D01*
X287308D01*
Y61145D01*
X287270D01*
Y61107D01*
X287194D01*
Y61069D01*
X287080D01*
Y61031D01*
X287042D01*
Y60992D01*
X287004D01*
Y60954D01*
X286890D01*
Y60878D01*
X286775D01*
Y60840D01*
X286737D01*
Y60802D01*
X286699D01*
Y60764D01*
X286585D01*
Y60726D01*
X286547D01*
Y60688D01*
X286471D01*
Y60650D01*
X286281D01*
Y60574D01*
X286090D01*
Y60536D01*
X286052D01*
Y60498D01*
X286014D01*
Y55170D01*
Y55132D01*
Y54980D01*
X287194D01*
Y55018D01*
X287232D01*
Y55056D01*
X287270D01*
Y55018D01*
X287727D01*
Y55094D01*
X288031D01*
Y55132D01*
X288069D01*
Y55170D01*
X288222D01*
Y55208D01*
X288374D01*
Y55246D01*
X288412D01*
Y55284D01*
X288602D01*
Y55322D01*
X288640D01*
Y55360D01*
X288678D01*
Y55322D01*
X288754D01*
Y55360D01*
X288792D01*
Y55398D01*
X289021D01*
Y55475D01*
X289249D01*
Y55512D01*
X289439D01*
Y60802D01*
X289325D01*
Y60878D01*
X289135D01*
Y60916D01*
X289097D01*
Y60954D01*
X288945D01*
Y60992D01*
X288830D01*
Y61069D01*
X288640D01*
Y61107D01*
X288564D01*
Y61145D01*
X288526D01*
Y61183D01*
X288298D01*
Y61221D01*
X288260D01*
Y61259D01*
D02*
G37*
G36*
X291723D02*
X291000D01*
Y61221D01*
X290962D01*
Y61183D01*
X290771D01*
Y61107D01*
X290581D01*
Y61069D01*
X290429D01*
Y61031D01*
X290391D01*
Y60992D01*
X290277D01*
Y60954D01*
X290124D01*
Y60916D01*
X290086D01*
Y60878D01*
X289934D01*
Y60840D01*
X289896D01*
Y60802D01*
X289820D01*
Y55512D01*
X289972D01*
Y55475D01*
X290277D01*
Y55436D01*
X290315D01*
Y55398D01*
X290467D01*
Y55360D01*
X290505D01*
Y55322D01*
X290581D01*
Y55360D01*
X290619D01*
Y55322D01*
X290657D01*
Y55284D01*
X290847D01*
Y55208D01*
X291038D01*
Y55170D01*
X291266D01*
Y55094D01*
X291494D01*
Y55056D01*
X291532D01*
Y55018D01*
X291989D01*
Y55056D01*
X292027D01*
Y55018D01*
X292065D01*
Y54980D01*
X293207D01*
Y60574D01*
X292978D01*
Y60612D01*
X292940D01*
Y60650D01*
X292788D01*
Y60688D01*
X292674D01*
Y60764D01*
X292560D01*
Y60802D01*
X292522D01*
Y60840D01*
X292484D01*
Y60878D01*
X292370D01*
Y60916D01*
X292332D01*
Y60954D01*
X292293D01*
Y60992D01*
X292179D01*
Y61069D01*
X292065D01*
Y61107D01*
X291951D01*
Y61145D01*
X291913D01*
Y61183D01*
X291761D01*
Y61221D01*
X291723D01*
Y61259D01*
D02*
G37*
G36*
X294196Y60498D02*
X293511D01*
Y54409D01*
X290238D01*
Y54447D01*
X290200D01*
Y54409D01*
X290162D01*
Y54295D01*
X290124D01*
Y54257D01*
X290086D01*
Y54219D01*
X290048D01*
Y54181D01*
X290010D01*
Y54142D01*
X289972D01*
Y54104D01*
X289934D01*
Y54066D01*
X289820D01*
Y54028D01*
X289782D01*
Y53990D01*
X289439D01*
Y54066D01*
X289325D01*
Y54104D01*
X289287D01*
Y54142D01*
X289249D01*
Y54181D01*
X289211D01*
Y54219D01*
X289173D01*
Y54257D01*
X289135D01*
Y54371D01*
X289059D01*
Y54409D01*
X289021D01*
Y54447D01*
X288983D01*
Y54409D01*
X285748D01*
Y54447D01*
X285710D01*
Y60498D01*
X285063D01*
Y59813D01*
X285025D01*
Y59775D01*
X284987D01*
Y59661D01*
X284949D01*
Y59623D01*
X284911D01*
Y59584D01*
X284873D01*
Y59546D01*
X284835D01*
Y59508D01*
X284797D01*
Y59470D01*
X284758D01*
Y59432D01*
X284720D01*
Y59394D01*
X284682D01*
Y59356D01*
X284644D01*
Y59318D01*
X284606D01*
Y59280D01*
X284568D01*
Y59052D01*
X284606D01*
Y59014D01*
X284644D01*
Y58938D01*
X284758D01*
Y58861D01*
X284797D01*
Y58823D01*
X284835D01*
Y58785D01*
X284873D01*
Y58747D01*
X284911D01*
Y58709D01*
X284949D01*
Y58671D01*
X284987D01*
Y58519D01*
X285025D01*
Y58481D01*
X285063D01*
Y55703D01*
X284987D01*
Y55512D01*
X284949D01*
Y55475D01*
X284911D01*
Y55436D01*
X284873D01*
Y55398D01*
X284835D01*
Y55360D01*
X284797D01*
Y55322D01*
X284758D01*
Y55284D01*
X284644D01*
Y55170D01*
X284606D01*
Y55132D01*
X284568D01*
Y54904D01*
X284644D01*
Y54866D01*
X284682D01*
Y54789D01*
X284758D01*
Y54751D01*
X284797D01*
Y54675D01*
X284911D01*
Y54637D01*
X284949D01*
Y54561D01*
X284987D01*
Y54447D01*
X285025D01*
Y54409D01*
X285063D01*
Y53762D01*
X294196D01*
Y54371D01*
X294234D01*
Y54409D01*
X294272D01*
Y54447D01*
X294234D01*
Y54523D01*
X294272D01*
Y54561D01*
X294310D01*
Y54599D01*
X294348D01*
Y54637D01*
X294387D01*
Y54675D01*
X294425D01*
Y54713D01*
X294463D01*
Y54751D01*
X294501D01*
Y54789D01*
X294539D01*
Y54827D01*
X294577D01*
Y54866D01*
X294615D01*
Y54904D01*
X294653D01*
Y54942D01*
X294691D01*
Y55132D01*
X294653D01*
Y55170D01*
X294615D01*
Y55284D01*
X294539D01*
Y55322D01*
X294463D01*
Y55360D01*
X294425D01*
Y55398D01*
X294387D01*
Y55436D01*
X294348D01*
Y55475D01*
X294310D01*
Y55512D01*
X294272D01*
Y55551D01*
X294234D01*
Y55627D01*
X294272D01*
Y55665D01*
X294234D01*
Y55703D01*
X294196D01*
Y58519D01*
X294234D01*
Y58671D01*
X294272D01*
Y58709D01*
X294310D01*
Y58747D01*
X294348D01*
Y58785D01*
X294387D01*
Y58823D01*
X294425D01*
Y58861D01*
X294539D01*
Y58899D01*
X294577D01*
Y58938D01*
X294615D01*
Y59052D01*
X294653D01*
Y59090D01*
X294691D01*
Y59280D01*
X294653D01*
Y59318D01*
X294615D01*
Y59356D01*
X294577D01*
Y59394D01*
X294539D01*
Y59432D01*
X294501D01*
Y59470D01*
X294463D01*
Y59508D01*
X294425D01*
Y59546D01*
X294387D01*
Y59584D01*
X294348D01*
Y59623D01*
X294310D01*
Y59661D01*
X294272D01*
Y59699D01*
X294234D01*
Y59851D01*
X294196D01*
Y60498D01*
D02*
G37*
G36*
X323727Y60536D02*
X323689D01*
Y60498D01*
X323651D01*
Y60460D01*
X323613D01*
Y54447D01*
X323575D01*
Y54409D01*
X320264D01*
Y54333D01*
X320226D01*
Y54295D01*
X320188D01*
Y54257D01*
X320150D01*
Y54219D01*
X320112D01*
Y54181D01*
X320074D01*
Y54142D01*
X320036D01*
Y54104D01*
X319998D01*
Y54066D01*
X319884D01*
Y53990D01*
X319541D01*
Y54028D01*
X319503D01*
Y54066D01*
X319389D01*
Y54104D01*
X319351D01*
Y54142D01*
X319313D01*
Y54181D01*
X319275D01*
Y54219D01*
X319237D01*
Y54257D01*
X319199D01*
Y54371D01*
X319161D01*
Y54409D01*
X319123D01*
Y54447D01*
X319085D01*
Y54409D01*
X315812D01*
Y60498D01*
X315127D01*
Y59775D01*
X315089D01*
Y59699D01*
X315051D01*
Y59661D01*
X315013D01*
Y59546D01*
X314898D01*
Y59508D01*
X314860D01*
Y59470D01*
X314822D01*
Y59432D01*
X314784D01*
Y59394D01*
X314746D01*
Y59356D01*
X314708D01*
Y59318D01*
X314670D01*
Y59280D01*
X314632D01*
Y59090D01*
X314670D01*
Y59052D01*
X314708D01*
Y59014D01*
X314746D01*
Y58975D01*
X314784D01*
Y58938D01*
X314822D01*
Y58899D01*
X314860D01*
Y58861D01*
X314898D01*
Y58823D01*
X314936D01*
Y58785D01*
X314974D01*
Y58747D01*
X315013D01*
Y58709D01*
X315051D01*
Y58671D01*
X315089D01*
Y58557D01*
X315127D01*
Y55627D01*
X315089D01*
Y55551D01*
X315051D01*
Y55512D01*
X315013D01*
Y55475D01*
X314974D01*
Y55436D01*
X314936D01*
Y55398D01*
X314898D01*
Y55360D01*
X314860D01*
Y55322D01*
X314822D01*
Y55284D01*
X314784D01*
Y55246D01*
X314746D01*
Y55208D01*
X314708D01*
Y55170D01*
X314670D01*
Y55132D01*
X314632D01*
Y54942D01*
X314670D01*
Y54904D01*
X314708D01*
Y54866D01*
X314746D01*
Y54827D01*
X314784D01*
Y54789D01*
X314822D01*
Y54751D01*
X314860D01*
Y54713D01*
X314936D01*
Y54675D01*
X315013D01*
Y54561D01*
X315051D01*
Y54523D01*
X315089D01*
Y54409D01*
X315127D01*
Y53762D01*
X324260D01*
Y54295D01*
X324298D01*
Y54333D01*
X324336D01*
Y54561D01*
X324374D01*
Y54599D01*
X324450D01*
Y54675D01*
X324488D01*
Y54713D01*
X324526D01*
Y54751D01*
X324564D01*
Y54789D01*
X324640D01*
Y54866D01*
X324679D01*
Y54904D01*
X324755D01*
Y55208D01*
X324717D01*
Y55246D01*
X324679D01*
Y55284D01*
X324640D01*
Y55322D01*
X324526D01*
Y55360D01*
X324488D01*
Y55398D01*
X324450D01*
Y55436D01*
X324412D01*
Y55475D01*
X324374D01*
Y55589D01*
X324336D01*
Y55741D01*
X324298D01*
Y55779D01*
X324260D01*
Y58443D01*
X324336D01*
Y58633D01*
X324374D01*
Y58709D01*
X324412D01*
Y58747D01*
X324450D01*
Y58785D01*
X324488D01*
Y58823D01*
X324526D01*
Y58861D01*
X324603D01*
Y58899D01*
X324640D01*
Y58938D01*
X324679D01*
Y58975D01*
X324717D01*
Y59014D01*
X324755D01*
Y59280D01*
X324717D01*
Y59318D01*
X324679D01*
Y59356D01*
X324640D01*
Y59394D01*
X324603D01*
Y59432D01*
X324564D01*
Y59470D01*
X324526D01*
Y59508D01*
X324488D01*
Y59546D01*
X324450D01*
Y59584D01*
X324412D01*
Y59623D01*
X324374D01*
Y59661D01*
X324336D01*
Y59889D01*
X324298D01*
Y59927D01*
X324260D01*
Y60498D01*
X323727D01*
Y60536D01*
D02*
G37*
G36*
X298002Y60269D02*
X297926D01*
Y60231D01*
X297888D01*
Y60193D01*
X297849D01*
Y60117D01*
X297812D01*
Y60079D01*
X297773D01*
Y60041D01*
X297735D01*
Y60003D01*
X297697D01*
Y59965D01*
X297659D01*
Y59927D01*
X297621D01*
Y59889D01*
X297583D01*
Y59775D01*
X297545D01*
Y59737D01*
X297507D01*
Y59699D01*
X297469D01*
Y59584D01*
X297431D01*
Y59546D01*
X297355D01*
Y59432D01*
X297317D01*
Y59394D01*
X297279D01*
Y59356D01*
X297241D01*
Y59242D01*
X297165D01*
Y59128D01*
X297127D01*
Y59014D01*
X297088D01*
Y58975D01*
X297050D01*
Y58861D01*
X296974D01*
Y58747D01*
X296936D01*
Y58709D01*
X296898D01*
Y58671D01*
X296860D01*
Y58557D01*
X296822D01*
Y58405D01*
X296784D01*
Y58367D01*
X296746D01*
Y58253D01*
X296670D01*
Y58138D01*
X296632D01*
Y58024D01*
X296556D01*
Y57834D01*
X296518D01*
Y57720D01*
X296442D01*
Y57529D01*
X296403D01*
Y57491D01*
X296365D01*
Y57301D01*
X296327D01*
Y57073D01*
X296289D01*
Y57035D01*
X296251D01*
Y56806D01*
X296213D01*
Y56121D01*
X296251D01*
Y56007D01*
X296327D01*
Y55969D01*
X296365D01*
Y55893D01*
X296480D01*
Y55855D01*
X296518D01*
Y55817D01*
X296556D01*
Y55779D01*
X296594D01*
Y55741D01*
X296632D01*
Y55665D01*
X296670D01*
Y55627D01*
X296708D01*
Y55589D01*
X296746D01*
Y55056D01*
X296708D01*
Y55018D01*
X296670D01*
Y54980D01*
X296632D01*
Y54866D01*
X296594D01*
Y54827D01*
X296556D01*
Y54789D01*
X296518D01*
Y54751D01*
X296480D01*
Y54713D01*
X296442D01*
Y54599D01*
X296365D01*
Y54561D01*
X296327D01*
Y54485D01*
X296251D01*
Y54371D01*
X296213D01*
Y54257D01*
X296137D01*
Y54181D01*
X296175D01*
Y54142D01*
X296213D01*
Y53990D01*
X296251D01*
Y53952D01*
X296289D01*
Y53914D01*
X296327D01*
Y53876D01*
X296365D01*
Y53838D01*
X296403D01*
Y53800D01*
X296518D01*
Y53762D01*
X296746D01*
Y53686D01*
X297393D01*
Y53724D01*
X297431D01*
Y53762D01*
X297735D01*
Y53800D01*
X297773D01*
Y53838D01*
X297812D01*
Y53800D01*
X297888D01*
Y53838D01*
X297926D01*
Y53876D01*
X298078D01*
Y53914D01*
X298116D01*
Y53952D01*
X298192D01*
Y53990D01*
X298306D01*
Y54028D01*
X298344D01*
Y54066D01*
X298458D01*
Y54104D01*
X298534D01*
Y54142D01*
X298573D01*
Y54181D01*
X298611D01*
Y54219D01*
X298649D01*
Y54257D01*
X298687D01*
Y54295D01*
X298801D01*
Y54333D01*
X298839D01*
Y54371D01*
X298877D01*
Y54409D01*
X298915D01*
Y54447D01*
X298953D01*
Y54485D01*
X298991D01*
Y54523D01*
X299029D01*
Y54561D01*
X299067D01*
Y54599D01*
X299258D01*
Y54561D01*
X299296D01*
Y54371D01*
X299258D01*
Y54333D01*
X299219D01*
Y54295D01*
X299182D01*
Y54257D01*
X299143D01*
Y54219D01*
X299105D01*
Y54181D01*
X299067D01*
Y54142D01*
X299029D01*
Y54104D01*
X298991D01*
Y54066D01*
X298953D01*
Y54028D01*
X298915D01*
Y53990D01*
X298801D01*
Y53952D01*
X298763D01*
Y53876D01*
X298649D01*
Y53838D01*
X298611D01*
Y53800D01*
X298573D01*
Y53762D01*
X298458D01*
Y53724D01*
X298420D01*
Y53686D01*
X298344D01*
Y53648D01*
X298154D01*
Y53610D01*
Y53572D01*
X298040D01*
Y53534D01*
X298002D01*
Y53496D01*
X297849D01*
Y53534D01*
X297812D01*
Y53496D01*
X297773D01*
Y53457D01*
X297469D01*
Y53381D01*
X296860D01*
Y53267D01*
X296936D01*
Y53153D01*
X296974D01*
Y53115D01*
X297012D01*
Y53077D01*
X297127D01*
Y53039D01*
X297165D01*
Y52963D01*
X297355D01*
Y52925D01*
X297393D01*
Y52887D01*
X297926D01*
Y52925D01*
X297964D01*
Y52963D01*
X298268D01*
Y53039D01*
X298458D01*
Y53077D01*
X298611D01*
Y53115D01*
X298649D01*
Y53153D01*
X298801D01*
Y53191D01*
X298915D01*
Y53229D01*
X298953D01*
Y53267D01*
X299067D01*
Y53343D01*
X299182D01*
Y53381D01*
X299219D01*
Y53419D01*
X299258D01*
Y53457D01*
X299372D01*
Y53496D01*
X299448D01*
Y53534D01*
X299486D01*
Y53572D01*
X299524D01*
Y53610D01*
X299562D01*
Y53648D01*
X299676D01*
Y53686D01*
X299714D01*
Y53724D01*
X299752D01*
Y53762D01*
X299790D01*
Y53800D01*
X299904D01*
Y53876D01*
X299981D01*
Y53952D01*
X300019D01*
Y53990D01*
X300095D01*
Y54066D01*
X300133D01*
Y54104D01*
X300171D01*
Y54142D01*
X300209D01*
Y54181D01*
X300285D01*
Y54257D01*
X300323D01*
Y54295D01*
X300399D01*
Y54371D01*
X300475D01*
Y54447D01*
X300513D01*
Y54523D01*
X300552D01*
Y54561D01*
X300589D01*
Y54599D01*
X300628D01*
Y54713D01*
X300666D01*
Y54751D01*
X300704D01*
Y54904D01*
X300742D01*
Y54942D01*
X300780D01*
Y55018D01*
X300742D01*
Y55056D01*
X300704D01*
Y55094D01*
X300361D01*
Y55132D01*
X300323D01*
Y55170D01*
X300095D01*
Y55208D01*
X300057D01*
Y55246D01*
X300019D01*
Y55284D01*
X299981D01*
Y55360D01*
X300019D01*
Y55436D01*
X300057D01*
Y55475D01*
X300095D01*
Y55512D01*
X300133D01*
Y55551D01*
X300171D01*
Y55589D01*
X300209D01*
Y55627D01*
X300323D01*
Y55665D01*
X300361D01*
Y55703D01*
X300399D01*
Y55779D01*
X300513D01*
Y55817D01*
X300552D01*
Y55855D01*
X300589D01*
Y55893D01*
X300628D01*
Y55931D01*
X300742D01*
Y55969D01*
X300780D01*
Y56007D01*
X300818D01*
Y56045D01*
X300856D01*
Y56083D01*
X300894D01*
Y56121D01*
X301008D01*
Y56198D01*
X301084D01*
Y56236D01*
X301160D01*
Y56274D01*
X301198D01*
Y56426D01*
X301160D01*
Y56464D01*
X301122D01*
Y56502D01*
X301084D01*
Y56540D01*
X301046D01*
Y56578D01*
X301008D01*
Y56654D01*
X300970D01*
Y56692D01*
X300932D01*
Y56730D01*
X300894D01*
Y56844D01*
X300856D01*
Y56883D01*
X300818D01*
Y56921D01*
X300780D01*
Y57035D01*
X300704D01*
Y57111D01*
X300628D01*
Y57225D01*
X300589D01*
Y57263D01*
X300552D01*
Y57301D01*
X300513D01*
Y57339D01*
X300475D01*
Y57377D01*
X300437D01*
Y57415D01*
X300323D01*
Y57453D01*
X300285D01*
Y57529D01*
X300171D01*
Y57568D01*
X300133D01*
Y57606D01*
X299904D01*
Y57644D01*
X299562D01*
Y57606D01*
X299372D01*
Y57529D01*
X299296D01*
Y57453D01*
X299182D01*
Y57415D01*
X299143D01*
Y57377D01*
X299105D01*
Y57339D01*
X299067D01*
Y57301D01*
X298953D01*
Y57263D01*
X298915D01*
Y57225D01*
X298877D01*
Y57187D01*
X298839D01*
Y57149D01*
X298801D01*
Y57111D01*
X298763D01*
Y57073D01*
X298725D01*
Y57035D01*
X298687D01*
Y56997D01*
X298649D01*
Y56959D01*
X298611D01*
Y56921D01*
X298534D01*
Y56883D01*
X298497D01*
Y56844D01*
X298458D01*
Y56806D01*
X298420D01*
Y56768D01*
X298382D01*
Y56730D01*
X298230D01*
Y56768D01*
X298192D01*
Y56806D01*
X298154D01*
Y56997D01*
X298192D01*
Y57035D01*
X298268D01*
Y57111D01*
X298344D01*
Y57187D01*
X298382D01*
Y57225D01*
X298458D01*
Y57301D01*
X298497D01*
Y57339D01*
X298573D01*
Y57415D01*
X298649D01*
Y57529D01*
X298687D01*
Y57568D01*
X298725D01*
Y57606D01*
X298763D01*
Y57644D01*
X298801D01*
Y57758D01*
X298839D01*
Y57796D01*
X298877D01*
Y57948D01*
X298915D01*
Y57986D01*
X298953D01*
Y58100D01*
X298915D01*
Y58138D01*
X298877D01*
Y58443D01*
X298839D01*
Y58481D01*
X298801D01*
Y58671D01*
X298763D01*
Y58861D01*
X298725D01*
Y58899D01*
X298687D01*
Y58975D01*
X298649D01*
Y59090D01*
X298611D01*
Y59128D01*
X298573D01*
Y59280D01*
X298534D01*
Y59318D01*
X298497D01*
Y59432D01*
X298458D01*
Y59546D01*
X298382D01*
Y59661D01*
X298344D01*
Y59775D01*
X298268D01*
Y59851D01*
X298192D01*
Y59965D01*
X298154D01*
Y60079D01*
X298116D01*
Y60117D01*
X298078D01*
Y60193D01*
X298040D01*
Y60231D01*
X298002D01*
Y60269D01*
D02*
G37*
G36*
X305080Y45352D02*
X304243D01*
Y45314D01*
X304205D01*
Y45276D01*
X303938D01*
Y45314D01*
X303900D01*
Y45276D01*
X303862D01*
Y45237D01*
X303634D01*
Y45199D01*
X303596D01*
Y45161D01*
X303444D01*
Y45123D01*
X303291D01*
Y45085D01*
X303253D01*
Y45047D01*
X303139D01*
Y45009D01*
X303101D01*
Y44971D01*
X303025D01*
Y44933D01*
X302911D01*
Y44895D01*
X302873D01*
Y44857D01*
X302759D01*
Y44819D01*
X302683D01*
Y44781D01*
X302644D01*
Y44743D01*
X302607D01*
Y44705D01*
X302568D01*
Y44667D01*
X302530D01*
Y44705D01*
X302492D01*
Y44667D01*
X302454D01*
Y44629D01*
X302416D01*
Y44591D01*
X302378D01*
Y44552D01*
X302340D01*
Y44515D01*
X302302D01*
Y44476D01*
X302264D01*
Y44438D01*
X302188D01*
Y44400D01*
X302150D01*
Y44362D01*
X302112D01*
Y44324D01*
X302074D01*
Y44286D01*
X302036D01*
Y44248D01*
X301998D01*
Y44210D01*
X301959D01*
Y44172D01*
X301922D01*
Y44134D01*
X301883D01*
Y44096D01*
X301845D01*
Y44058D01*
X301807D01*
Y43982D01*
X301769D01*
Y43944D01*
X301731D01*
Y43906D01*
X301693D01*
Y43867D01*
X301655D01*
Y43830D01*
X301617D01*
Y43715D01*
X301579D01*
Y43677D01*
X301541D01*
Y43639D01*
X301503D01*
Y43525D01*
X301427D01*
Y43487D01*
X301389D01*
Y43373D01*
X301351D01*
Y43335D01*
X301313D01*
Y43221D01*
X301274D01*
Y43183D01*
X301237D01*
Y43030D01*
X301198D01*
Y42916D01*
X301122D01*
Y42726D01*
X301084D01*
Y42574D01*
X301046D01*
Y42536D01*
X301008D01*
Y42269D01*
X300970D01*
Y42231D01*
X300932D01*
Y40975D01*
X301008D01*
Y40671D01*
X301046D01*
Y40633D01*
X301084D01*
Y40481D01*
X301122D01*
Y40328D01*
X301160D01*
Y40290D01*
X301198D01*
Y40138D01*
X301237D01*
Y40024D01*
X301274D01*
Y39986D01*
X301313D01*
Y39872D01*
X301389D01*
Y39757D01*
X301427D01*
Y39643D01*
X301465D01*
Y39605D01*
X301503D01*
Y39567D01*
X301541D01*
Y39453D01*
X301617D01*
Y39415D01*
X301655D01*
Y39377D01*
X301693D01*
Y39339D01*
X301731D01*
Y39225D01*
X301769D01*
Y39187D01*
X301807D01*
Y39149D01*
X301845D01*
Y39111D01*
X301883D01*
Y39073D01*
X301922D01*
Y39035D01*
X301959D01*
Y38996D01*
X301998D01*
Y38958D01*
X302036D01*
Y38920D01*
X302074D01*
Y38882D01*
X302112D01*
Y38844D01*
X302150D01*
Y38806D01*
X302188D01*
Y38768D01*
X302226D01*
Y38730D01*
X302264D01*
Y38692D01*
X302302D01*
Y38654D01*
X302416D01*
Y38616D01*
X302454D01*
Y38578D01*
X302492D01*
Y38540D01*
X302568D01*
Y38502D01*
X302607D01*
Y38464D01*
X302644D01*
Y38426D01*
X302759D01*
Y38388D01*
X302797D01*
Y38350D01*
X302835D01*
Y38311D01*
X302873D01*
Y38273D01*
X302949D01*
Y38235D01*
X303063D01*
Y38197D01*
X303101D01*
Y38159D01*
X303253D01*
Y38121D01*
X303368D01*
Y38083D01*
X303406D01*
Y38045D01*
X303558D01*
Y38007D01*
X303596D01*
Y37969D01*
X303710D01*
Y38007D01*
X303786D01*
Y37969D01*
X303824D01*
Y37931D01*
X304091D01*
Y37893D01*
X304129D01*
Y37855D01*
X305194D01*
Y37893D01*
X305232D01*
Y37931D01*
X305499D01*
Y37969D01*
X305537D01*
Y38007D01*
X305613D01*
Y37969D01*
X305727D01*
Y38007D01*
X305765D01*
Y38045D01*
X305917D01*
Y38083D01*
X305955D01*
Y38121D01*
X306108D01*
Y38159D01*
X306222D01*
Y38197D01*
X306260D01*
Y38235D01*
X306374D01*
Y38273D01*
X306450D01*
Y38311D01*
X306488D01*
Y38350D01*
X306602D01*
Y38388D01*
X306640D01*
Y38426D01*
X306678D01*
Y38464D01*
X306792D01*
Y38540D01*
X306831D01*
Y38578D01*
X306869D01*
Y38616D01*
X306907D01*
Y38654D01*
X307021D01*
Y38692D01*
X307059D01*
Y38730D01*
X307097D01*
Y38768D01*
X307135D01*
Y38806D01*
X307173D01*
Y38844D01*
X307211D01*
Y38882D01*
X307249D01*
Y38920D01*
X307287D01*
Y38958D01*
X307325D01*
Y38996D01*
X307363D01*
Y39035D01*
X307401D01*
Y39073D01*
X307439D01*
Y39111D01*
X307478D01*
Y39149D01*
X307516D01*
Y39187D01*
X307554D01*
Y39225D01*
X307592D01*
Y39263D01*
X307630D01*
Y39377D01*
X307706D01*
Y39453D01*
X307782D01*
Y39567D01*
X307820D01*
Y39605D01*
X307858D01*
Y39643D01*
X307896D01*
Y39757D01*
X307934D01*
Y39872D01*
X308010D01*
Y39986D01*
X308048D01*
Y40024D01*
X308086D01*
Y40138D01*
X308124D01*
Y40214D01*
X308163D01*
Y40252D01*
X308201D01*
Y40404D01*
X308239D01*
Y40595D01*
X308315D01*
Y40899D01*
X308353D01*
Y40937D01*
X308391D01*
Y41394D01*
X308429D01*
Y41813D01*
X308391D01*
Y42307D01*
X308315D01*
Y42536D01*
X308277D01*
Y42574D01*
X308239D01*
Y42802D01*
X308201D01*
Y42954D01*
X308163D01*
Y42992D01*
X308124D01*
Y43106D01*
X308086D01*
Y43221D01*
X308010D01*
Y43335D01*
X307972D01*
Y43373D01*
X307934D01*
Y43487D01*
X307896D01*
Y43525D01*
Y43563D01*
X307858D01*
Y43601D01*
X307820D01*
Y43639D01*
X307782D01*
Y43753D01*
X307744D01*
Y43791D01*
X307706D01*
Y43830D01*
X307668D01*
Y43867D01*
X307630D01*
Y43906D01*
X307592D01*
Y44020D01*
X307516D01*
Y44058D01*
X307478D01*
Y44096D01*
X307439D01*
Y44134D01*
X307401D01*
Y44172D01*
X307363D01*
Y44210D01*
X307325D01*
Y44248D01*
X307287D01*
Y44286D01*
X307249D01*
Y44324D01*
X307211D01*
Y44362D01*
X307173D01*
Y44400D01*
X307135D01*
Y44438D01*
X307097D01*
Y44515D01*
X306983D01*
Y44552D01*
X306945D01*
Y44591D01*
X306907D01*
Y44629D01*
X306869D01*
Y44667D01*
X306831D01*
Y44705D01*
X306792D01*
Y44667D01*
X306754D01*
Y44705D01*
X306716D01*
Y44743D01*
X306678D01*
Y44781D01*
X306640D01*
Y44819D01*
X306564D01*
Y44857D01*
X306450D01*
Y44895D01*
X306412D01*
Y44933D01*
X306298D01*
Y44971D01*
X306222D01*
Y45009D01*
X306184D01*
Y45047D01*
X306069D01*
Y45085D01*
X306031D01*
Y45123D01*
X305879D01*
Y45161D01*
X305727D01*
Y45199D01*
X305689D01*
Y45237D01*
X305461D01*
Y45276D01*
X305423D01*
Y45314D01*
X305384D01*
Y45276D01*
X305118D01*
Y45314D01*
X305080D01*
Y45352D01*
D02*
G37*
G36*
X315013Y36028D02*
X314784D01*
Y35990D01*
X314251D01*
Y35952D01*
X314213D01*
Y35914D01*
X313909D01*
Y35876D01*
X313871D01*
Y35838D01*
X313833D01*
Y35876D01*
X313757D01*
Y35838D01*
X313719D01*
Y35800D01*
X313566D01*
Y35762D01*
X313528D01*
Y35724D01*
X313414D01*
Y35686D01*
X313338D01*
Y35648D01*
X313300D01*
Y35609D01*
X313186D01*
Y35571D01*
X313148D01*
Y35533D01*
X313072D01*
Y35495D01*
X312958D01*
Y35457D01*
X312919D01*
Y35419D01*
X312805D01*
Y35381D01*
X312767D01*
Y35343D01*
X312729D01*
Y35305D01*
X312691D01*
Y35267D01*
X312615D01*
Y35229D01*
X312577D01*
Y35191D01*
X312539D01*
Y35153D01*
X312501D01*
Y35115D01*
X312463D01*
Y35077D01*
X312425D01*
Y35039D01*
X312387D01*
Y35001D01*
X312349D01*
Y34963D01*
X312311D01*
Y34925D01*
X312273D01*
Y34887D01*
X312234D01*
Y34848D01*
X312196D01*
Y34810D01*
X312158D01*
Y34772D01*
X312120D01*
Y34734D01*
X312082D01*
Y34696D01*
X312044D01*
Y34658D01*
X312006D01*
Y34620D01*
X311968D01*
Y34582D01*
X311930D01*
Y34544D01*
X311892D01*
Y34468D01*
X311854D01*
Y34430D01*
X311816D01*
Y34392D01*
X311778D01*
Y34354D01*
X311740D01*
Y34240D01*
X311702D01*
Y34201D01*
X311664D01*
Y34087D01*
X311588D01*
Y33973D01*
X311549D01*
Y33859D01*
X311511D01*
Y33821D01*
X311473D01*
Y33745D01*
X311435D01*
Y33631D01*
X311397D01*
Y33593D01*
X311359D01*
Y33440D01*
X311321D01*
Y33402D01*
X311283D01*
Y33174D01*
X311245D01*
Y32946D01*
X311207D01*
Y32908D01*
X311169D01*
Y31614D01*
X311207D01*
Y31576D01*
X311245D01*
Y31347D01*
X311283D01*
Y31119D01*
X311359D01*
Y30929D01*
X311397D01*
Y30891D01*
X311435D01*
Y30814D01*
X311473D01*
Y30700D01*
X311511D01*
Y30662D01*
X311549D01*
Y30548D01*
X311588D01*
Y30472D01*
X311626D01*
Y30434D01*
X311664D01*
Y30320D01*
X311702D01*
Y30282D01*
X311740D01*
Y30206D01*
X311778D01*
Y30168D01*
X311816D01*
Y30130D01*
X311854D01*
Y30092D01*
X311892D01*
Y29977D01*
X311930D01*
Y29939D01*
X311968D01*
Y29901D01*
X312006D01*
Y29863D01*
X312044D01*
Y29825D01*
X312082D01*
Y29787D01*
X312120D01*
Y29749D01*
X312158D01*
Y29711D01*
X312196D01*
Y29673D01*
X312234D01*
Y29635D01*
X312273D01*
Y29597D01*
X312311D01*
Y29559D01*
X312349D01*
Y29521D01*
X312387D01*
Y29483D01*
X312425D01*
Y29445D01*
X312463D01*
Y29406D01*
X312501D01*
Y29368D01*
X312539D01*
Y29330D01*
X312577D01*
Y29292D01*
X312615D01*
Y29254D01*
X312653D01*
Y29216D01*
X312767D01*
Y29178D01*
X312805D01*
Y29140D01*
X312843D01*
Y29102D01*
X312919D01*
Y29064D01*
X312958D01*
Y29026D01*
X313072D01*
Y28988D01*
X313110D01*
Y28950D01*
X313148D01*
Y28912D01*
X313262D01*
Y28874D01*
X313300D01*
Y28836D01*
X313338D01*
Y28874D01*
X313414D01*
Y28836D01*
X313452D01*
Y28798D01*
X313528D01*
Y28760D01*
X313566D01*
Y28721D01*
X313719D01*
Y28683D01*
X313909D01*
Y28607D01*
X314213D01*
Y28569D01*
X314251D01*
Y28531D01*
X314289D01*
Y28569D01*
X314746D01*
Y28531D01*
X314784D01*
Y28493D01*
X315013D01*
Y28531D01*
X315051D01*
Y28569D01*
X315469D01*
Y28531D01*
X315507D01*
Y28569D01*
X315545D01*
Y28607D01*
X315850D01*
Y28645D01*
X315888D01*
Y28683D01*
X316040D01*
Y28721D01*
X316230D01*
Y28798D01*
X316344D01*
Y28836D01*
X316383D01*
Y28874D01*
X316459D01*
Y28836D01*
X316497D01*
Y28874D01*
X316535D01*
Y28912D01*
X316649D01*
Y28950D01*
X316687D01*
Y28988D01*
X316725D01*
Y29026D01*
X316839D01*
Y29102D01*
X316953D01*
Y29140D01*
X316991D01*
Y29178D01*
X317030D01*
Y29216D01*
X317144D01*
Y29292D01*
X317220D01*
Y29330D01*
X317258D01*
Y29406D01*
X317334D01*
Y29445D01*
X317372D01*
Y29521D01*
X317486D01*
Y29559D01*
X317524D01*
Y29597D01*
X317562D01*
Y29635D01*
X317600D01*
Y29673D01*
X317638D01*
Y29749D01*
X317676D01*
Y29787D01*
X317715D01*
Y29825D01*
X317753D01*
Y29901D01*
X317829D01*
Y29939D01*
X317867D01*
Y30015D01*
X317943D01*
Y30130D01*
X317981D01*
Y30168D01*
X318019D01*
Y30206D01*
X318057D01*
Y30320D01*
X318095D01*
Y30358D01*
X318133D01*
Y30396D01*
X318171D01*
Y30472D01*
X318209D01*
Y30510D01*
X318247D01*
Y30624D01*
X318285D01*
Y30738D01*
X318361D01*
Y30929D01*
X318438D01*
Y31119D01*
X318476D01*
Y31271D01*
X318514D01*
Y31309D01*
X318552D01*
Y31538D01*
X318590D01*
Y31994D01*
X318628D01*
Y32032D01*
X318666D01*
Y32489D01*
X318628D01*
Y32527D01*
X318590D01*
Y32984D01*
X318552D01*
Y33212D01*
X318514D01*
Y33250D01*
X318476D01*
Y33402D01*
X318438D01*
Y33593D01*
X318361D01*
Y33783D01*
X318323D01*
Y33821D01*
X318285D01*
Y33897D01*
X318247D01*
Y34011D01*
X318209D01*
Y34049D01*
X318171D01*
Y34163D01*
X318133D01*
Y34201D01*
X318057D01*
Y34316D01*
X318019D01*
Y34354D01*
X317981D01*
Y34392D01*
X317943D01*
Y34506D01*
X317905D01*
Y34544D01*
X317867D01*
Y34582D01*
X317829D01*
Y34620D01*
X317791D01*
Y34658D01*
X317753D01*
Y34696D01*
X317715D01*
Y34734D01*
X317676D01*
Y34772D01*
X317638D01*
Y34887D01*
X317562D01*
Y34925D01*
X317524D01*
Y34963D01*
X317486D01*
Y35001D01*
X317410D01*
Y35039D01*
X317372D01*
Y35077D01*
X317334D01*
Y35115D01*
X317296D01*
Y35153D01*
X317258D01*
Y35191D01*
X317220D01*
Y35229D01*
X317182D01*
Y35267D01*
X317144D01*
Y35305D01*
X317030D01*
Y35343D01*
X316991D01*
Y35381D01*
X316953D01*
Y35419D01*
X316839D01*
Y35495D01*
X316725D01*
Y35533D01*
X316687D01*
Y35571D01*
X316649D01*
Y35609D01*
X316535D01*
Y35686D01*
X316344D01*
Y35724D01*
X316230D01*
Y35800D01*
X316040D01*
Y35838D01*
X316002D01*
Y35876D01*
X315964D01*
Y35838D01*
X315888D01*
Y35876D01*
X315850D01*
Y35914D01*
X315583D01*
Y35952D01*
X315545D01*
Y35990D01*
X315013D01*
Y36028D01*
D02*
G37*
G36*
X294539D02*
X294310D01*
Y35990D01*
X293778D01*
Y35952D01*
X293740D01*
Y35914D01*
X293473D01*
Y35876D01*
X293435D01*
Y35838D01*
X293359D01*
Y35876D01*
X293321D01*
Y35838D01*
X293283D01*
Y35800D01*
X293093D01*
Y35724D01*
X292978D01*
Y35686D01*
X292864D01*
Y35648D01*
X292826D01*
Y35609D01*
X292750D01*
Y35571D01*
X292712D01*
Y35533D01*
X292674D01*
Y35571D01*
X292636D01*
Y35533D01*
X292598D01*
Y35495D01*
X292484D01*
Y35419D01*
X292370D01*
Y35381D01*
X292332D01*
Y35343D01*
X292293D01*
Y35305D01*
X292255D01*
Y35267D01*
X292217D01*
Y35229D01*
X292179D01*
Y35267D01*
X292141D01*
Y35229D01*
X292103D01*
Y35191D01*
X292065D01*
Y35153D01*
X292027D01*
Y35115D01*
X291989D01*
Y35077D01*
X291951D01*
Y35039D01*
X291913D01*
Y35001D01*
X291875D01*
Y34963D01*
X291837D01*
Y34925D01*
X291799D01*
Y34887D01*
X291761D01*
Y34848D01*
X291723D01*
Y34810D01*
X291685D01*
Y34772D01*
X291647D01*
Y34734D01*
X291608D01*
Y34696D01*
X291570D01*
Y34658D01*
X291532D01*
Y34620D01*
X291494D01*
Y34582D01*
X291456D01*
Y34468D01*
X291418D01*
Y34430D01*
X291380D01*
Y34392D01*
X291342D01*
Y34278D01*
X291266D01*
Y34240D01*
X291228D01*
Y34201D01*
X291190D01*
Y34087D01*
X291152D01*
Y33973D01*
X291076D01*
Y33859D01*
X291038D01*
Y33745D01*
X291000D01*
Y33707D01*
X290962D01*
Y33593D01*
X290885D01*
Y33402D01*
X290847D01*
Y33174D01*
X290771D01*
Y32869D01*
X290733D01*
Y31652D01*
X290771D01*
Y31347D01*
X290847D01*
Y31119D01*
X290885D01*
Y30967D01*
X290923D01*
Y30929D01*
X290962D01*
Y30814D01*
X291000D01*
Y30777D01*
X291038D01*
Y30662D01*
X291076D01*
Y30586D01*
X291114D01*
Y30548D01*
X291152D01*
Y30434D01*
X291190D01*
Y30320D01*
X291266D01*
Y30282D01*
X291304D01*
Y30244D01*
X291342D01*
Y30130D01*
X291380D01*
Y30092D01*
X291418D01*
Y30053D01*
X291456D01*
Y29939D01*
X291494D01*
Y29901D01*
X291570D01*
Y29825D01*
X291608D01*
Y29787D01*
X291647D01*
Y29749D01*
X291685D01*
Y29711D01*
X291761D01*
Y29635D01*
X291799D01*
Y29597D01*
X291875D01*
Y29521D01*
X291913D01*
Y29483D01*
X291951D01*
Y29445D01*
X291989D01*
Y29406D01*
X292065D01*
Y29330D01*
X292103D01*
Y29292D01*
X292217D01*
Y29254D01*
X292255D01*
Y29216D01*
X292293D01*
Y29178D01*
X292332D01*
Y29140D01*
X292370D01*
Y29102D01*
X292484D01*
Y29026D01*
X292598D01*
Y28988D01*
X292712D01*
Y28950D01*
X292750D01*
Y28912D01*
X292864D01*
Y28874D01*
X292940D01*
Y28836D01*
X292978D01*
Y28798D01*
X293093D01*
Y28721D01*
X293283D01*
Y28683D01*
X293435D01*
Y28645D01*
X293473D01*
Y28607D01*
X293778D01*
Y28569D01*
X293816D01*
Y28531D01*
X293854D01*
Y28569D01*
X294272D01*
Y28531D01*
X294310D01*
Y28493D01*
X294615D01*
Y28531D01*
X294653D01*
Y28569D01*
X295033D01*
Y28531D01*
X295072D01*
Y28569D01*
X295110D01*
Y28607D01*
X295414D01*
Y28683D01*
X295604D01*
Y28721D01*
X295757D01*
Y28760D01*
X295795D01*
Y28798D01*
X295947D01*
Y28836D01*
X295985D01*
Y28874D01*
X296061D01*
Y28912D01*
X296175D01*
Y28950D01*
X296213D01*
Y28988D01*
X296327D01*
Y29026D01*
X296365D01*
Y29064D01*
X296403D01*
Y29102D01*
X296480D01*
Y29140D01*
X296518D01*
Y29178D01*
X296556D01*
Y29216D01*
X296670D01*
Y29254D01*
X296708D01*
Y29292D01*
X296746D01*
Y29330D01*
X296784D01*
Y29368D01*
X296822D01*
Y29406D01*
X296860D01*
Y29445D01*
X296898D01*
Y29483D01*
X297012D01*
Y29521D01*
X297050D01*
Y29597D01*
X297127D01*
Y29635D01*
X297165D01*
Y29711D01*
X297241D01*
Y29825D01*
X297279D01*
Y29863D01*
X297317D01*
Y29901D01*
X297355D01*
Y29939D01*
X297393D01*
Y29977D01*
X297431D01*
Y30015D01*
X297469D01*
Y30130D01*
X297507D01*
Y30168D01*
X297545D01*
Y30206D01*
X297583D01*
Y30282D01*
X297621D01*
Y30320D01*
X297659D01*
Y30358D01*
X297697D01*
Y30396D01*
X297735D01*
Y30510D01*
X297773D01*
Y30624D01*
X297849D01*
Y30738D01*
X297888D01*
Y30777D01*
X297926D01*
Y30814D01*
X297888D01*
Y30891D01*
X297926D01*
Y30929D01*
X297964D01*
Y31043D01*
X298002D01*
Y31081D01*
X298040D01*
Y31309D01*
X298078D01*
Y31538D01*
X298154D01*
Y31956D01*
X298192D01*
Y32565D01*
X298154D01*
Y32984D01*
X298116D01*
Y33022D01*
X298078D01*
Y33250D01*
X298040D01*
Y33478D01*
X297964D01*
Y33593D01*
X297926D01*
Y33631D01*
X297888D01*
Y33707D01*
X297926D01*
Y33745D01*
X297888D01*
Y33783D01*
X297849D01*
Y33897D01*
X297812D01*
Y33935D01*
X297773D01*
Y34011D01*
X297735D01*
Y34125D01*
X297697D01*
Y34163D01*
X297659D01*
Y34201D01*
X297621D01*
Y34240D01*
X297583D01*
Y34354D01*
X297545D01*
Y34392D01*
X297469D01*
Y34506D01*
X297431D01*
Y34544D01*
X297393D01*
Y34582D01*
X297355D01*
Y34620D01*
X297317D01*
Y34658D01*
X297279D01*
Y34696D01*
X297241D01*
Y34810D01*
X297203D01*
Y34848D01*
X297165D01*
Y34887D01*
X297127D01*
Y34925D01*
X297088D01*
Y34963D01*
X297050D01*
Y35001D01*
X297012D01*
Y35039D01*
X296974D01*
Y35077D01*
X296860D01*
Y35115D01*
X296822D01*
Y35153D01*
X296784D01*
Y35191D01*
X296746D01*
Y35229D01*
X296708D01*
Y35267D01*
X296670D01*
Y35305D01*
X296556D01*
Y35381D01*
X296518D01*
Y35419D01*
X296403D01*
Y35457D01*
X296365D01*
Y35495D01*
X296327D01*
Y35533D01*
X296289D01*
Y35571D01*
X296251D01*
Y35533D01*
X296213D01*
Y35609D01*
X296099D01*
Y35648D01*
X296061D01*
Y35686D01*
X295947D01*
Y35724D01*
X295795D01*
Y35762D01*
X295757D01*
Y35800D01*
X295604D01*
Y35838D01*
X295566D01*
Y35876D01*
X295490D01*
Y35838D01*
X295452D01*
Y35876D01*
X295414D01*
Y35914D01*
X295110D01*
Y35952D01*
X295072D01*
Y35990D01*
X294539D01*
Y36028D01*
D02*
G37*
G36*
X326049Y50337D02*
X283350D01*
Y50299D01*
X283312D01*
Y50261D01*
X283274D01*
Y41736D01*
X283312D01*
Y41698D01*
X283350D01*
Y40366D01*
X283388D01*
Y40328D01*
X283426D01*
Y39681D01*
X283465D01*
Y39149D01*
X283541D01*
Y38654D01*
X283579D01*
Y38311D01*
X283617D01*
Y38273D01*
X283655D01*
Y37931D01*
X283693D01*
Y37893D01*
X283731D01*
Y37626D01*
X283769D01*
Y37284D01*
X283807D01*
Y37246D01*
X283845D01*
Y37018D01*
X283883D01*
Y36713D01*
X283959D01*
Y36485D01*
X283997D01*
Y36447D01*
X284035D01*
Y36218D01*
X284073D01*
Y35990D01*
X284111D01*
Y35952D01*
X284150D01*
Y35724D01*
X284188D01*
Y35686D01*
X284226D01*
Y35648D01*
X284188D01*
Y35571D01*
X284226D01*
Y35533D01*
X284264D01*
Y35305D01*
X284340D01*
Y35115D01*
X284378D01*
Y34963D01*
X284416D01*
Y34925D01*
X284454D01*
Y34696D01*
X284492D01*
Y34658D01*
X284530D01*
Y34620D01*
X284492D01*
Y34544D01*
X284530D01*
Y34506D01*
X284568D01*
Y34354D01*
X284606D01*
Y34316D01*
X284644D01*
Y34163D01*
X284682D01*
Y34049D01*
X284720D01*
Y34011D01*
X284758D01*
Y33859D01*
X284797D01*
Y33707D01*
X284835D01*
Y33669D01*
X284873D01*
Y33478D01*
X284949D01*
Y33364D01*
X284987D01*
Y33174D01*
X285063D01*
Y33060D01*
X285101D01*
Y33022D01*
X285139D01*
Y32984D01*
X285101D01*
Y32908D01*
X285139D01*
Y32869D01*
X285177D01*
Y32755D01*
X285215D01*
Y32717D01*
X285253D01*
Y32565D01*
X285291D01*
Y32451D01*
X285367D01*
Y32337D01*
X285405D01*
Y32184D01*
X285443D01*
Y32146D01*
X285482D01*
Y32032D01*
X285520D01*
Y31994D01*
X285558D01*
Y31880D01*
X285596D01*
Y31804D01*
X285634D01*
Y31766D01*
X285672D01*
Y31652D01*
X285710D01*
Y31538D01*
X285786D01*
Y31576D01*
X285824D01*
Y31614D01*
X285862D01*
Y31652D01*
X285900D01*
Y31690D01*
X285938D01*
Y31728D01*
X285976D01*
Y31766D01*
X286014D01*
Y31804D01*
X286052D01*
Y31842D01*
X286090D01*
Y31880D01*
X286128D01*
Y31918D01*
X286167D01*
Y31956D01*
X286205D01*
Y31994D01*
X286243D01*
Y32032D01*
X286281D01*
Y32070D01*
X286319D01*
Y32108D01*
X286357D01*
Y32146D01*
X286395D01*
Y32184D01*
X286433D01*
Y32223D01*
X286471D01*
Y32261D01*
X286509D01*
Y32299D01*
X286547D01*
Y32337D01*
X286585D01*
Y32375D01*
X286623D01*
Y32413D01*
X286661D01*
Y32451D01*
X286699D01*
Y32489D01*
X286737D01*
Y32527D01*
X286775D01*
Y32565D01*
X286813D01*
Y32603D01*
X286852D01*
Y32641D01*
X286890D01*
Y32679D01*
X286928D01*
Y32717D01*
X286966D01*
Y32755D01*
X287004D01*
Y32793D01*
X287042D01*
Y32831D01*
X287080D01*
Y32869D01*
X287118D01*
Y32908D01*
X287156D01*
Y32946D01*
X287232D01*
Y32984D01*
X287270D01*
Y33022D01*
X287308D01*
Y33060D01*
X287346D01*
Y33098D01*
X287384D01*
Y33136D01*
X287422D01*
Y33174D01*
X287460D01*
Y33212D01*
X287498D01*
Y33250D01*
X287537D01*
Y33288D01*
X287575D01*
Y33326D01*
X287613D01*
Y33364D01*
X287651D01*
Y33402D01*
X287689D01*
Y33440D01*
X287727D01*
Y33478D01*
X287765D01*
Y33516D01*
X287803D01*
Y33555D01*
X287841D01*
Y33593D01*
X287879D01*
Y33631D01*
X287917D01*
Y33669D01*
X287955D01*
Y33707D01*
X287993D01*
Y33745D01*
X288031D01*
Y33783D01*
X288069D01*
Y33821D01*
X288107D01*
Y33859D01*
X288145D01*
Y33897D01*
X288183D01*
Y33935D01*
X288222D01*
Y33973D01*
X288260D01*
Y34011D01*
X288298D01*
Y34049D01*
X288336D01*
Y34087D01*
X288374D01*
Y34125D01*
X288412D01*
Y34163D01*
X288450D01*
Y34201D01*
X288488D01*
Y34240D01*
X288526D01*
Y34278D01*
X288564D01*
Y34316D01*
X288602D01*
Y34354D01*
X288640D01*
Y34392D01*
X288678D01*
Y34430D01*
X288716D01*
Y34468D01*
X288754D01*
Y34506D01*
X288792D01*
Y34544D01*
X288830D01*
Y34582D01*
X288945D01*
Y34620D01*
X288983D01*
Y34658D01*
X289021D01*
Y34696D01*
X289059D01*
Y34734D01*
X289097D01*
Y34772D01*
X289135D01*
Y34810D01*
X289173D01*
Y34848D01*
X289211D01*
Y34887D01*
X289249D01*
Y34925D01*
X289287D01*
Y34963D01*
X289325D01*
Y35001D01*
X289363D01*
Y35039D01*
X289401D01*
Y35077D01*
X289439D01*
Y35115D01*
X289477D01*
Y35153D01*
X289515D01*
Y35191D01*
X289553D01*
Y35229D01*
X289592D01*
Y35267D01*
X289630D01*
Y35305D01*
X289668D01*
Y35343D01*
X289706D01*
Y35381D01*
X289744D01*
Y35419D01*
X289782D01*
Y35457D01*
X289820D01*
Y35495D01*
X289858D01*
Y35533D01*
X289896D01*
Y35571D01*
X289934D01*
Y35609D01*
X289972D01*
Y35648D01*
X290010D01*
Y35686D01*
X290048D01*
Y35724D01*
X290086D01*
Y35762D01*
X290124D01*
Y35800D01*
X290162D01*
Y35838D01*
X290200D01*
Y35876D01*
X290238D01*
Y35914D01*
X290277D01*
Y35952D01*
X290315D01*
Y35990D01*
X290353D01*
Y36028D01*
X290391D01*
Y36066D01*
X290429D01*
Y36104D01*
X290467D01*
Y36142D01*
X290505D01*
Y36180D01*
X290543D01*
Y36142D01*
X290581D01*
Y36180D01*
X290619D01*
Y36218D01*
X290657D01*
Y36257D01*
X290695D01*
Y36294D01*
X290733D01*
Y36333D01*
X290771D01*
Y36409D01*
X290847D01*
Y36447D01*
X290885D01*
Y36485D01*
X290923D01*
Y36523D01*
X290962D01*
Y36561D01*
X291000D01*
Y36599D01*
X291038D01*
Y36637D01*
X291076D01*
Y36713D01*
X291152D01*
Y36751D01*
X291190D01*
Y36789D01*
X291228D01*
Y36827D01*
X291266D01*
Y36865D01*
X291304D01*
Y36903D01*
X291342D01*
Y36941D01*
X291380D01*
Y37018D01*
X291456D01*
Y37056D01*
X291494D01*
Y37094D01*
X291532D01*
Y37132D01*
X291570D01*
Y37170D01*
X291608D01*
Y37208D01*
X291647D01*
Y37246D01*
X291685D01*
Y37322D01*
X291761D01*
Y37360D01*
X291799D01*
Y37398D01*
X291837D01*
Y37436D01*
X291875D01*
Y37474D01*
X291913D01*
Y37512D01*
X291951D01*
Y37550D01*
X291989D01*
Y37588D01*
X292027D01*
Y37626D01*
X292065D01*
Y37664D01*
X292103D01*
Y37703D01*
X292141D01*
Y37741D01*
X292217D01*
Y37779D01*
X292255D01*
Y37855D01*
X292332D01*
Y37893D01*
X292370D01*
Y37931D01*
X292408D01*
Y37969D01*
X292446D01*
Y38007D01*
X292484D01*
Y38045D01*
X292522D01*
Y38083D01*
X292560D01*
Y38121D01*
X292598D01*
Y38159D01*
X292636D01*
Y38197D01*
X292674D01*
Y38235D01*
X292712D01*
Y38273D01*
X292750D01*
Y38311D01*
X292788D01*
Y38350D01*
X292826D01*
Y38388D01*
X292864D01*
Y38426D01*
X292902D01*
Y38464D01*
X292940D01*
Y38502D01*
X292978D01*
Y38540D01*
X293017D01*
Y38578D01*
X293055D01*
Y38616D01*
X293093D01*
Y38654D01*
X293131D01*
Y38692D01*
X293169D01*
Y38730D01*
X293207D01*
Y38768D01*
X293245D01*
Y38806D01*
X293283D01*
Y38844D01*
X293321D01*
Y38882D01*
X293359D01*
Y38920D01*
X293397D01*
Y38958D01*
X293435D01*
Y38996D01*
X293473D01*
Y39035D01*
X293511D01*
Y39073D01*
X293549D01*
Y39111D01*
X293587D01*
Y39149D01*
X293625D01*
Y39187D01*
X293663D01*
Y39225D01*
X293702D01*
Y39263D01*
X293740D01*
Y39301D01*
X293778D01*
Y39339D01*
X293816D01*
Y39377D01*
X293854D01*
Y39415D01*
X293892D01*
Y39453D01*
X293930D01*
Y39491D01*
X293968D01*
Y39529D01*
X294006D01*
Y39491D01*
X294044D01*
Y39529D01*
X294082D01*
Y39567D01*
X294120D01*
Y39605D01*
X294158D01*
Y39643D01*
X294196D01*
Y39681D01*
X294234D01*
Y39720D01*
X294272D01*
Y39757D01*
X294310D01*
Y39796D01*
X294348D01*
Y39834D01*
X294387D01*
Y39872D01*
X294425D01*
Y39910D01*
X294463D01*
Y39948D01*
X294501D01*
Y39986D01*
X294539D01*
Y40024D01*
X294577D01*
Y40062D01*
X294615D01*
Y40100D01*
X294653D01*
Y40138D01*
X294691D01*
Y40176D01*
X294729D01*
Y40214D01*
X294767D01*
Y40252D01*
X294805D01*
Y40290D01*
X294843D01*
Y40328D01*
X294881D01*
Y40366D01*
X294919D01*
Y40404D01*
X294957D01*
Y40442D01*
X294995D01*
Y40481D01*
X295033D01*
Y40519D01*
X295072D01*
Y40557D01*
X295110D01*
Y40595D01*
X295148D01*
Y40633D01*
X295186D01*
Y40671D01*
X295224D01*
Y40709D01*
X295262D01*
Y40747D01*
X295300D01*
Y40785D01*
X295338D01*
Y40823D01*
X295376D01*
Y40861D01*
X295414D01*
Y40899D01*
X295452D01*
Y40937D01*
X295490D01*
Y40975D01*
X295528D01*
Y41013D01*
X295566D01*
Y41051D01*
X295604D01*
Y41089D01*
X295718D01*
Y41166D01*
X295757D01*
Y41204D01*
X295795D01*
Y41242D01*
X295833D01*
Y41280D01*
X295871D01*
Y41318D01*
X295909D01*
Y41356D01*
X295947D01*
Y41394D01*
X296023D01*
Y41470D01*
X296061D01*
Y41508D01*
X296099D01*
Y41546D01*
X296137D01*
Y41584D01*
X296175D01*
Y41622D01*
X296213D01*
Y41660D01*
X296251D01*
Y41698D01*
X296327D01*
Y41774D01*
X296365D01*
Y41813D01*
X296403D01*
Y41851D01*
X296442D01*
Y41889D01*
X296480D01*
Y41927D01*
X296518D01*
Y41965D01*
X296556D01*
Y42003D01*
X296632D01*
Y42079D01*
X296670D01*
Y42117D01*
X296708D01*
Y42155D01*
X296746D01*
Y42193D01*
X296784D01*
Y42231D01*
X296822D01*
Y42269D01*
X296860D01*
Y42307D01*
X296936D01*
Y42383D01*
X296974D01*
Y42421D01*
X297012D01*
Y42459D01*
X297050D01*
Y42498D01*
X297088D01*
Y42536D01*
X297127D01*
Y42574D01*
X297165D01*
Y42612D01*
X297241D01*
Y42688D01*
X297355D01*
Y42726D01*
X297393D01*
Y42764D01*
X297431D01*
Y42802D01*
X297469D01*
Y42840D01*
X297507D01*
Y42878D01*
X297545D01*
Y42916D01*
X297583D01*
Y42954D01*
X297621D01*
Y42992D01*
X297659D01*
Y43030D01*
X297697D01*
Y43068D01*
X297735D01*
Y43106D01*
X297773D01*
Y43145D01*
X297812D01*
Y43183D01*
X297849D01*
Y43221D01*
X297888D01*
Y43259D01*
X297926D01*
Y43297D01*
X297964D01*
Y43335D01*
X298002D01*
Y43373D01*
X298040D01*
Y43411D01*
X298078D01*
Y43449D01*
X298116D01*
Y43487D01*
X298154D01*
Y43525D01*
X298192D01*
Y43563D01*
X298230D01*
Y43601D01*
X298268D01*
Y43639D01*
X298306D01*
Y43677D01*
X298344D01*
Y43715D01*
X298382D01*
Y43753D01*
X298420D01*
Y43791D01*
X298458D01*
Y43830D01*
X298497D01*
Y43867D01*
X298534D01*
Y43906D01*
X298573D01*
Y43944D01*
X298611D01*
Y43982D01*
X298649D01*
Y44020D01*
X298687D01*
Y44058D01*
X298725D01*
Y44096D01*
X298763D01*
Y44134D01*
X298801D01*
Y44172D01*
X298839D01*
Y44210D01*
X298877D01*
Y44248D01*
X298915D01*
Y44286D01*
X298953D01*
Y44324D01*
X298991D01*
Y44362D01*
X299029D01*
Y44400D01*
X299067D01*
Y44438D01*
X299182D01*
Y44476D01*
X299219D01*
Y44515D01*
X299258D01*
Y44552D01*
X299296D01*
Y44591D01*
X299334D01*
Y44629D01*
X299372D01*
Y44667D01*
X299410D01*
Y44705D01*
X299448D01*
Y44743D01*
X299486D01*
Y44781D01*
X299524D01*
Y44819D01*
X299562D01*
Y44857D01*
X299600D01*
Y44895D01*
X299638D01*
Y44933D01*
X299676D01*
Y44971D01*
X299714D01*
Y45009D01*
X299752D01*
Y45047D01*
X299790D01*
Y45085D01*
X299828D01*
Y45123D01*
X299867D01*
Y45161D01*
X299904D01*
Y45199D01*
X299943D01*
Y45237D01*
X299981D01*
Y45276D01*
X300019D01*
Y45314D01*
X300057D01*
Y45352D01*
X300095D01*
Y45390D01*
X300133D01*
Y45428D01*
X300171D01*
Y45466D01*
X300209D01*
Y45504D01*
X300247D01*
Y45542D01*
X300285D01*
Y45580D01*
X300323D01*
Y45618D01*
X300361D01*
Y45656D01*
X300399D01*
Y45694D01*
X300437D01*
Y45732D01*
X300475D01*
Y45770D01*
X300513D01*
Y45808D01*
X300552D01*
Y45846D01*
X300589D01*
Y45884D01*
X300628D01*
Y45922D01*
X300666D01*
Y45961D01*
X300704D01*
Y46037D01*
X300818D01*
Y46075D01*
X300856D01*
Y46113D01*
X300894D01*
Y46151D01*
X300932D01*
Y46189D01*
X300970D01*
Y46227D01*
X301008D01*
Y46265D01*
X301046D01*
Y46303D01*
X301084D01*
Y46341D01*
X301122D01*
Y46379D01*
X301160D01*
Y46417D01*
X301198D01*
Y46455D01*
X301237D01*
Y46493D01*
X301274D01*
Y46531D01*
X301313D01*
Y46569D01*
X301351D01*
Y46608D01*
X301389D01*
Y46646D01*
X301427D01*
Y46684D01*
X301465D01*
Y46722D01*
X301503D01*
Y46760D01*
X301541D01*
Y46798D01*
X301579D01*
Y46836D01*
X301617D01*
Y46874D01*
X301655D01*
Y46912D01*
X301693D01*
Y46950D01*
X301731D01*
Y46988D01*
X301769D01*
Y47026D01*
X301807D01*
Y47064D01*
X301845D01*
Y47102D01*
X301883D01*
Y47140D01*
X301922D01*
Y47178D01*
X301959D01*
Y47216D01*
X301998D01*
Y47254D01*
X302036D01*
Y47293D01*
X302074D01*
Y47331D01*
X302112D01*
Y47369D01*
X302150D01*
Y47407D01*
X302188D01*
Y47445D01*
X302226D01*
Y47483D01*
X302264D01*
Y47521D01*
X302302D01*
Y47559D01*
X302340D01*
Y47597D01*
X302454D01*
Y47635D01*
X302492D01*
Y47673D01*
X302530D01*
Y47711D01*
X302568D01*
Y47749D01*
X302607D01*
Y47787D01*
X302644D01*
Y47825D01*
X302683D01*
Y47863D01*
X302721D01*
Y47901D01*
X302759D01*
Y47940D01*
X302797D01*
Y47978D01*
X302835D01*
Y48016D01*
X302873D01*
Y48054D01*
X302911D01*
Y48092D01*
X302949D01*
Y48130D01*
X302987D01*
Y48168D01*
X303025D01*
Y48206D01*
X303063D01*
Y48244D01*
X303101D01*
Y48282D01*
X303139D01*
Y48320D01*
X303177D01*
Y48358D01*
X303215D01*
Y48396D01*
X303253D01*
Y48434D01*
X303291D01*
Y48472D01*
X303329D01*
Y48510D01*
X303368D01*
Y48548D01*
X303406D01*
Y48586D01*
X303444D01*
Y48625D01*
X303482D01*
Y48662D01*
X303520D01*
Y48701D01*
X303558D01*
Y48739D01*
X303596D01*
Y48777D01*
X303634D01*
Y48815D01*
X303672D01*
Y48853D01*
X303710D01*
Y48891D01*
X303748D01*
Y48929D01*
X303786D01*
Y48967D01*
X303824D01*
Y49005D01*
X303862D01*
Y49043D01*
X303900D01*
Y49081D01*
X303938D01*
Y49119D01*
X303976D01*
Y49157D01*
X304014D01*
Y49195D01*
X304053D01*
Y49233D01*
X304091D01*
Y49271D01*
X304129D01*
Y49310D01*
X304167D01*
Y49347D01*
X304205D01*
Y49386D01*
X304281D01*
Y49424D01*
X304357D01*
Y49500D01*
X304395D01*
Y49538D01*
X304433D01*
Y49576D01*
X304471D01*
Y49614D01*
X304547D01*
Y49690D01*
X304585D01*
Y49728D01*
X304776D01*
Y49690D01*
X304814D01*
Y49652D01*
X304852D01*
Y49614D01*
X304890D01*
Y49576D01*
X304928D01*
Y49538D01*
X304966D01*
Y49500D01*
X305004D01*
Y49462D01*
X305042D01*
Y49424D01*
X305080D01*
Y49386D01*
X305118D01*
Y49347D01*
X305156D01*
Y49310D01*
X305194D01*
Y49271D01*
X305232D01*
Y49233D01*
X305270D01*
Y49195D01*
X305308D01*
Y49157D01*
X305346D01*
Y49119D01*
X305384D01*
Y49081D01*
X305423D01*
Y49043D01*
X305461D01*
Y49005D01*
X305499D01*
Y48967D01*
X305537D01*
Y48929D01*
X305575D01*
Y48891D01*
X305613D01*
Y48853D01*
X305651D01*
Y48815D01*
X305689D01*
Y48777D01*
X305727D01*
Y48739D01*
X305765D01*
Y48701D01*
X305803D01*
Y48662D01*
X305841D01*
Y48625D01*
X305879D01*
Y48586D01*
X305917D01*
Y48548D01*
X305955D01*
Y48510D01*
X305993D01*
Y48472D01*
X306031D01*
Y48434D01*
X306069D01*
Y48396D01*
X306108D01*
Y48358D01*
X306146D01*
Y48320D01*
X306184D01*
Y48282D01*
X306222D01*
Y48244D01*
X306260D01*
Y48206D01*
X306298D01*
Y48168D01*
X306336D01*
Y48130D01*
X306374D01*
Y48092D01*
X306412D01*
Y48054D01*
X306450D01*
Y48016D01*
X306488D01*
Y47978D01*
X306602D01*
Y47940D01*
X306640D01*
Y47901D01*
X306678D01*
Y47863D01*
X306716D01*
Y47825D01*
X306754D01*
Y47787D01*
X306792D01*
Y47749D01*
X306831D01*
Y47711D01*
X306869D01*
Y47673D01*
X306907D01*
Y47635D01*
X306945D01*
Y47597D01*
X306983D01*
Y47559D01*
X307021D01*
Y47521D01*
X307059D01*
Y47483D01*
X307097D01*
Y47445D01*
X307135D01*
Y47407D01*
X307173D01*
Y47369D01*
X307211D01*
Y47331D01*
X307249D01*
Y47293D01*
X307287D01*
Y47254D01*
X307325D01*
Y47216D01*
X307363D01*
Y47178D01*
X307401D01*
Y47140D01*
X307439D01*
Y47102D01*
X307478D01*
Y47064D01*
X307516D01*
Y47026D01*
X307554D01*
Y46988D01*
X307592D01*
Y46950D01*
X307630D01*
Y46912D01*
X307668D01*
Y46874D01*
X307706D01*
Y46836D01*
X307744D01*
Y46798D01*
X307782D01*
Y46760D01*
X307820D01*
Y46722D01*
X307858D01*
Y46684D01*
X307896D01*
Y46646D01*
X307934D01*
Y46608D01*
X307972D01*
Y46569D01*
X308010D01*
Y46531D01*
X308048D01*
Y46493D01*
X308086D01*
Y46455D01*
X308124D01*
Y46417D01*
X308163D01*
Y46379D01*
X308239D01*
Y46341D01*
X308277D01*
Y46303D01*
X308315D01*
Y46265D01*
X308353D01*
Y46227D01*
X308391D01*
Y46189D01*
X308429D01*
Y46151D01*
X308467D01*
Y46113D01*
X308505D01*
Y46075D01*
X308543D01*
Y46037D01*
X308581D01*
Y45999D01*
X308619D01*
Y45961D01*
X308657D01*
Y45922D01*
X308695D01*
Y45884D01*
X308733D01*
Y45846D01*
X308771D01*
Y45808D01*
X308809D01*
Y45770D01*
X308848D01*
Y45732D01*
X308886D01*
Y45694D01*
X308924D01*
Y45656D01*
X308962D01*
Y45618D01*
X309000D01*
Y45580D01*
X309038D01*
Y45542D01*
X309076D01*
Y45504D01*
X309114D01*
Y45466D01*
X309152D01*
Y45428D01*
X309190D01*
Y45390D01*
X309228D01*
Y45352D01*
X309266D01*
Y45314D01*
X309304D01*
Y45276D01*
X309342D01*
Y45237D01*
X309380D01*
Y45199D01*
X309418D01*
Y45161D01*
X309456D01*
Y45123D01*
X309494D01*
Y45085D01*
X309532D01*
Y45047D01*
X309571D01*
Y45009D01*
X309609D01*
Y44971D01*
X309647D01*
Y44933D01*
X309685D01*
Y44895D01*
X309723D01*
Y44857D01*
X309761D01*
Y44819D01*
X309875D01*
Y44781D01*
X309913D01*
Y44743D01*
X309951D01*
Y44705D01*
X309989D01*
Y44667D01*
X310027D01*
Y44629D01*
X310065D01*
Y44591D01*
X310103D01*
Y44552D01*
X310141D01*
Y44515D01*
X310179D01*
Y44476D01*
X310217D01*
Y44438D01*
X310256D01*
Y44400D01*
X310294D01*
Y44362D01*
X310332D01*
Y44324D01*
X310370D01*
Y44286D01*
X310408D01*
Y44248D01*
X310446D01*
Y44210D01*
X310484D01*
Y44172D01*
X310522D01*
Y44134D01*
X310560D01*
Y44096D01*
X310598D01*
Y44058D01*
X310636D01*
Y44020D01*
X310674D01*
Y43982D01*
X310712D01*
Y43944D01*
X310750D01*
Y43906D01*
X310788D01*
Y43867D01*
X310826D01*
Y43830D01*
X310864D01*
Y43791D01*
X310903D01*
Y43753D01*
X310941D01*
Y43715D01*
X310979D01*
Y43677D01*
X311017D01*
Y43639D01*
X311055D01*
Y43601D01*
X311093D01*
Y43563D01*
X311131D01*
Y43525D01*
X311169D01*
Y43487D01*
X311207D01*
Y43449D01*
X311245D01*
Y43411D01*
X311283D01*
Y43373D01*
X311321D01*
Y43335D01*
X311359D01*
Y43297D01*
X311397D01*
Y43259D01*
X311435D01*
Y43221D01*
X311473D01*
Y43183D01*
X311511D01*
Y43145D01*
X311549D01*
Y43106D01*
X311588D01*
Y43068D01*
X311626D01*
Y43030D01*
X311740D01*
Y42992D01*
X311778D01*
Y42916D01*
X311854D01*
Y42878D01*
X311892D01*
Y42840D01*
X311930D01*
Y42802D01*
X311968D01*
Y42764D01*
X312006D01*
Y42726D01*
X312044D01*
Y42688D01*
X312082D01*
Y42612D01*
X312158D01*
Y42574D01*
X312196D01*
Y42536D01*
X312234D01*
Y42498D01*
X312273D01*
Y42459D01*
X312311D01*
Y42421D01*
X312349D01*
Y42383D01*
X312387D01*
Y42307D01*
X312463D01*
Y42269D01*
X312501D01*
Y42231D01*
X312539D01*
Y42193D01*
X312577D01*
Y42155D01*
X312615D01*
Y42117D01*
X312653D01*
Y42079D01*
X312691D01*
Y42003D01*
X312767D01*
Y41965D01*
X312805D01*
Y41927D01*
X312843D01*
Y41889D01*
X312881D01*
Y41851D01*
X312919D01*
Y41813D01*
X312958D01*
Y41774D01*
X312996D01*
Y41698D01*
X313072D01*
Y41660D01*
X313110D01*
Y41622D01*
X313148D01*
Y41584D01*
X313186D01*
Y41546D01*
X313224D01*
Y41508D01*
X313262D01*
Y41470D01*
X313338D01*
Y41432D01*
X313376D01*
Y41394D01*
X313414D01*
Y41356D01*
X313452D01*
Y41318D01*
X313490D01*
Y41280D01*
X313528D01*
Y41242D01*
X313566D01*
Y41204D01*
X313604D01*
Y41166D01*
X313643D01*
Y41128D01*
X313681D01*
Y41089D01*
X313719D01*
Y41051D01*
X313757D01*
Y41013D01*
X313795D01*
Y40975D01*
X313833D01*
Y40937D01*
X313871D01*
Y40899D01*
X313909D01*
Y40861D01*
X313947D01*
Y40823D01*
X313985D01*
Y40785D01*
X314023D01*
Y40747D01*
X314061D01*
Y40709D01*
X314099D01*
Y40671D01*
X314137D01*
Y40633D01*
X314175D01*
Y40595D01*
X314213D01*
Y40557D01*
X314251D01*
Y40519D01*
X314289D01*
Y40481D01*
X314328D01*
Y40442D01*
X314366D01*
Y40404D01*
X314404D01*
Y40366D01*
X314442D01*
Y40328D01*
X314480D01*
Y40290D01*
X314518D01*
Y40252D01*
X314556D01*
Y40214D01*
X314594D01*
Y40176D01*
X314632D01*
Y40138D01*
X314670D01*
Y40100D01*
X314708D01*
Y40062D01*
X314746D01*
Y40024D01*
X314784D01*
Y39986D01*
X314822D01*
Y39948D01*
X314860D01*
Y39910D01*
X314898D01*
Y39872D01*
X315013D01*
Y39834D01*
X315051D01*
Y39796D01*
X315089D01*
Y39757D01*
X315127D01*
Y39720D01*
X315165D01*
Y39681D01*
X315203D01*
Y39643D01*
X315241D01*
Y39605D01*
X315279D01*
Y39567D01*
X315317D01*
Y39529D01*
X315355D01*
Y39491D01*
X315393D01*
Y39453D01*
X315431D01*
Y39415D01*
X315469D01*
Y39377D01*
X315507D01*
Y39339D01*
X315545D01*
Y39301D01*
X315583D01*
Y39263D01*
X315621D01*
Y39225D01*
X315659D01*
Y39187D01*
X315698D01*
Y39149D01*
X315736D01*
Y39111D01*
X315774D01*
Y39073D01*
X315812D01*
Y39035D01*
X315850D01*
Y38996D01*
X315888D01*
Y38958D01*
X315926D01*
Y38920D01*
X315964D01*
Y38882D01*
X316002D01*
Y38844D01*
X316040D01*
Y38806D01*
X316078D01*
Y38768D01*
X316116D01*
Y38730D01*
X316154D01*
Y38692D01*
X316192D01*
Y38654D01*
X316230D01*
Y38616D01*
X316268D01*
Y38578D01*
X316306D01*
Y38540D01*
X316344D01*
Y38502D01*
X316383D01*
Y38464D01*
X316421D01*
Y38426D01*
X316459D01*
Y38388D01*
X316497D01*
Y38350D01*
X316535D01*
Y38311D01*
X316573D01*
Y38273D01*
X316611D01*
Y38235D01*
X316649D01*
Y38197D01*
X316687D01*
Y38159D01*
X316725D01*
Y38121D01*
X316839D01*
Y38045D01*
X316877D01*
Y38007D01*
X316915D01*
Y37969D01*
X316953D01*
Y37931D01*
X317030D01*
Y37855D01*
X317068D01*
Y37817D01*
X317106D01*
Y37779D01*
X317144D01*
Y37741D01*
X317182D01*
Y37703D01*
X317220D01*
Y37664D01*
X317258D01*
Y37626D01*
X317334D01*
Y37550D01*
X317372D01*
Y37512D01*
X317410D01*
Y37474D01*
X317448D01*
Y37436D01*
X317486D01*
Y37398D01*
X317524D01*
Y37360D01*
X317562D01*
Y37322D01*
X317638D01*
Y37246D01*
X317676D01*
Y37208D01*
X317715D01*
Y37170D01*
X317753D01*
Y37132D01*
X317791D01*
Y37094D01*
X317829D01*
Y37056D01*
X317867D01*
Y37018D01*
X317943D01*
Y36941D01*
X317981D01*
Y36903D01*
X318019D01*
Y36865D01*
X318057D01*
Y36827D01*
X318095D01*
Y36789D01*
X318133D01*
Y36751D01*
X318171D01*
Y36713D01*
X318247D01*
Y36637D01*
X318285D01*
Y36599D01*
X318361D01*
Y36523D01*
X318476D01*
Y36485D01*
X318514D01*
Y36447D01*
X318552D01*
Y36409D01*
X318590D01*
Y36371D01*
X318628D01*
Y36333D01*
X318666D01*
Y36294D01*
X318704D01*
Y36257D01*
X318742D01*
Y36218D01*
X318780D01*
Y36180D01*
X318818D01*
Y36142D01*
X318856D01*
Y36104D01*
X318894D01*
Y36066D01*
X318932D01*
Y36028D01*
X318970D01*
Y35990D01*
X319008D01*
Y35952D01*
X319046D01*
Y35914D01*
X319085D01*
Y35876D01*
X319123D01*
Y35838D01*
X319161D01*
Y35800D01*
X319199D01*
Y35762D01*
X319237D01*
Y35724D01*
X319275D01*
Y35686D01*
X319313D01*
Y35648D01*
X319351D01*
Y35609D01*
X319389D01*
Y35571D01*
X319427D01*
Y35533D01*
X319465D01*
Y35495D01*
X319503D01*
Y35457D01*
X319541D01*
Y35419D01*
X319579D01*
Y35381D01*
X319617D01*
Y35343D01*
X319655D01*
Y35305D01*
X319693D01*
Y35267D01*
X319731D01*
Y35229D01*
X319770D01*
Y35191D01*
X319808D01*
Y35153D01*
X319846D01*
Y35115D01*
X319884D01*
Y35077D01*
X319922D01*
Y35039D01*
X319960D01*
Y35001D01*
X319998D01*
Y34963D01*
X320036D01*
Y34925D01*
X320074D01*
Y34887D01*
X320188D01*
Y34848D01*
X320226D01*
Y34810D01*
X320264D01*
Y34772D01*
X320302D01*
Y34734D01*
X320340D01*
Y34696D01*
X320378D01*
Y34658D01*
X320416D01*
Y34620D01*
X320454D01*
Y34582D01*
X320493D01*
Y34544D01*
X320531D01*
Y34506D01*
X320569D01*
Y34468D01*
X320607D01*
Y34430D01*
X320645D01*
Y34392D01*
X320683D01*
Y34354D01*
X320721D01*
Y34316D01*
X320759D01*
Y34278D01*
X320797D01*
Y34240D01*
X320835D01*
Y34201D01*
X320873D01*
Y34163D01*
X320911D01*
Y34125D01*
X320949D01*
Y34087D01*
X320987D01*
Y34049D01*
X321025D01*
Y34011D01*
X321063D01*
Y33973D01*
X321101D01*
Y33935D01*
X321139D01*
Y33897D01*
X321178D01*
Y33859D01*
X321216D01*
Y33821D01*
X321254D01*
Y33783D01*
X321292D01*
Y33745D01*
X321330D01*
Y33707D01*
X321368D01*
Y33669D01*
X321406D01*
Y33631D01*
X321444D01*
Y33593D01*
X321482D01*
Y33555D01*
X321520D01*
Y33516D01*
X321558D01*
Y33478D01*
X321596D01*
Y33440D01*
X321634D01*
Y33402D01*
X321672D01*
Y33364D01*
X321710D01*
Y33288D01*
X321824D01*
Y33250D01*
X321863D01*
Y33212D01*
X321901D01*
Y33174D01*
X321939D01*
Y33136D01*
X321977D01*
Y33098D01*
X322015D01*
Y33060D01*
X322053D01*
Y33022D01*
X322091D01*
Y32984D01*
X322129D01*
Y32946D01*
X322167D01*
Y32908D01*
X322205D01*
Y32869D01*
X322243D01*
Y32831D01*
X322281D01*
Y32793D01*
X322319D01*
Y32755D01*
X322357D01*
Y32717D01*
X322395D01*
Y32679D01*
X322433D01*
Y32641D01*
X322471D01*
Y32603D01*
X322510D01*
Y32565D01*
X322548D01*
Y32527D01*
X322586D01*
Y32489D01*
X322624D01*
Y32451D01*
X322662D01*
Y32413D01*
X322700D01*
Y32375D01*
X322738D01*
Y32337D01*
X322776D01*
Y32299D01*
X322814D01*
Y32261D01*
X322852D01*
Y32223D01*
X322890D01*
Y32184D01*
X322928D01*
Y32146D01*
X322966D01*
Y32108D01*
X323004D01*
Y32070D01*
X323042D01*
Y32032D01*
X323080D01*
Y31994D01*
X323118D01*
Y31956D01*
X323156D01*
Y31918D01*
X323195D01*
Y31880D01*
X323233D01*
Y31842D01*
X323271D01*
Y31804D01*
X323309D01*
Y31766D01*
X323347D01*
Y31728D01*
X323385D01*
Y31690D01*
X323423D01*
Y31652D01*
X323461D01*
Y31614D01*
X323499D01*
Y31576D01*
X323537D01*
Y31614D01*
X323575D01*
Y31576D01*
X323613D01*
Y31614D01*
X323651D01*
Y31690D01*
X323689D01*
Y31728D01*
X323727D01*
Y31842D01*
X323765D01*
Y31880D01*
X323803D01*
Y31918D01*
X323765D01*
Y31994D01*
X323803D01*
Y32032D01*
X323841D01*
Y32146D01*
X323918D01*
Y32261D01*
X323955D01*
Y32375D01*
X323994D01*
Y32413D01*
X324032D01*
Y32565D01*
X324070D01*
Y32679D01*
X324146D01*
Y32869D01*
X324184D01*
Y32908D01*
X324222D01*
Y32984D01*
X324260D01*
Y33174D01*
X324336D01*
Y33288D01*
X324374D01*
Y33478D01*
X324450D01*
Y33593D01*
X324488D01*
Y33631D01*
X324526D01*
Y33783D01*
X324564D01*
Y33973D01*
X324640D01*
Y34163D01*
X324679D01*
Y34316D01*
X324717D01*
Y34354D01*
X324755D01*
Y34506D01*
X324793D01*
Y34544D01*
X324831D01*
Y34696D01*
X324869D01*
Y34887D01*
X324945D01*
Y35077D01*
X324983D01*
Y35229D01*
X325021D01*
Y35267D01*
X325059D01*
Y35495D01*
X325135D01*
Y35724D01*
X325173D01*
Y35914D01*
X325249D01*
Y36142D01*
X325288D01*
Y36371D01*
X325326D01*
Y36409D01*
X325364D01*
Y36637D01*
X325402D01*
Y36675D01*
X325440D01*
Y36941D01*
X325478D01*
Y37246D01*
X325516D01*
Y37284D01*
X325554D01*
Y37512D01*
X325592D01*
Y37855D01*
X325668D01*
Y38235D01*
X325744D01*
Y38616D01*
X325782D01*
Y38996D01*
X325820D01*
Y39035D01*
X325858D01*
Y39567D01*
X325896D01*
Y40176D01*
X325973D01*
Y41204D01*
X326011D01*
Y41242D01*
X326049D01*
Y50337D01*
D02*
G37*
G36*
X304738Y35115D02*
X304585D01*
Y35077D01*
X304547D01*
Y35039D01*
X304509D01*
Y35001D01*
X304471D01*
Y34963D01*
X304433D01*
Y34925D01*
X304395D01*
Y34887D01*
X304357D01*
Y34848D01*
X304319D01*
Y34810D01*
X304281D01*
Y34772D01*
X304243D01*
Y34734D01*
X304205D01*
Y34696D01*
X304167D01*
Y34658D01*
X304129D01*
Y34620D01*
X304091D01*
Y34582D01*
X304053D01*
Y34544D01*
X304014D01*
Y34506D01*
X303976D01*
Y34392D01*
X303938D01*
Y34354D01*
X303900D01*
Y34316D01*
X303862D01*
Y34278D01*
X303824D01*
Y34240D01*
X303786D01*
Y34201D01*
X303748D01*
Y34163D01*
X303710D01*
Y34125D01*
X303672D01*
Y34087D01*
X303634D01*
Y34049D01*
X303596D01*
Y34011D01*
X303558D01*
Y33973D01*
X303520D01*
Y33935D01*
X303482D01*
Y33897D01*
X303444D01*
Y33859D01*
X303406D01*
Y33821D01*
X303368D01*
Y33783D01*
X303329D01*
Y33745D01*
X303291D01*
Y33707D01*
X303253D01*
Y33669D01*
X303215D01*
Y33631D01*
X303177D01*
Y33593D01*
X303139D01*
Y33555D01*
X303101D01*
Y33516D01*
X303063D01*
Y33478D01*
X303025D01*
Y33364D01*
X302949D01*
Y33288D01*
X302911D01*
Y33250D01*
X302873D01*
Y33212D01*
X302835D01*
Y33174D01*
X302797D01*
Y33136D01*
X302759D01*
Y33098D01*
X302721D01*
Y33060D01*
X302644D01*
Y32984D01*
X302607D01*
Y32946D01*
X302568D01*
Y32908D01*
X302530D01*
Y32869D01*
X302492D01*
Y32831D01*
X302454D01*
Y32793D01*
X302416D01*
Y32755D01*
X302340D01*
Y32679D01*
X302302D01*
Y32641D01*
X302264D01*
Y32603D01*
X302226D01*
Y32565D01*
X302188D01*
Y32527D01*
X302150D01*
Y32489D01*
X302112D01*
Y32451D01*
X302036D01*
Y32337D01*
X301998D01*
Y32299D01*
X301959D01*
Y32261D01*
X301922D01*
Y32223D01*
X301883D01*
Y32184D01*
X301845D01*
Y32146D01*
X301807D01*
Y32108D01*
X301769D01*
Y32070D01*
X301731D01*
Y32032D01*
X301693D01*
Y31994D01*
X301655D01*
Y31956D01*
X301617D01*
Y31918D01*
X301579D01*
Y31880D01*
X301541D01*
Y31842D01*
X301503D01*
Y31804D01*
X301465D01*
Y31766D01*
X301427D01*
Y31728D01*
X301389D01*
Y31690D01*
X301351D01*
Y31652D01*
X301313D01*
Y31614D01*
X301274D01*
Y31576D01*
X301237D01*
Y31538D01*
X301198D01*
Y31499D01*
X301160D01*
Y31462D01*
X301122D01*
Y31423D01*
X301084D01*
Y31385D01*
X301046D01*
Y31347D01*
X301008D01*
Y31233D01*
X300970D01*
Y31195D01*
X300932D01*
Y31157D01*
X300894D01*
Y31119D01*
X300856D01*
Y31081D01*
X300818D01*
Y31043D01*
X300780D01*
Y31005D01*
X300742D01*
Y30967D01*
X300704D01*
Y30929D01*
X300666D01*
Y30891D01*
X300628D01*
Y30853D01*
X300589D01*
Y30814D01*
X300552D01*
Y30777D01*
X300513D01*
Y30738D01*
X300475D01*
Y30700D01*
X300437D01*
Y30662D01*
X300399D01*
Y30624D01*
X300361D01*
Y30586D01*
X300323D01*
Y30548D01*
X300285D01*
Y30510D01*
X300247D01*
Y30472D01*
X300209D01*
Y30434D01*
X300171D01*
Y30396D01*
X300133D01*
Y30358D01*
X300095D01*
Y30320D01*
X300057D01*
Y30282D01*
X300019D01*
Y30206D01*
X299981D01*
Y30168D01*
X299943D01*
Y30130D01*
X299904D01*
Y30092D01*
X299867D01*
Y30053D01*
X299828D01*
Y30015D01*
X299790D01*
Y29977D01*
X299752D01*
Y29939D01*
X299714D01*
Y29901D01*
X299676D01*
Y29863D01*
X299638D01*
Y29825D01*
X299600D01*
Y29787D01*
X299562D01*
Y29749D01*
X299524D01*
Y29711D01*
X299486D01*
Y29673D01*
X299448D01*
Y29635D01*
X299410D01*
Y29597D01*
X299372D01*
Y29559D01*
X299334D01*
Y29521D01*
X299296D01*
Y29483D01*
X299258D01*
Y29445D01*
X299219D01*
Y29406D01*
X299182D01*
Y29368D01*
X299143D01*
Y29330D01*
X299105D01*
Y29292D01*
X299067D01*
Y29254D01*
X299029D01*
Y29216D01*
X298991D01*
Y29102D01*
X298953D01*
Y29064D01*
X298915D01*
Y29026D01*
X298877D01*
Y28988D01*
X298839D01*
Y28950D01*
X298801D01*
Y28912D01*
X298763D01*
Y28874D01*
X298725D01*
Y28836D01*
X298687D01*
Y28798D01*
X298649D01*
Y28760D01*
X298611D01*
Y28721D01*
X298573D01*
Y28683D01*
X298534D01*
Y28645D01*
X298497D01*
Y28607D01*
X298458D01*
Y28569D01*
X298420D01*
Y28531D01*
X298382D01*
Y28493D01*
X298344D01*
Y28455D01*
X298306D01*
Y28417D01*
X298268D01*
Y28379D01*
X298230D01*
Y28341D01*
X298192D01*
Y28303D01*
X298154D01*
Y28265D01*
X298116D01*
Y28227D01*
X298078D01*
Y28113D01*
X298040D01*
Y28074D01*
X297964D01*
Y27998D01*
X297926D01*
Y27960D01*
X297888D01*
Y27922D01*
X297849D01*
Y27884D01*
X297773D01*
Y27808D01*
X297735D01*
Y27770D01*
X297659D01*
Y27694D01*
X297621D01*
Y27656D01*
X297583D01*
Y27618D01*
X297545D01*
Y27580D01*
X297469D01*
Y27504D01*
X297431D01*
Y27466D01*
X297355D01*
Y27389D01*
X297317D01*
Y27351D01*
X297279D01*
Y27313D01*
X297241D01*
Y27275D01*
X297165D01*
Y27199D01*
X297127D01*
Y27123D01*
X297088D01*
Y27085D01*
X297050D01*
Y27047D01*
X297012D01*
Y27009D01*
X296974D01*
Y26971D01*
X296936D01*
Y26933D01*
X296898D01*
Y26895D01*
X296860D01*
Y26857D01*
X296822D01*
Y26819D01*
X296784D01*
Y26781D01*
X296746D01*
Y26743D01*
X296708D01*
Y26704D01*
X296670D01*
Y26667D01*
X296632D01*
Y26628D01*
X296594D01*
Y26590D01*
X296556D01*
Y26552D01*
X296518D01*
Y26514D01*
X296480D01*
Y26476D01*
X296442D01*
Y26438D01*
X296403D01*
Y26400D01*
X296365D01*
Y26362D01*
X296327D01*
Y26324D01*
X296289D01*
Y26286D01*
X296251D01*
Y26248D01*
X296213D01*
Y26210D01*
X296175D01*
Y26172D01*
X296137D01*
Y26134D01*
X296099D01*
Y26096D01*
X296061D01*
Y25982D01*
X296023D01*
Y25943D01*
X295985D01*
Y25905D01*
X295947D01*
Y25867D01*
X295909D01*
Y25829D01*
X295871D01*
Y25791D01*
X295833D01*
Y25753D01*
X295795D01*
Y25715D01*
X295757D01*
Y25677D01*
X295718D01*
Y25639D01*
X295680D01*
Y25601D01*
X295642D01*
Y25563D01*
X295604D01*
Y25525D01*
X295566D01*
Y25487D01*
X295528D01*
Y25449D01*
X295490D01*
Y25411D01*
X295452D01*
Y25373D01*
X295414D01*
Y25335D01*
X295376D01*
Y25297D01*
X295338D01*
Y25258D01*
X295300D01*
Y25220D01*
X295262D01*
Y25182D01*
X295224D01*
Y25144D01*
X295186D01*
Y25106D01*
X295148D01*
Y25068D01*
X295110D01*
Y24954D01*
X295033D01*
Y24916D01*
X294995D01*
Y24878D01*
X294957D01*
Y24840D01*
X294919D01*
Y24802D01*
X294881D01*
Y24764D01*
X294843D01*
Y24726D01*
X294805D01*
Y24688D01*
X294767D01*
Y24649D01*
X294729D01*
Y24611D01*
X294691D01*
Y24573D01*
X294653D01*
Y24535D01*
X294615D01*
Y24497D01*
X294577D01*
Y24459D01*
X294539D01*
Y24421D01*
X294501D01*
Y24383D01*
X294463D01*
Y24345D01*
X294425D01*
Y24307D01*
X294387D01*
Y24269D01*
X294348D01*
Y24231D01*
X294310D01*
Y24193D01*
X294272D01*
Y24155D01*
X294234D01*
Y24117D01*
X294196D01*
Y24079D01*
X294158D01*
Y24041D01*
X294120D01*
Y24003D01*
X294082D01*
Y23888D01*
X294044D01*
Y23850D01*
X294006D01*
Y23812D01*
X293968D01*
Y23774D01*
X293930D01*
Y23736D01*
X293892D01*
Y23698D01*
X293854D01*
Y23660D01*
X293816D01*
Y23622D01*
X293778D01*
Y23584D01*
X293740D01*
Y23546D01*
X293702D01*
Y23508D01*
X293663D01*
Y23470D01*
X293625D01*
Y23432D01*
X293587D01*
Y23394D01*
X293549D01*
Y23356D01*
X293511D01*
Y23318D01*
X293473D01*
Y23280D01*
X293435D01*
Y23242D01*
X293397D01*
Y23203D01*
X293359D01*
Y23165D01*
X293321D01*
Y23127D01*
X293283D01*
Y23089D01*
X293245D01*
Y23051D01*
X293207D01*
Y23013D01*
X293169D01*
Y22975D01*
X293131D01*
Y22937D01*
X293093D01*
Y22823D01*
X293055D01*
Y22785D01*
X293017D01*
Y22747D01*
X292978D01*
Y22709D01*
X292902D01*
Y22633D01*
X292864D01*
Y22595D01*
X292788D01*
Y22518D01*
X292750D01*
Y22480D01*
X292712D01*
Y22442D01*
X292674D01*
Y22404D01*
X292598D01*
Y22214D01*
X292674D01*
Y22176D01*
X292750D01*
Y22138D01*
X292788D01*
Y22100D01*
X292826D01*
Y22062D01*
X292864D01*
Y22024D01*
X292902D01*
Y21986D01*
X292940D01*
Y21948D01*
X292978D01*
Y21910D01*
X293017D01*
Y21871D01*
X293055D01*
Y21833D01*
X293093D01*
Y21795D01*
X293131D01*
Y21757D01*
X293169D01*
Y21719D01*
X293207D01*
Y21681D01*
X293245D01*
Y21643D01*
X293283D01*
Y21605D01*
X293321D01*
Y21567D01*
X293359D01*
Y21529D01*
X293397D01*
Y21491D01*
X293511D01*
Y21453D01*
X293549D01*
Y21415D01*
X293587D01*
Y21377D01*
X293625D01*
Y21339D01*
X293663D01*
Y21301D01*
X293702D01*
Y21263D01*
X293740D01*
Y21225D01*
X293778D01*
Y21186D01*
X293816D01*
Y21148D01*
X293854D01*
Y21110D01*
X293892D01*
Y21072D01*
X294006D01*
Y20996D01*
X294082D01*
Y20920D01*
X294120D01*
Y20882D01*
X294196D01*
Y20806D01*
X294234D01*
Y20768D01*
X294310D01*
Y20692D01*
X294425D01*
Y20654D01*
X294463D01*
Y20616D01*
X294501D01*
Y20578D01*
X294539D01*
Y20540D01*
X294577D01*
Y20502D01*
X294615D01*
Y20463D01*
X294653D01*
Y20425D01*
X294691D01*
Y20387D01*
X294805D01*
Y20349D01*
X294843D01*
Y20311D01*
X294881D01*
Y20273D01*
X294919D01*
Y20235D01*
X294957D01*
Y20197D01*
X294995D01*
Y20159D01*
X295072D01*
Y20121D01*
X295110D01*
Y20083D01*
X295148D01*
Y20045D01*
X295186D01*
Y20007D01*
X295224D01*
Y19969D01*
X295262D01*
Y19931D01*
X295300D01*
Y19893D01*
X295414D01*
Y19855D01*
X295452D01*
Y19816D01*
X295490D01*
Y19779D01*
X295528D01*
Y19740D01*
X295642D01*
Y19664D01*
X295718D01*
Y19588D01*
X295757D01*
Y19550D01*
X295833D01*
Y19474D01*
X295947D01*
Y19436D01*
X295985D01*
Y19398D01*
X296023D01*
Y19360D01*
X296061D01*
Y19322D01*
X296099D01*
Y19284D01*
X296213D01*
Y19246D01*
X296251D01*
Y19208D01*
X296289D01*
Y19170D01*
X296327D01*
Y19131D01*
X296403D01*
Y19094D01*
X296442D01*
Y19055D01*
X296480D01*
Y19017D01*
X296518D01*
Y18979D01*
X296556D01*
Y18941D01*
X296670D01*
Y18903D01*
X296708D01*
Y18865D01*
X296746D01*
Y18827D01*
X296860D01*
Y18751D01*
X296936D01*
Y18675D01*
X296974D01*
Y18637D01*
X297088D01*
Y18599D01*
X297127D01*
Y18561D01*
X297165D01*
Y18523D01*
X297279D01*
Y18485D01*
X297317D01*
Y18447D01*
X297355D01*
Y18370D01*
X297469D01*
Y18332D01*
X297507D01*
Y18294D01*
X297545D01*
Y18256D01*
X297583D01*
Y18218D01*
X297697D01*
Y18180D01*
X297735D01*
Y18142D01*
X297773D01*
Y18104D01*
X297812D01*
Y18066D01*
X297888D01*
Y18028D01*
X297964D01*
Y17952D01*
X298078D01*
Y17914D01*
X298116D01*
Y17876D01*
X298154D01*
Y17838D01*
X298268D01*
Y17800D01*
X298306D01*
Y17762D01*
X298344D01*
Y17723D01*
X298420D01*
Y17685D01*
X298458D01*
Y17647D01*
X298573D01*
Y17609D01*
X298611D01*
Y17571D01*
X298649D01*
Y17533D01*
X298763D01*
Y17457D01*
X298801D01*
Y17419D01*
X298915D01*
Y17381D01*
X298953D01*
Y17343D01*
X298991D01*
Y17305D01*
X299105D01*
Y17267D01*
X299143D01*
Y17229D01*
X299219D01*
Y17191D01*
X299258D01*
Y17153D01*
X299296D01*
Y17115D01*
X299410D01*
Y17076D01*
X299448D01*
Y17039D01*
X299562D01*
Y17000D01*
X299600D01*
Y16924D01*
X299714D01*
Y16886D01*
X299752D01*
Y16848D01*
X299867D01*
Y16810D01*
X299904D01*
Y16734D01*
X300019D01*
Y16696D01*
X300133D01*
Y16658D01*
X300171D01*
Y16620D01*
X300209D01*
Y16582D01*
X300247D01*
Y16544D01*
X300323D01*
Y16506D01*
X300437D01*
Y16468D01*
X300475D01*
Y16430D01*
X300589D01*
Y16391D01*
X300666D01*
Y16353D01*
X300704D01*
Y16315D01*
X300742D01*
Y16277D01*
X300780D01*
Y16239D01*
X300894D01*
Y16201D01*
X301008D01*
Y16125D01*
X301122D01*
Y16087D01*
X301237D01*
Y16049D01*
X301274D01*
Y16011D01*
X301351D01*
Y15973D01*
X301389D01*
Y15935D01*
X301503D01*
Y15897D01*
X301617D01*
Y15821D01*
X301693D01*
Y15783D01*
X301769D01*
Y15745D01*
X301807D01*
Y15707D01*
X301922D01*
Y15630D01*
X302036D01*
Y15592D01*
X302150D01*
Y15554D01*
X302188D01*
Y15516D01*
X302340D01*
Y15478D01*
X302454D01*
Y15440D01*
X302492D01*
Y15402D01*
X302568D01*
Y15364D01*
X302607D01*
Y15326D01*
X302721D01*
Y15288D01*
X302835D01*
Y15212D01*
X302949D01*
Y15174D01*
X303063D01*
Y15136D01*
X303101D01*
Y15098D01*
X303253D01*
Y15060D01*
X303291D01*
Y15021D01*
X303368D01*
Y14984D01*
X303558D01*
Y14907D01*
X303672D01*
Y14869D01*
X303862D01*
Y14793D01*
X303976D01*
Y14755D01*
X304014D01*
Y14717D01*
X304167D01*
Y14679D01*
X304357D01*
Y14603D01*
X304547D01*
Y14565D01*
X304776D01*
Y14603D01*
X304966D01*
Y14679D01*
X305156D01*
Y14717D01*
X305308D01*
Y14755D01*
X305346D01*
Y14793D01*
X305499D01*
Y14831D01*
X305537D01*
Y14869D01*
X305651D01*
Y14907D01*
X305803D01*
Y14945D01*
X305841D01*
Y14984D01*
X305955D01*
Y15021D01*
X306031D01*
Y15060D01*
X306069D01*
Y15098D01*
X306222D01*
Y15136D01*
X306260D01*
Y15174D01*
X306374D01*
Y15212D01*
X306488D01*
Y15288D01*
X306602D01*
Y15326D01*
X306754D01*
Y15364D01*
X306792D01*
Y15402D01*
X306907D01*
Y15440D01*
X306945D01*
Y15478D01*
X307021D01*
Y15516D01*
X307135D01*
Y15554D01*
X307173D01*
Y15592D01*
X307287D01*
Y15630D01*
X307401D01*
Y15707D01*
X307516D01*
Y15745D01*
X307554D01*
Y15783D01*
X307630D01*
Y15821D01*
X307744D01*
Y15859D01*
X307782D01*
Y15897D01*
X307896D01*
Y15935D01*
X307972D01*
Y15973D01*
X308010D01*
Y16011D01*
X308048D01*
Y16049D01*
X308086D01*
Y16087D01*
X308201D01*
Y16125D01*
X308315D01*
Y16201D01*
X308429D01*
Y16239D01*
X308543D01*
Y16277D01*
X308581D01*
Y16315D01*
X308657D01*
Y16353D01*
X308695D01*
Y16391D01*
X308733D01*
Y16430D01*
X308848D01*
Y16468D01*
X308886D01*
Y16506D01*
X309000D01*
Y16544D01*
X309076D01*
Y16582D01*
X309114D01*
Y16620D01*
X309152D01*
Y16658D01*
X309190D01*
Y16696D01*
X309304D01*
Y16734D01*
X309418D01*
Y16810D01*
X309532D01*
Y16848D01*
X309571D01*
Y16886D01*
X309609D01*
Y16924D01*
X309723D01*
Y17000D01*
X309837D01*
Y17039D01*
X309875D01*
Y17076D01*
X309913D01*
Y17115D01*
X310027D01*
Y17153D01*
X310141D01*
Y17229D01*
X310179D01*
Y17267D01*
X310217D01*
Y17305D01*
X310332D01*
Y17343D01*
X310370D01*
Y17381D01*
X310408D01*
Y17419D01*
X310522D01*
Y17457D01*
X310598D01*
Y17495D01*
X310636D01*
Y17533D01*
X310674D01*
Y17571D01*
X310712D01*
Y17609D01*
X310826D01*
Y17647D01*
X310864D01*
Y17685D01*
X310903D01*
Y17723D01*
X310979D01*
Y17762D01*
X311017D01*
Y17800D01*
X311055D01*
Y17838D01*
X311169D01*
Y17876D01*
X311207D01*
Y17914D01*
X311245D01*
Y17952D01*
X311359D01*
Y18028D01*
X311435D01*
Y18066D01*
X311511D01*
Y18104D01*
X311549D01*
Y18142D01*
X311588D01*
Y18180D01*
X311626D01*
Y18218D01*
X311740D01*
Y18256D01*
X311778D01*
Y18294D01*
X311816D01*
Y18332D01*
X311892D01*
Y18370D01*
X311930D01*
Y18408D01*
X311968D01*
Y18447D01*
X312082D01*
Y18485D01*
X312120D01*
Y18523D01*
X312158D01*
Y18561D01*
X312196D01*
Y18599D01*
X312234D01*
Y18637D01*
X312349D01*
Y18675D01*
X312387D01*
Y18751D01*
X312501D01*
Y18789D01*
X312539D01*
Y18827D01*
X312577D01*
Y18865D01*
X312615D01*
Y18903D01*
X312653D01*
Y18941D01*
X312767D01*
Y18979D01*
X312805D01*
Y19017D01*
X312843D01*
Y19055D01*
X312881D01*
Y19094D01*
X312919D01*
Y19131D01*
X312996D01*
Y19170D01*
X313034D01*
Y19208D01*
X313072D01*
Y19246D01*
X313186D01*
Y19284D01*
X313224D01*
Y19322D01*
X313262D01*
Y19360D01*
X313300D01*
Y19398D01*
X313338D01*
Y19436D01*
X313414D01*
Y19474D01*
X313490D01*
Y19550D01*
X313566D01*
Y19588D01*
X313604D01*
Y19664D01*
X313719D01*
Y19702D01*
X313757D01*
Y19740D01*
X313795D01*
Y19779D01*
X313833D01*
Y19816D01*
X313871D01*
Y19855D01*
X313985D01*
Y19893D01*
X314023D01*
Y19931D01*
X314061D01*
Y19969D01*
X314099D01*
Y20007D01*
X314137D01*
Y20045D01*
X314175D01*
Y20083D01*
X314289D01*
Y20159D01*
X314328D01*
Y20197D01*
X314366D01*
Y20235D01*
X314404D01*
Y20273D01*
X314442D01*
Y20311D01*
X314480D01*
Y20349D01*
X314594D01*
Y20387D01*
X314632D01*
Y20425D01*
X314670D01*
Y20463D01*
X314708D01*
Y20502D01*
X314746D01*
Y20540D01*
X314784D01*
Y20578D01*
X314822D01*
Y20616D01*
X314860D01*
Y20654D01*
X314936D01*
Y20692D01*
X315013D01*
Y20768D01*
X315089D01*
Y20806D01*
X315127D01*
Y20882D01*
X315203D01*
Y20920D01*
X315241D01*
Y20996D01*
X315355D01*
Y21034D01*
X315393D01*
Y21072D01*
X315431D01*
Y21110D01*
X315469D01*
Y21148D01*
X315507D01*
Y21186D01*
X315545D01*
Y21225D01*
X315583D01*
Y21263D01*
X315621D01*
Y21301D01*
X315659D01*
Y21339D01*
X315698D01*
Y21377D01*
X315812D01*
Y21415D01*
X315850D01*
Y21453D01*
X315888D01*
Y21491D01*
X315926D01*
Y21529D01*
X315964D01*
Y21567D01*
X316002D01*
Y21605D01*
X316040D01*
Y21643D01*
X316078D01*
Y21681D01*
X316116D01*
Y21719D01*
X316154D01*
Y21757D01*
X316192D01*
Y21795D01*
X316230D01*
Y21833D01*
X316268D01*
Y21871D01*
X316306D01*
Y21910D01*
X316344D01*
Y21948D01*
X316383D01*
Y21986D01*
X316459D01*
Y22024D01*
X316497D01*
Y22062D01*
X316535D01*
Y22100D01*
X316573D01*
Y22138D01*
X316611D01*
Y22176D01*
X316649D01*
Y22214D01*
X316687D01*
Y22252D01*
X316725D01*
Y22290D01*
X316763D01*
Y22366D01*
X316725D01*
Y22404D01*
X316649D01*
Y22442D01*
X316611D01*
Y22518D01*
X316535D01*
Y22595D01*
X316459D01*
Y22709D01*
X316421D01*
Y22747D01*
X316383D01*
Y22785D01*
X316344D01*
Y22823D01*
X316306D01*
Y22861D01*
X316268D01*
Y22899D01*
X316230D01*
Y22937D01*
X316192D01*
Y22975D01*
X316154D01*
Y23013D01*
X316116D01*
Y23051D01*
X316078D01*
Y23089D01*
X316040D01*
Y23127D01*
X316002D01*
Y23165D01*
X315964D01*
Y23203D01*
X315926D01*
Y23242D01*
X315888D01*
Y23280D01*
X315850D01*
Y23318D01*
X315812D01*
Y23356D01*
X315774D01*
Y23394D01*
X315736D01*
Y23432D01*
X315698D01*
Y23470D01*
X315659D01*
Y23508D01*
X315621D01*
Y23546D01*
X315583D01*
Y23584D01*
X315545D01*
Y23622D01*
X315507D01*
Y23660D01*
X315469D01*
Y23698D01*
X315431D01*
Y23812D01*
X315393D01*
Y23850D01*
X315355D01*
Y23888D01*
X315317D01*
Y23926D01*
X315279D01*
Y23965D01*
X315241D01*
Y24003D01*
X315203D01*
Y24041D01*
X315165D01*
Y24079D01*
X315127D01*
Y24117D01*
X315089D01*
Y24155D01*
X315051D01*
Y24193D01*
X315013D01*
Y24231D01*
X314974D01*
Y24269D01*
X314936D01*
Y24307D01*
X314898D01*
Y24345D01*
X314860D01*
Y24383D01*
X314822D01*
Y24421D01*
X314784D01*
Y24459D01*
X314746D01*
Y24497D01*
X314708D01*
Y24535D01*
X314670D01*
Y24573D01*
X314632D01*
Y24611D01*
X314594D01*
Y24649D01*
X314556D01*
Y24688D01*
X314518D01*
Y24726D01*
X314480D01*
Y24802D01*
X314442D01*
Y24840D01*
X314404D01*
Y24878D01*
X314366D01*
Y24916D01*
X314328D01*
Y24954D01*
X314289D01*
Y24992D01*
X314251D01*
Y25030D01*
X314213D01*
Y25068D01*
X314175D01*
Y25106D01*
X314137D01*
Y25144D01*
X314099D01*
Y25182D01*
X314061D01*
Y25220D01*
X314023D01*
Y25258D01*
X313985D01*
Y25297D01*
X313947D01*
Y25335D01*
X313909D01*
Y25373D01*
X313871D01*
Y25411D01*
X313833D01*
Y25449D01*
X313795D01*
Y25487D01*
X313757D01*
Y25525D01*
X313719D01*
Y25563D01*
X313681D01*
Y25601D01*
X313643D01*
Y25639D01*
X313604D01*
Y25677D01*
X313566D01*
Y25715D01*
X313528D01*
Y25753D01*
X313490D01*
Y25867D01*
X313452D01*
Y25905D01*
X313414D01*
Y25943D01*
X313376D01*
Y25982D01*
X313338D01*
Y26019D01*
X313300D01*
Y26058D01*
X313262D01*
Y26096D01*
X313224D01*
Y26134D01*
X313186D01*
Y26172D01*
X313148D01*
Y26210D01*
X313110D01*
Y26248D01*
X313072D01*
Y26286D01*
X313034D01*
Y26324D01*
X312996D01*
Y26362D01*
X312958D01*
Y26400D01*
X312919D01*
Y26438D01*
X312881D01*
Y26476D01*
X312843D01*
Y26514D01*
X312805D01*
Y26552D01*
X312767D01*
Y26590D01*
X312729D01*
Y26628D01*
X312691D01*
Y26667D01*
X312653D01*
Y26704D01*
X312615D01*
Y26743D01*
X312577D01*
Y26781D01*
X312539D01*
Y26819D01*
X312501D01*
Y26857D01*
X312463D01*
Y26971D01*
X312387D01*
Y27009D01*
X312349D01*
Y27047D01*
X312311D01*
Y27085D01*
X312273D01*
Y27161D01*
X312196D01*
Y27199D01*
X312158D01*
Y27275D01*
X312082D01*
Y27313D01*
X312044D01*
Y27351D01*
X312006D01*
Y27389D01*
X311968D01*
Y27466D01*
X311892D01*
Y27504D01*
X311854D01*
Y27580D01*
X311778D01*
Y27618D01*
X311740D01*
Y27656D01*
X311702D01*
Y27694D01*
X311664D01*
Y27770D01*
X311588D01*
Y27808D01*
X311549D01*
Y27884D01*
X311473D01*
Y27998D01*
X311435D01*
Y28036D01*
X311397D01*
Y28074D01*
X311359D01*
Y28113D01*
X311321D01*
Y28151D01*
X311283D01*
Y28189D01*
X311245D01*
Y28227D01*
X311207D01*
Y28265D01*
X311169D01*
Y28303D01*
X311131D01*
Y28341D01*
X311093D01*
Y28379D01*
X311055D01*
Y28417D01*
X311017D01*
Y28455D01*
X310979D01*
Y28493D01*
X310941D01*
Y28531D01*
X310903D01*
Y28569D01*
X310864D01*
Y28607D01*
X310826D01*
Y28645D01*
X310788D01*
Y28683D01*
X310750D01*
Y28721D01*
X310712D01*
Y28760D01*
X310674D01*
Y28798D01*
X310636D01*
Y28836D01*
X310598D01*
Y28874D01*
X310560D01*
Y28912D01*
X310522D01*
Y29026D01*
X310484D01*
Y29064D01*
X310446D01*
Y29102D01*
X310408D01*
Y29140D01*
X310370D01*
Y29178D01*
X310332D01*
Y29216D01*
X310294D01*
Y29254D01*
X310256D01*
Y29292D01*
X310217D01*
Y29330D01*
X310179D01*
Y29368D01*
X310141D01*
Y29406D01*
X310103D01*
Y29445D01*
X310065D01*
Y29483D01*
X310027D01*
Y29521D01*
X309989D01*
Y29559D01*
X309951D01*
Y29597D01*
X309913D01*
Y29635D01*
X309875D01*
Y29673D01*
X309837D01*
Y29711D01*
X309799D01*
Y29749D01*
X309761D01*
Y29787D01*
X309723D01*
Y29825D01*
X309685D01*
Y29863D01*
X309647D01*
Y29901D01*
X309609D01*
Y29939D01*
X309571D01*
Y29977D01*
X309532D01*
Y30015D01*
X309456D01*
Y30130D01*
X309418D01*
Y30168D01*
X309380D01*
Y30206D01*
X309342D01*
Y30244D01*
X309304D01*
Y30282D01*
X309266D01*
Y30320D01*
X309228D01*
Y30358D01*
X309190D01*
Y30396D01*
X309152D01*
Y30434D01*
X309114D01*
Y30472D01*
X309076D01*
Y30510D01*
X309038D01*
Y30548D01*
X309000D01*
Y30586D01*
X308962D01*
Y30624D01*
X308924D01*
Y30662D01*
X308886D01*
Y30700D01*
X308848D01*
Y30738D01*
X308809D01*
Y30777D01*
X308771D01*
Y30814D01*
X308733D01*
Y30853D01*
X308695D01*
Y30891D01*
X308657D01*
Y30929D01*
X308619D01*
Y30967D01*
X308581D01*
Y31005D01*
X308543D01*
Y31043D01*
X308505D01*
Y31157D01*
X308467D01*
Y31195D01*
X308429D01*
Y31233D01*
X308391D01*
Y31271D01*
X308353D01*
Y31309D01*
X308315D01*
Y31347D01*
X308277D01*
Y31385D01*
X308239D01*
Y31423D01*
X308201D01*
Y31462D01*
X308163D01*
Y31499D01*
X308124D01*
Y31538D01*
X308086D01*
Y31576D01*
X308048D01*
Y31614D01*
X308010D01*
Y31652D01*
X307972D01*
Y31690D01*
X307934D01*
Y31728D01*
X307896D01*
Y31766D01*
X307858D01*
Y31804D01*
X307820D01*
Y31842D01*
X307782D01*
Y31880D01*
X307744D01*
Y31918D01*
X307706D01*
Y31956D01*
X307668D01*
Y31994D01*
X307630D01*
Y32032D01*
X307592D01*
Y32070D01*
X307554D01*
Y32108D01*
X307516D01*
Y32184D01*
X307478D01*
Y32223D01*
X307439D01*
Y32261D01*
X307401D01*
Y32299D01*
X307363D01*
Y32337D01*
X307325D01*
Y32375D01*
X307287D01*
Y32451D01*
X307211D01*
Y32489D01*
X307173D01*
Y32527D01*
X307135D01*
Y32565D01*
X307097D01*
Y32603D01*
X307059D01*
Y32641D01*
X307021D01*
Y32679D01*
X306983D01*
Y32755D01*
X306907D01*
Y32793D01*
X306869D01*
Y32831D01*
X306831D01*
Y32869D01*
X306792D01*
Y32908D01*
X306754D01*
Y32946D01*
X306716D01*
Y32984D01*
X306678D01*
Y33060D01*
X306602D01*
Y33098D01*
X306564D01*
Y33212D01*
X306526D01*
Y33250D01*
X306488D01*
Y33288D01*
X306450D01*
Y33326D01*
X306412D01*
Y33364D01*
X306374D01*
Y33402D01*
X306336D01*
Y33440D01*
X306298D01*
Y33478D01*
X306260D01*
Y33516D01*
X306222D01*
Y33555D01*
X306184D01*
Y33593D01*
X306146D01*
Y33631D01*
X306108D01*
Y33669D01*
X306069D01*
Y33707D01*
X306031D01*
Y33745D01*
X305993D01*
Y33783D01*
X305955D01*
Y33821D01*
X305917D01*
Y33859D01*
X305879D01*
Y33897D01*
X305841D01*
Y33935D01*
X305803D01*
Y33973D01*
X305765D01*
Y34011D01*
X305727D01*
Y34049D01*
X305689D01*
Y34087D01*
X305651D01*
Y34125D01*
X305613D01*
Y34163D01*
X305575D01*
Y34278D01*
X305537D01*
Y34316D01*
X305499D01*
Y34354D01*
X305461D01*
Y34392D01*
X305423D01*
Y34430D01*
X305384D01*
Y34468D01*
X305346D01*
Y34506D01*
X305308D01*
Y34544D01*
X305270D01*
Y34582D01*
X305232D01*
Y34620D01*
X305194D01*
Y34658D01*
X305156D01*
Y34696D01*
X305118D01*
Y34734D01*
X305080D01*
Y34772D01*
X305042D01*
Y34810D01*
X305004D01*
Y34848D01*
X304966D01*
Y34887D01*
X304928D01*
Y34925D01*
X304890D01*
Y34963D01*
X304852D01*
Y35001D01*
X304814D01*
Y35039D01*
X304776D01*
Y35077D01*
X304738D01*
Y35115D01*
D02*
G37*
%LPD*%
G36*
X298116Y56045D02*
X298154D01*
Y56007D01*
X298268D01*
Y55969D01*
X298306D01*
Y55931D01*
X298382D01*
Y55893D01*
X298420D01*
Y55855D01*
X298458D01*
Y55817D01*
X298497D01*
Y55779D01*
X298534D01*
Y55741D01*
X298573D01*
Y55512D01*
X298497D01*
Y55398D01*
X298382D01*
Y55360D01*
X298344D01*
Y55284D01*
X298268D01*
Y55208D01*
X298154D01*
Y55170D01*
X298116D01*
Y55132D01*
X298078D01*
Y55094D01*
X297964D01*
Y55056D01*
X297926D01*
Y55018D01*
X297849D01*
Y54980D01*
X297545D01*
Y55018D01*
X297507D01*
Y55056D01*
X297469D01*
Y55094D01*
X297431D01*
Y55132D01*
X297393D01*
Y55170D01*
X297431D01*
Y55208D01*
X297469D01*
Y55893D01*
X297545D01*
Y55931D01*
X297583D01*
Y55969D01*
X297621D01*
Y56007D01*
X297697D01*
Y56045D01*
X297735D01*
Y56083D01*
X298116D01*
Y56045D01*
D02*
G37*
D10*
X301487Y183836D02*
G03*
X303572Y190198I-8665J6363D01*
G01*
Y190198D02*
G03*
X283912Y184184I-10750J0D01*
G01*
X302666Y123112D02*
G03*
X283006Y117097I-10750J0D01*
G01*
X300581Y116749D02*
G03*
X302666Y123112I-8665J6363D01*
G01*
X300581Y252576D02*
G03*
X302666Y258939I-8665J6363D01*
G01*
Y258939D02*
G03*
X283006Y252924I-10750J0D01*
G01*
X232187Y163073D02*
Y171573D01*
X251187D01*
Y163073D02*
Y171573D01*
X232187Y163073D02*
X251187D01*
X172537Y164823D02*
Y169823D01*
X169537Y167323D02*
X172537Y166823D01*
X169537Y167323D02*
X172537Y166323D01*
X169537Y167323D02*
X172537Y165823D01*
X169537Y167323D02*
X172537Y165323D01*
X169537Y167323D02*
X172537Y164823D01*
X169537Y167323D02*
X172537Y167823D01*
X169537Y167323D02*
X172537Y168323D01*
X169537Y167323D02*
X172537Y168823D01*
X169537Y167323D02*
X172537Y169323D01*
X169537Y167323D02*
X172537Y169823D01*
X169537Y164823D02*
Y169823D01*
X168537Y167323D02*
X173537D01*
X170732Y97342D02*
X175732D01*
X171732Y94841D02*
Y99841D01*
Y97342D02*
X174732Y99841D01*
X171732Y97342D02*
X174732Y99341D01*
X171732Y97342D02*
X174732Y98842D01*
X171732Y97342D02*
X174732Y98342D01*
X171732Y97342D02*
X174732Y97842D01*
X171732Y97342D02*
X174732Y94841D01*
X171732Y97342D02*
X174732Y95341D01*
X171732Y97342D02*
X174732Y95841D01*
X171732Y97342D02*
X174732Y96342D01*
X171732Y97342D02*
X174732Y96842D01*
Y94841D02*
Y99841D01*
X234382Y93091D02*
X253382D01*
Y101592D01*
X234382D02*
X253382D01*
X234382Y93091D02*
Y101592D01*
X232187Y231971D02*
Y240471D01*
X251187D01*
Y231971D02*
Y240471D01*
X232187Y231971D02*
X251187D01*
X172537Y233720D02*
Y238720D01*
X169537Y236221D02*
X172537Y235720D01*
X169537Y236221D02*
X172537Y235221D01*
X169537Y236221D02*
X172537Y234720D01*
X169537Y236221D02*
X172537Y234221D01*
X169537Y236221D02*
X172537Y233720D01*
X169537Y236221D02*
X172537Y236720D01*
X169537Y236221D02*
X172537Y237221D01*
X169537Y236221D02*
X172537Y237720D01*
X169537Y236221D02*
X172537Y238221D01*
X169537Y236221D02*
X172537Y238720D01*
X169537Y233720D02*
Y238720D01*
X168537Y236221D02*
X173537D01*
X63294Y307648D02*
X81994D01*
X63294Y328748D02*
X81994D01*
X63485Y295983D02*
X82185D01*
X63485Y274883D02*
X82185D01*
X291732Y183448D02*
X294325D01*
X290826Y116362D02*
X293420D01*
X290826Y252188D02*
X293420D01*
D11*
X67520Y353937D02*
X78150D01*
X67520Y346850D02*
X80945D01*
X130868Y78343D02*
Y87398D01*
Y46675D02*
Y55730D01*
X118351Y106167D02*
Y161909D01*
X4024Y106167D02*
X118351D01*
X4024D02*
Y161909D01*
X118351D01*
X4051Y234409D02*
X89331D01*
X4051Y179291D02*
X118351D01*
X89331Y234409D02*
X118351D01*
X4051Y179291D02*
Y234409D01*
X118351Y179291D02*
Y234409D01*
Y33622D02*
Y88740D01*
X4051Y33622D02*
Y88740D01*
X89331D02*
X118351D01*
X4051Y33622D02*
X118351D01*
X4051Y88740D02*
X89331D01*
X269882Y370910D02*
Y379965D01*
Y333917D02*
Y342973D01*
X94470Y328980D02*
X98604D01*
X94468Y296364D02*
X98602D01*
X47244Y295177D02*
Y299311D01*
X53051Y336614D02*
X57185D01*
X125886Y251969D02*
X130020D01*
X320768Y194685D02*
X324902D01*
X320768Y124016D02*
X324902D01*
X320768Y260322D02*
X324902D01*
D12*
X184081Y199135D02*
X261641D01*
Y179135D02*
Y199135D01*
X184081Y179135D02*
X261641D01*
X184081D02*
Y199135D01*
X184240Y131053D02*
X261800D01*
Y111053D02*
Y131053D01*
X184240Y111053D02*
X261800D01*
X184240D02*
Y131053D01*
X184081Y270002D02*
X261641D01*
Y250002D02*
Y270002D01*
X184081Y250002D02*
X261641D01*
X184081D02*
Y270002D01*
D13*
X158480Y28528D02*
Y22530D01*
X161479D01*
X162479Y23529D01*
Y27528D01*
X161479Y28528D01*
X158480D01*
X164478D02*
X166478D01*
X165478D01*
Y22530D01*
X164478D01*
X166478D01*
X173476Y27528D02*
X172476Y28528D01*
X170476D01*
X169477Y27528D01*
Y23529D01*
X170476Y22530D01*
X172476D01*
X173476Y23529D01*
Y25528D01*
X171476D01*
X175475Y28528D02*
X177474D01*
X176474D01*
Y22530D01*
X175475D01*
X177474D01*
X180473Y28528D02*
X184472D01*
X182473D01*
Y22530D01*
X186471D02*
Y26528D01*
X188471Y28528D01*
X190470Y26528D01*
Y22530D01*
Y25528D01*
X186471D01*
X192469Y28528D02*
Y22530D01*
X196468D01*
X158480Y12932D02*
Y18930D01*
X161479D01*
X162479Y17930D01*
Y15931D01*
X161479Y14931D01*
X158480D01*
X164478Y18930D02*
Y14931D01*
X166478Y12932D01*
X168477Y14931D01*
Y18930D01*
X176474D02*
Y12932D01*
X180473D01*
X185472Y18930D02*
X183472D01*
X182473Y17930D01*
Y13931D01*
X183472Y12932D01*
X185472D01*
X186471Y13931D01*
Y17930D01*
X185472Y18930D01*
X188471Y12932D02*
Y16930D01*
X190470Y18930D01*
X192469Y16930D01*
Y12932D01*
Y15931D01*
X188471D01*
X194469Y18930D02*
Y12932D01*
X197468D01*
X198467Y13931D01*
Y17930D01*
X197468Y18930D01*
X194469D01*
X4937Y91427D02*
Y97425D01*
X7936D01*
X8936Y96425D01*
Y94426D01*
X7936Y93427D01*
X4937D01*
X13934Y97425D02*
X11935D01*
X10935Y96425D01*
Y92427D01*
X11935Y91427D01*
X13934D01*
X14934Y92427D01*
Y96425D01*
X13934Y97425D01*
X16933D02*
Y91427D01*
X18933Y93427D01*
X20932Y91427D01*
Y97425D01*
X26930D02*
X22931D01*
Y91427D01*
X26930D01*
X22931Y94426D02*
X24930D01*
X28929Y91427D02*
Y97425D01*
X31928D01*
X32928Y96425D01*
Y94426D01*
X31928Y93427D01*
X28929D01*
X30929D02*
X32928Y91427D01*
X44924D02*
X40925D01*
X44924Y95426D01*
Y96425D01*
X43924Y97425D01*
X41925D01*
X40925Y96425D01*
X49922Y91427D02*
Y97425D01*
X46923Y94426D01*
X50922D01*
X52921Y97425D02*
Y93427D01*
X54921Y91427D01*
X56920Y93427D01*
Y97425D01*
X68916D02*
X64918D01*
Y94426D01*
X66917D01*
X64918D01*
Y91427D01*
X70916Y97425D02*
X72915D01*
X71915D01*
Y91427D01*
X70916D01*
X72915D01*
X75914D02*
Y97425D01*
X78913D01*
X79913Y96425D01*
Y94426D01*
X78913Y93427D01*
X75914D01*
X77913D02*
X79913Y91427D01*
X85911Y96425D02*
X84911Y97425D01*
X82912D01*
X81912Y96425D01*
Y95426D01*
X82912Y94426D01*
X84911D01*
X85911Y93427D01*
Y92427D01*
X84911Y91427D01*
X82912D01*
X81912Y92427D01*
X87910Y97425D02*
X91909D01*
X89909D01*
Y91427D01*
X308055Y302181D02*
X306056D01*
X307055D01*
Y308179D01*
X308055D01*
X306056D01*
X303057D02*
Y302181D01*
X301057Y304181D01*
X299058Y302181D01*
Y308179D01*
X297059D02*
Y302181D01*
X294060D01*
X293060Y303181D01*
Y305180D01*
X294060Y306180D01*
X297059D01*
X288062Y302181D02*
X290061D01*
X291061Y303181D01*
Y307179D01*
X290061Y308179D01*
X288062D01*
X287062Y307179D01*
Y303181D01*
X288062Y302181D01*
X285063Y308179D02*
Y302181D01*
X282064D01*
X281064Y303181D01*
Y305180D01*
X282064Y306180D01*
X285063D01*
X283063D02*
X281064Y308179D01*
X279064Y302181D02*
X275066D01*
X277065D01*
Y308179D01*
X273066D02*
Y304181D01*
X271067Y302181D01*
X269068Y304181D01*
Y308179D01*
Y305180D01*
X273066D01*
X267068Y308179D02*
Y302181D01*
X263070Y308179D01*
Y302181D01*
X261070D02*
X257072D01*
X259071D01*
Y308179D01*
X255072Y304181D02*
X254073D01*
Y305180D01*
X255072D01*
Y304181D01*
Y307179D02*
X254073D01*
Y308179D01*
X255072D01*
Y307179D01*
X244076Y308179D02*
Y302181D01*
X241077D01*
X240077Y303181D01*
Y305180D01*
X241077Y306180D01*
X244076D01*
X235079Y302181D02*
X237078D01*
X238078Y303181D01*
Y307179D01*
X237078Y308179D01*
X235079D01*
X234079Y307179D01*
Y303181D01*
X235079Y302181D01*
X232080D02*
Y308179D01*
X230080Y306180D01*
X228081Y308179D01*
Y302181D01*
X222083D02*
X226082D01*
Y308179D01*
X222083D01*
X226082Y305180D02*
X224082D01*
X220084Y308179D02*
Y302181D01*
X217085D01*
X216085Y303181D01*
Y305180D01*
X217085Y306180D01*
X220084D01*
X218084D02*
X216085Y308179D01*
X204089Y302181D02*
X208087D01*
Y305180D01*
X206088Y304181D01*
X205088D01*
X204089Y305180D01*
Y307179D01*
X205088Y308179D01*
X207088D01*
X208087Y307179D01*
X202089Y302181D02*
Y306180D01*
X200090Y308179D01*
X198091Y306180D01*
Y302181D01*
X190093Y308179D02*
Y304181D01*
X188094Y302181D01*
X186095Y304181D01*
Y308179D01*
Y305180D01*
X190093D01*
X180096Y302181D02*
X184095D01*
Y305180D01*
X182096D01*
X184095D01*
Y308179D01*
X178097Y302181D02*
X174099D01*
X176098D01*
Y308179D01*
X168100Y302181D02*
X172099D01*
Y308179D01*
X168100D01*
X172099Y305180D02*
X170100D01*
X166101Y308179D02*
Y302181D01*
X163102D01*
X162102Y303181D01*
Y305180D01*
X163102Y306180D01*
X166101D01*
X164102D02*
X162102Y308179D01*
X150106D02*
X154105D01*
X150106Y304181D01*
Y303181D01*
X151106Y302181D01*
X153105D01*
X154105Y303181D01*
X145108Y308179D02*
Y302181D01*
X148107Y305180D01*
X144108D01*
X142109Y302181D02*
Y306180D01*
X140109Y308179D01*
X138110Y306180D01*
Y302181D01*
X158480Y75772D02*
X160480D01*
X159480D01*
Y69774D01*
X158480D01*
X160480D01*
X163479D02*
Y75772D01*
X165478Y73772D01*
X167477Y75772D01*
Y69774D01*
X169477D02*
Y75772D01*
X172476D01*
X173476Y74772D01*
Y72773D01*
X172476Y71773D01*
X169477D01*
X178474Y75772D02*
X176474D01*
X175475Y74772D01*
Y70773D01*
X176474Y69774D01*
X178474D01*
X179473Y70773D01*
Y74772D01*
X178474Y75772D01*
X181473Y69774D02*
Y75772D01*
X184472D01*
X185472Y74772D01*
Y72773D01*
X184472Y71773D01*
X181473D01*
X183472D02*
X185472Y69774D01*
X187471Y75772D02*
X191470D01*
X189470D01*
Y69774D01*
X193469D02*
Y73772D01*
X195468Y75772D01*
X197468Y73772D01*
Y69774D01*
Y72773D01*
X193469D01*
X199467Y69774D02*
Y75772D01*
X203466Y69774D01*
Y75772D01*
X205465D02*
X209464D01*
X207465D01*
Y69774D01*
X211463Y73772D02*
X212463D01*
Y72773D01*
X211463D01*
Y73772D01*
Y70773D02*
X212463D01*
Y69774D01*
X211463D01*
Y70773D01*
X222460Y69774D02*
Y75772D01*
X225459D01*
X226458Y74772D01*
Y72773D01*
X225459Y71773D01*
X222460D01*
X228458Y75772D02*
Y69774D01*
X232456D01*
X234456Y75772D02*
Y70773D01*
X235455Y69774D01*
X237455D01*
X238454Y70773D01*
Y75772D01*
X244453Y74772D02*
X243453Y75772D01*
X241454D01*
X240454Y74772D01*
Y70773D01*
X241454Y69774D01*
X243453D01*
X244453Y70773D01*
Y72773D01*
X242453D01*
X252450Y75772D02*
X254449D01*
X253450D01*
Y69774D01*
X252450D01*
X254449D01*
X257448D02*
Y75772D01*
X261447Y69774D01*
Y75772D01*
X158480Y63175D02*
X162479D01*
X160480Y65174D02*
Y61176D01*
X168477Y60176D02*
X164478D01*
X168477Y64175D01*
Y65174D01*
X167477Y66174D01*
X165478D01*
X164478Y65174D01*
X173476Y60176D02*
Y66174D01*
X170476Y63175D01*
X174475D01*
X176474Y66174D02*
Y62175D01*
X178474Y60176D01*
X180473Y62175D01*
Y66174D01*
X188471D02*
Y60176D01*
X191470D01*
X192469Y61176D01*
Y62175D01*
X191470Y63175D01*
X188471D01*
X191470D01*
X192469Y64175D01*
Y65174D01*
X191470Y66174D01*
X188471D01*
X198467D02*
X194469D01*
Y60176D01*
X198467D01*
X194469Y63175D02*
X196468D01*
X204465Y66174D02*
X200467D01*
Y63175D01*
X202466D01*
X200467D01*
Y60176D01*
X209464Y66174D02*
X207465D01*
X206465Y65174D01*
Y61176D01*
X207465Y60176D01*
X209464D01*
X210464Y61176D01*
Y65174D01*
X209464Y66174D01*
X212463Y60176D02*
Y66174D01*
X215462D01*
X216462Y65174D01*
Y63175D01*
X215462Y62175D01*
X212463D01*
X214462D02*
X216462Y60176D01*
X222460Y66174D02*
X218461D01*
Y60176D01*
X222460D01*
X218461Y63175D02*
X220460D01*
X230457D02*
X234456D01*
X232456Y65174D02*
Y61176D01*
X240454Y66174D02*
X236455D01*
Y63175D01*
X238454Y64175D01*
X239454D01*
X240454Y63175D01*
Y61176D01*
X239454Y60176D01*
X237455D01*
X236455Y61176D01*
X242453Y66174D02*
Y62175D01*
X244453Y60176D01*
X246452Y62175D01*
Y66174D01*
X67519Y362844D02*
Y356846D01*
X70518D01*
X71517Y357846D01*
Y361844D01*
X70518Y362844D01*
X67519D01*
X76516Y356846D02*
Y362844D01*
X73517Y359845D01*
X77516D01*
X127203Y136409D02*
X126204Y137409D01*
X124204D01*
X123205Y136409D01*
Y132411D01*
X124204Y131411D01*
X126204D01*
X127203Y132411D01*
Y134410D01*
X125204D01*
X129203Y131411D02*
Y137409D01*
X133202Y131411D01*
Y137409D01*
X135201D02*
Y131411D01*
X138200D01*
X139199Y132411D01*
Y136409D01*
X138200Y137409D01*
X135201D01*
X121079Y203756D02*
Y209754D01*
X124078D01*
X125077Y208754D01*
Y206755D01*
X124078Y205755D01*
X121079D01*
X127077Y209754D02*
Y205755D01*
X129076Y203756D01*
X131076Y205755D01*
Y209754D01*
X133075Y206755D02*
X137074D01*
X135074Y208754D02*
Y204756D01*
X121079Y67881D02*
X125077D01*
X123078Y69880D02*
Y65882D01*
X131076Y64882D02*
X127077D01*
X131076Y68881D01*
Y69880D01*
X130076Y70880D01*
X128077D01*
X127077Y69880D01*
X136074Y64882D02*
Y70880D01*
X133075Y67881D01*
X137074D01*
X139073Y70880D02*
Y66881D01*
X141072Y64882D01*
X143072Y66881D01*
Y70880D01*
X158480Y42339D02*
Y46337D01*
X160480Y48337D01*
X162479Y46337D01*
Y42339D01*
Y45338D01*
X158480D01*
X164478Y42339D02*
Y48337D01*
X167477D01*
X168477Y47337D01*
Y45338D01*
X167477Y44338D01*
X164478D01*
X166478D02*
X168477Y42339D01*
X170476Y48337D02*
X172476D01*
X171476D01*
Y42339D01*
X170476D01*
X172476D01*
X175475D02*
Y46337D01*
X177474Y48337D01*
X179473Y46337D01*
Y42339D01*
Y45338D01*
X175475D01*
X187471Y48337D02*
X191470D01*
Y47337D01*
X187471Y43338D01*
Y42339D01*
X191470D01*
X193469D02*
Y46337D01*
X195468Y48337D01*
X197468Y46337D01*
Y42339D01*
Y45338D01*
X193469D01*
X199467Y48337D02*
Y42339D01*
X202466D01*
X203466Y43338D01*
Y47337D01*
X202466Y48337D01*
X199467D01*
X209464D02*
X205465D01*
Y42339D01*
X209464D01*
X205465Y45338D02*
X207465D01*
X211463Y48337D02*
Y42339D01*
Y45338D01*
X215462D01*
Y48337D01*
Y42339D01*
X223459Y47337D02*
X224459Y48337D01*
X226458D01*
X227458Y47337D01*
Y46337D01*
X226458Y45338D01*
X227458Y44338D01*
Y43338D01*
X226458Y42339D01*
X224459D01*
X223459Y43338D01*
Y44338D01*
X224459Y45338D01*
X223459Y46337D01*
Y47337D01*
X224459Y45338D02*
X226458D01*
X229457Y42339D02*
X233456Y46337D01*
X239454Y48337D02*
X237455Y47337D01*
X235455Y45338D01*
Y43338D01*
X236455Y42339D01*
X238454D01*
X239454Y43338D01*
Y44338D01*
X238454Y45338D01*
X235455D01*
X241454Y42339D02*
X245452Y46337D01*
X251450Y42339D02*
X247451D01*
X251450Y46337D01*
Y47337D01*
X250451Y48337D01*
X248451D01*
X247451Y47337D01*
X253450D02*
X254449Y48337D01*
X256449D01*
X257448Y47337D01*
Y43338D01*
X256449Y42339D01*
X254449D01*
X253450Y43338D01*
Y47337D01*
X263446Y42339D02*
X259448D01*
X263446Y46337D01*
Y47337D01*
X262447Y48337D01*
X260447D01*
X259448Y47337D01*
X269444Y48337D02*
X267445Y47337D01*
X265446Y45338D01*
Y43338D01*
X266445Y42339D01*
X268445D01*
X269444Y43338D01*
Y44338D01*
X268445Y45338D01*
X265446D01*
X129565Y42584D02*
X128566Y43583D01*
X126566D01*
X125567Y42584D01*
Y38585D01*
X126566Y37585D01*
X128566D01*
X129565Y38585D01*
X135563Y43583D02*
X131565D01*
Y40584D01*
X133564Y41584D01*
X134564D01*
X135563Y40584D01*
Y38585D01*
X134564Y37585D01*
X132564D01*
X131565Y38585D01*
X268705Y329654D02*
X267706Y330653D01*
X265706D01*
X264707Y329654D01*
Y325655D01*
X265706Y324655D01*
X267706D01*
X268705Y325655D01*
X270705Y329654D02*
X271704Y330653D01*
X273704D01*
X274703Y329654D01*
Y328654D01*
X273704Y327654D01*
X274703Y326654D01*
Y325655D01*
X273704Y324655D01*
X271704D01*
X270705Y325655D01*
Y326654D01*
X271704Y327654D01*
X270705Y328654D01*
Y329654D01*
X271704Y327654D02*
X273704D01*
X129281Y95082D02*
X128281Y96081D01*
X126281D01*
X125282Y95082D01*
Y91083D01*
X126281Y90083D01*
X128281D01*
X129281Y91083D01*
X131280Y96081D02*
X135279D01*
Y95082D01*
X131280Y91083D01*
Y90083D01*
X268563Y366614D02*
X267563Y367614D01*
X265564D01*
X264564Y366614D01*
Y362615D01*
X265564Y361616D01*
X267563D01*
X268563Y362615D01*
X274561Y367614D02*
X272562Y366614D01*
X270562Y364615D01*
Y362615D01*
X271562Y361616D01*
X273561D01*
X274561Y362615D01*
Y363615D01*
X273561Y364615D01*
X270562D01*
X123954Y260781D02*
Y266779D01*
X126953D01*
X127953Y265779D01*
Y263779D01*
X126953Y262780D01*
X123954D01*
X125953D02*
X127953Y260781D01*
X129952D02*
X131951D01*
X130952D01*
Y266779D01*
X129952Y265779D01*
X67953Y271092D02*
Y266094D01*
X68953Y265094D01*
X70952D01*
X71952Y266094D01*
Y271092D01*
X77950Y265094D02*
X73951D01*
X77950Y269093D01*
Y270093D01*
X76950Y271092D01*
X74951D01*
X73951Y270093D01*
X68727Y338463D02*
Y333465D01*
X69727Y332465D01*
X71726D01*
X72726Y333465D01*
Y338463D01*
X74725Y332465D02*
X76725D01*
X75725D01*
Y338463D01*
X74725Y337464D01*
X317955Y246111D02*
Y252109D01*
X320954D01*
X321954Y251109D01*
Y249110D01*
X320954Y248110D01*
X317955D01*
X319954D02*
X321954Y246111D01*
X326952D02*
Y252109D01*
X323953Y249110D01*
X327952D01*
X317836Y109206D02*
Y115204D01*
X320835D01*
X321835Y114204D01*
Y112205D01*
X320835Y111205D01*
X317836D01*
X319836D02*
X321835Y109206D01*
X323834Y114204D02*
X324834Y115204D01*
X326833D01*
X327833Y114204D01*
Y113204D01*
X326833Y112205D01*
X325834D01*
X326833D01*
X327833Y111205D01*
Y110205D01*
X326833Y109206D01*
X324834D01*
X323834Y110205D01*
X317777Y180894D02*
Y186892D01*
X320776D01*
X321776Y185893D01*
Y183893D01*
X320776Y182894D01*
X317777D01*
X319776D02*
X321776Y180894D01*
X327774D02*
X323775D01*
X327774Y184893D01*
Y185893D01*
X326774Y186892D01*
X324775D01*
X323775Y185893D01*
X290339Y273591D02*
Y277590D01*
X289339Y278590D01*
X287340D01*
X286340Y277590D01*
Y273591D01*
X287340Y272591D01*
X289339D01*
X288340Y274591D02*
X290339Y272591D01*
X289339D02*
X290339Y273591D01*
X292338Y277590D02*
X293338Y278590D01*
X295337D01*
X296337Y277590D01*
Y276590D01*
X295337Y275590D01*
X294338D01*
X295337D01*
X296337Y274591D01*
Y273591D01*
X295337Y272591D01*
X293338D01*
X292338Y273591D01*
X290339Y137764D02*
Y141763D01*
X289339Y142763D01*
X287340D01*
X286340Y141763D01*
Y137764D01*
X287340Y136765D01*
X289339D01*
X288340Y138764D02*
X290339Y136765D01*
X289339D02*
X290339Y137764D01*
X296337Y136765D02*
X292338D01*
X296337Y140763D01*
Y141763D01*
X295337Y142763D01*
X293338D01*
X292338Y141763D01*
X293307Y204694D02*
Y208692D01*
X292307Y209692D01*
X290308D01*
X289308Y208692D01*
Y204694D01*
X290308Y203694D01*
X292307D01*
X291308Y205693D02*
X293307Y203694D01*
X292307D02*
X293307Y204694D01*
X295306Y203694D02*
X297306D01*
X296306D01*
Y209692D01*
X295306Y208692D01*
X169210Y258431D02*
Y252432D01*
Y254432D01*
X173208Y258431D01*
X170209Y255432D01*
X173208Y252432D01*
X175208Y257431D02*
X176207Y258431D01*
X178207D01*
X179206Y257431D01*
Y256431D01*
X178207Y255432D01*
X177207D01*
X178207D01*
X179206Y254432D01*
Y253432D01*
X178207Y252432D01*
X176207D01*
X175208Y253432D01*
X169167Y118658D02*
Y112660D01*
Y114659D01*
X173166Y118658D01*
X170167Y115659D01*
X173166Y112660D01*
X179164D02*
X175165D01*
X179164Y116659D01*
Y117658D01*
X178165Y118658D01*
X176165D01*
X175165Y117658D01*
X168036Y189109D02*
Y183111D01*
Y185110D01*
X172035Y189109D01*
X169036Y186110D01*
X172035Y183111D01*
X174035D02*
X176034D01*
X175034D01*
Y189109D01*
X174035Y188109D01*
X112986Y156645D02*
Y158378D01*
Y157511D01*
X108654D01*
X107788Y158378D01*
Y159244D01*
X108654Y160110D01*
X112120Y154912D02*
X112986Y154045D01*
Y152313D01*
X112120Y151446D01*
X111254D01*
X110387Y152313D01*
Y153179D01*
Y152313D01*
X109521Y151446D01*
X108654D01*
X107788Y152313D01*
Y154045D01*
X108654Y154912D01*
X113295Y83448D02*
Y85181D01*
Y84315D01*
X108963D01*
X108097Y85181D01*
Y86047D01*
X108963Y86914D01*
X108097Y78250D02*
Y81716D01*
X111563Y78250D01*
X112429D01*
X113295Y79116D01*
Y80849D01*
X112429Y81716D01*
X112978Y228135D02*
Y229868D01*
Y229001D01*
X108646D01*
X107779Y229868D01*
Y230734D01*
X108646Y231601D01*
X107779Y226402D02*
Y224670D01*
Y225536D01*
X112978D01*
X112111Y226402D01*
X155594Y239239D02*
Y233241D01*
X158593D01*
X159593Y234241D01*
Y238240D01*
X158593Y239239D01*
X155594D01*
X161592Y238240D02*
X162592Y239239D01*
X164591D01*
X165591Y238240D01*
Y237240D01*
X164591Y236240D01*
X163592D01*
X164591D01*
X165591Y235241D01*
Y234241D01*
X164591Y233241D01*
X162592D01*
X161592Y234241D01*
X157420Y100519D02*
Y94521D01*
X160419D01*
X161418Y95521D01*
Y99519D01*
X160419Y100519D01*
X157420D01*
X167417Y94521D02*
X163418D01*
X167417Y98520D01*
Y99519D01*
X166417Y100519D01*
X164418D01*
X163418Y99519D01*
X157419Y170322D02*
Y164324D01*
X160418D01*
X161417Y165323D01*
Y169322D01*
X160418Y170322D01*
X157419D01*
X163417Y164324D02*
X165416D01*
X164416D01*
Y170322D01*
X163417Y169322D01*
X51617Y350963D02*
X50618Y351962D01*
X48618D01*
X47619Y350963D01*
Y346964D01*
X48618Y345964D01*
X50618D01*
X51617Y346964D01*
X56616Y345964D02*
Y351962D01*
X53617Y348963D01*
X57616D01*
X46101Y306720D02*
X45101Y307719D01*
X43102D01*
X42102Y306720D01*
Y302721D01*
X43102Y301721D01*
X45101D01*
X46101Y302721D01*
X48101Y306720D02*
X49100Y307719D01*
X51099D01*
X52099Y306720D01*
Y305720D01*
X51099Y304720D01*
X50100D01*
X51099D01*
X52099Y303721D01*
Y302721D01*
X51099Y301721D01*
X49100D01*
X48101Y302721D01*
X105299Y299243D02*
X104300Y300243D01*
X102301D01*
X101301Y299243D01*
Y295245D01*
X102301Y294245D01*
X104300D01*
X105299Y295245D01*
X111298Y294245D02*
X107299D01*
X111298Y298244D01*
Y299243D01*
X110298Y300243D01*
X108299D01*
X107299Y299243D01*
X105001Y331844D02*
X104001Y332844D01*
X102002D01*
X101002Y331844D01*
Y327846D01*
X102002Y326846D01*
X104001D01*
X105001Y327846D01*
X107000Y326846D02*
X109000D01*
X108000D01*
Y332844D01*
X107000Y331844D01*
D14*
X222673Y368898D02*
X216770D01*
X218738D01*
X222673Y364962D01*
X219722Y367914D01*
X216770Y364962D01*
Y359058D02*
Y362994D01*
X220705Y359058D01*
X221689D01*
X222673Y360042D01*
Y362010D01*
X221689Y362994D01*
X215786Y357090D02*
Y353155D01*
X222673Y351187D02*
X216770D01*
Y348235D01*
X217754Y347251D01*
X221689D01*
X222673Y348235D01*
Y351187D01*
X216770Y345283D02*
X222673D01*
Y342331D01*
X221689Y341348D01*
X219722D01*
X218738Y342331D01*
Y345283D01*
Y343315D02*
X216770Y341348D01*
X222673Y339380D02*
Y337412D01*
Y338396D01*
X216770D01*
Y339380D01*
Y337412D01*
X222673Y334460D02*
X218738D01*
X216770Y332492D01*
X218738Y330524D01*
X222673D01*
Y324621D02*
Y328556D01*
X216770D01*
Y324621D01*
X219722Y328556D02*
Y326589D01*
X161197Y364962D02*
X162181Y365946D01*
Y367914D01*
X161197Y368898D01*
X160213D01*
X159230Y367914D01*
Y365946D01*
X158246Y364962D01*
X157262D01*
X156278Y365946D01*
Y367914D01*
X157262Y368898D01*
X161197Y359058D02*
X162181Y360042D01*
Y362010D01*
X161197Y362994D01*
X157262D01*
X156278Y362010D01*
Y360042D01*
X157262Y359058D01*
X162181Y357090D02*
X156278D01*
X158246D01*
X162181Y353155D01*
X159230Y356106D01*
X156278Y353155D01*
X249230Y368898D02*
Y364962D01*
X251197Y366930D02*
X247262D01*
X252181Y359058D02*
Y362994D01*
X249230D01*
X250213Y361026D01*
Y360042D01*
X249230Y359058D01*
X247262D01*
X246278Y360042D01*
Y362010D01*
X247262Y362994D01*
X252181Y357090D02*
X248246D01*
X246278Y355123D01*
X248246Y353155D01*
X252181D01*
X171197Y364962D02*
X172181Y365946D01*
Y367914D01*
X171197Y368898D01*
X170213D01*
X169229Y367914D01*
Y365946D01*
X168246Y364962D01*
X167262D01*
X166278Y365946D01*
Y367914D01*
X167262Y368898D01*
X172181Y362994D02*
X166278D01*
Y360042D01*
X167262Y359058D01*
X171197D01*
X172181Y360042D01*
Y362994D01*
Y354139D02*
Y356106D01*
X171197Y357090D01*
X167262D01*
X166278Y356106D01*
Y354139D01*
X167262Y353155D01*
X171197D01*
X172181Y354139D01*
X181197Y364962D02*
X182181Y365946D01*
Y367914D01*
X181197Y368898D01*
X180213D01*
X179229Y367914D01*
Y365946D01*
X178246Y364962D01*
X177262D01*
X176278Y365946D01*
Y367914D01*
X177262Y368898D01*
X182181Y362994D02*
X176278D01*
Y360042D01*
X177262Y359058D01*
X181197D01*
X182181Y360042D01*
Y362994D01*
Y357090D02*
Y355123D01*
Y356106D01*
X176278D01*
Y357090D01*
Y355123D01*
X201689Y364962D02*
X202673Y365946D01*
Y367914D01*
X201689Y368898D01*
X197754D01*
X196770Y367914D01*
Y365946D01*
X197754Y364962D01*
X201689Y359058D02*
X202673Y360042D01*
Y362010D01*
X201689Y362994D01*
X200705D01*
X199722Y362010D01*
Y360042D01*
X198738Y359058D01*
X197754D01*
X196770Y360042D01*
Y362010D01*
X197754Y362994D01*
X195786Y357090D02*
Y353155D01*
X202673Y351187D02*
X197754D01*
X196770Y350203D01*
Y348235D01*
X197754Y347251D01*
X202673D01*
X196770Y341348D02*
Y345283D01*
X200705Y341348D01*
X201689D01*
X202673Y342331D01*
Y344299D01*
X201689Y345283D01*
X212673Y368898D02*
X206770D01*
X208737D01*
X212673Y364962D01*
X209721Y367914D01*
X206770Y364962D01*
X211689Y362994D02*
X212673Y362010D01*
Y360042D01*
X211689Y359058D01*
X210705D01*
X209721Y360042D01*
Y361026D01*
Y360042D01*
X208737Y359058D01*
X207754D01*
X206770Y360042D01*
Y362010D01*
X207754Y362994D01*
X205786Y357090D02*
Y353155D01*
X212673Y351187D02*
X206770D01*
Y348235D01*
X207754Y347251D01*
X211689D01*
X212673Y348235D01*
Y351187D01*
X206770Y345283D02*
X212673D01*
Y342331D01*
X211689Y341348D01*
X209721D01*
X208737Y342331D01*
Y345283D01*
Y343315D02*
X206770Y341348D01*
X212673Y339380D02*
Y337412D01*
Y338396D01*
X206770D01*
Y339380D01*
Y337412D01*
X212673Y334460D02*
X208737D01*
X206770Y332492D01*
X208737Y330524D01*
X212673D01*
Y324621D02*
Y328556D01*
X206770D01*
Y324621D01*
X209721Y328556D02*
Y326589D01*
X232673Y368898D02*
X226770D01*
X228737D01*
X232673Y364962D01*
X229721Y367914D01*
X226770Y364962D01*
Y362994D02*
Y361026D01*
Y362010D01*
X232673D01*
X231689Y362994D01*
X225786Y358074D02*
Y354139D01*
X232673Y352171D02*
X226770D01*
Y349219D01*
X227754Y348235D01*
X231689D01*
X232673Y349219D01*
Y352171D01*
X226770Y346267D02*
X232673D01*
Y343315D01*
X231689Y342331D01*
X229721D01*
X228737Y343315D01*
Y346267D01*
Y344299D02*
X226770Y342331D01*
X232673Y340364D02*
Y338396D01*
Y339380D01*
X226770D01*
Y340364D01*
Y338396D01*
X232673Y335444D02*
X228737D01*
X226770Y333476D01*
X228737Y331508D01*
X232673D01*
Y325605D02*
Y329540D01*
X226770D01*
Y325605D01*
X229721Y329540D02*
Y327572D01*
X191689Y364962D02*
X192673Y365946D01*
Y367914D01*
X191689Y368898D01*
X187754D01*
X186770Y367914D01*
Y365946D01*
X187754Y364962D01*
X191689Y359058D02*
X192673Y360042D01*
Y362010D01*
X191689Y362994D01*
X190705D01*
X189722Y362010D01*
Y360042D01*
X188737Y359058D01*
X187754D01*
X186770Y360042D01*
Y362010D01*
X187754Y362994D01*
X185786Y357090D02*
Y353155D01*
X192673Y351187D02*
X187754D01*
X186770Y350203D01*
Y348235D01*
X187754Y347251D01*
X192673D01*
X186770Y345283D02*
Y343315D01*
Y344299D01*
X192673D01*
X191689Y345283D01*
X241197Y364962D02*
X242181Y365946D01*
Y367914D01*
X241197Y368898D01*
X237262D01*
X236278Y367914D01*
Y365946D01*
X237262Y364962D01*
X239229D01*
Y366930D01*
X236278Y362994D02*
X242181D01*
X236278Y359058D01*
X242181D01*
Y357090D02*
X236278D01*
Y354139D01*
X237262Y353155D01*
X241197D01*
X242181Y354139D01*
Y357090D01*
D15*
X79998Y343121D02*
X78162Y344957D01*
X79998D02*
X78162Y343121D01*
X79998Y344039D02*
X78162D01*
X79080Y344957D02*
Y343121D01*
D16*
X18512Y197882D02*
Y215876D01*
X27509D01*
X30508Y212877D01*
Y206879D01*
X27509Y203880D01*
X18512D01*
X36506Y215876D02*
Y203880D01*
X42504Y197882D01*
X48502Y203880D01*
Y215876D01*
X54500Y206879D02*
X66496D01*
X60498Y212877D02*
Y200881D01*
X28776Y140042D02*
X25777Y143041D01*
X19779D01*
X16780Y140042D01*
Y128046D01*
X19779Y125047D01*
X25777D01*
X28776Y128046D01*
Y134044D01*
X22778D01*
X34774Y125047D02*
Y143041D01*
X46770Y125047D01*
Y143041D01*
X52768D02*
Y125047D01*
X61765D01*
X64764Y128046D01*
Y140042D01*
X61765Y143041D01*
X52768D01*
X10874Y59241D02*
X22870D01*
X16872Y65239D02*
Y53243D01*
X40864Y50244D02*
X28868D01*
X40864Y62240D01*
Y65239D01*
X37865Y68238D01*
X31867D01*
X28868Y65239D01*
X55860Y50244D02*
Y68238D01*
X46862Y59241D01*
X58859D01*
X64857Y68238D02*
Y56242D01*
X70855Y50244D01*
X76853Y56242D01*
Y68238D01*
D17*
X58848Y330630D02*
X61514Y327965D01*
X58848D02*
X61514Y330630D01*
X58848Y329297D02*
X61514D01*
X60181Y327965D02*
Y330630D01*
X59039Y297866D02*
X61705Y295200D01*
X59039D02*
X61705Y297866D01*
X59039Y296533D02*
X61705D01*
X60372Y295200D02*
Y297866D01*
D18*
X281651Y182815D02*
X284317Y180149D01*
X281651D02*
X284317Y182815D01*
X281651Y181482D02*
X284317D01*
X282984Y180149D02*
Y182815D01*
X280746Y115728D02*
X283411Y113062D01*
X280746D02*
X283411Y115728D01*
X280746Y114395D02*
X283411D01*
X282079Y113062D02*
Y115728D01*
X280746Y251555D02*
X283411Y248889D01*
X280746D02*
X283411Y251555D01*
X280746Y250222D02*
X283411D01*
X282079Y248889D02*
Y251555D01*
X261214Y378898D02*
X257216Y382896D01*
X261214D02*
X257216Y378898D01*
X261214Y380897D02*
X257216D01*
X259215Y382896D02*
Y378898D01*
X170652Y196133D02*
X174650Y192135D01*
X170652D02*
X174650Y196133D01*
X170652Y194134D02*
X174650D01*
X172651Y192135D02*
Y196133D01*
X173986Y127323D02*
X177985Y123325D01*
X173986D02*
X177985Y127323D01*
X173986Y125324D02*
X177985D01*
X175986Y123325D02*
Y127323D01*
X172490Y266919D02*
X176489Y262920D01*
X172490D02*
X176489Y266919D01*
X172490Y264919D02*
X176489D01*
X174489Y262920D02*
Y266919D01*
M02*
