M48
;Layer_Color=9474304
;FILE_FORMAT=2:5
INCH,TZ
;TYPE=PLATED
T01F00S00C0.01181
T02F00S00C0.03100
T03F00S00C0.03150
T04F00S00C0.03200
T05F00S00C0.06693
;TYPE=NON_PLATED
T06F00S00C0.09055
%
T01
X20000Y10000
X30000
X40000
X50000
X55000Y20000
X45000
X35000
X25000
X15000
X10000Y30000
X20000
X30000
X40000
X50000
X45000Y40000
X35000
X25000
X15000
X10000Y50000
X20000
X30000
X40000
X50000
X55000Y40000
X65000
X75000
X85000
X95000
X105000
X115000
X123315Y39674
X133756Y39574
X145000Y40000
X155000
X165000
X175000
X185000
X195000
X205000
X210000Y50000
X200000
X190000
X180000
X170000
X160000
X150000
X141732Y51181
X130000Y50000
Y30000
X120000
X110000
X100000
X90000
X80000
X70000
X60000
X65000Y20000
X75000
X85000
X95000
X105000
X115000
X125000
X135000
X145000
X155000
X165000
X175000
X185000
X195000
X205000
X200000Y10000
X190000
X180000
X170000
X160000
X150000
X140000
X130000
X120000
X110000
X100000
X90000
X80000
X70000
X60000
Y50000
X70000
X80000
X100000
X140000Y30000
X150000
X160000
X170000
X180000
X190000
X200000
X210000
Y10000
X220000
X230000
X240000
X250000
X260000
X270000
X280000
X290000
X300000
X310000
X320000
X325000Y20000
X335000
X330000Y30000
X320000
X310000
X300000
X290000
X280000
X270000
X260000
X250000
X240000
X230000
X220000
X225000Y20000
X235000
X245000
X255000
X265000
X275000
X285000
X295000
X305000
X315000
Y40000
X305000
X295000
X285000
X275000
X265000
X255000
X245000
X235000
X225000
X215000
X220000Y50000
X230000
X240000
X250000
X260000
X270000
X280000
X290000
X300000
X310000
X320000
X330000
X335000Y40000
X325000
X215000Y20000
Y60000
X225000
X235000
X245000
X255000
X265000
X275000
X285000
X295000
X305000
X315000
X325000
X335000
X330000Y70000
X320000
X310000
X300000
X290000
X280000
X270000
X260000
X250000
X240000
X230000
X220000
X225000Y80000
X235000
X245000
X255000
X265000
X275000
X285000
X295000
X305000
X315000
X325000
X335000
X330000Y90000
X320000
X310000
X300000
X290000
X280000
X270000
X260000
X250000
X240000
X230000
X220000
X215000Y100000
X225000
X235000
X245000
X255000
X265000
X275000
X285000
X295000
X290714Y110602
X300000Y110000
X310000
X319660Y113113
X330000Y110000
X335000Y100000
X325000
X315000
X305000Y120000
X310000Y130000
X300704Y132649
X305000Y140000
X315000
X310000Y150000
X300000
X297244Y143701
X289370Y151575
X280000Y150000
X270000
X260000
X250000
X240000
X230000
X220000
X225000Y160000
X215000
X214567Y173228
X225000Y180000
X220000Y190000
X215000Y200000
X225000
X235000
X240000Y210000
X250000
X255000Y200000
X265000
X275000
X285000
X295000
X305000
X315000
X322835Y204724
X330000Y210000
X335000Y200000
X330000Y190000
X335000Y180000
X324871Y178096
X315000Y180000
X320000Y170000
X310000
X300000
X295000Y180000
X286067Y180122
X275000Y180000
X265000
X269685Y171260
X265000Y160000
X255000
X245000
Y140000
X255000
X265000
X275000
X283465Y141732
X280000Y130000
X270000
X260000
X250000
X240000
X230000
X220000
X225000Y140000
X215000
X225000Y120000
X230000Y110000
X240000
X250000
X260000
X270000
X280000
X275000Y120000
X265000
X245000
X275000Y160000
X285000
X295000
X305000
X315000
X320000Y150000
X330000
X335000Y160000
Y140000
X330000Y130000
X335000Y120000
X310000Y190000
X300000
X290000
X280483Y191047
X270000Y190000
Y210000
X280000
X287402Y210630
X300000Y210000
X310000
X220000
X240000Y190000
X215000Y80000
X205000
X195000
X185000
X175000
X165000
X155000
X145000
X141732Y82677
X141162Y69259
X150000Y70000
X160000
X170000
X180000
X190000
X200000
X210000
X205000Y60000
X195000
X185000
X175000
X165000
X155000
X145000
X135000
X123549Y59789
X115000Y60000
X105000
X95000
X85000
X75000
X65000
X60000Y70000
X70000
X80000
X75000Y80000
X65000
X60000Y90000
X70000
X80000
X90000
X100000
X110000
X105000Y80000
X95000
X85000
Y100000
X75000
X65000
X70000Y110000
X80000
X90000
X100000
X110000
X115000Y100000
X125000
X135000
X145000
X155000
X163771Y97344
X160000Y90000
X150000
Y110000
X160000
X170000
X174715Y101913
X180000Y90000
X200000
X210000
X205000Y100000
X195000
X205000Y120000
X210000Y130000
X200000
X190000
X180000
X170000
X165000Y140000
X155000
X145000
X135000
X125917Y140996
X123333Y149858
X130000Y150000
X140000
X135000Y160000
X125000
X115000
X105000
X95000
X85000
X75000
X65000
X60000Y150000
X70000
X80000
X75000Y140000
X65000
X70000Y130000
X80000
X75000Y120000
X65000
X60000Y110000
Y130000
X100000
Y150000
Y170000
X90000
X80000
X70000
X60000
X65000Y180000
X75000
X70000Y190000
X60000
X65000Y200000
X75000
X70000Y210000
X60000
X100000
X110000
Y190000
X120000
X130000
X140000
X150000
X160000
X165000Y200000
X155000
X145000
X135000
X122761Y199801
X125000Y180000
X135000
X145000
X140000Y170000
X130000
X110000
X105000Y180000
X95000
X100000Y190000
X90000
X115000Y180000
X155512Y173228
X159449Y167323
X155000Y160000
X165000
X175000
X185000
X195000
X205000
X200000Y150000
X190000
X180000
X170000
X160000
X145000Y160000
X140000Y130000
X131295Y129844
X135000Y120000
X125000
X130000Y110000
X140000
X145000Y120000
X155000
X165000
X150000Y130000
X175000Y140000
X185000
X195000
X205000
X210000Y150000
X205000Y180000
X195000
X185000
X175000
X165000
X167323Y173228
X175000Y200000
X185000
X180000Y210000
X170000
X160000
X150000
X140000
X200000
X210000
X205000Y200000
X200000Y190000
X130005Y93021
X131081Y72540
X115626Y80244
X105000Y100000
X95000
X55000
X45000
X35000
X25000
X15000
X10000Y90000
X20000
X30000
X40000
X50000
X45000Y80000
X35000
X25000
X15000
X20000Y70000
X10000
X15000Y60000
X25000
X35000
X45000
X55000
X50000Y70000
X40000
X30000
X55000Y80000
X50000Y110000
X40000
X30000
X20000
X10000
X15000Y120000
X25000
X35000
X45000
X55000
X50000Y130000
X40000
X30000
X20000
X10000
X15000Y140000
X25000
X35000
X45000
X55000
X50000Y150000
X40000
X30000
X20000
X10000
X15000Y160000
X25000
X35000
X45000
X55000
X50000Y170000
X40000
X30000
X20000
X10000
X15000Y180000
X25000
X35000
X45000
X55000
X50000Y190000
X40000
X30000
X20000
X10000
X15000Y200000
X25000
X35000
X45000
X55000
X50000Y210000
X40000
X30000
X20000
X10000
X15000Y220000
X25000
X35000
X45000
X55000
X50000Y230000
X40000
X30000
X20000
X10000
X15000Y240000
X25000
X35000
X45000
X55000
X50000Y250000
X40000
X30000
X20000
X10000
X15000Y260000
X25000
X35000
X45000
X55000
X50000Y270000
X51181Y275590
Y291339
X55000Y300000
X37402Y297244
X40000Y290000
X37402Y283465
X28260Y289153
X20000Y290000
X10000
X15000Y300000
X25000
X20000Y310000
X10000
X15000Y320000
X25000
X35000
X37614Y312992
X41784Y310934
X30000Y310000
Y330000
X20000
X10000
X15000Y340000
X25000
X35000
X30000Y350000
X20000
X10000
X15000Y360000
X25000
X35000
X41339Y352362
X54339Y357402
X55118Y344488
X48238Y337430
X51181Y324803
X40000Y270000
X30000
X20000
X10000
X15000Y280000
X25000
X60000Y270000
X70000
X80000
X90000
X100000
X95000Y260000
X85000
X75000
X65000
X60000Y250000
X70000
X80000
X90000
X100000
X110000
X120000
X115000Y260000
Y280000
X125000
X135000
X145000
X155000
X165000
X175000
X170000Y270000
X160000
X150000
X155000Y260000
X165000
X174424Y260575
X185000Y260000
X180000Y250000
X170000
X160000
X165354Y242126
X153543
X160000Y230000
X170000
X180000
X190000
X200000
X210000
X205000Y240000
X195000
X185000
X190000Y250000
X200000
X210000
X205000Y260000
X210000Y270000
X200000
X190000
X180000
X195000Y280000
X205000
X210000Y290000
X200000
X190000
X185000Y300000
X175000
X165000
X155000
X145000
X135000
X125000
X115000
X112205Y307087
X106647Y313829
X100000Y310000
X96457Y305118
X90000Y310000
X92520Y312992
X88244Y301698
X80801Y302943
X70070Y301938
X61024Y303150
X66852Y341578
X78728Y338775
X86869Y339300
X83942Y334539
X88370Y331279
X96537Y338396
X105000Y339854
X103486Y346535
X94701Y346829
X98350Y352150
X92520Y354331
X86614Y350394
X83295Y346813
X83889Y356955
X61659Y357219
X60000Y350000
X64961Y366142
X110677Y352112
X120000Y350000
X130000
X140000
X150000
X160000
X170000
X180000
X189936Y349217
X200199Y349170
X205000Y341255
X195000
X185000
X175000
X165000
X155000
X145000
X135000
X125000
X115000Y339854
X120000Y330000
X118110Y322835
X125000Y320000
X135000
X145000
X155000
X165000
X175000
X185000
X195000
X205000
X200000Y330000
X190000
X180000
X170000
X160000
X150000
X140000
X130000
Y310000
X140000
X150000
X160000
X170000
X180000
X190000
X200000
X210000
X205000Y300000
X195000
Y360000
X185000
X205000
X110000Y330000
X102430Y321340
X106299Y297244
X102362Y285433
X105000Y280000
X93220Y280335
X92520Y288673
X127953Y289370
X136235Y261235
X139966Y249966
X135000Y240000
X125000
X115000
X105000
X95000
X90000Y230000
X100000
X110844Y231119
X120000Y230000
X120690Y212879
X129239Y213006
X135000Y220000
X145000
X140000Y230000
X185000Y220000
X195000
X205000
X75000
X65000
X70000Y230000
X60000
X65000Y240000
X75000
X215000
X214567Y244094
X220000Y250000
X230000
X240000
X250000
X260000
X270000
X271654Y242126
X278784Y247944
X285000Y240000
X295000
X300000Y230000
X310000
X315000Y240000
X325000
X335000
X330000Y250000
X335000Y260000
X330000Y270000
X335000Y280000
X330000Y290000
X335000Y300000
X330000Y310000
X335000Y320000
X330000Y330000
X325000Y340000
X318898Y336614
X320000Y350000
X330000
X325000Y360000
X315000
X305000
X295000
X285000
X275000
X265000
X244094Y360236
X232844Y358828
X235000Y341255
X245000
X257874Y338583
X260539Y330000
X270000
X280000
X290000
X300000
X310000
X315000Y320000
X305000
X295000
X285000
X275590Y318898
X263779
X260539Y310000
X270000
X280000
X290000
X300000
X310000
X305000Y300000
X315000
X310000Y290000
X300000
X290000
X280000
X270000
X260539
X250000
X240000
X230000
X220000
X215000Y280000
X225000
X235000
X245000
X250000Y270000
X260000
X270000
X280000
X290000
X300000
X310000
X315000Y280000
X305000
X295085Y280592
X285000Y280000
X275000
X265000
Y260000
X275000
X283094Y258996
X295000Y260000
X305000
X315000
X310000Y250000
X315000Y220000
X325000
X335000
X330000Y230000
X305000Y220000
X295000
X285000
X275000
X265000
X255000
X245000
X235000
X230000Y230000
X220000
X215000Y220000
X250000Y230000
X260000
X270000
X280000
X290000
X285000Y300000
X295000
X275000
X265000
X245000
X235000
X225000
X215000
X220000Y310000
X230000
X240000
X250000
X245000Y320000
X235000
X225000
X215000
X214684Y330006
X224785Y331356
X225000Y341255
X215000
X240000Y330000
X250000
X281496Y338583
X287402Y342520
X295000Y340000
X310000Y350000
X335000Y340000
Y360000
X245000Y260000
X225000
X230000Y270000
X220000
X253311Y369503
X260539Y369658
X257750Y375414
X255000Y380000
X245000
X270000Y370000
X280000
X282235Y375376
X285000Y380000
X295000
X305000
X315000
X310000Y370000
X300000
X290000
X320000
X335000Y380000
X205000
X195000
X155000
X145000
X135000
X125000
X115000
X105000
X95000
X85000
X75000
X65000
X60000Y370000
X70000
X80000
X90000
X100000
X110000
X120000
X130000
X140000
X150000
X50000
X40000
X30000
X20000
X25000Y380000
X35000
X45000
X55000
T02
X307982Y97342
X305787Y167323
X177587
X179782Y97342
X177587Y236221
X305787
T03
X213020Y121053
X233020
X253020
X252861Y189135
X232861
X212861
X192861
X193020Y121053
X192861Y260001
X212861
X232861
X252861
T04
X286916Y118112
X296916
X291916Y128112
X287822Y185198
X297822
X292822Y195198
X296916Y253939
X286916
X291916Y263938
T05
X90551Y51181
X110551
Y71181
X90551
Y124016
X110551
Y144016
X90551
Y196850
X110551
Y216850
X90551
T06
X11811Y11811
X328740
Y375984
X11811
M30
