G04*
G04 #@! TF.GenerationSoftware,Altium Limited,Altium Designer,26.8.1 (31)*
G04*
G04 Layer_Color=8421504*
G04 Board_Origin=10000000|10000000*
%FSLAX25Y25*%
%MOIN*%
G70*
G04*
G04 #@! TF.SameCoordinates,21F914C3-012E-473F-99CC-7E58DD77D828*
G04*
G04*
G04 #@! TF.FilePolarity,Positive*
G04*
G01*
G75*
%ADD19R,0.04409X0.05394*%
%ADD20R,0.04803X0.10709*%
%ADD21R,0.05472X0.03583*%
%ADD22R,0.07000X0.01400*%
%ADD23R,0.03583X0.05472*%
%ADD24R,0.05512X0.03740*%
D19*
X66929Y350394D02*
D03*
X78740D02*
D03*
D20*
X275198Y375437D02*
D03*
Y338445D02*
D03*
X136182Y82870D02*
D03*
Y51203D02*
D03*
X125552Y82870D02*
D03*
Y51203D02*
D03*
X264568Y375437D02*
D03*
Y338445D02*
D03*
D21*
X96537Y332208D02*
D03*
X96535Y299592D02*
D03*
X55118Y339843D02*
D03*
X96537Y325751D02*
D03*
X96535Y293136D02*
D03*
X55118Y333386D02*
D03*
D22*
X83944Y313080D02*
D03*
X84135Y287992D02*
D03*
Y282874D02*
D03*
Y280315D02*
D03*
Y277756D02*
D03*
X83944Y315639D02*
D03*
Y310521D02*
D03*
X61344Y313080D02*
D03*
X61535Y280315D02*
D03*
X83944Y325875D02*
D03*
X84135Y293110D02*
D03*
X61344Y325875D02*
D03*
Y323316D02*
D03*
Y320757D02*
D03*
Y318198D02*
D03*
Y315639D02*
D03*
Y310521D02*
D03*
X83944Y318198D02*
D03*
Y320757D02*
D03*
Y323316D02*
D03*
X84135Y290551D02*
D03*
Y285433D02*
D03*
X61535Y277756D02*
D03*
Y282874D02*
D03*
Y285433D02*
D03*
Y287992D02*
D03*
Y290551D02*
D03*
Y293110D02*
D03*
D23*
X44016Y297244D02*
D03*
X50472D02*
D03*
D24*
X127953Y248228D02*
D03*
X322835Y190945D02*
D03*
X127953Y255709D02*
D03*
X322835Y198425D02*
D03*
Y127756D02*
D03*
Y120276D02*
D03*
Y264062D02*
D03*
Y256582D02*
D03*
M02*
