G04*
G04 #@! TF.GenerationSoftware,Altium Limited,Altium Designer,26.8.1 (31)*
G04*
G04 Layer_Color=8388736*
G04 Board_Origin=10000000|10000000*
%FSLAX25Y25*%
%MOIN*%
G70*
G04*
G04 #@! TF.SameCoordinates,21F914C3-012E-473F-99CC-7E58DD77D828*
G04*
G04*
G04 #@! TF.FilePolarity,Negative*
G04*
G01*
G75*
%ADD19R,0.04409X0.05394*%
%ADD20R,0.04803X0.10709*%
%ADD21R,0.05472X0.03583*%
%ADD22R,0.07000X0.01400*%
%ADD23R,0.03583X0.05472*%
%ADD24R,0.05512X0.03740*%
%ADD25R,0.05000X0.16000*%
%ADD26C,0.09055*%
%ADD27R,0.05200X0.05200*%
%ADD28C,0.05118*%
%ADD29C,0.10039*%
%ADD30C,0.05100*%
%ADD31R,0.05100X0.05100*%
%ADD32C,0.05200*%
D19*
X66929Y350394D02*
D03*
X78740D02*
D03*
D20*
X275198Y375437D02*
D03*
Y338445D02*
D03*
X136182Y82870D02*
D03*
Y51203D02*
D03*
X125552Y82870D02*
D03*
Y51203D02*
D03*
X264568Y375437D02*
D03*
Y338445D02*
D03*
D21*
X96537Y332208D02*
D03*
X96535Y299592D02*
D03*
X55118Y339843D02*
D03*
X96537Y325751D02*
D03*
X96535Y293136D02*
D03*
X55118Y333386D02*
D03*
D22*
X83944Y313080D02*
D03*
X84135Y287992D02*
D03*
Y282874D02*
D03*
Y280315D02*
D03*
Y277756D02*
D03*
X83944Y315639D02*
D03*
Y310521D02*
D03*
X61344Y313080D02*
D03*
X61535Y280315D02*
D03*
X83944Y325875D02*
D03*
X84135Y293110D02*
D03*
X61344Y325875D02*
D03*
Y323316D02*
D03*
Y320757D02*
D03*
Y318198D02*
D03*
Y315639D02*
D03*
Y310521D02*
D03*
X83944Y318198D02*
D03*
Y320757D02*
D03*
Y323316D02*
D03*
X84135Y290551D02*
D03*
Y285433D02*
D03*
X61535Y277756D02*
D03*
Y282874D02*
D03*
Y285433D02*
D03*
Y287992D02*
D03*
Y290551D02*
D03*
Y293110D02*
D03*
D23*
X44016Y297244D02*
D03*
X50472D02*
D03*
D24*
X127953Y248228D02*
D03*
X322835Y190945D02*
D03*
X127953Y255709D02*
D03*
X322835Y198425D02*
D03*
Y127756D02*
D03*
Y120276D02*
D03*
Y264062D02*
D03*
Y256582D02*
D03*
D25*
X239229Y379803D02*
D03*
X249230D02*
D03*
X229229D02*
D03*
X219230D02*
D03*
X209229D02*
D03*
X199230D02*
D03*
X189230D02*
D03*
X179229D02*
D03*
X169229D02*
D03*
X159230D02*
D03*
D26*
X328740Y375984D02*
D03*
Y11811D02*
D03*
X11811Y375984D02*
D03*
Y11811D02*
D03*
D27*
X286916Y253939D02*
D03*
X287822Y185198D02*
D03*
X286916Y118112D02*
D03*
D28*
X252861Y260001D02*
D03*
X253020Y121053D02*
D03*
X192861Y189135D02*
D03*
X193020Y121053D02*
D03*
X212861Y189135D02*
D03*
X232861D02*
D03*
X252861D02*
D03*
X213020Y121053D02*
D03*
X233020D02*
D03*
X192861Y260001D02*
D03*
X212861D02*
D03*
X232861D02*
D03*
D29*
X110551Y144016D02*
D03*
Y124016D02*
D03*
X90551D02*
D03*
Y144016D02*
D03*
Y51181D02*
D03*
Y71181D02*
D03*
X110551Y51181D02*
D03*
Y71181D02*
D03*
Y216850D02*
D03*
Y196850D02*
D03*
X90551Y216850D02*
D03*
Y196850D02*
D03*
D30*
X305787Y167323D02*
D03*
X307982Y97342D02*
D03*
X305787Y236221D02*
D03*
D31*
X177587Y167323D02*
D03*
X179782Y97342D02*
D03*
X177587Y236221D02*
D03*
D32*
X292822Y195198D02*
D03*
X297822Y185198D02*
D03*
X296916Y118112D02*
D03*
X291916Y128112D02*
D03*
Y263938D02*
D03*
X296916Y253939D02*
D03*
M02*
