G04*
G04 #@! TF.GenerationSoftware,Altium Limited,Altium Designer,26.8.1 (31)*
G04*
G04 Layer_Color=16711935*
G04 Board_Origin=10000000|10000000*
%FSLAX25Y25*%
%MOIN*%
G70*
G04*
G04 #@! TF.SameCoordinates,21F914C3-012E-473F-99CC-7E58DD77D828*
G04*
G04*
G04 #@! TF.FilePolarity,Negative*
G04*
G01*
G75*
%ADD26C,0.09055*%
%ADD27R,0.05200X0.05200*%
%ADD28C,0.05118*%
%ADD29C,0.10039*%
%ADD30C,0.05100*%
%ADD31R,0.05100X0.05100*%
%ADD32C,0.05200*%
D26*
X328740Y375984D02*
D03*
Y11811D02*
D03*
X11811Y375984D02*
D03*
Y11811D02*
D03*
D27*
X286916Y253939D02*
D03*
X287822Y185198D02*
D03*
X286916Y118112D02*
D03*
D28*
X252861Y260001D02*
D03*
X253020Y121053D02*
D03*
X192861Y189135D02*
D03*
X193020Y121053D02*
D03*
X212861Y189135D02*
D03*
X232861D02*
D03*
X252861D02*
D03*
X213020Y121053D02*
D03*
X233020D02*
D03*
X192861Y260001D02*
D03*
X212861D02*
D03*
X232861D02*
D03*
D29*
X110551Y144016D02*
D03*
Y124016D02*
D03*
X90551D02*
D03*
Y144016D02*
D03*
Y51181D02*
D03*
Y71181D02*
D03*
X110551Y51181D02*
D03*
Y71181D02*
D03*
Y216850D02*
D03*
Y196850D02*
D03*
X90551Y216850D02*
D03*
Y196850D02*
D03*
D30*
X305787Y167323D02*
D03*
X307982Y97342D02*
D03*
X305787Y236221D02*
D03*
D31*
X177587Y167323D02*
D03*
X179782Y97342D02*
D03*
X177587Y236221D02*
D03*
D32*
X292822Y195198D02*
D03*
X297822Y185198D02*
D03*
X296916Y118112D02*
D03*
X291916Y128112D02*
D03*
Y263938D02*
D03*
X296916Y253939D02*
D03*
M02*
