ISO-10303-21;
HEADER;
FILE_DESCRIPTION (( 'STEP AP214' ),
    '1' );
FILE_NAME ('HE3621A0540.STEP',
    '2024-11-13T07:56:37',
    ( '' ),
    ( '' ),
    'SwSTEP 2.0',
    'SolidWorks 2022',
    '' );
FILE_SCHEMA (( 'AUTOMOTIVE_DESIGN' ));
ENDSEC;

DATA;
#1 = LINE ( 'NONE', #339, #143 ) ;
#2 = DIRECTION ( 'NONE',  ( 0.000000000000000000, -0.000000000000000000, 1.000000000000000000 ) ) ;
#3 = CARTESIAN_POINT ( 'NONE',  ( 1.782147842886064204, -3.934999999999999165, 0.1250000000000000000 ) ) ;
#4 = EDGE_LOOP ( 'NONE', ( #21, #677, #380, #836 ) ) ;
#5 = EDGE_CURVE ( 'NONE', #747, #1009, #488, .T. ) ;
#6 = LINE ( 'NONE', #900, #218 ) ;
#7 = DIRECTION ( 'NONE',  ( -3.938150816133959677E-17, 0.1742824260697357908, 0.9846957072940081268 ) ) ;
#8 = PLANE ( 'NONE',  #696 ) ;
#9 = ORIENTED_EDGE ( 'NONE', *, *, #5, .F. ) ;
#10 = EDGE_CURVE ( 'NONE', #121, #564, #647, .T. ) ;
#11 = DIRECTION ( 'NONE',  ( 0.000000000000000000, 1.000000000000000000, 0.000000000000000000 ) ) ;
#12 = CARTESIAN_POINT ( 'NONE',  ( 9.850000000000003197, -3.834999999999994635, -2.825000000000000178 ) ) ;
#13 = VECTOR ( 'NONE', #642, 1000.000000000000000 ) ;
#14 = ORIENTED_EDGE ( 'NONE', *, *, #1015, .F. ) ;
#15 = APPLICATION_CONTEXT ( 'automotive_design' ) ;
#16 = EDGE_CURVE ( 'NONE', #159, #121, #975, .T. ) ;
#17 = CARTESIAN_POINT ( 'NONE',  ( -2.794999999999989271, -3.934999999999999165, 0.1250000000000000000 ) ) ;
#18 = AXIS2_PLACEMENT_3D ( 'NONE', #573, #582, #646 ) ;
#19 = EDGE_CURVE ( 'NONE', #421, #275, #73, .T. ) ;
#20 = CARTESIAN_POINT ( 'NONE',  ( 2.794999999999990159, -3.934999999999998277, 0.1250000000000000000 ) ) ;
#21 = ORIENTED_EDGE ( 'NONE', *, *, #1065, .T. ) ;
#22 = ADVANCED_FACE ( 'NONE', ( #1080 ), #998, .T. ) ;
#23 = FACE_OUTER_BOUND ( 'NONE', #614, .T. ) ;
#24 = AXIS2_PLACEMENT_3D ( 'NONE', #236, #87, #903 ) ;
#25 = FACE_OUTER_BOUND ( 'NONE', #1032, .T. ) ;
#26 = DIRECTION ( 'NONE',  ( -0.000000000000000000, 0.000000000000000000, -1.000000000000000000 ) ) ;
#27 = ORIENTED_EDGE ( 'NONE', *, *, #177, .T. ) ;
#28 = CARTESIAN_POINT ( 'NONE',  ( 7.874999999999994671, -3.934999999999997389, 0.1250000000000000000 ) ) ;
#29 = LINE ( 'NONE', #725, #241 ) ;
#30 = VERTEX_POINT ( 'NONE', #891 ) ;
#31 = AXIS2_PLACEMENT_3D ( 'NONE', #331, #651, #233 ) ;
#32 = CARTESIAN_POINT ( 'NONE',  ( -7.874999999999992895, -7.444999999999998508, 0.1250000000000000000 ) ) ;
#33 = CARTESIAN_POINT ( 'NONE',  ( 0.000000000000000000, 0.000000000000000000, -0.1250000000000000000 ) ) ;
#34 = DIRECTION ( 'NONE',  ( 1.000000000000000000, 0.000000000000000000, 0.000000000000000000 ) ) ;
#35 = EDGE_LOOP ( 'NONE', ( #689, #662, #45, #58 ) ) ;
#36 = ORIENTED_EDGE ( 'NONE', *, *, #428, .F. ) ;
#37 = DIRECTION ( 'NONE',  ( -1.000000000000000000, -2.204222968204329341E-16, -0.000000000000000000 ) ) ;
#38 = DIRECTION ( 'NONE',  ( -1.000000000000000000, -3.449768389048972111E-15, 0.000000000000000000 ) ) ;
#39 = CARTESIAN_POINT ( 'NONE',  ( -9.850000000000001421, 3.935000000000000941, -1.214106236941713219E-31 ) ) ;
#40 = ORIENTED_EDGE ( 'NONE', *, *, #522, .T. ) ;
#41 = VECTOR ( 'NONE', #201, 1000.000000000000000 ) ;
#42 = DIRECTION ( 'NONE',  ( -1.000000000000000000, -2.204222968204329341E-16, -0.000000000000000000 ) ) ;
#43 = DIRECTION ( 'NONE',  ( -3.449768389048972111E-15, 1.000000000000000000, 0.000000000000000000 ) ) ;
#44 = DIRECTION ( 'NONE',  ( 1.000000000000000000, 0.000000000000000000, 0.000000000000000000 ) ) ;
#45 = ORIENTED_EDGE ( 'NONE', *, *, #1050, .F. ) ;
#46 = EDGE_CURVE ( 'NONE', #667, #543, #142, .T. ) ;
#47 = VECTOR ( 'NONE', #378, 1000.000000000000000 ) ;
#48 = LINE ( 'NONE', #947, #759 ) ;
#49 = CARTESIAN_POINT ( 'NONE',  ( -9.849999999999999645, -3.934999999999999165, 2.825000000000000178 ) ) ;
#50 = DIRECTION ( 'NONE',  ( 1.000000000000000000, -4.770489558936218721E-15, 0.000000000000000000 ) ) ;
#51 = ORIENTED_EDGE ( 'NONE', *, *, #16, .T. ) ;
#52 = ORIENTED_EDGE ( 'NONE', *, *, #289, .T. ) ;
#53 = PLANE ( 'NONE',  #91 ) ;
#54 = CARTESIAN_POINT ( 'NONE',  ( 2.285000000000018794, -4.444999999999997620, 0.1250000000000000000 ) ) ;
#55 = CARTESIAN_POINT ( 'NONE',  ( -2.284999999999990816, -7.444999999999998508, 0.1250000000000000000 ) ) ;
#56 = ORIENTED_EDGE ( 'NONE', *, *, #678, .T. ) ;
#57 = MECHANICAL_DESIGN_GEOMETRIC_PRESENTATION_REPRESENTATION (  '', ( #980 ), #283 ) ;
#58 = ORIENTED_EDGE ( 'NONE', *, *, #898, .T. ) ;
#59 = VECTOR ( 'NONE', #480, 1000.000000000000000 ) ;
#60 = FACE_OUTER_BOUND ( 'NONE', #658, .T. ) ;
#61 = LINE ( 'NONE', #665, #527 ) ;
#62 = EDGE_LOOP ( 'NONE', ( #418, #803, #831, #27 ) ) ;
#63 = VERTEX_POINT ( 'NONE', #829 ) ;
#64 = ADVANCED_FACE ( 'NONE', ( #1074 ), #750, .F. ) ;
#65 = DIRECTION ( 'NONE',  ( -0.000000000000000000, 1.000000000000000000, -0.000000000000000000 ) ) ;
#66 = DIRECTION ( 'NONE',  ( -1.000000000000000000, -2.204222968204329094E-16, -0.000000000000000000 ) ) ;
#67 = ORIENTED_EDGE ( 'NONE', *, *, #441, .T. ) ;
#68 = ORIENTED_EDGE ( 'NONE', *, *, #571, .T. ) ;
#69 = VECTOR ( 'NONE', #97, 1000.000000000000000 ) ;
#70 = APPLICATION_CONTEXT ( 'automotive_design' ) ;
#71 = CARTESIAN_POINT ( 'NONE',  ( 2.795000000000003926, -7.444999999999998508, 0.1250000000000000000 ) ) ;
#72 = ADVANCED_FACE ( 'NONE', ( #661 ), #250, .F. ) ;
#73 = LINE ( 'NONE', #1067, #259 ) ;
#74 = ORIENTED_EDGE ( 'NONE', *, *, #529, .T. ) ;
#75 = DIRECTION ( 'NONE',  ( 1.000000000000000000, 0.000000000000000000, 0.000000000000000000 ) ) ;
#76 = DIRECTION ( 'NONE',  ( -1.235558031322512798E-16, 1.000000000000000000, 0.000000000000000000 ) ) ;
#77 = DIRECTION ( 'NONE',  ( 1.000000000000000000, 0.000000000000000000, 0.000000000000000000 ) ) ;
#78 = ORIENTED_EDGE ( 'NONE', *, *, #881, .F. ) ;
#79 = CARTESIAN_POINT ( 'NONE',  ( 9.850000000000003197, -3.934999999999995612, 0.1249999999999996808 ) ) ;
#80 = CARTESIAN_POINT ( 'NONE',  ( 1.782147842886064204, -3.934999999999997389, -0.1250000000000001110 ) ) ;
#81 = AXIS2_PLACEMENT_3D ( 'NONE', #312, #416, #77 ) ;
#82 = ADVANCED_FACE ( 'NONE', ( #448 ), #516, .F. ) ;
#83 = LINE ( 'NONE', #712, #801 ) ;
#84 = ORIENTED_EDGE ( 'NONE', *, *, #177, .F. ) ;
#85 =( LENGTH_UNIT ( ) NAMED_UNIT ( * ) SI_UNIT ( .MILLI., .METRE. ) );
#86 = DIRECTION ( 'NONE',  ( 0.000000000000000000, -0.1742824260697357908, 0.9846957072940081268 ) ) ;
#87 = DIRECTION ( 'NONE',  ( 1.000000000000000000, 4.942232125290051194E-16, -0.000000000000000000 ) ) ;
#88 = LINE ( 'NONE', #345, #904 ) ;
#89 = EDGE_LOOP ( 'NONE', ( #936, #808, #705, #925 ) ) ;
#90 = DIRECTION ( 'NONE',  ( 0.000000000000000000, -0.000000000000000000, 1.000000000000000000 ) ) ;
#91 = AXIS2_PLACEMENT_3D ( 'NONE', #393, #786, #281 ) ;
#92 = EDGE_CURVE ( 'NONE', #391, #560, #613, .T. ) ;
#93 = PLANE ( 'NONE',  #779 ) ;
#94 = SHAPE_DEFINITION_REPRESENTATION ( #191, #1045 ) ;
#95 = ORIENTED_EDGE ( 'NONE', *, *, #1065, .F. ) ;
#96 = ADVANCED_FACE ( 'NONE', ( #671 ), #8, .F. ) ;
#97 = DIRECTION ( 'NONE',  ( 1.000000000000000000, 3.449768389048971716E-15, -0.000000000000000000 ) ) ;
#98 = DIRECTION ( 'NONE',  ( 0.000000000000000000, 1.000000000000000000, 0.000000000000000000 ) ) ;
#99 = DIRECTION ( 'NONE',  ( 0.000000000000000000, 1.000000000000000000, 0.000000000000000000 ) ) ;
#100 = EDGE_CURVE ( 'NONE', #421, #604, #758, .T. ) ;
#101 = VECTOR ( 'NONE', #552, 1000.000000000000000 ) ;
#102 = ORIENTED_EDGE ( 'NONE', *, *, #512, .T. ) ;
#103 = LINE ( 'NONE', #442, #870 ) ;
#104 = CARTESIAN_POINT ( 'NONE',  ( -1.782147842886064204, -4.444999999999999396, 0.1250000000000000000 ) ) ;
#105 = CARTESIAN_POINT ( 'NONE',  ( 7.364999999999994884, -3.934999999999997389, 0.1250000000000000000 ) ) ;
#106 = ORIENTED_EDGE ( 'NONE', *, *, #465, .F. ) ;
#107 = LINE ( 'NONE', #861, #379 ) ;
#108 = VECTOR ( 'NONE', #216, 1000.000000000000000 ) ;
#109 = CARTESIAN_POINT ( 'NONE',  ( -7.364999999999993108, -7.444999999999998508, -0.1250000000000000000 ) ) ;
#110 = ORIENTED_EDGE ( 'NONE', *, *, #577, .T. ) ;
#111 = FACE_OUTER_BOUND ( 'NONE', #1056, .T. ) ;
#112 = DIRECTION ( 'NONE',  ( -1.000000000000000000, -0.000000000000000000, -0.000000000000000000 ) ) ;
#113 = CARTESIAN_POINT ( 'NONE',  ( -2.285000000000017906, -4.444999999999998508, 0.1250000000000000000 ) ) ;
#114 = EDGE_CURVE ( 'NONE', #275, #30, #435, .T. ) ;
#115 = EDGE_LOOP ( 'NONE', ( #849, #397, #280, #814 ) ) ;
#116 = PLANE ( 'NONE',  #606 ) ;
#117 = LINE ( 'NONE', #635, #952 ) ;
#118 = VECTOR ( 'NONE', #258, 1000.000000000000000 ) ;
#119 = VERTEX_POINT ( 'NONE', #523 ) ;
#120 = EDGE_CURVE ( 'NONE', #599, #796, #843, .T. ) ;
#121 = VERTEX_POINT ( 'NONE', #1013 ) ;
#122 = DIRECTION ( 'NONE',  ( 3.953785700232040166E-15, -1.000000000000000000, 0.000000000000000000 ) ) ;
#123 = CARTESIAN_POINT ( 'NONE',  ( 2.794999999999990159, -3.934999999999998277, -0.1250000000000000000 ) ) ;
#124 = PLANE ( 'NONE',  #663 ) ;
#125 = EDGE_CURVE ( 'NONE', #159, #1009, #190, .T. ) ;
#126 = EDGE_LOOP ( 'NONE', ( #460, #859, #1004, #67 ) ) ;
#127 = AXIS2_PLACEMENT_3D ( 'NONE', #847, #98, #612 ) ;
#128 = ORIENTED_EDGE ( 'NONE', *, *, #327, .T. ) ;
#129 = DIRECTION ( 'NONE',  ( -1.000000000000000000, 1.724884194524488816E-15, 0.000000000000000000 ) ) ;
#130 = PLANE ( 'NONE',  #535 ) ;
#131 = FACE_OUTER_BOUND ( 'NONE', #266, .T. ) ;
#132 = ORIENTED_EDGE ( 'NONE', *, *, #719, .T. ) ;
#133 = ADVANCED_FACE ( 'NONE', ( #923 ), #93, .F. ) ;
#134 = EDGE_LOOP ( 'NONE', ( #110, #240, #294, #287 ) ) ;
#135 = DIRECTION ( 'NONE',  ( 0.000000000000000000, 0.000000000000000000, -1.000000000000000000 ) ) ;
#136 = CARTESIAN_POINT ( 'NONE',  ( -9.849999999999999645, -3.834999999999998188, 2.825000000000001066 ) ) ;
#137 = PLANE ( 'NONE',  #295 ) ;
#138 = ORIENTED_EDGE ( 'NONE', *, *, #595, .F. ) ;
#139 = EDGE_CURVE ( 'NONE', #1014, #599, #1021, .T. ) ;
#140 = CARTESIAN_POINT ( 'NONE',  ( 2.285000000000018794, -4.444999999999997620, -0.1250000000000000000 ) ) ;
#141 = LINE ( 'NONE', #1055, #408 ) ;
#142 = LINE ( 'NONE', #912, #865 ) ;
#143 = VECTOR ( 'NONE', #669, 1000.000000000000000 ) ;
#144 = ORIENTED_EDGE ( 'NONE', *, *, #595, .T. ) ;
#145 = CARTESIAN_POINT ( 'NONE',  ( 7.874999999999996447, -7.444999999999996732, 0.1250000000000000000 ) ) ;
#146 = DIRECTION ( 'NONE',  ( 1.000000000000000000, 1.235558031322512798E-16, -0.000000000000000000 ) ) ;
#147 = VERTEX_POINT ( 'NONE', #109 ) ;
#148 = VERTEX_POINT ( 'NONE', #3 ) ;
#149 = VECTOR ( 'NONE', #962, 1000.000000000000000 ) ;
#150 = EDGE_CURVE ( 'NONE', #543, #1018, #255, .T. ) ;
#151 = FILL_AREA_STYLE ('',( #498 ) ) ;
#152 = CARTESIAN_POINT ( 'NONE',  ( -2.794999999999988827, -7.444999999999998508, -0.1250000000000000000 ) ) ;
#153 = DIRECTION ( 'NONE',  ( -0.000000000000000000, -0.000000000000000000, -1.000000000000000000 ) ) ;
#154 = ORIENTED_EDGE ( 'NONE', *, *, #1005, .T. ) ;
#155 = VECTOR ( 'NONE', #1078, 1000.000000000000000 ) ;
#156 = CARTESIAN_POINT ( 'NONE',  ( 2.285000000000018794, -4.444999999999997620, 0.1250000000000000000 ) ) ;
#157 = CARTESIAN_POINT ( 'NONE',  ( 7.874999999999994671, -3.934999999999997389, 0.1250000000000000000 ) ) ;
#158 = DIRECTION ( 'NONE',  ( 2.204222968204329094E-16, -1.000000000000000000, 0.000000000000000000 ) ) ;
#159 = VERTEX_POINT ( 'NONE', #1007 ) ;
#160 = AXIS2_PLACEMENT_3D ( 'NONE', #231, #1042, #879 ) ;
#161 = EDGE_CURVE ( 'NONE', #489, #391, #609, .T. ) ;
#162 = CARTESIAN_POINT ( 'NONE',  ( 2.794999999999990159, -3.934999999999998277, 0.1250000000000000000 ) ) ;
#163 = CARTESIAN_POINT ( 'NONE',  ( 7.874999999999996447, -3.934999999999996501, -0.1250000000000001110 ) ) ;
#164 = ORIENTED_EDGE ( 'NONE', *, *, #668, .F. ) ;
#165 = ORIENTED_EDGE ( 'NONE', *, *, #680, .F. ) ;
#166 = LINE ( 'NONE', #429, #502 ) ;
#167 = DIRECTION ( 'NONE',  ( -0.000000000000000000, -0.000000000000000000, -1.000000000000000000 ) ) ;
#168 = AXIS2_PLACEMENT_3D ( 'NONE', #918, #840, #26 ) ;
#169 = LINE ( 'NONE', #105, #972 ) ;
#170 = ORIENTED_EDGE ( 'NONE', *, *, #607, .T. ) ;
#171 = AXIS2_PLACEMENT_3D ( 'NONE', #232, #817, #477 ) ;
#172 = PLANE ( 'NONE',  #24 ) ;
#173 = LINE ( 'NONE', #268, #737 ) ;
#174 = CARTESIAN_POINT ( 'NONE',  ( -9.850000000000001421, 3.935000000000000941, 2.825000000000000178 ) ) ;
#175 = VERTEX_POINT ( 'NONE', #185 ) ;
#176 = EDGE_CURVE ( 'NONE', #897, #275, #265, .T. ) ;
#177 = EDGE_CURVE ( 'NONE', #436, #624, #169, .T. ) ;
#178 = LINE ( 'NONE', #611, #118 ) ;
#179 = AXIS2_PLACEMENT_3D ( 'NONE', #1041, #698, #129 ) ;
#180 = DIRECTION ( 'NONE',  ( -1.000000000000000000, -2.204222968204329341E-16, -0.000000000000000000 ) ) ;
#181 = ORIENTED_EDGE ( 'NONE', *, *, #691, .F. ) ;
#182 = LINE ( 'NONE', #1000, #929 ) ;
#183 = EDGE_CURVE ( 'NONE', #586, #897, #930, .T. ) ;
#184 = CARTESIAN_POINT ( 'NONE',  ( 9.849999999999997868, -3.934999999999999165, 2.825000000000000178 ) ) ;
#185 = CARTESIAN_POINT ( 'NONE',  ( -2.794999999999988827, -7.444999999999998508, 0.1250000000000000000 ) ) ;
#186 = EDGE_CURVE ( 'NONE', #119, #564, #88, .T. ) ;
#187 = VECTOR ( 'NONE', #44, 1000.000000000000000 ) ;
#188 = ORIENTED_EDGE ( 'NONE', *, *, #186, .T. ) ;
#189 = CARTESIAN_POINT ( 'NONE',  ( -2.794999999999989271, -3.934999999999999165, -0.1250000000000000000 ) ) ;
#190 = LINE ( 'NONE', #12, #404 ) ;
#191 = PRODUCT_DEFINITION_SHAPE ( 'NONE', 'NONE',  #932 ) ;
#192 = ADVANCED_FACE ( 'NONE', ( #261 ), #431, .F. ) ;
#193 = ORIENTED_EDGE ( 'NONE', *, *, #577, .F. ) ;
#194 = DIRECTION ( 'NONE',  ( -0.000000000000000000, 0.000000000000000000, 1.000000000000000000 ) ) ;
#195 = ADVANCED_FACE ( 'NONE', ( #782 ), #124, .T. ) ;
#196 = CARTESIAN_POINT ( 'NONE',  ( 2.285000000000004583, -7.444999999999998508, -0.1250000000000000000 ) ) ;
#197 = AXIS2_PLACEMENT_3D ( 'NONE', #973, #383, #729 ) ;
#198 = DIRECTION ( 'NONE',  ( 0.000000000000000000, 0.03701166050988068112, -0.9993148337667669967 ) ) ;
#199 = ORIENTED_EDGE ( 'NONE', *, *, #971, .F. ) ;
#200 = LINE ( 'NONE', #539, #235 ) ;
#201 = DIRECTION ( 'NONE',  ( -1.000000000000000000, -2.204222968204329094E-16, -0.000000000000000000 ) ) ;
#202 = LINE ( 'NONE', #300, #149 ) ;
#203 = EDGE_CURVE ( 'NONE', #940, #720, #83, .T. ) ;
#204 = ORIENTED_EDGE ( 'NONE', *, *, #487, .F. ) ;
#205 = PRODUCT_DEFINITION_CONTEXT ( 'detailed design', #70, 'design' ) ;
#206 = DIRECTION ( 'NONE',  ( 1.235558031322512552E-16, -1.000000000000000000, 0.000000000000000000 ) ) ;
#207 = ADVANCED_FACE ( 'NONE', ( #886 ), #279, .F. ) ;
#208 = DIRECTION ( 'NONE',  ( -0.000000000000000000, 0.000000000000000000, 1.000000000000000000 ) ) ;
#209 = DIRECTION ( 'NONE',  ( -0.000000000000000000, 0.000000000000000000, 1.000000000000000000 ) ) ;
#210 = VECTOR ( 'NONE', #901, 1000.000000000000000 ) ;
#211 = ORIENTED_EDGE ( 'NONE', *, *, #986, .F. ) ;
#212 = EDGE_CURVE ( 'NONE', #1039, #816, #29, .T. ) ;
#213 = VERTEX_POINT ( 'NONE', #39 ) ;
#214 = DIRECTION ( 'NONE',  ( -1.000000000000000000, -2.204222968204329341E-16, -0.000000000000000000 ) ) ;
#215 = EDGE_CURVE ( 'NONE', #63, #159, #117, .T. ) ;
#216 = DIRECTION ( 'NONE',  ( -1.000000000000000000, -2.204222968204329341E-16, -0.000000000000000000 ) ) ;
#217 = CARTESIAN_POINT ( 'NONE',  ( 2.285000000000018794, -4.444999999999997620, 0.1250000000000000000 ) ) ;
#218 = VECTOR ( 'NONE', #320, 1000.000000000000000 ) ;
#219 = VERTEX_POINT ( 'NONE', #623 ) ;
#220 = ORIENTED_EDGE ( 'NONE', *, *, #722, .T. ) ;
#221 = FACE_OUTER_BOUND ( 'NONE', #4, .T. ) ;
#222 = CARTESIAN_POINT ( 'NONE',  ( -2.794999999999988827, -7.444999999999998508, -0.1250000000000000000 ) ) ;
#223 = LINE ( 'NONE', #776, #101 ) ;
#224 = ORIENTED_EDGE ( 'NONE', *, *, #1005, .F. ) ;
#225 = ORIENTED_EDGE ( 'NONE', *, *, #405, .T. ) ;
#226 = VECTOR ( 'NONE', #360, 1000.000000000000000 ) ;
#227 = DIRECTION ( 'NONE',  ( 9.107298248878237246E-15, -1.000000000000000000, 0.000000000000000000 ) ) ;
#228 = LINE ( 'NONE', #55, #210 ) ;
#229 = ORIENTED_EDGE ( 'NONE', *, *, #1050, .T. ) ;
#230 = ORIENTED_EDGE ( 'NONE', *, *, #410, .F. ) ;
#231 = CARTESIAN_POINT ( 'NONE',  ( 0.000000000000000000, 0.000000000000000000, 0.1250000000000000000 ) ) ;
#232 = CARTESIAN_POINT ( 'NONE',  ( 0.000000000000000000, 0.000000000000000000, 2.825000000000000178 ) ) ;
#233 = DIRECTION ( 'NONE',  ( 0.000000000000000000, -0.03701166050988068112, 0.9993148337667669967 ) ) ;
#234 = ORIENTED_EDGE ( 'NONE', *, *, #911, .F. ) ;
#235 = VECTOR ( 'NONE', #521, 1000.000000000000000 ) ;
#236 = CARTESIAN_POINT ( 'NONE',  ( -7.874999999999994671, -3.934999999999999165, 0.1250000000000000000 ) ) ;
#237 = DIRECTION ( 'NONE',  ( 1.000000000000000000, 0.000000000000000000, 0.000000000000000000 ) ) ;
#238 = ORIENTED_EDGE ( 'NONE', *, *, #351, .F. ) ;
#239 = UNCERTAINTY_MEASURE_WITH_UNIT (LENGTH_MEASURE( 1.000000000000000082E-05 ), #1073, 'distance_accuracy_value', 'NONE');
#240 = ORIENTED_EDGE ( 'NONE', *, *, #244, .T. ) ;
#241 = VECTOR ( 'NONE', #876, 1000.000000000000000 ) ;
#242 = PLANE ( 'NONE',  #534 ) ;
#243 = LINE ( 'NONE', #336, #1011 ) ;
#244 = EDGE_CURVE ( 'NONE', #436, #373, #365, .T. ) ;
#245 = SURFACE_STYLE_USAGE ( .BOTH. , #341 ) ;
#246 = ORIENTED_EDGE ( 'NONE', *, *, #376, .T. ) ;
#247 = EDGE_LOOP ( 'NONE', ( #332, #906, #427, #841 ) ) ;
#248 = FACE_OUTER_BOUND ( 'NONE', #347, .T. ) ;
#249 = DIRECTION ( 'NONE',  ( -1.000000000000000000, -2.204222968204329341E-16, -0.000000000000000000 ) ) ;
#250 = PLANE ( 'NONE',  #168 ) ;
#251 = ORIENTED_EDGE ( 'NONE', *, *, #413, .T. ) ;
#252 = AXIS2_PLACEMENT_3D ( 'NONE', #104, #443, #649 ) ;
#253 = CARTESIAN_POINT ( 'NONE',  ( 2.285000000000018794, -4.444999999999997620, 0.1250000000000000000 ) ) ;
#254 = PLANE ( 'NONE',  #708 ) ;
#255 = LINE ( 'NONE', #350, #1023 ) ;
#256 = ORIENTED_EDGE ( 'NONE', *, *, #856, .T. ) ;
#257 = CARTESIAN_POINT ( 'NONE',  ( -9.849999999999999645, -3.934999999999999165, 2.825000000000000178 ) ) ;
#258 = DIRECTION ( 'NONE',  ( 1.000000000000000000, 3.449768389048971716E-15, -0.000000000000000000 ) ) ;
#259 = VECTOR ( 'NONE', #153, 1000.000000000000000 ) ;
#260 = EDGE_CURVE ( 'NONE', #820, #538, #223, .T. ) ;
#261 = FACE_OUTER_BOUND ( 'NONE', #409, .T. ) ;
#262 = ORIENTED_EDGE ( 'NONE', *, *, #889, .F. ) ;
#263 = AXIS2_PLACEMENT_3D ( 'NONE', #526, #851, #2 ) ;
#264 = DIRECTION ( 'NONE',  ( -2.170488894709660380E-16, 0.9846957072940082378, 0.1742824260697358185 ) ) ;
#265 = LINE ( 'NONE', #528, #835 ) ;
#266 = EDGE_LOOP ( 'NONE', ( #760, #302, #740, #754, #272, #548 ) ) ;
#267 = EDGE_CURVE ( 'NONE', #467, #624, #557, .T. ) ;
#268 = CARTESIAN_POINT ( 'NONE',  ( -1.782147842886064204, -4.444999999999999396, 0.1250000000000000000 ) ) ;
#269 = VECTOR ( 'NONE', #1028, 1000.000000000000000 ) ;
#270 = DIRECTION ( 'NONE',  ( 1.000000000000000000, 0.000000000000000000, -0.000000000000000000 ) ) ;
#271 = CARTESIAN_POINT ( 'NONE',  ( 2.285000000000018794, -4.444999999999997620, 0.1250000000000000000 ) ) ;
#272 = ORIENTED_EDGE ( 'NONE', *, *, #697, .F. ) ;
#273 = CARTESIAN_POINT ( 'NONE',  ( 1.782147842886064204, -4.444999999999999396, -0.1250000000000000000 ) ) ;
#274 = DIRECTION ( 'NONE',  ( 1.000000000000000000, 2.204222968204329341E-16, -0.000000000000000000 ) ) ;
#275 = VERTEX_POINT ( 'NONE', #471 ) ;
#276 = EDGE_CURVE ( 'NONE', #604, #219, #537, .T. ) ;
#277 = LINE ( 'NONE', #1046, #844 ) ;
#278 = DIRECTION ( 'NONE',  ( -0.000000000000000000, -0.000000000000000000, -1.000000000000000000 ) ) ;
#279 = PLANE ( 'NONE',  #349 ) ;
#280 = ORIENTED_EDGE ( 'NONE', *, *, #19, .F. ) ;
#281 = DIRECTION ( 'NONE',  ( 0.000000000000000000, 0.000000000000000000, 1.000000000000000000 ) ) ;
#282 = CARTESIAN_POINT ( 'NONE',  ( 7.364999999999994884, -3.934999999999996501, -0.1250000000000001110 ) ) ;
#283 =( GEOMETRIC_REPRESENTATION_CONTEXT ( 3 ) GLOBAL_UNCERTAINTY_ASSIGNED_CONTEXT ( ( #239 ) ) GLOBAL_UNIT_ASSIGNED_CONTEXT ( ( #1073, #992, #917 ) ) REPRESENTATION_CONTEXT ( 'NONE', 'WORKASPACE' ) );
#284 = FACE_OUTER_BOUND ( 'NONE', #1022, .T. ) ;
#285 = CARTESIAN_POINT ( 'NONE',  ( -7.874999999999992895, -7.444999999999998508, 0.1250000000000000000 ) ) ;
#286 = VECTOR ( 'NONE', #42, 1000.000000000000000 ) ;
#287 = ORIENTED_EDGE ( 'NONE', *, *, #351, .T. ) ;
#288 = ORIENTED_EDGE ( 'NONE', *, *, #212, .F. ) ;
#289 = EDGE_CURVE ( 'NONE', #175, #432, #704, .T. ) ;
#290 = CARTESIAN_POINT ( 'NONE',  ( 2.795000000000003926, -7.444999999999998508, 0.1250000000000000000 ) ) ;
#291 = LINE ( 'NONE', #626, #1001 ) ;
#292 = PLANE ( 'NONE',  #765 ) ;
#293 = EDGE_CURVE ( 'NONE', #1018, #643, #699, .T. ) ;
#294 = ORIENTED_EDGE ( 'NONE', *, *, #777, .T. ) ;
#295 = AXIS2_PLACEMENT_3D ( 'NONE', #217, #50, #1048 ) ;
#296 = VERTEX_POINT ( 'NONE', #718 ) ;
#297 = EDGE_CURVE ( 'NONE', #604, #931, #458, .T. ) ;
#298 = DIRECTION ( 'NONE',  ( -1.000000000000000000, -4.942232125290051194E-16, 0.000000000000000000 ) ) ;
#299 = FACE_OUTER_BOUND ( 'NONE', #134, .T. ) ;
#300 = CARTESIAN_POINT ( 'NONE',  ( -9.849999999999999645, -3.934999999999999165, 2.825000000000000178 ) ) ;
#301 = VERTEX_POINT ( 'NONE', #1043 ) ;
#302 = ORIENTED_EDGE ( 'NONE', *, *, #293, .F. ) ;
#303 = ADVANCED_FACE ( 'NONE', ( #131 ), #292, .F. ) ;
#304 = CARTESIAN_POINT ( 'NONE',  ( 7.874999999999994671, -3.934999999999997389, 0.1250000000000000000 ) ) ;
#305 = DIRECTION ( 'NONE',  ( 1.000000000000000000, 0.000000000000000000, 0.000000000000000000 ) ) ;
#306 = DIRECTION ( 'NONE',  ( -0.000000000000000000, -0.03701166050988097950, -0.9993148337667669967 ) ) ;
#307 = AXIS2_PLACEMENT_3D ( 'NONE', #54, #43, #38 ) ;
#308 = VERTEX_POINT ( 'NONE', #390 ) ;
#309 = VERTEX_POINT ( 'NONE', #547 ) ;
#310 = FACE_OUTER_BOUND ( 'NONE', #580, .T. ) ;
#311 = DIRECTION ( 'NONE',  ( -1.000000000000000000, 0.000000000000000000, 0.000000000000000000 ) ) ;
#312 = CARTESIAN_POINT ( 'NONE',  ( 0.000000000000000000, 0.000000000000000000, 0.1250000000000000000 ) ) ;
#313 = CLOSED_SHELL ( 'NONE', ( #587, #902, #387, #1012, #768, #82, #381, #491, #830, #1076, #789, #926, #710, #207, #72, #192, #605, #874, #815, #369, #96, #949, #701, #824, #22, #303, #761, #837, #321, #714, #600, #333, #195, #989, #476, #64, #133 ) ) ;
#314 = EDGE_CURVE ( 'NONE', #720, #30, #202, .T. ) ;
#315 = PLANE ( 'NONE',  #307 ) ;
#316 = CARTESIAN_POINT ( 'NONE',  ( 2.285000000000018794, -4.444999999999997620, -0.1250000000000000000 ) ) ;
#317 = VECTOR ( 'NONE', #395, 1000.000000000000000 ) ;
#318 = DIRECTION ( 'NONE',  ( 1.000000000000000000, -1.724884194524488816E-15, 0.000000000000000000 ) ) ;
#319 = ORIENTED_EDGE ( 'NONE', *, *, #617, .T. ) ;
#320 = DIRECTION ( 'NONE',  ( 4.942232125290050208E-16, -1.000000000000000000, 0.000000000000000000 ) ) ;
#321 = ADVANCED_FACE ( 'NONE', ( #868 ), #137, .F. ) ;
#322 = CARTESIAN_POINT ( 'NONE',  ( -2.794999999999988827, -7.444999999999998508, 0.1250000000000000000 ) ) ;
#323 = VERTEX_POINT ( 'NONE', #1030 ) ;
#324 = PRODUCT_DEFINITION_FORMATION_WITH_SPECIFIED_SOURCE ( 'ANY', '', #363, .NOT_KNOWN. ) ;
#325 = ORIENTED_EDGE ( 'NONE', *, *, #92, .T. ) ;
#326 = VECTOR ( 'NONE', #37, 1000.000000000000000 ) ;
#327 = EDGE_CURVE ( 'NONE', #920, #455, #1026, .T. ) ;
#328 = PLANE ( 'NONE',  #481 ) ;
#329 = CARTESIAN_POINT ( 'NONE',  ( -1.794999999999989271, -3.935000000000000053, 0.1250000000000000000 ) ) ;
#330 =( NAMED_UNIT ( * ) SI_UNIT ( $, .STERADIAN. ) SOLID_ANGLE_UNIT ( ) );
#331 = CARTESIAN_POINT ( 'NONE',  ( 9.850000000000003197, -3.934999999999995612, -0.1250000000000001110 ) ) ;
#332 = ORIENTED_EDGE ( 'NONE', *, *, #633, .T. ) ;
#333 = ADVANCED_FACE ( 'NONE', ( #541 ), #650, .F. ) ;
#334 = VECTOR ( 'NONE', #955, 1000.000000000000000 ) ;
#335 = DIRECTION ( 'NONE',  ( 2.170488894709660380E-16, -0.9846957072940082378, 0.1742824260697358185 ) ) ;
#336 = CARTESIAN_POINT ( 'NONE',  ( 2.794999999999990159, -3.934999999999998277, 0.1250000000000000000 ) ) ;
#337 = ORIENTED_EDGE ( 'NONE', *, *, #150, .T. ) ;
#338 = ORIENTED_EDGE ( 'NONE', *, *, #125, .T. ) ;
#339 = CARTESIAN_POINT ( 'NONE',  ( 1.782147842886064204, -4.444999999999999396, -0.1250000000000000000 ) ) ;
#340 = CARTESIAN_POINT ( 'NONE',  ( -1.782147842886064204, -4.444999999999999396, 0.1250000000000000000 ) ) ;
#341 = SURFACE_SIDE_STYLE ('',( #415 ) ) ;
#342 = CARTESIAN_POINT ( 'NONE',  ( 1.794999999999990159, -3.934999999999999165, -0.1250000000000000000 ) ) ;
#343 = ORIENTED_EDGE ( 'NONE', *, *, #215, .F. ) ;
#344 = CARTESIAN_POINT ( 'NONE',  ( -9.849999999999999645, -3.935000000000000053, -0.1250000000000001110 ) ) ;
#345 = CARTESIAN_POINT ( 'NONE',  ( 9.849999999999999645, 3.815476877515382892, 0.6753056420381199354 ) ) ;
#346 = EDGE_CURVE ( 'NONE', #308, #619, #499, .T. ) ;
#347 = EDGE_LOOP ( 'NONE', ( #637, #751, #84, #809 ) ) ;
#348 = LINE ( 'NONE', #679, #957 ) ;
#349 = AXIS2_PLACEMENT_3D ( 'NONE', #945, #802, #795 ) ;
#350 = CARTESIAN_POINT ( 'NONE',  ( -1.782147842886064204, -4.444999999999999396, -0.1250000000000000000 ) ) ;
#351 = EDGE_CURVE ( 'NONE', #301, #816, #997, .T. ) ;
#352 = ORIENTED_EDGE ( 'NONE', *, *, #1068, .T. ) ;
#353 = AXIS2_PLACEMENT_3D ( 'NONE', #675, #1020, #90 ) ;
#354 = CARTESIAN_POINT ( 'NONE',  ( -7.364999999999991331, -3.934999999999999165, 0.1249999999999996808 ) ) ;
#355 = LINE ( 'NONE', #862, #746 ) ;
#356 = DIRECTION ( 'NONE',  ( 0.000000000000000000, 1.000000000000000000, 0.000000000000000000 ) ) ;
#357 = ORIENTED_EDGE ( 'NONE', *, *, #986, .T. ) ;
#358 = STYLED_ITEM ( 'NONE', ( #492 ), #987 ) ;
#359 = CARTESIAN_POINT ( 'NONE',  ( 2.285000000000004583, -7.444999999999998508, 0.1250000000000000000 ) ) ;
#360 = DIRECTION ( 'NONE',  ( -0.000000000000000000, -0.000000000000000000, -1.000000000000000000 ) ) ;
#361 = EDGE_CURVE ( 'NONE', #148, #296, #407, .T. ) ;
#362 = EDGE_LOOP ( 'NONE', ( #970, #504, #695, #52 ) ) ;
#363 = PRODUCT ( 'HE3621A0540', 'HE3621A0540', '', ( #682 ) ) ;
#364 = DIRECTION ( 'NONE',  ( -0.000000000000000000, -0.000000000000000000, -1.000000000000000000 ) ) ;
#365 = LINE ( 'NONE', #371, #490 ) ;
#366 = AXIS2_PLACEMENT_3D ( 'NONE', #174, #274, #688 ) ;
#367 = ORIENTED_EDGE ( 'NONE', *, *, #441, .F. ) ;
#368 = DIRECTION ( 'NONE',  ( -0.000000000000000000, -0.000000000000000000, -1.000000000000000000 ) ) ;
#369 = ADVANCED_FACE ( 'NONE', ( #895 ), #655, .F. ) ;
#370 = CARTESIAN_POINT ( 'NONE',  ( 1.782147842886064204, -4.444999999999999396, 0.1250000000000000000 ) ) ;
#371 = CARTESIAN_POINT ( 'NONE',  ( 7.364999999999994884, -3.934999999999997389, 0.1250000000000000000 ) ) ;
#372 = ORIENTED_EDGE ( 'NONE', *, *, #120, .T. ) ;
#373 = VERTEX_POINT ( 'NONE', #482 ) ;
#374 = CARTESIAN_POINT ( 'NONE',  ( -9.849999999999999645, -3.935000000000000053, 0.1249999999999996808 ) ) ;
#375 = COLOUR_RGB ( '',0.7921568627450980005, 0.8196078431372548767, 0.9333333333333333481 ) ;
#376 = EDGE_CURVE ( 'NONE', #119, #309, #61, .T. ) ;
#377 = CARTESIAN_POINT ( 'NONE',  ( -7.364999999999993108, -3.934999999999999165, -0.1250000000000000000 ) ) ;
#378 = DIRECTION ( 'NONE',  ( -0.000000000000000000, -0.000000000000000000, -1.000000000000000000 ) ) ;
#379 = VECTOR ( 'NONE', #447, 1000.000000000000114 ) ;
#380 = ORIENTED_EDGE ( 'NONE', *, *, #405, .F. ) ;
#381 = ADVANCED_FACE ( 'NONE', ( #420 ), #486, .T. ) ;
#382 = LINE ( 'NONE', #28, #1070 ) ;
#383 = DIRECTION ( 'NONE',  ( -1.000000000000000000, 0.000000000000000000, 0.000000000000000000 ) ) ;
#384 = CARTESIAN_POINT ( 'NONE',  ( 7.874999999999994671, -3.934999999999997389, -0.1250000000000000000 ) ) ;
#385 = ORIENTED_EDGE ( 'NONE', *, *, #450, .T. ) ;
#386 = VECTOR ( 'NONE', #249, 1000.000000000000000 ) ;
#387 = ADVANCED_FACE ( 'NONE', ( #1072 ), #974, .F. ) ;
#388 = CARTESIAN_POINT ( 'NONE',  ( 9.850000000000003197, -3.934999999999995612, -0.1250000000000001110 ) ) ;
#389 = DIRECTION ( 'NONE',  ( -0.000000000000000000, -0.000000000000000000, -1.000000000000000000 ) ) ;
#390 = CARTESIAN_POINT ( 'NONE',  ( 2.795000000000003926, -7.444999999999998508, 0.1250000000000000000 ) ) ;
#391 = VERTEX_POINT ( 'NONE', #749 ) ;
#392 = ORIENTED_EDGE ( 'NONE', *, *, #5, .T. ) ;
#393 = CARTESIAN_POINT ( 'NONE',  ( 9.849999999999997868, 3.935000000000000941, 2.825000000000000178 ) ) ;
#394 = CARTESIAN_POINT ( 'NONE',  ( 9.850000000000003197, -3.934999999999995612, -0.1250000000000001110 ) ) ;
#395 = DIRECTION ( 'NONE',  ( -0.000000000000000000, 1.000000000000000000, -0.000000000000000000 ) ) ;
#396 = VECTOR ( 'NONE', #724, 1000.000000000000000 ) ;
#397 = ORIENTED_EDGE ( 'NONE', *, *, #114, .F. ) ;
#398 = EDGE_CURVE ( 'NONE', #920, #656, #228, .T. ) ;
#399 = ORIENTED_EDGE ( 'NONE', *, *, #10, .F. ) ;
#400 = CARTESIAN_POINT ( 'NONE',  ( 7.364999999999994884, -3.934999999999997389, -0.1250000000000000000 ) ) ;
#401 = DIRECTION ( 'NONE',  ( -1.000000000000000000, -2.204222968204329341E-16, -0.000000000000000000 ) ) ;
#402 = ORIENTED_EDGE ( 'NONE', *, *, #981, .F. ) ;
#403 = EDGE_LOOP ( 'NONE', ( #530, #770, #507, #449 ) ) ;
#404 = VECTOR ( 'NONE', #939, 1000.000000000000000 ) ;
#405 = EDGE_CURVE ( 'NONE', #148, #820, #141, .T. ) ;
#406 = DIRECTION ( 'NONE',  ( 1.000000000000000000, -0.000000000000000000, -0.000000000000000000 ) ) ;
#407 = LINE ( 'NONE', #743, #386 ) ;
#408 = VECTOR ( 'NONE', #566, 1000.000000000000000 ) ;
#409 = EDGE_LOOP ( 'NONE', ( #823, #78, #549, #170 ) ) ;
#410 = EDGE_CURVE ( 'NONE', #496, #119, #984, .T. ) ;
#411 = ORIENTED_EDGE ( 'NONE', *, *, #267, .F. ) ;
#412 = SURFACE_STYLE_USAGE ( .BOTH. , #659 ) ;
#413 = EDGE_CURVE ( 'NONE', #175, #920, #1066, .T. ) ;
#414 = DIRECTION ( 'NONE',  ( -4.942232125290050208E-16, 1.000000000000000000, -0.000000000000000000 ) ) ;
#415 = SURFACE_STYLE_FILL_AREA ( #583 ) ;
#416 = DIRECTION ( 'NONE',  ( -0.000000000000000000, 0.000000000000000000, 1.000000000000000000 ) ) ;
#417 = EDGE_CURVE ( 'NONE', #296, #985, #813, .T. ) ;
#418 = ORIENTED_EDGE ( 'NONE', *, *, #871, .T. ) ;
#419 = CARTESIAN_POINT ( 'NONE',  ( -2.794999999999990159, -3.934999999999998277, 0.1249999999999996808 ) ) ;
#420 = FACE_OUTER_BOUND ( 'NONE', #726, .T. ) ;
#421 = VERTEX_POINT ( 'NONE', #730 ) ;
#422 = ORIENTED_EDGE ( 'NONE', *, *, #1068, .F. ) ;
#423 = VECTOR ( 'NONE', #857, 1000.000000000000000 ) ;
#424 = DIRECTION ( 'NONE',  ( -1.000000000000000000, -2.204222968204329341E-16, -0.000000000000000000 ) ) ;
#425 = DIRECTION ( 'NONE',  ( -1.000000000000000000, 0.000000000000000000, 0.000000000000000000 ) ) ;
#426 = ORIENTED_EDGE ( 'NONE', *, *, #797, .F. ) ;
#427 = ORIENTED_EDGE ( 'NONE', *, *, #494, .F. ) ;
#428 = EDGE_CURVE ( 'NONE', #455, #484, #991, .T. ) ;
#429 = CARTESIAN_POINT ( 'NONE',  ( -7.364999999999993108, -3.934999999999999165, 0.1250000000000000000 ) ) ;
#430 = DIRECTION ( 'NONE',  ( 1.235558031322512552E-16, -1.000000000000000000, 0.000000000000000000 ) ) ;
#431 = PLANE ( 'NONE',  #818 ) ;
#432 = VERTEX_POINT ( 'NONE', #152 ) ;
#433 = AXIS2_PLACEMENT_3D ( 'NONE', #555, #884, #135 ) ;
#434 = CARTESIAN_POINT ( 'NONE',  ( 9.850000000000003197, -3.934999999999995612, 0.1249999999999996808 ) ) ;
#435 = LINE ( 'NONE', #763, #454 ) ;
#436 = VERTEX_POINT ( 'NONE', #493 ) ;
#437 = FACE_OUTER_BOUND ( 'NONE', #630, .T. ) ;
#438 = VECTOR ( 'NONE', #948, 1000.000000000000000 ) ;
#439 = DIRECTION ( 'NONE',  ( -3.938150816133954747E-17, 0.1742824260697357908, -0.9846957072940081268 ) ) ;
#440 = EDGE_LOOP ( 'NONE', ( #501, #181, #238, #479 ) ) ;
#441 = EDGE_CURVE ( 'NONE', #985, #586, #822, .T. ) ;
#442 = CARTESIAN_POINT ( 'NONE',  ( 9.850000000000003197, -3.934999999999995612, -0.1250000000000001110 ) ) ;
#443 = DIRECTION ( 'NONE',  ( -1.000000000000000000, 0.000000000000000000, 0.000000000000000000 ) ) ;
#444 = DIRECTION ( 'NONE',  ( 0.000000000000000000, 0.000000000000000000, 1.000000000000000000 ) ) ;
#445 = VERTEX_POINT ( 'NONE', #562 ) ;
#446 = VECTOR ( 'NONE', #556, 1000.000000000000000 ) ;
#447 = DIRECTION ( 'NONE',  ( -3.938150816133954747E-17, 0.1742824260697357908, -0.9846957072940081268 ) ) ;
#448 = FACE_OUTER_BOUND ( 'NONE', #707, .T. ) ;
#449 = ORIENTED_EDGE ( 'NONE', *, *, #346, .T. ) ;
#450 = EDGE_CURVE ( 'NONE', #489, #148, #243, .T. ) ;
#451 = DIRECTION ( 'NONE',  ( 0.000000000000000000, 1.000000000000000000, -0.000000000000000000 ) ) ;
#452 = DIRECTION ( 'NONE',  ( 0.000000000000000000, 0.000000000000000000, 1.000000000000000000 ) ) ;
#453 = DIRECTION ( 'NONE',  ( -1.000000000000000000, 0.000000000000000000, 0.000000000000000000 ) ) ;
#454 = VECTOR ( 'NONE', #180, 1000.000000000000000 ) ;
#455 = VERTEX_POINT ( 'NONE', #1060 ) ;
#456 = VECTOR ( 'NONE', #515, 1000.000000000000227 ) ;
#457 = CARTESIAN_POINT ( 'NONE',  ( 2.795000000000003926, -7.444999999999998508, 0.1250000000000000000 ) ) ;
#458 = LINE ( 'NONE', #1036, #334 ) ;
#459 = VERTEX_POINT ( 'NONE', #316 ) ;
#460 = ORIENTED_EDGE ( 'NONE', *, *, #183, .T. ) ;
#461 = FACE_OUTER_BOUND ( 'NONE', #964, .T. ) ;
#462 = VECTOR ( 'NONE', #653, 1000.000000000000000 ) ;
#463 = FACE_OUTER_BOUND ( 'NONE', #35, .T. ) ;
#464 = DIRECTION ( 'NONE',  ( 0.000000000000000000, -1.000000000000000000, 0.000000000000000000 ) ) ;
#465 = EDGE_CURVE ( 'NONE', #30, #1009, #578, .T. ) ;
#466 = VECTOR ( 'NONE', #867, 1000.000000000000000 ) ;
#467 = VERTEX_POINT ( 'NONE', #163 ) ;
#468 = ORIENTED_EDGE ( 'NONE', *, *, #1015, .T. ) ;
#469 = FACE_OUTER_BOUND ( 'NONE', #440, .T. ) ;
#470 = LINE ( 'NONE', #123, #672 ) ;
#471 = CARTESIAN_POINT ( 'NONE',  ( -7.874999999999994671, -3.935000000000000053, -0.1250000000000001110 ) ) ;
#472 = ORIENTED_EDGE ( 'NONE', *, *, #571, .F. ) ;
#473 = ORIENTED_EDGE ( 'NONE', *, *, #361, .T. ) ;
#474 = PLANE ( 'NONE',  #433 ) ;
#475 = FACE_OUTER_BOUND ( 'NONE', #673, .T. ) ;
#476 = ADVANCED_FACE ( 'NONE', ( #437 ), #506, .T. ) ;
#477 = DIRECTION ( 'NONE',  ( 1.000000000000000000, 0.000000000000000000, 0.000000000000000000 ) ) ;
#478 = ORIENTED_EDGE ( 'NONE', *, *, #10, .T. ) ;
#479 = ORIENTED_EDGE ( 'NONE', *, *, #881, .T. ) ;
#480 = DIRECTION ( 'NONE',  ( -4.770489558936218721E-15, -1.000000000000000000, 0.000000000000000000 ) ) ;
#481 = AXIS2_PLACEMENT_3D ( 'NONE', #983, #335, #996 ) ;
#482 = CARTESIAN_POINT ( 'NONE',  ( 7.364999999999994884, -7.444999999999996732, 0.1250000000000000000 ) ) ;
#483 = EDGE_LOOP ( 'NONE', ( #1061, #804, #426, #367, #575, #790, #956, #943, #193, #288, #950, #1037 ) ) ;
#484 = VERTEX_POINT ( 'NONE', #340 ) ;
#485 = DIRECTION ( 'NONE',  ( 0.000000000000000000, -1.000000000000000000, 0.000000000000000000 ) ) ;
#486 = PLANE ( 'NONE',  #171 ) ;
#487 = EDGE_CURVE ( 'NONE', #309, #940, #182, .T. ) ;
#488 = LINE ( 'NONE', #666, #734 ) ;
#489 = VERTEX_POINT ( 'NONE', #846 ) ;
#490 = VECTOR ( 'NONE', #464, 1000.000000000000000 ) ;
#491 = ADVANCED_FACE ( 'NONE', ( #23 ), #520, .F. ) ;
#492 = PRESENTATION_STYLE_ASSIGNMENT (( #412 ) ) ;
#493 = CARTESIAN_POINT ( 'NONE',  ( 7.364999999999994884, -3.934999999999996501, 0.1249999999999996808 ) ) ;
#494 = EDGE_CURVE ( 'NONE', #985, #175, #510, .T. ) ;
#495 = VECTOR ( 'NONE', #401, 1000.000000000000000 ) ;
#496 = VERTEX_POINT ( 'NONE', #1016 ) ;
#497 = ORIENTED_EDGE ( 'NONE', *, *, #203, .F. ) ;
#498 = FILL_AREA_STYLE_COLOUR ( '', #828 ) ;
#499 = LINE ( 'NONE', #71, #576 ) ;
#500 = PRODUCT_RELATED_PRODUCT_CATEGORY ( 'part', '', ( #363 ) ) ;
#501 = ORIENTED_EDGE ( 'NONE', *, *, #525, .T. ) ;
#502 = VECTOR ( 'NONE', #65, 1000.000000000000000 ) ;
#503 = MECHANICAL_DESIGN_GEOMETRIC_PRESENTATION_REPRESENTATION (  '', ( #358 ), #742 ) ;
#504 = ORIENTED_EDGE ( 'NONE', *, *, #398, .F. ) ;
#505 = LINE ( 'NONE', #79, #757 ) ;
#506 = PLANE ( 'NONE',  #784 ) ;
#507 = ORIENTED_EDGE ( 'NONE', *, *, #1019, .F. ) ;
#508 = ORIENTED_EDGE ( 'NONE', *, *, #376, .F. ) ;
#509 = DIRECTION ( 'NONE',  ( -0.000000000000000000, -0.000000000000000000, -1.000000000000000000 ) ) ;
#510 = LINE ( 'NONE', #17, #821 ) ;
#511 = FILL_AREA_STYLE_COLOUR ( '', #375 ) ;
#512 = EDGE_CURVE ( 'NONE', #820, #1014, #608, .T. ) ;
#513 = CARTESIAN_POINT ( 'NONE',  ( -7.364999999999993108, -3.934999999999999165, 0.1250000000000000000 ) ) ;
#514 = ORIENTED_EDGE ( 'NONE', *, *, #487, .T. ) ;
#515 = DIRECTION ( 'NONE',  ( -0.000000000000000000, -0.03701166050988097950, -0.9993148337667669967 ) ) ;
#516 = PLANE ( 'NONE',  #366 ) ;
#517 = ORIENTED_EDGE ( 'NONE', *, *, #120, .F. ) ;
#518 = EDGE_CURVE ( 'NONE', #148, #560, #933, .T. ) ;
#519 = VECTOR ( 'NONE', #873, 1000.000000000000000 ) ;
#520 = PLANE ( 'NONE',  #353 ) ;
#521 = DIRECTION ( 'NONE',  ( 1.000000000000000000, -0.000000000000000000, -0.000000000000000000 ) ) ;
#522 = EDGE_CURVE ( 'NONE', #496, #1039, #1006, .T. ) ;
#523 = CARTESIAN_POINT ( 'NONE',  ( 9.849999999999999645, 3.435000000000005826, 2.825000000000000178 ) ) ;
#524 = EDGE_LOOP ( 'NONE', ( #845, #913, #51, #478, #825, #230, #40 ) ) ;
#525 = EDGE_CURVE ( 'NONE', #445, #467, #756, .T. ) ;
#526 = CARTESIAN_POINT ( 'NONE',  ( -9.849999999999999645, -3.934999999999999165, 2.825000000000000178 ) ) ;
#527 = VECTOR ( 'NONE', #66, 1000.000000000000000 ) ;
#528 = CARTESIAN_POINT ( 'NONE',  ( -7.874999999999994671, -3.934999999999999165, -0.1250000000000000000 ) ) ;
#529 = EDGE_CURVE ( 'NONE', #747, #213, #670, .T. ) ;
#530 = ORIENTED_EDGE ( 'NONE', *, *, #911, .T. ) ;
#531 = CARTESIAN_POINT ( 'NONE',  ( -2.794999999999990159, -3.934999999999998277, -0.1250000000000001110 ) ) ;
#532 = DIRECTION ( 'NONE',  ( -4.770489558936218721E-15, -1.000000000000000000, 0.000000000000000000 ) ) ;
#533 = ORIENTED_EDGE ( 'NONE', *, *, #685, .F. ) ;
#534 = AXIS2_PLACEMENT_3D ( 'NONE', #257, #838, #908 ) ;
#535 = AXIS2_PLACEMENT_3D ( 'NONE', #49, #875, #885 ) ;
#536 = DIRECTION ( 'NONE',  ( 1.000000000000000000, 0.000000000000000000, 0.000000000000000000 ) ) ;
#537 = LINE ( 'NONE', #285, #187 ) ;
#538 = VERTEX_POINT ( 'NONE', #273 ) ;
#539 = CARTESIAN_POINT ( 'NONE',  ( 7.874999999999996447, -7.444999999999996732, 0.1250000000000000000 ) ) ;
#540 = CARTESIAN_POINT ( 'NONE',  ( -2.285000000000017906, -4.444999999999998508, -0.1250000000000000000 ) ) ;
#541 = FACE_OUTER_BOUND ( 'NONE', #999, .T. ) ;
#542 = EDGE_LOOP ( 'NONE', ( #574, #517, #554, #154 ) ) ;
#543 = VERTEX_POINT ( 'NONE', #833 ) ;
#544 = VECTOR ( 'NONE', #733, 1000.000000000000000 ) ;
#545 = LINE ( 'NONE', #625, #893 ) ;
#546 = FACE_OUTER_BOUND ( 'NONE', #126, .T. ) ;
#547 = CARTESIAN_POINT ( 'NONE',  ( -9.849999999999999645, 3.435000000000001386, 2.825000000000000178 ) ) ;
#548 = ORIENTED_EDGE ( 'NONE', *, *, #938, .F. ) ;
#549 = ORIENTED_EDGE ( 'NONE', *, *, #777, .F. ) ;
#550 = DIRECTION ( 'NONE',  ( -9.107298248878237246E-15, 1.000000000000000000, -0.000000000000000000 ) ) ;
#551 = LINE ( 'NONE', #400, #860 ) ;
#552 = DIRECTION ( 'NONE',  ( -0.000000000000000000, -0.000000000000000000, -1.000000000000000000 ) ) ;
#553 = ORIENTED_EDGE ( 'NONE', *, *, #410, .T. ) ;
#554 = ORIENTED_EDGE ( 'NONE', *, *, #139, .F. ) ;
#555 = CARTESIAN_POINT ( 'NONE',  ( 1.782147842886064204, -4.444999999999999396, 0.1250000000000000000 ) ) ;
#556 = DIRECTION ( 'NONE',  ( 1.000000000000000000, 0.000000000000000000, 0.000000000000000000 ) ) ;
#557 = LINE ( 'NONE', #384, #13 ) ;
#558 = VECTOR ( 'NONE', #681, 1000.000000000000000 ) ;
#559 = ORIENTED_EDGE ( 'NONE', *, *, #668, .T. ) ;
#560 = VERTEX_POINT ( 'NONE', #80 ) ;
#561 = LINE ( 'NONE', #140, #59 ) ;
#562 = CARTESIAN_POINT ( 'NONE',  ( 7.874999999999996447, -7.444999999999996732, -0.1250000000000000000 ) ) ;
#563 = ORIENTED_EDGE ( 'NONE', *, *, #114, .T. ) ;
#564 = VERTEX_POINT ( 'NONE', #766 ) ;
#565 = LINE ( 'NONE', #394, #108 ) ;
#566 = DIRECTION ( 'NONE',  ( -0.000000000000000000, -1.000000000000000000, -0.000000000000000000 ) ) ;
#567 = CARTESIAN_POINT ( 'NONE',  ( 9.849999999999997868, 3.935000000000000941, -2.825000000000000178 ) ) ;
#568 = VECTOR ( 'NONE', #278, 1000.000000000000000 ) ;
#569 = EDGE_CURVE ( 'NONE', #538, #459, #178, .T. ) ;
#570 = ORIENTED_EDGE ( 'NONE', *, *, #722, .F. ) ;
#571 = EDGE_CURVE ( 'NONE', #484, #296, #173, .T. ) ;
#572 = LINE ( 'NONE', #741, #811 ) ;
#573 = CARTESIAN_POINT ( 'NONE',  ( -9.849999999999999645, -3.934999999999999165, 2.825000000000000178 ) ) ;
#574 = ORIENTED_EDGE ( 'NONE', *, *, #959, .T. ) ;
#575 = ORIENTED_EDGE ( 'NONE', *, *, #417, .F. ) ;
#576 = VECTOR ( 'NONE', #827, 1000.000000000000000 ) ;
#577 = EDGE_CURVE ( 'NONE', #816, #436, #348, .T. ) ;
#578 = LINE ( 'NONE', #344, #769 ) ;
#579 = ORIENTED_EDGE ( 'NONE', *, *, #16, .F. ) ;
#580 = EDGE_LOOP ( 'NONE', ( #579, #338, #9, #1044 ) ) ;
#581 = DIRECTION ( 'NONE',  ( -0.000000000000000000, -0.000000000000000000, -1.000000000000000000 ) ) ;
#582 = DIRECTION ( 'NONE',  ( 0.000000000000000000, 1.000000000000000000, 0.000000000000000000 ) ) ;
#583 = FILL_AREA_STYLE ('',( #511 ) ) ;
#584 = ORIENTED_EDGE ( 'NONE', *, *, #125, .F. ) ;
#585 = AXIS2_PLACEMENT_3D ( 'NONE', #33, #452, #270 ) ;
#586 = VERTEX_POINT ( 'NONE', #354 ) ;
#587 = ADVANCED_FACE ( 'NONE', ( #1010 ), #686, .F. ) ;
#588 = LINE ( 'NONE', #921, #810 ) ;
#589 = CARTESIAN_POINT ( 'NONE',  ( 2.794999999999990159, -3.934999999999998277, 0.1250000000000000000 ) ) ;
#590 = DIRECTION ( 'NONE',  ( -0.000000000000000000, -0.000000000000000000, -1.000000000000000000 ) ) ;
#591 = ORIENTED_EDGE ( 'NONE', *, *, #276, .T. ) ;
#592 = VECTOR ( 'NONE', #532, 1000.000000000000000 ) ;
#593 = LINE ( 'NONE', #826, #1031 ) ;
#594 = DIRECTION ( 'NONE',  ( 2.204222968204329094E-16, -1.000000000000000000, 0.000000000000000000 ) ) ;
#595 = EDGE_CURVE ( 'NONE', #560, #1018, #103, .T. ) ;
#596 = DIRECTION ( 'NONE',  ( 0.000000000000000000, 1.000000000000000000, -0.000000000000000000 ) ) ;
#597 = DIRECTION ( 'NONE',  ( 1.000000000000000000, 0.000000000000000000, 0.000000000000000000 ) ) ;
#598 = VECTOR ( 'NONE', #7, 1000.000000000000114 ) ;
#599 = VERTEX_POINT ( 'NONE', #359 ) ;
#600 = ADVANCED_FACE ( 'NONE', ( #753 ), #254, .F. ) ;
#601 = CARTESIAN_POINT ( 'NONE',  ( 2.285000000000018794, -4.444999999999997620, 0.1250000000000000000 ) ) ;
#602 = DIRECTION ( 'NONE',  ( -0.000000000000000000, -0.000000000000000000, -1.000000000000000000 ) ) ;
#603 = APPLICATION_PROTOCOL_DEFINITION ( 'draft international standard', 'automotive_design', 1998, #70 ) ;
#604 = VERTEX_POINT ( 'NONE', #32 ) ;
#605 = ADVANCED_FACE ( 'NONE', ( #469 ), #709, .F. ) ;
#606 = AXIS2_PLACEMENT_3D ( 'NONE', #960, #194, #536 ) ;
#607 = EDGE_CURVE ( 'NONE', #373, #323, #48, .T. ) ;
#608 = LINE ( 'NONE', #601, #69 ) ;
#609 = LINE ( 'NONE', #20, #558 ) ;
#610 = ORIENTED_EDGE ( 'NONE', *, *, #314, .F. ) ;
#611 = CARTESIAN_POINT ( 'NONE',  ( 2.285000000000018794, -4.444999999999997620, -0.1250000000000000000 ) ) ;
#612 = DIRECTION ( 'NONE',  ( 0.000000000000000000, -0.000000000000000000, 1.000000000000000000 ) ) ;
#613 = LINE ( 'NONE', #342, #423 ) ;
#614 = EDGE_LOOP ( 'NONE', ( #1062, #644, #1051, #883 ) ) ;
#615 = FACE_OUTER_BOUND ( 'NONE', #946, .T. ) ;
#616 = DIRECTION ( 'NONE',  ( 0.000000000000000000, 0.000000000000000000, -1.000000000000000000 ) ) ;
#617 = EDGE_CURVE ( 'NONE', #63, #467, #1024, .T. ) ;
#618 = EDGE_CURVE ( 'NONE', #121, #747, #277, .T. ) ;
#619 = VERTEX_POINT ( 'NONE', #866 ) ;
#620 = LINE ( 'NONE', #715, #41 ) ;
#621 = EDGE_CURVE ( 'NONE', #436, #489, #1034, .T. ) ;
#622 = PLANE ( 'NONE',  #252 ) ;
#623 = CARTESIAN_POINT ( 'NONE',  ( -7.364999999999993108, -7.444999999999998508, 0.1250000000000000000 ) ) ;
#624 = VERTEX_POINT ( 'NONE', #282 ) ;
#625 = CARTESIAN_POINT ( 'NONE',  ( -2.285000000000017906, -4.444999999999998508, -0.1250000000000000000 ) ) ;
#626 = CARTESIAN_POINT ( 'NONE',  ( -7.364999999999993108, -7.444999999999998508, 0.1250000000000000000 ) ) ;
#627 = VECTOR ( 'NONE', #602, 1000.000000000000000 ) ;
#628 = CARTESIAN_POINT ( 'NONE',  ( 0.000000000000000000, 0.000000000000000000, -0.1250000000000000000 ) ) ;
#629 = ORIENTED_EDGE ( 'NONE', *, *, #797, .T. ) ;
#630 = EDGE_LOOP ( 'NONE', ( #164, #508, #188, #56 ) ) ;
#631 = VECTOR ( 'NONE', #237, 1000.000000000000000 ) ;
#632 = LINE ( 'NONE', #290, #519 ) ;
#633 = EDGE_CURVE ( 'NONE', #643, #432, #723, .T. ) ;
#634 = CARTESIAN_POINT ( 'NONE',  ( 0.000000000000000000, 0.000000000000000000, -2.825000000000000178 ) ) ;
#635 = CARTESIAN_POINT ( 'NONE',  ( 9.850000000000003197, -3.934999999999995612, -0.1250000000000001110 ) ) ;
#636 = ORIENTED_EDGE ( 'NONE', *, *, #346, .F. ) ;
#637 = ORIENTED_EDGE ( 'NONE', *, *, #161, .T. ) ;
#638 = CARTESIAN_POINT ( 'NONE',  ( -1.782147842886064204, -4.444999999999999396, 0.1250000000000000000 ) ) ;
#639 = PRESENTATION_LAYER_ASSIGNMENT (  '', '', ( #980 ) ) ;
#640 = AXIS2_PLACEMENT_3D ( 'NONE', #634, #208, #305 ) ;
#641 = DIRECTION ( 'NONE',  ( -3.953785700232039377E-15, 1.000000000000000000, -0.000000000000000000 ) ) ;
#642 = DIRECTION ( 'NONE',  ( -1.000000000000000000, 0.000000000000000000, 0.000000000000000000 ) ) ;
#643 = VERTEX_POINT ( 'NONE', #531 ) ;
#644 = ORIENTED_EDGE ( 'NONE', *, *, #617, .F. ) ;
#645 = PLANE ( 'NONE',  #160 ) ;
#646 = DIRECTION ( 'NONE',  ( 0.000000000000000000, -0.000000000000000000, 1.000000000000000000 ) ) ;
#647 = LINE ( 'NONE', #978, #1008 ) ;
#648 = ORIENTED_EDGE ( 'NONE', *, *, #417, .T. ) ;
#649 = DIRECTION ( 'NONE',  ( 0.000000000000000000, 0.000000000000000000, 1.000000000000000000 ) ) ;
#650 = PLANE ( 'NONE',  #1040 ) ;
#651 = DIRECTION ( 'NONE',  ( -2.202712709055999152E-16, 0.9993148337667671077, 0.03701166050988068806 ) ) ;
#652 = EDGE_LOOP ( 'NONE', ( #877, #251, #128, #994, #68, #648 ) ) ;
#653 = DIRECTION ( 'NONE',  ( -3.953785700232039377E-15, 1.000000000000000000, -0.000000000000000000 ) ) ;
#654 = VECTOR ( 'NONE', #509, 1000.000000000000000 ) ;
#655 = PLANE ( 'NONE',  #993 ) ;
#656 = VERTEX_POINT ( 'NONE', #855 ) ;
#657 = AXIS2_PLACEMENT_3D ( 'NONE', #304, #298, #799 ) ;
#658 = EDGE_LOOP ( 'NONE', ( #798, #224, #1027, #819 ) ) ;
#659 = SURFACE_SIDE_STYLE ('',( #1077 ) ) ;
#660 = CARTESIAN_POINT ( 'NONE',  ( 9.850000000000003197, -3.934999999999995612, 0.1249999999999996808 ) ) ;
#661 = FACE_OUTER_BOUND ( 'NONE', #62, .T. ) ;
#662 = ORIENTED_EDGE ( 'NONE', *, *, #183, .F. ) ;
#663 = AXIS2_PLACEMENT_3D ( 'NONE', #788, #616, #453 ) ;
#664 = DIRECTION ( 'NONE',  ( 1.000000000000000000, -0.000000000000000000, -0.000000000000000000 ) ) ;
#665 = CARTESIAN_POINT ( 'NONE',  ( 9.849999999999999645, 3.435000000000005826, 2.825000000000000178 ) ) ;
#666 = CARTESIAN_POINT ( 'NONE',  ( -9.850000000000001421, 3.935000000000000941, -2.825000000000000178 ) ) ;
#667 = VERTEX_POINT ( 'NONE', #540 ) ;
#668 = EDGE_CURVE ( 'NONE', #309, #213, #107, .T. ) ;
#669 = DIRECTION ( 'NONE',  ( -0.000000000000000000, -1.000000000000000000, -0.000000000000000000 ) ) ;
#670 = LINE ( 'NONE', #842, #598 ) ;
#671 = FACE_OUTER_BOUND ( 'NONE', #362, .T. ) ;
#672 = VECTOR ( 'NONE', #641, 1000.000000000000000 ) ;
#673 = EDGE_LOOP ( 'NONE', ( #684, #211, #969, #736 ) ) ;
#674 = LINE ( 'NONE', #253, #654 ) ;
#675 = CARTESIAN_POINT ( 'NONE',  ( -9.849999999999999645, -3.934999999999999165, 2.825000000000000178 ) ) ;
#676 = DIRECTION ( 'NONE',  ( -2.202712709055999399E-16, 0.9993148337667671077, -0.03701166050988099337 ) ) ;
#677 = ORIENTED_EDGE ( 'NONE', *, *, #260, .F. ) ;
#678 = EDGE_CURVE ( 'NONE', #564, #213, #620, .T. ) ;
#679 = CARTESIAN_POINT ( 'NONE',  ( 7.874999999999994671, -3.934999999999997389, 0.1250000000000000000 ) ) ;
#680 = EDGE_CURVE ( 'NONE', #599, #308, #632, .T. ) ;
#681 = DIRECTION ( 'NONE',  ( -0.000000000000000000, -0.000000000000000000, -1.000000000000000000 ) ) ;
#682 = PRODUCT_CONTEXT ( 'NONE', #15, 'mechanical' ) ;
#683 = VECTOR ( 'NONE', #167, 1000.000000000000000 ) ;
#684 = ORIENTED_EDGE ( 'NONE', *, *, #697, .T. ) ;
#685 = EDGE_CURVE ( 'NONE', #496, #940, #775, .T. ) ;
#686 = PLANE ( 'NONE',  #263 ) ;
#687 = PLANE ( 'NONE',  #585 ) ;
#688 = DIRECTION ( 'NONE',  ( -2.204222968204329341E-16, 1.000000000000000000, 0.000000000000000000 ) ) ;
#689 = ORIENTED_EDGE ( 'NONE', *, *, #889, .T. ) ;
#690 =( GEOMETRIC_REPRESENTATION_CONTEXT ( 3 ) GLOBAL_UNCERTAINTY_ASSIGNED_CONTEXT ( ( #919 ) ) GLOBAL_UNIT_ASSIGNED_CONTEXT ( ( #910, #896, #330 ) ) REPRESENTATION_CONTEXT ( 'NONE', 'WORKASPACE' ) );
#691 = EDGE_CURVE ( 'NONE', #816, #467, #382, .T. ) ;
#692 = DIRECTION ( 'NONE',  ( 0.000000000000000000, 0.03701166050988068112, -0.9993148337667669967 ) ) ;
#693 = PLANE ( 'NONE',  #127 ) ;
#694 = CARTESIAN_POINT ( 'NONE',  ( 9.850000000000003197, -3.934999999999995612, 0.1249999999999996808 ) ) ;
#695 = ORIENTED_EDGE ( 'NONE', *, *, #413, .F. ) ;
#696 = AXIS2_PLACEMENT_3D ( 'NONE', #1003, #356, #1017 ) ;
#697 = EDGE_CURVE ( 'NONE', #656, #667, #545, .T. ) ;
#698 = DIRECTION ( 'NONE',  ( 1.724884194524488816E-15, 1.000000000000000000, -0.000000000000000000 ) ) ;
#699 = LINE ( 'NONE', #880, #717 ) ;
#700 = ORIENTED_EDGE ( 'NONE', *, *, #297, .T. ) ;
#701 = ADVANCED_FACE ( 'NONE', ( #461 ), #944, .F. ) ;
#702 = CARTESIAN_POINT ( 'NONE',  ( 9.850000000000003197, -3.934999999999995612, 0.1249999999999996808 ) ) ;
#703 = LINE ( 'NONE', #781, #568 ) ;
#704 = LINE ( 'NONE', #968, #47 ) ;
#705 = ORIENTED_EDGE ( 'NONE', *, *, #100, .F. ) ;
#706 = AXIS2_PLACEMENT_3D ( 'NONE', #1002, #858, #597 ) ;
#707 = EDGE_LOOP ( 'NONE', ( #392, #106, #610, #497, #204, #559, #995 ) ) ;
#708 = AXIS2_PLACEMENT_3D ( 'NONE', #589, #922, #122 ) ;
#709 = PLANE ( 'NONE',  #657 ) ;
#710 = ADVANCED_FACE ( 'NONE', ( #615 ), #116, .T. ) ;
#711 = CARTESIAN_POINT ( 'NONE',  ( -7.364999999999991331, -3.934999999999999165, -0.1250000000000001110 ) ) ;
#712 = CARTESIAN_POINT ( 'NONE',  ( -9.849999999999999645, -3.935000000000000053, 0.1249999999999996808 ) ) ;
#713 = EDGE_LOOP ( 'NONE', ( #74, #1049, #399, #773 ) ) ;
#714 = ADVANCED_FACE ( 'NONE', ( #111 ), #953, .F. ) ;
#715 = CARTESIAN_POINT ( 'NONE',  ( 9.849999999999997868, 3.935000000000005382, -1.214106236941713219E-31 ) ) ;
#716 = CARTESIAN_POINT ( 'NONE',  ( -7.874999999999992895, -7.444999999999998508, -0.1250000000000000000 ) ) ;
#717 = VECTOR ( 'NONE', #863, 1000.000000000000000 ) ;
#718 = CARTESIAN_POINT ( 'NONE',  ( -1.782147842886064204, -3.934999999999998277, 0.1249999999999996808 ) ) ;
#719 = EDGE_CURVE ( 'NONE', #624, #391, #787, .T. ) ;
#720 = VERTEX_POINT ( 'NONE', #374 ) ;
#721 = ORIENTED_EDGE ( 'NONE', *, *, #276, .F. ) ;
#722 = EDGE_CURVE ( 'NONE', #484, #543, #1053, .T. ) ;
#723 = LINE ( 'NONE', #189, #982 ) ;
#724 = DIRECTION ( 'NONE',  ( -0.000000000000000000, -0.000000000000000000, -1.000000000000000000 ) ) ;
#725 = CARTESIAN_POINT ( 'NONE',  ( 9.850000000000003197, -3.934999999999995612, 0.1249999999999996808 ) ) ;
#726 = EDGE_LOOP ( 'NONE', ( #533, #553, #246, #514 ) ) ;
#727 = DIRECTION ( 'NONE',  ( -0.000000000000000000, -0.000000000000000000, -1.000000000000000000 ) ) ;
#728 = VECTOR ( 'NONE', #664, 1000.000000000000000 ) ;
#729 = DIRECTION ( 'NONE',  ( 0.000000000000000000, 0.000000000000000000, 1.000000000000000000 ) ) ;
#730 = CARTESIAN_POINT ( 'NONE',  ( -7.874999999999994671, -3.935000000000000053, 0.1249999999999996808 ) ) ;
#731 = EDGE_LOOP ( 'NONE', ( #778, #234, #422, #1081, #905, #95 ) ) ;
#732 = CARTESIAN_POINT ( 'NONE',  ( -2.284999999999990816, -7.444999999999998508, 0.1250000000000000000 ) ) ;
#733 = DIRECTION ( 'NONE',  ( -1.000000000000000000, -6.748763886870308946E-14, -0.000000000000000000 ) ) ;
#734 = VECTOR ( 'NONE', #158, 1000.000000000000000 ) ;
#735 = DIRECTION ( 'NONE',  ( -0.000000000000000000, 1.000000000000000000, -0.000000000000000000 ) ) ;
#736 = ORIENTED_EDGE ( 'NONE', *, *, #398, .T. ) ;
#737 = VECTOR ( 'NONE', #11, 1000.000000000000000 ) ;
#738 = CARTESIAN_POINT ( 'NONE',  ( 9.849999999999997868, 3.935000000000000941, 2.825000000000000178 ) ) ;
#739 = ORIENTED_EDGE ( 'NONE', *, *, #871, .F. ) ;
#740 = ORIENTED_EDGE ( 'NONE', *, *, #150, .F. ) ;
#741 = CARTESIAN_POINT ( 'NONE',  ( -2.285000000000017906, -4.444999999999998508, 0.1250000000000000000 ) ) ;
#742 =( GEOMETRIC_REPRESENTATION_CONTEXT ( 3 ) GLOBAL_UNCERTAINTY_ASSIGNED_CONTEXT ( ( #1057 ) ) GLOBAL_UNIT_ASSIGNED_CONTEXT ( ( #85, #748, #990 ) ) REPRESENTATION_CONTEXT ( 'NONE', 'WORKASPACE' ) );
#743 = CARTESIAN_POINT ( 'NONE',  ( 9.850000000000003197, -3.934999999999995612, 0.1249999999999996808 ) ) ;
#744 = PRESENTATION_STYLE_ASSIGNMENT (( #245 ) ) ;
#745 = DIRECTION ( 'NONE',  ( -3.938150816133959677E-17, 0.1742824260697357908, 0.9846957072940081268 ) ) ;
#746 = VECTOR ( 'NONE', #112, 1000.000000000000000 ) ;
#747 = VERTEX_POINT ( 'NONE', #966 ) ;
#748 =( NAMED_UNIT ( * ) PLANE_ANGLE_UNIT ( ) SI_UNIT ( $, .RADIAN. ) );
#749 = CARTESIAN_POINT ( 'NONE',  ( 2.794999999999990159, -3.934999999999998277, -0.1250000000000000000 ) ) ;
#750 = PLANE ( 'NONE',  #31 ) ;
#751 = ORIENTED_EDGE ( 'NONE', *, *, #719, .F. ) ;
#752 = CARTESIAN_POINT ( 'NONE',  ( 9.850000000000003197, -3.934999999999995612, 0.1249999999999996808 ) ) ;
#753 = FACE_OUTER_BOUND ( 'NONE', #403, .T. ) ;
#754 = ORIENTED_EDGE ( 'NONE', *, *, #46, .F. ) ;
#755 = ORIENTED_EDGE ( 'NONE', *, *, #267, .T. ) ;
#756 = LINE ( 'NONE', #928, #1063 ) ;
#757 = VECTOR ( 'NONE', #424, 1000.000000000000000 ) ;
#758 = LINE ( 'NONE', #934, #1058 ) ;
#759 = VECTOR ( 'NONE', #368, 1000.000000000000000 ) ;
#760 = ORIENTED_EDGE ( 'NONE', *, *, #633, .F. ) ;
#761 = ADVANCED_FACE ( 'NONE', ( #221 ), #474, .F. ) ;
#762 = CARTESIAN_POINT ( 'NONE',  ( 9.849999999999999645, 3.815476877515382892, 0.6753056420381199354 ) ) ;
#763 = CARTESIAN_POINT ( 'NONE',  ( 9.850000000000003197, -3.934999999999995612, -0.1250000000000001110 ) ) ;
#764 = ORIENTED_EDGE ( 'NONE', *, *, #793, .T. ) ;
#765 = AXIS2_PLACEMENT_3D ( 'NONE', #628, #209, #34 ) ;
#766 = CARTESIAN_POINT ( 'NONE',  ( 9.849999999999997868, 3.935000000000005382, -1.214106236941713219E-31 ) ) ;
#767 = CARTESIAN_POINT ( 'NONE',  ( 7.874999999999996447, -7.444999999999996732, 0.1250000000000000000 ) ) ;
#768 = ADVANCED_FACE ( 'NONE', ( #805 ), #53, .F. ) ;
#769 = VECTOR ( 'NONE', #692, 1000.000000000000227 ) ;
#770 = ORIENTED_EDGE ( 'NONE', *, *, #161, .F. ) ;
#771 = DIRECTION ( 'NONE',  ( -1.000000000000000000, -2.204222968204329341E-16, -0.000000000000000000 ) ) ;
#772 = CARTESIAN_POINT ( 'NONE',  ( 2.285000000000004583, -7.444999999999998508, 0.1250000000000000000 ) ) ;
#773 = ORIENTED_EDGE ( 'NONE', *, *, #618, .T. ) ;
#774 = VECTOR ( 'NONE', #389, 1000.000000000000000 ) ;
#775 = LINE ( 'NONE', #792, #286 ) ;
#776 = CARTESIAN_POINT ( 'NONE',  ( 1.782147842886064204, -4.444999999999999396, 0.1250000000000000000 ) ) ;
#777 = EDGE_CURVE ( 'NONE', #373, #301, #200, .T. ) ;
#778 = ORIENTED_EDGE ( 'NONE', *, *, #92, .F. ) ;
#779 = AXIS2_PLACEMENT_3D ( 'NONE', #694, #676, #848 ) ;
#780 = DIRECTION ( 'NONE',  ( 0.000000000000000000, 0.000000000000000000, 1.000000000000000000 ) ) ;
#781 = CARTESIAN_POINT ( 'NONE',  ( -1.782147842886064204, -3.934999999999999165, 0.1250000000000000000 ) ) ;
#782 = FACE_OUTER_BOUND ( 'NONE', #731, .T. ) ;
#783 = ORIENTED_EDGE ( 'NONE', *, *, #176, .T. ) ;
#784 = AXIS2_PLACEMENT_3D ( 'NONE', #762, #264, #86 ) ;
#785 = EDGE_CURVE ( 'NONE', #1039, #63, #1025, .T. ) ;
#786 = DIRECTION ( 'NONE',  ( -1.000000000000000000, 0.000000000000000000, 0.000000000000000000 ) ) ;
#787 = LINE ( 'NONE', #878, #326 ) ;
#788 = CARTESIAN_POINT ( 'NONE',  ( 0.000000000000000000, 0.000000000000000000, -0.1250000000000000000 ) ) ;
#789 = ADVANCED_FACE ( 'NONE', ( #25 ), #693, .F. ) ;
#790 = ORIENTED_EDGE ( 'NONE', *, *, #361, .F. ) ;
#791 = AXIS2_PLACEMENT_3D ( 'NONE', #457, #451, #780 ) ;
#792 = CARTESIAN_POINT ( 'NONE',  ( 9.850000000000003197, -3.834999999999993747, 2.825000000000001066 ) ) ;
#793 = EDGE_CURVE ( 'NONE', #296, #1018, #703, .T. ) ;
#794 = CARTESIAN_POINT ( 'NONE',  ( -2.794999999999989271, -3.934999999999999165, 0.1250000000000000000 ) ) ;
#795 = DIRECTION ( 'NONE',  ( 1.000000000000000000, 0.000000000000000000, 0.000000000000000000 ) ) ;
#796 = VERTEX_POINT ( 'NONE', #196 ) ;
#797 = EDGE_CURVE ( 'NONE', #586, #421, #355, .T. ) ;
#798 = ORIENTED_EDGE ( 'NONE', *, *, #569, .T. ) ;
#799 = DIRECTION ( 'NONE',  ( 4.942232125290051194E-16, -1.000000000000000000, 0.000000000000000000 ) ) ;
#800 = PLANE ( 'NONE',  #197 ) ;
#801 = VECTOR ( 'NONE', #306, 1000.000000000000227 ) ;
#802 = DIRECTION ( 'NONE',  ( -0.000000000000000000, 0.000000000000000000, 1.000000000000000000 ) ) ;
#803 = ORIENTED_EDGE ( 'NONE', *, *, #607, .F. ) ;
#804 = ORIENTED_EDGE ( 'NONE', *, *, #1038, .F. ) ;
#805 = FACE_OUTER_BOUND ( 'NONE', #524, .T. ) ;
#806 = PLANE ( 'NONE',  #1052 ) ;
#807 = CARTESIAN_POINT ( 'NONE',  ( 0.000000000000000000, 0.000000000000000000, 0.1250000000000000000 ) ) ;
#808 = ORIENTED_EDGE ( 'NONE', *, *, #297, .F. ) ;
#809 = ORIENTED_EDGE ( 'NONE', *, *, #621, .T. ) ;
#810 = VECTOR ( 'NONE', #406, 1000.000000000000000 ) ;
#811 = VECTOR ( 'NONE', #581, 1000.000000000000000 ) ;
#812 = LINE ( 'NONE', #1059, #728 ) ;
#813 = LINE ( 'NONE', #329, #544 ) ;
#814 = ORIENTED_EDGE ( 'NONE', *, *, #1038, .T. ) ;
#815 = ADVANCED_FACE ( 'NONE', ( #284 ), #687, .F. ) ;
#816 = VERTEX_POINT ( 'NONE', #852 ) ;
#817 = DIRECTION ( 'NONE',  ( -0.000000000000000000, 0.000000000000000000, 1.000000000000000000 ) ) ;
#818 = AXIS2_PLACEMENT_3D ( 'NONE', #767, #596, #444 ) ;
#819 = ORIENTED_EDGE ( 'NONE', *, *, #260, .T. ) ;
#820 = VERTEX_POINT ( 'NONE', #370 ) ;
#821 = VECTOR ( 'NONE', #430, 1000.000000000000000 ) ;
#822 = LINE ( 'NONE', #660, #495 ) ;
#823 = ORIENTED_EDGE ( 'NONE', *, *, #971, .T. ) ;
#824 = ADVANCED_FACE ( 'NONE', ( #1029 ), #622, .F. ) ;
#825 = ORIENTED_EDGE ( 'NONE', *, *, #186, .F. ) ;
#826 = CARTESIAN_POINT ( 'NONE',  ( -7.874999999999992895, -7.444999999999998508, -0.1250000000000000000 ) ) ;
#827 = DIRECTION ( 'NONE',  ( -0.000000000000000000, -0.000000000000000000, -1.000000000000000000 ) ) ;
#828 = COLOUR_RGB ( '',0.7921568627450980005, 0.8196078431372548767, 0.9333333333333333481 ) ;
#829 = CARTESIAN_POINT ( 'NONE',  ( 9.850000000000003197, -3.934999999999995612, -0.1250000000000001110 ) ) ;
#830 = ADVANCED_FACE ( 'NONE', ( #310 ), #976, .F. ) ;
#831 = ORIENTED_EDGE ( 'NONE', *, *, #244, .F. ) ;
#832 = FACE_OUTER_BOUND ( 'NONE', #713, .T. ) ;
#833 = CARTESIAN_POINT ( 'NONE',  ( -1.782147842886064204, -4.444999999999999396, -0.1250000000000000000 ) ) ;
#834 = ORIENTED_EDGE ( 'NONE', *, *, #46, .T. ) ;
#835 = VECTOR ( 'NONE', #853, 1000.000000000000000 ) ;
#836 = ORIENTED_EDGE ( 'NONE', *, *, #518, .T. ) ;
#837 = ADVANCED_FACE ( 'NONE', ( #60 ), #315, .F. ) ;
#838 = DIRECTION ( 'NONE',  ( 0.000000000000000000, 1.000000000000000000, 0.000000000000000000 ) ) ;
#839 = CARTESIAN_POINT ( 'NONE',  ( 1.782147842886064204, -3.934999999999999165, 0.1250000000000000000 ) ) ;
#840 = DIRECTION ( 'NONE',  ( 1.000000000000000000, 0.000000000000000000, -0.000000000000000000 ) ) ;
#841 = ORIENTED_EDGE ( 'NONE', *, *, #907, .T. ) ;
#842 = CARTESIAN_POINT ( 'NONE',  ( -9.849999999999999645, 3.815476877515378451, -0.6753056420381199354 ) ) ;
#843 = LINE ( 'NONE', #772, #226 ) ;
#844 = VECTOR ( 'NONE', #941, 1000.000000000000000 ) ;
#845 = ORIENTED_EDGE ( 'NONE', *, *, #785, .T. ) ;
#846 = CARTESIAN_POINT ( 'NONE',  ( 2.795000000000003926, -3.934999999999997389, 0.1249999999999996808 ) ) ;
#847 = CARTESIAN_POINT ( 'NONE',  ( -7.874999999999992895, -7.444999999999998508, 0.1250000000000000000 ) ) ;
#848 = DIRECTION ( 'NONE',  ( 0.000000000000000000, 0.03701166050988098644, 0.9993148337667669967 ) ) ;
#849 = ORIENTED_EDGE ( 'NONE', *, *, #314, .T. ) ;
#850 = VECTOR ( 'NONE', #414, 1000.000000000000000 ) ;
#851 = DIRECTION ( 'NONE',  ( 0.000000000000000000, 1.000000000000000000, 0.000000000000000000 ) ) ;
#852 = CARTESIAN_POINT ( 'NONE',  ( 7.874999999999996447, -3.934999999999996501, 0.1249999999999996808 ) ) ;
#853 = DIRECTION ( 'NONE',  ( -1.000000000000000000, -0.000000000000000000, -0.000000000000000000 ) ) ;
#854 = EDGE_LOOP ( 'NONE', ( #402, #892, #262, #14 ) ) ;
#855 = CARTESIAN_POINT ( 'NONE',  ( -2.284999999999990816, -7.444999999999998508, -0.1250000000000000000 ) ) ;
#856 = EDGE_CURVE ( 'NONE', #643, #897, #565, .T. ) ;
#857 = DIRECTION ( 'NONE',  ( -1.000000000000000000, 0.000000000000000000, 0.000000000000000000 ) ) ;
#858 = DIRECTION ( 'NONE',  ( 0.000000000000000000, 0.000000000000000000, 1.000000000000000000 ) ) ;
#859 = ORIENTED_EDGE ( 'NONE', *, *, #856, .F. ) ;
#860 = VECTOR ( 'NONE', #485, 1000.000000000000000 ) ;
#861 = CARTESIAN_POINT ( 'NONE',  ( -9.849999999999999645, 3.815476877515378451, 0.6753056420381199354 ) ) ;
#862 = CARTESIAN_POINT ( 'NONE',  ( -7.874999999999994671, -3.934999999999999165, 0.1250000000000000000 ) ) ;
#863 = DIRECTION ( 'NONE',  ( -1.000000000000000000, 8.673617379884035472E-16, -0.000000000000000000 ) ) ;
#864 = ORIENTED_EDGE ( 'NONE', *, *, #139, .T. ) ;
#865 = VECTOR ( 'NONE', #318, 1000.000000000000000 ) ;
#866 = CARTESIAN_POINT ( 'NONE',  ( 2.795000000000003926, -7.444999999999998508, -0.1250000000000000000 ) ) ;
#867 = DIRECTION ( 'NONE',  ( -0.000000000000000000, -0.000000000000000000, -1.000000000000000000 ) ) ;
#868 = FACE_OUTER_BOUND ( 'NONE', #542, .T. ) ;
#869 = EDGE_LOOP ( 'NONE', ( #337, #899, #472, #220 ) ) ;
#870 = VECTOR ( 'NONE', #771, 1000.000000000000000 ) ;
#871 = EDGE_CURVE ( 'NONE', #624, #323, #551, .T. ) ;
#872 = ORIENTED_EDGE ( 'NONE', *, *, #293, .T. ) ;
#873 = DIRECTION ( 'NONE',  ( 1.000000000000000000, -0.000000000000000000, -0.000000000000000000 ) ) ;
#874 = ADVANCED_FACE ( 'NONE', ( #299 ), #645, .T. ) ;
#875 = DIRECTION ( 'NONE',  ( 0.000000000000000000, 1.000000000000000000, 0.000000000000000000 ) ) ;
#876 = DIRECTION ( 'NONE',  ( -1.000000000000000000, -2.204222968204329341E-16, -0.000000000000000000 ) ) ;
#877 = ORIENTED_EDGE ( 'NONE', *, *, #494, .T. ) ;
#878 = CARTESIAN_POINT ( 'NONE',  ( 9.850000000000003197, -3.934999999999995612, -0.1250000000000001110 ) ) ;
#879 = DIRECTION ( 'NONE',  ( 1.000000000000000000, 0.000000000000000000, -0.000000000000000000 ) ) ;
#880 = CARTESIAN_POINT ( 'NONE',  ( -2.794999999999989271, -3.934999999999999165, -0.1250000000000000000 ) ) ;
#881 = EDGE_CURVE ( 'NONE', #301, #445, #894, .T. ) ;
#882 = ORIENTED_EDGE ( 'NONE', *, *, #100, .T. ) ;
#883 = ORIENTED_EDGE ( 'NONE', *, *, #212, .T. ) ;
#884 = DIRECTION ( 'NONE',  ( 1.000000000000000000, 0.000000000000000000, 0.000000000000000000 ) ) ;
#885 = DIRECTION ( 'NONE',  ( 0.000000000000000000, -0.000000000000000000, 1.000000000000000000 ) ) ;
#886 = FACE_OUTER_BOUND ( 'NONE', #854, .T. ) ;
#887 = ORIENTED_EDGE ( 'NONE', *, *, #518, .F. ) ;
#888 = DIRECTION ( 'NONE',  ( -1.000000000000000000, -9.107298248878237246E-15, 0.000000000000000000 ) ) ;
#889 = EDGE_CURVE ( 'NONE', #147, #897, #1047, .T. ) ;
#890 = DIRECTION ( 'NONE',  ( -1.000000000000000000, -8.673617379884035472E-16, 0.000000000000000000 ) ) ;
#891 = CARTESIAN_POINT ( 'NONE',  ( -9.849999999999999645, -3.935000000000000053, -0.1250000000000001110 ) ) ;
#892 = ORIENTED_EDGE ( 'NONE', *, *, #176, .F. ) ;
#893 = VECTOR ( 'NONE', #550, 1000.000000000000000 ) ;
#894 = LINE ( 'NONE', #145, #396 ) ;
#895 = FACE_OUTER_BOUND ( 'NONE', #247, .T. ) ;
#896 =( NAMED_UNIT ( * ) PLANE_ANGLE_UNIT ( ) SI_UNIT ( $, .RADIAN. ) );
#897 = VERTEX_POINT ( 'NONE', #711 ) ;
#898 = EDGE_CURVE ( 'NONE', #219, #147, #291, .T. ) ;
#899 = ORIENTED_EDGE ( 'NONE', *, *, #793, .F. ) ;
#900 = CARTESIAN_POINT ( 'NONE',  ( -7.874999999999994671, -3.934999999999999165, -0.1250000000000000000 ) ) ;
#901 = DIRECTION ( 'NONE',  ( -0.000000000000000000, -0.000000000000000000, -1.000000000000000000 ) ) ;
#902 = ADVANCED_FACE ( 'NONE', ( #546 ), #130, .F. ) ;
#903 = DIRECTION ( 'NONE',  ( -4.942232125290051194E-16, 1.000000000000000000, 0.000000000000000000 ) ) ;
#904 = VECTOR ( 'NONE', #439, 1000.000000000000114 ) ;
#905 = ORIENTED_EDGE ( 'NONE', *, *, #569, .F. ) ;
#906 = ORIENTED_EDGE ( 'NONE', *, *, #289, .F. ) ;
#907 = EDGE_CURVE ( 'NONE', #985, #643, #967, .T. ) ;
#908 = DIRECTION ( 'NONE',  ( 0.000000000000000000, -0.000000000000000000, 1.000000000000000000 ) ) ;
#909 = CARTESIAN_POINT ( 'NONE',  ( -2.285000000000017906, -4.444999999999998508, 0.1250000000000000000 ) ) ;
#910 =( LENGTH_UNIT ( ) NAMED_UNIT ( * ) SI_UNIT ( .MILLI., .METRE. ) );
#911 = EDGE_CURVE ( 'NONE', #619, #391, #470, .T. ) ;
#912 = CARTESIAN_POINT ( 'NONE',  ( -2.285000000000017906, -4.444999999999998508, -0.1250000000000000000 ) ) ;
#913 = ORIENTED_EDGE ( 'NONE', *, *, #215, .T. ) ;
#914 = CARTESIAN_POINT ( 'NONE',  ( -1.782147842886064204, -3.934999999999998277, -0.1250000000000001110 ) ) ;
#915 = DIRECTION ( 'NONE',  ( 0.000000000000000000, 0.000000000000000000, -1.000000000000000000 ) ) ;
#916 = VECTOR ( 'NONE', #1035, 1000.000000000000000 ) ;
#917 =( NAMED_UNIT ( * ) SI_UNIT ( $, .STERADIAN. ) SOLID_ANGLE_UNIT ( ) );
#918 = CARTESIAN_POINT ( 'NONE',  ( 7.364999999999994884, -3.934999999999997389, 0.1250000000000000000 ) ) ;
#919 = UNCERTAINTY_MEASURE_WITH_UNIT (LENGTH_MEASURE( 1.000000000000000082E-05 ), #910, 'distance_accuracy_value', 'NONE');
#920 = VERTEX_POINT ( 'NONE', #732 ) ;
#921 = CARTESIAN_POINT ( 'NONE',  ( 2.795000000000003926, -7.444999999999998508, -0.1250000000000000000 ) ) ;
#922 = DIRECTION ( 'NONE',  ( -1.000000000000000000, -3.953785700232040166E-15, 0.000000000000000000 ) ) ;
#923 = FACE_OUTER_BOUND ( 'NONE', #483, .T. ) ;
#924 = VECTOR ( 'NONE', #735, 1000.000000000000000 ) ;
#925 = ORIENTED_EDGE ( 'NONE', *, *, #19, .T. ) ;
#926 = ADVANCED_FACE ( 'NONE', ( #463 ), #800, .F. ) ;
#927 = FACE_OUTER_BOUND ( 'NONE', #89, .T. ) ;
#928 = CARTESIAN_POINT ( 'NONE',  ( 7.874999999999994671, -3.934999999999997389, -0.1250000000000000000 ) ) ;
#929 = VECTOR ( 'NONE', #594, 1000.000000000000000 ) ;
#930 = LINE ( 'NONE', #513, #627 ) ;
#931 = VERTEX_POINT ( 'NONE', #716 ) ;
#932 = PRODUCT_DEFINITION ( 'UNKNOWN', '', #324, #205 ) ;
#933 = LINE ( 'NONE', #839, #683 ) ;
#934 = CARTESIAN_POINT ( 'NONE',  ( -7.874999999999994671, -3.934999999999999165, 0.1250000000000000000 ) ) ;
#935 = VECTOR ( 'NONE', #727, 1000.000000000000000 ) ;
#936 = ORIENTED_EDGE ( 'NONE', *, *, #981, .T. ) ;
#937 = DIRECTION ( 'NONE',  ( -4.942232125290050208E-16, 1.000000000000000000, -0.000000000000000000 ) ) ;
#938 = EDGE_CURVE ( 'NONE', #432, #656, #961, .T. ) ;
#939 = DIRECTION ( 'NONE',  ( -1.000000000000000000, -2.204222968204329341E-16, -0.000000000000000000 ) ) ;
#940 = VERTEX_POINT ( 'NONE', #136 ) ;
#941 = DIRECTION ( 'NONE',  ( -1.000000000000000000, -2.204222968204329094E-16, -0.000000000000000000 ) ) ;
#942 = DIRECTION ( 'NONE',  ( 4.942232125290050208E-16, -1.000000000000000000, 0.000000000000000000 ) ) ;
#943 = ORIENTED_EDGE ( 'NONE', *, *, #621, .F. ) ;
#944 = PLANE ( 'NONE',  #179 ) ;
#945 = CARTESIAN_POINT ( 'NONE',  ( 0.000000000000000000, 0.000000000000000000, -0.1250000000000000000 ) ) ;
#946 = EDGE_LOOP ( 'NONE', ( #882, #591, #229, #629 ) ) ;
#947 = CARTESIAN_POINT ( 'NONE',  ( 7.364999999999994884, -7.444999999999996732, 0.1250000000000000000 ) ) ;
#948 = DIRECTION ( 'NONE',  ( -9.107298248878237246E-15, 1.000000000000000000, -0.000000000000000000 ) ) ;
#949 = ADVANCED_FACE ( 'NONE', ( #475 ), #806, .F. ) ;
#950 = ORIENTED_EDGE ( 'NONE', *, *, #522, .F. ) ;
#951 = ORIENTED_EDGE ( 'NONE', *, *, #465, .T. ) ;
#952 = VECTOR ( 'NONE', #198, 1000.000000000000227 ) ;
#953 = PLANE ( 'NONE',  #791 ) ;
#954 = DIRECTION ( 'NONE',  ( -0.000000000000000000, -0.000000000000000000, -1.000000000000000000 ) ) ;
#955 = DIRECTION ( 'NONE',  ( -0.000000000000000000, -0.000000000000000000, -1.000000000000000000 ) ) ;
#956 = ORIENTED_EDGE ( 'NONE', *, *, #450, .F. ) ;
#957 = VECTOR ( 'NONE', #425, 1000.000000000000000 ) ;
#958 = EDGE_LOOP ( 'NONE', ( #951, #584, #343, #319, #755, #132, #325, #144, #872, #256, #783, #563 ) ) ;
#959 = EDGE_CURVE ( 'NONE', #459, #796, #561, .T. ) ;
#960 = CARTESIAN_POINT ( 'NONE',  ( 0.000000000000000000, 0.000000000000000000, 0.1250000000000000000 ) ) ;
#961 = LINE ( 'NONE', #222, #446 ) ;
#962 = DIRECTION ( 'NONE',  ( -0.000000000000000000, -0.000000000000000000, -1.000000000000000000 ) ) ;
#963 = ORIENTED_EDGE ( 'NONE', *, *, #525, .F. ) ;
#964 = EDGE_LOOP ( 'NONE', ( #834, #570, #36, #357 ) ) ;
#965 = PRESENTATION_LAYER_ASSIGNMENT (  '', '', ( #358 ) ) ;
#966 = CARTESIAN_POINT ( 'NONE',  ( -9.849999999999999645, 3.435000000000001386, -2.825000000000000178 ) ) ;
#967 = LINE ( 'NONE', #794, #774 ) ;
#968 = CARTESIAN_POINT ( 'NONE',  ( -2.794999999999988827, -7.444999999999998508, 0.1250000000000000000 ) ) ;
#969 = ORIENTED_EDGE ( 'NONE', *, *, #327, .F. ) ;
#970 = ORIENTED_EDGE ( 'NONE', *, *, #938, .T. ) ;
#971 = EDGE_CURVE ( 'NONE', #323, #445, #812, .T. ) ;
#972 = VECTOR ( 'NONE', #590, 1000.000000000000000 ) ;
#973 = CARTESIAN_POINT ( 'NONE',  ( -7.364999999999993108, -3.934999999999999165, 0.1250000000000000000 ) ) ;
#974 = PLANE ( 'NONE',  #18 ) ;
#975 = LINE ( 'NONE', #567, #924 ) ;
#976 = PLANE ( 'NONE',  #640 ) ;
#977 = CARTESIAN_POINT ( 'NONE',  ( -2.794999999999989271, -3.934999999999999165, 0.1250000000000000000 ) ) ;
#978 = CARTESIAN_POINT ( 'NONE',  ( 9.849999999999999645, 3.815476877515382892, -0.6753056420381199354 ) ) ;
#979 = ORIENTED_EDGE ( 'NONE', *, *, #680, .T. ) ;
#980 = STYLED_ITEM ( 'NONE', ( #744 ), #1045 ) ;
#981 = EDGE_CURVE ( 'NONE', #275, #931, #6, .T. ) ;
#982 = VECTOR ( 'NONE', #206, 1000.000000000000000 ) ;
#983 = CARTESIAN_POINT ( 'NONE',  ( 9.849999999999999645, 3.815476877515382892, -0.6753056420381199354 ) ) ;
#984 = LINE ( 'NONE', #738, #317 ) ;
#985 = VERTEX_POINT ( 'NONE', #419 ) ;
#986 = EDGE_CURVE ( 'NONE', #455, #667, #572, .T. ) ;
#987 = MANIFOLD_SOLID_BREP ( 'Cut-Extrude2', #313 ) ;
#988 = EDGE_LOOP ( 'NONE', ( #764, #138, #887, #473 ) ) ;
#989 = ADVANCED_FACE ( 'NONE', ( #832 ), #328, .F. ) ;
#990 =( NAMED_UNIT ( * ) SI_UNIT ( $, .STERADIAN. ) SOLID_ANGLE_UNIT ( ) );
#991 = LINE ( 'NONE', #909, #155 ) ;
#992 =( NAMED_UNIT ( * ) PLANE_ANGLE_UNIT ( ) SI_UNIT ( $, .RADIAN. ) );
#993 = AXIS2_PLACEMENT_3D ( 'NONE', #977, #146, #76 ) ;
#994 = ORIENTED_EDGE ( 'NONE', *, *, #428, .T. ) ;
#995 = ORIENTED_EDGE ( 'NONE', *, *, #529, .F. ) ;
#996 = DIRECTION ( 'NONE',  ( 0.000000000000000000, -0.1742824260697357908, -0.9846957072940081268 ) ) ;
#997 = LINE ( 'NONE', #157, #850 ) ;
#998 = PLANE ( 'NONE',  #81 ) ;
#999 = EDGE_LOOP ( 'NONE', ( #385, #225, #102, #864, #979, #1069 ) ) ;
#1000 = CARTESIAN_POINT ( 'NONE',  ( -9.850000000000001421, 3.935000000000000941, 2.825000000000000178 ) ) ;
#1001 = VECTOR ( 'NONE', #954, 1000.000000000000000 ) ;
#1002 = CARTESIAN_POINT ( 'NONE',  ( 0.000000000000000000, 0.000000000000000000, 0.000000000000000000 ) ) ;
#1003 = CARTESIAN_POINT ( 'NONE',  ( -2.794999999999988827, -7.444999999999998508, 0.1250000000000000000 ) ) ;
#1004 = ORIENTED_EDGE ( 'NONE', *, *, #907, .F. ) ;
#1005 = EDGE_CURVE ( 'NONE', #1014, #459, #674, .T. ) ;
#1006 = LINE ( 'NONE', #434, #456 ) ;
#1007 = CARTESIAN_POINT ( 'NONE',  ( 9.850000000000003197, -3.834999999999994635, -2.825000000000000178 ) ) ;
#1008 = VECTOR ( 'NONE', #745, 1000.000000000000114 ) ;
#1009 = VERTEX_POINT ( 'NONE', #1071 ) ;
#1010 = FACE_OUTER_BOUND ( 'NONE', #115, .T. ) ;
#1011 = VECTOR ( 'NONE', #890, 1000.000000000000000 ) ;
#1012 = ADVANCED_FACE ( 'NONE', ( #248 ), #242, .F. ) ;
#1013 = CARTESIAN_POINT ( 'NONE',  ( 9.849999999999997868, 3.435000000000005826, -2.825000000000000178 ) ) ;
#1014 = VERTEX_POINT ( 'NONE', #156 ) ;
#1015 = EDGE_CURVE ( 'NONE', #931, #147, #593, .T. ) ;
#1016 = CARTESIAN_POINT ( 'NONE',  ( 9.850000000000003197, -3.834999999999993747, 2.825000000000001066 ) ) ;
#1017 = DIRECTION ( 'NONE',  ( 0.000000000000000000, -0.000000000000000000, 1.000000000000000000 ) ) ;
#1018 = VERTEX_POINT ( 'NONE', #914 ) ;
#1019 = EDGE_CURVE ( 'NONE', #308, #489, #1064, .T. ) ;
#1020 = DIRECTION ( 'NONE',  ( 0.000000000000000000, 1.000000000000000000, 0.000000000000000000 ) ) ;
#1021 = LINE ( 'NONE', #271, #592 ) ;
#1022 = EDGE_LOOP ( 'NONE', ( #411, #963, #199, #739 ) ) ;
#1023 = VECTOR ( 'NONE', #99, 1000.000000000000000 ) ;
#1024 = LINE ( 'NONE', #388, #1033 ) ;
#1025 = LINE ( 'NONE', #184, #466 ) ;
#1026 = LINE ( 'NONE', #113, #438 ) ;
#1027 = ORIENTED_EDGE ( 'NONE', *, *, #512, .F. ) ;
#1028 = DIRECTION ( 'NONE',  ( -1.000000000000000000, -2.204222968204329341E-16, -0.000000000000000000 ) ) ;
#1029 = FACE_OUTER_BOUND ( 'NONE', #869, .T. ) ;
#1030 = CARTESIAN_POINT ( 'NONE',  ( 7.364999999999994884, -7.444999999999996732, -0.1250000000000000000 ) ) ;
#1031 = VECTOR ( 'NONE', #75, 1000.000000000000000 ) ;
#1032 = EDGE_LOOP ( 'NONE', ( #468, #1075, #721, #700 ) ) ;
#1033 = VECTOR ( 'NONE', #214, 1000.000000000000000 ) ;
#1034 = LINE ( 'NONE', #702, #269 ) ;
#1035 = DIRECTION ( 'NONE',  ( -0.000000000000000000, 1.000000000000000000, -0.000000000000000000 ) ) ;
#1036 = CARTESIAN_POINT ( 'NONE',  ( -7.874999999999992895, -7.444999999999998508, 0.1250000000000000000 ) ) ;
#1037 = ORIENTED_EDGE ( 'NONE', *, *, #685, .T. ) ;
#1038 = EDGE_CURVE ( 'NONE', #421, #720, #505, .T. ) ;
#1039 = VERTEX_POINT ( 'NONE', #752 ) ;
#1040 = AXIS2_PLACEMENT_3D ( 'NONE', #807, #915, #311 ) ;
#1041 = CARTESIAN_POINT ( 'NONE',  ( -2.285000000000017906, -4.444999999999998508, 0.1250000000000000000 ) ) ;
#1042 = DIRECTION ( 'NONE',  ( 0.000000000000000000, 0.000000000000000000, 1.000000000000000000 ) ) ;
#1043 = CARTESIAN_POINT ( 'NONE',  ( 7.874999999999996447, -7.444999999999996732, 0.1250000000000000000 ) ) ;
#1044 = ORIENTED_EDGE ( 'NONE', *, *, #618, .F. ) ;
#1045 = ADVANCED_BREP_SHAPE_REPRESENTATION ( 'HE3621A0540', ( #987, #706 ), #690 ) ;
#1046 = CARTESIAN_POINT ( 'NONE',  ( 9.849999999999999645, 3.435000000000005826, -2.825000000000000178 ) ) ;
#1047 = LINE ( 'NONE', #377, #916 ) ;
#1048 = DIRECTION ( 'NONE',  ( 4.770489558936218721E-15, 1.000000000000000000, 0.000000000000000000 ) ) ;
#1049 = ORIENTED_EDGE ( 'NONE', *, *, #678, .F. ) ;
#1050 = EDGE_CURVE ( 'NONE', #219, #586, #166, .T. ) ;
#1051 = ORIENTED_EDGE ( 'NONE', *, *, #785, .F. ) ;
#1052 = AXIS2_PLACEMENT_3D ( 'NONE', #1054, #888, #227 ) ;
#1053 = LINE ( 'NONE', #638, #935 ) ;
#1054 = CARTESIAN_POINT ( 'NONE',  ( -2.285000000000017906, -4.444999999999998508, 0.1250000000000000000 ) ) ;
#1055 = CARTESIAN_POINT ( 'NONE',  ( 1.782147842886064204, -4.444999999999999396, 0.1250000000000000000 ) ) ;
#1056 = EDGE_LOOP ( 'NONE', ( #352, #636, #165, #372 ) ) ;
#1057 = UNCERTAINTY_MEASURE_WITH_UNIT (LENGTH_MEASURE( 1.000000000000000082E-05 ), #85, 'distance_accuracy_value', 'NONE');
#1058 = VECTOR ( 'NONE', #942, 1000.000000000000000 ) ;
#1059 = CARTESIAN_POINT ( 'NONE',  ( 7.874999999999996447, -7.444999999999996732, -0.1250000000000000000 ) ) ;
#1060 = CARTESIAN_POINT ( 'NONE',  ( -2.285000000000017906, -4.444999999999998508, 0.1250000000000000000 ) ) ;
#1061 = ORIENTED_EDGE ( 'NONE', *, *, #203, .T. ) ;
#1062 = ORIENTED_EDGE ( 'NONE', *, *, #691, .T. ) ;
#1063 = VECTOR ( 'NONE', #937, 1000.000000000000000 ) ;
#1064 = LINE ( 'NONE', #162, #462 ) ;
#1065 = EDGE_CURVE ( 'NONE', #560, #538, #1, .T. ) ;
#1066 = LINE ( 'NONE', #322, #631 ) ;
#1067 = CARTESIAN_POINT ( 'NONE',  ( -7.874999999999994671, -3.934999999999999165, 0.1250000000000000000 ) ) ;
#1068 = EDGE_CURVE ( 'NONE', #796, #619, #588, .T. ) ;
#1069 = ORIENTED_EDGE ( 'NONE', *, *, #1019, .T. ) ;
#1070 = VECTOR ( 'NONE', #364, 1000.000000000000000 ) ;
#1071 = CARTESIAN_POINT ( 'NONE',  ( -9.849999999999999645, -3.834999999999999076, -2.825000000000000178 ) ) ;
#1072 = FACE_OUTER_BOUND ( 'NONE', #988, .T. ) ;
#1073 =( LENGTH_UNIT ( ) NAMED_UNIT ( * ) SI_UNIT ( .MILLI., .METRE. ) );
#1074 = FACE_OUTER_BOUND ( 'NONE', #958, .T. ) ;
#1075 = ORIENTED_EDGE ( 'NONE', *, *, #898, .F. ) ;
#1076 = ADVANCED_FACE ( 'NONE', ( #927 ), #172, .F. ) ;
#1077 = SURFACE_STYLE_FILL_AREA ( #151 ) ;
#1078 = DIRECTION ( 'NONE',  ( 1.000000000000000000, -1.724884194524488816E-15, 0.000000000000000000 ) ) ;
#1079 = APPLICATION_PROTOCOL_DEFINITION ( 'draft international standard', 'automotive_design', 1998, #15 ) ;
#1080 = FACE_OUTER_BOUND ( 'NONE', #652, .T. ) ;
#1081 = ORIENTED_EDGE ( 'NONE', *, *, #959, .F. ) ;
ENDSEC;
END-ISO-10303-21;
